solid OpenSCAD_Model
  facet normal 0 0 1
    outer loop
      vertex 93 26.9 3.99
      vertex 95 26.9 3.99
      vertex 95 30.9 3.99
    endloop
  endfacet
  facet normal 0 -0 1
    outer loop
      vertex 93.1522 26.1346 3.99
      vertex 95 26.9 3.99
      vertex 93 26.9 3.99
    endloop
  endfacet
  facet normal 0 0 1
    outer loop
      vertex 95 26.9 3.99
      vertex 94.2346 25.0522 3.99
      vertex 95 24.9 3.99
    endloop
  endfacet
  facet normal 0 0 1
    outer loop
      vertex 95 26.9 3.99
      vertex 93.5858 25.4858 3.99
      vertex 94.2346 25.0522 3.99
    endloop
  endfacet
  facet normal 0 0 1
    outer loop
      vertex 93 26.9 3.99
      vertex 95 30.9 3.99
      vertex 93 30.9 3.99
    endloop
  endfacet
  facet normal 0 0 1
    outer loop
      vertex 95 26.9 3.99
      vertex 93.1522 26.1346 3.99
      vertex 93.5858 25.4858 3.99
    endloop
  endfacet
  facet normal 0 0 1
    outer loop
      vertex 113 26.9 3.99
      vertex 115 26.9 3.99
      vertex 115 30.9 3.99
    endloop
  endfacet
  facet normal 0 0 1
    outer loop
      vertex 115 26.9 3.99
      vertex 113 26.9 3.99
      vertex 114.848 26.1346 3.99
    endloop
  endfacet
  facet normal 0 0 1
    outer loop
      vertex 114.848 26.1346 3.99
      vertex 113 26.9 3.99
      vertex 114.414 25.4858 3.99
    endloop
  endfacet
  facet normal 0 0 1
    outer loop
      vertex 113 26.9 3.99
      vertex 115 30.9 3.99
      vertex 113 30.9 3.99
    endloop
  endfacet
  facet normal 0 0 1
    outer loop
      vertex 114.414 25.4858 3.99
      vertex 113 26.9 3.99
      vertex 113.765 25.0522 3.99
    endloop
  endfacet
  facet normal 0 0 1
    outer loop
      vertex 113 26.9 3.99
      vertex 113 24.9 3.99
      vertex 113.765 25.0522 3.99
    endloop
  endfacet
  facet normal -0 0 1
    outer loop
      vertex 95 26.9 3.99
      vertex 113 24.9 3.99
      vertex 113 26.9 3.99
    endloop
  endfacet
  facet normal 0 0 1
    outer loop
      vertex 113 24.9 3.99
      vertex 95 26.9 3.99
      vertex 95 24.9 3.99
    endloop
  endfacet
  facet normal -0 0 1
    outer loop
      vertex 111 61.9 3.99
      vertex 113 59.9 3.99
      vertex 113 61.9 3.99
    endloop
  endfacet
  facet normal 0 0 1
    outer loop
      vertex 113 59.9 3.99
      vertex 111 61.9 3.99
      vertex 111 59.9 3.99
    endloop
  endfacet
  facet normal 0 0 1
    outer loop
      vertex 113 59.9 3.99
      vertex 115 59.9 3.99
      vertex 114.848 60.6654 3.99
    endloop
  endfacet
  facet normal 0 0 1
    outer loop
      vertex 113 59.9 3.99
      vertex 114.848 60.6654 3.99
      vertex 114.414 61.3142 3.99
    endloop
  endfacet
  facet normal 0 0 1
    outer loop
      vertex 113 59.9 3.99
      vertex 114.414 61.3142 3.99
      vertex 113.765 61.7478 3.99
    endloop
  endfacet
  facet normal 0 0 1
    outer loop
      vertex 113 59.9 3.99
      vertex 113.765 61.7478 3.99
      vertex 113 61.9 3.99
    endloop
  endfacet
  facet normal 0 0 1
    outer loop
      vertex 115 59.9 3.99
      vertex 113 59.9 3.99
      vertex 115 55.9 3.99
    endloop
  endfacet
  facet normal 0 0 1
    outer loop
      vertex 115 55.9 3.99
      vertex 113 59.9 3.99
      vertex 113 55.9 3.99
    endloop
  endfacet
  facet normal -0 0 1
    outer loop
      vertex 95 61.9 3.99
      vertex 97 59.9 3.99
      vertex 97 61.9 3.99
    endloop
  endfacet
  facet normal 0 0 1
    outer loop
      vertex 95 61.9 3.99
      vertex 95 59.9 3.99
      vertex 97 59.9 3.99
    endloop
  endfacet
  facet normal -0 0 1
    outer loop
      vertex 94.2346 61.7478 3.99
      vertex 95 59.9 3.99
      vertex 95 61.9 3.99
    endloop
  endfacet
  facet normal -0 0 1
    outer loop
      vertex 93.5858 61.3142 3.99
      vertex 95 59.9 3.99
      vertex 94.2346 61.7478 3.99
    endloop
  endfacet
  facet normal -0 0 1
    outer loop
      vertex 93.1522 60.6654 3.99
      vertex 95 59.9 3.99
      vertex 93.5858 61.3142 3.99
    endloop
  endfacet
  facet normal 0 0 1
    outer loop
      vertex 95 59.9 3.99
      vertex 93.1522 60.6654 3.99
      vertex 93 59.9 3.99
    endloop
  endfacet
  facet normal 0 0 1
    outer loop
      vertex 95 59.9 3.99
      vertex 93 59.9 3.99
      vertex 95 55.9 3.99
    endloop
  endfacet
  facet normal 0 0 1
    outer loop
      vertex 95 55.9 3.99
      vertex 93 59.9 3.99
      vertex 93 55.9 3.99
    endloop
  endfacet
  facet normal 0.555528 -0.831498 0
    outer loop
      vertex 113.765 25.0522 0
      vertex 114.414 25.4858 3.99
      vertex 113.765 25.0522 3.99
    endloop
  endfacet
  facet normal 0.555528 -0.831498 0
    outer loop
      vertex 114.414 25.4858 3.99
      vertex 113.765 25.0522 0
      vertex 114.414 25.4858 0
    endloop
  endfacet
  facet normal 0.831182 -0.556 0
    outer loop
      vertex 114.414 25.4858 3.99
      vertex 114.848 26.1346 0
      vertex 114.848 26.1346 3.99
    endloop
  endfacet
  facet normal 0.831182 -0.556 0
    outer loop
      vertex 114.848 26.1346 0
      vertex 114.414 25.4858 3.99
      vertex 114.414 25.4858 0
    endloop
  endfacet
  facet normal 0.980846 -0.194785 0
    outer loop
      vertex 114.848 26.1346 3.99
      vertex 115 26.9 0
      vertex 115 26.9 3.99
    endloop
  endfacet
  facet normal 0.980846 -0.194785 0
    outer loop
      vertex 115 26.9 0
      vertex 114.848 26.1346 3.99
      vertex 114.848 26.1346 0
    endloop
  endfacet
  facet normal 1 -0 0
    outer loop
      vertex 115 26.9 3.99
      vertex 115 30.9 0
      vertex 115 30.9 3.99
    endloop
  endfacet
  facet normal 1 0 0
    outer loop
      vertex 115 30.9 0
      vertex 115 26.9 3.99
      vertex 115 26.9 0
    endloop
  endfacet
  facet normal 1 -0 0
    outer loop
      vertex 115 55.9 3.99
      vertex 115 59.9 0
      vertex 115 59.9 3.99
    endloop
  endfacet
  facet normal 1 0 0
    outer loop
      vertex 115 59.9 0
      vertex 115 55.9 3.99
      vertex 115 55.9 0
    endloop
  endfacet
  facet normal 0.980846 0.194785 0
    outer loop
      vertex 115 59.9 3.99
      vertex 114.848 60.6654 0
      vertex 114.848 60.6654 3.99
    endloop
  endfacet
  facet normal 0.980846 0.194785 0
    outer loop
      vertex 114.848 60.6654 0
      vertex 115 59.9 3.99
      vertex 115 59.9 0
    endloop
  endfacet
  facet normal 0.831182 0.556 0
    outer loop
      vertex 114.848 60.6654 3.99
      vertex 114.414 61.3142 0
      vertex 114.414 61.3142 3.99
    endloop
  endfacet
  facet normal 0.831182 0.556 0
    outer loop
      vertex 114.414 61.3142 0
      vertex 114.848 60.6654 3.99
      vertex 114.848 60.6654 0
    endloop
  endfacet
  facet normal 0.555528 0.831498 -0
    outer loop
      vertex 114.414 61.3142 0
      vertex 113.765 61.7478 3.99
      vertex 114.414 61.3142 3.99
    endloop
  endfacet
  facet normal 0.555528 0.831498 0
    outer loop
      vertex 113.765 61.7478 3.99
      vertex 114.414 61.3142 0
      vertex 113.765 61.7478 0
    endloop
  endfacet
  facet normal 0.19513 0.980777 -0
    outer loop
      vertex 113.765 61.7478 0
      vertex 113 61.9 3.99
      vertex 113.765 61.7478 3.99
    endloop
  endfacet
  facet normal 0.19513 0.980777 0
    outer loop
      vertex 113 61.9 3.99
      vertex 113.765 61.7478 0
      vertex 113 61.9 0
    endloop
  endfacet
  facet normal 0 1 -0
    outer loop
      vertex 113 61.9 0
      vertex 111 61.9 3.99
      vertex 113 61.9 3.99
    endloop
  endfacet
  facet normal 0 1 0
    outer loop
      vertex 111 61.9 3.99
      vertex 113 61.9 0
      vertex 111 61.9 0
    endloop
  endfacet
  facet normal -1 0 0
    outer loop
      vertex 111 59.9 0
      vertex 111 61.9 3.99
      vertex 111 61.9 0
    endloop
  endfacet
  facet normal -1 -0 0
    outer loop
      vertex 111 61.9 3.99
      vertex 111 59.9 0
      vertex 111 59.9 3.99
    endloop
  endfacet
  facet normal 0 -1 0
    outer loop
      vertex 111 59.9 0
      vertex 113 59.9 3.99
      vertex 111 59.9 3.99
    endloop
  endfacet
  facet normal 0 -1 -0
    outer loop
      vertex 113 59.9 3.99
      vertex 111 59.9 0
      vertex 113 59.9 0
    endloop
  endfacet
  facet normal -1 0 0
    outer loop
      vertex 113 26.9 0
      vertex 113 30.9 3.99
      vertex 113 30.9 0
    endloop
  endfacet
  facet normal -1 -0 0
    outer loop
      vertex 113 30.9 3.99
      vertex 113 26.9 0
      vertex 113 26.9 3.99
    endloop
  endfacet
  facet normal -1 0 0
    outer loop
      vertex 113 55.9 0
      vertex 113 59.9 3.99
      vertex 113 59.9 0
    endloop
  endfacet
  facet normal -1 -0 0
    outer loop
      vertex 113 59.9 3.99
      vertex 113 55.9 0
      vertex 113 55.9 3.99
    endloop
  endfacet
  facet normal 0 1 -0
    outer loop
      vertex 113 26.9 0
      vertex 95 26.9 3.99
      vertex 113 26.9 3.99
    endloop
  endfacet
  facet normal 0 1 0
    outer loop
      vertex 95 26.9 3.99
      vertex 113 26.9 0
      vertex 95 26.9 0
    endloop
  endfacet
  facet normal 1 -0 0
    outer loop
      vertex 95 26.9 3.99
      vertex 95 30.9 0
      vertex 95 30.9 3.99
    endloop
  endfacet
  facet normal 1 0 0
    outer loop
      vertex 95 30.9 0
      vertex 95 26.9 3.99
      vertex 95 26.9 0
    endloop
  endfacet
  facet normal 1 -0 0
    outer loop
      vertex 95 55.9 3.99
      vertex 95 59.9 0
      vertex 95 59.9 3.99
    endloop
  endfacet
  facet normal 1 0 0
    outer loop
      vertex 95 59.9 0
      vertex 95 55.9 3.99
      vertex 95 55.9 0
    endloop
  endfacet
  facet normal 0 -1 0
    outer loop
      vertex 95 59.9 0
      vertex 97 59.9 3.99
      vertex 95 59.9 3.99
    endloop
  endfacet
  facet normal 0 -1 -0
    outer loop
      vertex 97 59.9 3.99
      vertex 95 59.9 0
      vertex 97 59.9 0
    endloop
  endfacet
  facet normal 1 -0 0
    outer loop
      vertex 97 59.9 3.99
      vertex 97 61.9 0
      vertex 97 61.9 3.99
    endloop
  endfacet
  facet normal 1 0 0
    outer loop
      vertex 97 61.9 0
      vertex 97 59.9 3.99
      vertex 97 59.9 0
    endloop
  endfacet
  facet normal 0 1 -0
    outer loop
      vertex 97 61.9 0
      vertex 95 61.9 3.99
      vertex 97 61.9 3.99
    endloop
  endfacet
  facet normal 0 1 0
    outer loop
      vertex 95 61.9 3.99
      vertex 97 61.9 0
      vertex 95 61.9 0
    endloop
  endfacet
  facet normal -0.195032 0.980797 0
    outer loop
      vertex 95 61.9 0
      vertex 94.2346 61.7478 3.99
      vertex 95 61.9 3.99
    endloop
  endfacet
  facet normal -0.195032 0.980797 0
    outer loop
      vertex 94.2346 61.7478 3.99
      vertex 95 61.9 0
      vertex 94.2346 61.7478 0
    endloop
  endfacet
  facet normal -0.555646 0.831419 0
    outer loop
      vertex 94.2346 61.7478 0
      vertex 93.5858 61.3142 3.99
      vertex 94.2346 61.7478 3.99
    endloop
  endfacet
  facet normal -0.555646 0.831419 0
    outer loop
      vertex 93.5858 61.3142 3.99
      vertex 94.2346 61.7478 0
      vertex 93.5858 61.3142 0
    endloop
  endfacet
  facet normal -0.831419 0.555646 0
    outer loop
      vertex 93.1522 60.6654 0
      vertex 93.5858 61.3142 3.99
      vertex 93.5858 61.3142 0
    endloop
  endfacet
  facet normal -0.831419 0.555646 0
    outer loop
      vertex 93.5858 61.3142 3.99
      vertex 93.1522 60.6654 0
      vertex 93.1522 60.6654 3.99
    endloop
  endfacet
  facet normal -0.980797 0.195032 0
    outer loop
      vertex 93 59.9 0
      vertex 93.1522 60.6654 3.99
      vertex 93.1522 60.6654 0
    endloop
  endfacet
  facet normal -0.980797 0.195032 0
    outer loop
      vertex 93.1522 60.6654 3.99
      vertex 93 59.9 0
      vertex 93 59.9 3.99
    endloop
  endfacet
  facet normal -1 0 0
    outer loop
      vertex 93 26.9 0
      vertex 93 30.9 3.99
      vertex 93 30.9 0
    endloop
  endfacet
  facet normal -1 -0 0
    outer loop
      vertex 93 30.9 3.99
      vertex 93 26.9 0
      vertex 93 26.9 3.99
    endloop
  endfacet
  facet normal -1 0 0
    outer loop
      vertex 93 55.9 0
      vertex 93 59.9 3.99
      vertex 93 59.9 0
    endloop
  endfacet
  facet normal -1 -0 0
    outer loop
      vertex 93 59.9 3.99
      vertex 93 55.9 0
      vertex 93 55.9 3.99
    endloop
  endfacet
  facet normal -0.980797 -0.195032 0
    outer loop
      vertex 93.1522 26.1346 0
      vertex 93 26.9 3.99
      vertex 93 26.9 0
    endloop
  endfacet
  facet normal -0.980797 -0.195032 0
    outer loop
      vertex 93 26.9 3.99
      vertex 93.1522 26.1346 0
      vertex 93.1522 26.1346 3.99
    endloop
  endfacet
  facet normal -0.831419 -0.555646 0
    outer loop
      vertex 93.5858 25.4858 0
      vertex 93.1522 26.1346 3.99
      vertex 93.1522 26.1346 0
    endloop
  endfacet
  facet normal -0.831419 -0.555646 0
    outer loop
      vertex 93.1522 26.1346 3.99
      vertex 93.5858 25.4858 0
      vertex 93.5858 25.4858 3.99
    endloop
  endfacet
  facet normal -0.555646 -0.831419 0
    outer loop
      vertex 93.5858 25.4858 0
      vertex 94.2346 25.0522 3.99
      vertex 93.5858 25.4858 3.99
    endloop
  endfacet
  facet normal -0.555646 -0.831419 -0
    outer loop
      vertex 94.2346 25.0522 3.99
      vertex 93.5858 25.4858 0
      vertex 94.2346 25.0522 0
    endloop
  endfacet
  facet normal -0.195032 -0.980797 0
    outer loop
      vertex 94.2346 25.0522 0
      vertex 95 24.9 3.99
      vertex 94.2346 25.0522 3.99
    endloop
  endfacet
  facet normal -0.195032 -0.980797 -0
    outer loop
      vertex 95 24.9 3.99
      vertex 94.2346 25.0522 0
      vertex 95 24.9 0
    endloop
  endfacet
  facet normal 0 -1 0
    outer loop
      vertex 95 24.9 0
      vertex 113 24.9 3.99
      vertex 95 24.9 3.99
    endloop
  endfacet
  facet normal 0 -1 -0
    outer loop
      vertex 113 24.9 3.99
      vertex 95 24.9 0
      vertex 113 24.9 0
    endloop
  endfacet
  facet normal 0.19513 -0.980777 0
    outer loop
      vertex 113 24.9 0
      vertex 113.765 25.0522 3.99
      vertex 113 24.9 3.99
    endloop
  endfacet
  facet normal 0.19513 -0.980777 0
    outer loop
      vertex 113.765 25.0522 3.99
      vertex 113 24.9 0
      vertex 113.765 25.0522 0
    endloop
  endfacet
  facet normal 0 -1 0
    outer loop
      vertex 93 55.9 0
      vertex 95 55.9 3.99
      vertex 93 55.9 3.99
    endloop
  endfacet
  facet normal 0 -1 -0
    outer loop
      vertex 95 55.9 3.99
      vertex 93 55.9 0
      vertex 95 55.9 0
    endloop
  endfacet
  facet normal 0 -1 0
    outer loop
      vertex 113 55.9 0
      vertex 115 55.9 3.99
      vertex 113 55.9 3.99
    endloop
  endfacet
  facet normal 0 -1 -0
    outer loop
      vertex 115 55.9 3.99
      vertex 113 55.9 0
      vertex 115 55.9 0
    endloop
  endfacet
  facet normal 0 1 -0
    outer loop
      vertex 95 30.9 0
      vertex 93 30.9 3.99
      vertex 95 30.9 3.99
    endloop
  endfacet
  facet normal 0 1 0
    outer loop
      vertex 93 30.9 3.99
      vertex 95 30.9 0
      vertex 93 30.9 0
    endloop
  endfacet
  facet normal 0 1 -0
    outer loop
      vertex 115 30.9 0
      vertex 113 30.9 3.99
      vertex 115 30.9 3.99
    endloop
  endfacet
  facet normal 0 1 0
    outer loop
      vertex 113 30.9 3.99
      vertex 115 30.9 0
      vertex 113 30.9 0
    endloop
  endfacet
  facet normal 0 0 -1
    outer loop
      vertex 142.541 -36.7486 -1.5
      vertex 142.042 -32.9545 -1.5
      vertex 142.669 -34.8018 -1.5
    endloop
  endfacet
  facet normal 0 0 -1
    outer loop
      vertex 141.679 -38.4983 -1.5
      vertex 142.042 -32.9545 -1.5
      vertex 142.541 -36.7486 -1.5
    endloop
  endfacet
  facet normal 0 0 -1
    outer loop
      vertex 140.212 -39.7846 -1.5
      vertex 142.042 -32.9545 -1.5
      vertex 141.679 -38.4983 -1.5
    endloop
  endfacet
  facet normal 0 0 -1
    outer loop
      vertex 124.963 -15.1021 -1.5
      vertex 142.042 -32.9545 -1.5
      vertex 140.212 -39.7846 -1.5
    endloop
  endfacet
  facet normal 0 0 -1
    outer loop
      vertex 142.042 -32.9545 -1.5
      vertex 124.963 -15.1021 -1.5
      vertex 132.542 -16.5 -1.5
    endloop
  endfacet
  facet normal 0 -0 -1
    outer loop
      vertex 125.712 -14.6699 -1.5
      vertex 132.542 -16.5 -1.5
      vertex 124.963 -15.1021 -1.5
    endloop
  endfacet
  facet normal 0 0 -1
    outer loop
      vertex 132.542 -16.5 -1.5
      vertex 125.712 -14.6699 -1.5
      vertex 131.256 -15.0332 -1.5
    endloop
  endfacet
  facet normal 0 0 -1
    outer loop
      vertex 131.256 -15.0332 -1.5
      vertex 125.712 -14.6699 -1.5
      vertex 129.506 -14.1704 -1.5
    endloop
  endfacet
  facet normal -0 0 -1
    outer loop
      vertex 129.506 -14.1704 -1.5
      vertex 125.712 -14.6699 -1.5
      vertex 127.559 -14.0428 -1.5
    endloop
  endfacet
  facet normal 0 0 -1
    outer loop
      vertex 108.249 -32.4225 -1.5
      vertex 140.212 -39.7846 -1.5
      vertex 123.757 -49.2846 -1.5
    endloop
  endfacet
  facet normal 0 0 -1
    outer loop
      vertex 140.212 -39.7846 -1.5
      vertex 108.249 -32.4225 -1.5
      vertex 124.963 -15.1021 -1.5
    endloop
  endfacet
  facet normal 0 -0 -1
    outer loop
      vertex 116.923 -3.94463 -1.5
      vertex 124.963 -15.1021 -1.5
      vertex 108.249 -32.4225 -1.5
    endloop
  endfacet
  facet normal 0 0 -1
    outer loop
      vertex 116.927 -47.4545 -1.5
      vertex 123.757 -49.2846 -1.5
      vertex 121.91 -49.9117 -1.5
    endloop
  endfacet
  facet normal 0 0 -1
    outer loop
      vertex 116.927 -47.4545 -1.5
      vertex 121.91 -49.9117 -1.5
      vertex 119.963 -49.7841 -1.5
    endloop
  endfacet
  facet normal 0 0 -1
    outer loop
      vertex 116.927 -47.4545 -1.5
      vertex 119.963 -49.7841 -1.5
      vertex 118.214 -48.9212 -1.5
    endloop
  endfacet
  facet normal 0 0 -1
    outer loop
      vertex 123.757 -49.2846 -1.5
      vertex 116.927 -47.4545 -1.5
      vertex 108.249 -32.4225 -1.5
    endloop
  endfacet
  facet normal 0 0 -1
    outer loop
      vertex 124.963 -15.1021 -1.5
      vertex 123.454 -7.71539 -1.5
      vertex 124.921 -9.00171 -1.5
    endloop
  endfacet
  facet normal 0 0 -1
    outer loop
      vertex 124.963 -15.1021 -1.5
      vertex 116.923 -3.94463 -1.5
      vertex 123.454 -7.71539 -1.5
    endloop
  endfacet
  facet normal 0 0 -1
    outer loop
      vertex 93.6603 -24 -1.5
      vertex 116.923 -3.94463 -1.5
      vertex 108.249 -32.4225 -1.5
    endloop
  endfacet
  facet normal 0 0 -1
    outer loop
      vertex 71 -5 -1.5
      vertex 116.923 -3.94463 -1.5
      vertex 93.6603 -24 -1.5
    endloop
  endfacet
  facet normal 0 -0 -1
    outer loop
      vertex 114 62 -1.5
      vertex 116.923 -3.94463 -1.5
      vertex 71 -5 -1.5
    endloop
  endfacet
  facet normal 0 0 -1
    outer loop
      vertex 71 -5 -1.5
      vertex 93.6603 -24 -1.5
      vertex 76 -24 -1.5
    endloop
  endfacet
  facet normal 0 0 -1
    outer loop
      vertex 71 -19 -1.5
      vertex 76 -24 -1.5
      vertex 74.0866 -23.6194 -1.5
    endloop
  endfacet
  facet normal 0 0 -1
    outer loop
      vertex 71 -19 -1.5
      vertex 74.0866 -23.6194 -1.5
      vertex 72.4645 -22.5355 -1.5
    endloop
  endfacet
  facet normal 0 0 -1
    outer loop
      vertex 71 -19 -1.5
      vertex 72.4645 -22.5355 -1.5
      vertex 71.3806 -20.9134 -1.5
    endloop
  endfacet
  facet normal 0 0 -1
    outer loop
      vertex 76 -24 -1.5
      vertex 71 -19 -1.5
      vertex 71 -5 -1.5
    endloop
  endfacet
  facet normal 0 0 -1
    outer loop
      vertex 116.923 -3.94463 -1.5
      vertex 114 62 -1.5
      vertex 115.913 61.6194 -1.5
    endloop
  endfacet
  facet normal 0 0 -1
    outer loop
      vertex 0 62 -1.5
      vertex 71 -5 -1.5
      vertex 0 -5 -1.5
    endloop
  endfacet
  facet normal 0 0 -1
    outer loop
      vertex 71 -5 -1.5
      vertex 0 62 -1.5
      vertex 114 62 -1.5
    endloop
  endfacet
  facet normal 0 0 -1
    outer loop
      vertex -5 0 -1.5
      vertex 0 -5 -1.5
      vertex -1.91342 -4.6194 -1.5
    endloop
  endfacet
  facet normal 0 0 -1
    outer loop
      vertex 0 -5 -1.5
      vertex -5 0 -1.5
      vertex 0 62 -1.5
    endloop
  endfacet
  facet normal 0 0 -1
    outer loop
      vertex -5 0 -1.5
      vertex -1.91342 -4.6194 -1.5
      vertex -3.53554 -3.53554 -1.5
    endloop
  endfacet
  facet normal 0 0 -1
    outer loop
      vertex -5 57 -1.5
      vertex 0 62 -1.5
      vertex -5 0 -1.5
    endloop
  endfacet
  facet normal 0 0 -1
    outer loop
      vertex -5 0 -1.5
      vertex -3.53554 -3.53554 -1.5
      vertex -4.6194 -1.91342 -1.5
    endloop
  endfacet
  facet normal 0 0 -1
    outer loop
      vertex 0 62 -1.5
      vertex -5 57 -1.5
      vertex -1.91342 61.6194 -1.5
    endloop
  endfacet
  facet normal 0 0 -1
    outer loop
      vertex -1.91342 61.6194 -1.5
      vertex -5 57 -1.5
      vertex -3.53554 60.5355 -1.5
    endloop
  endfacet
  facet normal 0 0 -1
    outer loop
      vertex -3.53554 60.5355 -1.5
      vertex -5 57 -1.5
      vertex -4.6194 58.9134 -1.5
    endloop
  endfacet
  facet normal 0 0 -1
    outer loop
      vertex 125.285 -14.5455 -1.5
      vertex 125.784 -10.7514 -1.5
      vertex 125.912 -12.6982 -1.5
    endloop
  endfacet
  facet normal 0 0 -1
    outer loop
      vertex 124.921 -9.00171 -1.5
      vertex 125.285 -14.5455 -1.5
      vertex 124.963 -15.1021 -1.5
    endloop
  endfacet
  facet normal 0 0 -1
    outer loop
      vertex 125.285 -14.5455 -1.5
      vertex 124.921 -9.00171 -1.5
      vertex 125.784 -10.7514 -1.5
    endloop
  endfacet
  facet normal 0 0 -1
    outer loop
      vertex 116.923 -3.94463 -1.5
      vertex 119 0 -1.5
      vertex 118.619 -1.91342 -1.5
    endloop
  endfacet
  facet normal 0 0 -1
    outer loop
      vertex 115.913 61.6194 -1.5
      vertex 119 0 -1.5
      vertex 116.923 -3.94463 -1.5
    endloop
  endfacet
  facet normal 0 0 -1
    outer loop
      vertex 116.923 -3.94463 -1.5
      vertex 118.619 -1.91342 -1.5
      vertex 117.536 -3.53554 -1.5
    endloop
  endfacet
  facet normal 0 0 -1
    outer loop
      vertex 119 0 -1.5
      vertex 115.913 61.6194 -1.5
      vertex 119 57 -1.5
    endloop
  endfacet
  facet normal 0 0 -1
    outer loop
      vertex 119 57 -1.5
      vertex 115.913 61.6194 -1.5
      vertex 118.619 58.9134 -1.5
    endloop
  endfacet
  facet normal 0 0 -1
    outer loop
      vertex 118.619 58.9134 -1.5
      vertex 115.913 61.6194 -1.5
      vertex 117.536 60.5355 -1.5
    endloop
  endfacet
  facet normal 0 0 1
    outer loop
      vertex 115 55.9 0
      vertex 119 57 0
      vertex 118.619 58.9134 0
    endloop
  endfacet
  facet normal 0 0 1
    outer loop
      vertex 119 57 0
      vertex 115 30.9 0
      vertex 119 0 0
    endloop
  endfacet
  facet normal -0 0 1
    outer loop
      vertex 115 59.9 0
      vertex 118.619 58.9134 0
      vertex 117.536 60.5355 0
    endloop
  endfacet
  facet normal -0 0 1
    outer loop
      vertex 115 26.9 0
      vertex 119 0 0
      vertex 115 30.9 0
    endloop
  endfacet
  facet normal -0 0 1
    outer loop
      vertex 114.414 25.4858 0
      vertex 119 0 0
      vertex 114.848 26.1346 0
    endloop
  endfacet
  facet normal 0 0 1
    outer loop
      vertex 115 59.9 0
      vertex 117.536 60.5355 0
      vertex 115.913 61.6194 0
    endloop
  endfacet
  facet normal 0 0 1
    outer loop
      vertex 125.784 -10.7514 0
      vertex 125.285 -14.5455 0
      vertex 125.912 -12.6982 0
    endloop
  endfacet
  facet normal 0 0 1
    outer loop
      vertex 124.921 -9.00171 0
      vertex 125.285 -14.5455 0
      vertex 125.784 -10.7514 0
    endloop
  endfacet
  facet normal 0 0 1
    outer loop
      vertex 123.454 -7.71539 0
      vertex 125.285 -14.5455 0
      vertex 124.921 -9.00171 0
    endloop
  endfacet
  facet normal 0 0 1
    outer loop
      vertex 142.042 -32.9545 0
      vertex 142.541 -36.7486 0
      vertex 142.669 -34.8018 0
    endloop
  endfacet
  facet normal 0 0 1
    outer loop
      vertex 142.042 -32.9545 0
      vertex 141.679 -38.4983 0
      vertex 142.541 -36.7486 0
    endloop
  endfacet
  facet normal 0 0 1
    outer loop
      vertex 142.042 -32.9545 0
      vertex 140.212 -39.7846 0
      vertex 141.679 -38.4983 0
    endloop
  endfacet
  facet normal 0 0 1
    outer loop
      vertex 124.963 -15.1021 0
      vertex 142.042 -32.9545 0
      vertex 132.542 -16.5 0
    endloop
  endfacet
  facet normal 0 0 1
    outer loop
      vertex 125.712 -14.6699 0
      vertex 132.542 -16.5 0
      vertex 131.256 -15.0332 0
    endloop
  endfacet
  facet normal -0 0 1
    outer loop
      vertex 125.712 -14.6699 0
      vertex 131.256 -15.0332 0
      vertex 129.506 -14.1704 0
    endloop
  endfacet
  facet normal 0 0 1
    outer loop
      vertex 125.712 -14.6699 0
      vertex 129.506 -14.1704 0
      vertex 127.559 -14.0428 0
    endloop
  endfacet
  facet normal 0 0 1
    outer loop
      vertex 132.542 -16.5 0
      vertex 125.712 -14.6699 0
      vertex 124.963 -15.1021 0
    endloop
  endfacet
  facet normal 0 0 1
    outer loop
      vertex 142.042 -32.9545 0
      vertex 124.963 -15.1021 0
      vertex 140.212 -39.7846 0
    endloop
  endfacet
  facet normal -0 0 1
    outer loop
      vertex 108.249 -32.4225 0
      vertex 140.212 -39.7846 0
      vertex 124.963 -15.1021 0
    endloop
  endfacet
  facet normal 0 0 1
    outer loop
      vertex 125.285 -14.5455 0
      vertex 123.454 -7.71539 0
      vertex 124.963 -15.1021 0
    endloop
  endfacet
  facet normal 0 0 1
    outer loop
      vertex 116.923 -3.94463 0
      vertex 124.963 -15.1021 0
      vertex 123.454 -7.71539 0
    endloop
  endfacet
  facet normal 0 0 1
    outer loop
      vertex 140.212 -39.7846 0
      vertex 108.249 -32.4225 0
      vertex 123.757 -49.2846 0
    endloop
  endfacet
  facet normal -0 -0 1
    outer loop
      vertex 116.927 -47.4545 0
      vertex 123.757 -49.2846 0
      vertex 108.249 -32.4225 0
    endloop
  endfacet
  facet normal 0 0 1
    outer loop
      vertex 121.91 -49.9117 0
      vertex 116.927 -47.4545 0
      vertex 119.963 -49.7841 0
    endloop
  endfacet
  facet normal 0 0 1
    outer loop
      vertex 119.963 -49.7841 0
      vertex 116.927 -47.4545 0
      vertex 118.214 -48.9212 0
    endloop
  endfacet
  facet normal 0 0 1
    outer loop
      vertex 124.963 -15.1021 0
      vertex 116.923 -3.94463 0
      vertex 108.249 -32.4225 0
    endloop
  endfacet
  facet normal -0 0 1
    outer loop
      vertex 114.848 26.1346 0
      vertex 119 0 0
      vertex 115 26.9 0
    endloop
  endfacet
  facet normal 0 0 1
    outer loop
      vertex 118.619 58.9134 0
      vertex 115 59.9 0
      vertex 115 55.9 0
    endloop
  endfacet
  facet normal 0 0 1
    outer loop
      vertex 119 57 0
      vertex 115 55.9 0
      vertex 115 30.9 0
    endloop
  endfacet
  facet normal -0 0 1
    outer loop
      vertex 113.765 25.0522 0
      vertex 119 0 0
      vertex 114.414 25.4858 0
    endloop
  endfacet
  facet normal -0 0 1
    outer loop
      vertex 113 24.9 0
      vertex 119 0 0
      vertex 113.765 25.0522 0
    endloop
  endfacet
  facet normal -0 0 1
    outer loop
      vertex 95 24.9 0
      vertex 119 0 0
      vertex 113 24.9 0
    endloop
  endfacet
  facet normal 0 -0 1
    outer loop
      vertex 116.923 -3.94463 0
      vertex 119 0 0
      vertex 95 24.9 0
    endloop
  endfacet
  facet normal 0 0 1
    outer loop
      vertex 118.619 -1.91342 0
      vertex 116.923 -3.94463 0
      vertex 117.536 -3.53554 0
    endloop
  endfacet
  facet normal 0 0 1
    outer loop
      vertex 119 0 0
      vertex 116.923 -3.94463 0
      vertex 118.619 -1.91342 0
    endloop
  endfacet
  facet normal 0 0 1
    outer loop
      vertex 123.757 -49.2846 0
      vertex 116.927 -47.4545 0
      vertex 121.91 -49.9117 0
    endloop
  endfacet
  facet normal 0 0 1
    outer loop
      vertex 71 -5 0
      vertex 116.923 -3.94463 0
      vertex 95 24.9 0
    endloop
  endfacet
  facet normal 0 0 1
    outer loop
      vertex 71 -5 0
      vertex 95 24.9 0
      vertex 94.2346 25.0522 0
    endloop
  endfacet
  facet normal 0 0 1
    outer loop
      vertex 116.923 -3.94463 0
      vertex 93.6603 -24 0
      vertex 108.249 -32.4225 0
    endloop
  endfacet
  facet normal 0 0 1
    outer loop
      vertex 71 -5 0
      vertex 94.2346 25.0522 0
      vertex 93.5858 25.4858 0
    endloop
  endfacet
  facet normal 0 0 1
    outer loop
      vertex 71 -5 0
      vertex 93.5858 25.4858 0
      vertex 93.1522 26.1346 0
    endloop
  endfacet
  facet normal 0 0 1
    outer loop
      vertex 71 -5 0
      vertex 93.1522 26.1346 0
      vertex 93 26.9 0
    endloop
  endfacet
  facet normal 0 0 1
    outer loop
      vertex 116.923 -3.94463 0
      vertex 71 -5 0
      vertex 93.6603 -24 0
    endloop
  endfacet
  facet normal -0 0 1
    outer loop
      vertex 93 55.9 0
      vertex 95 30.9 0
      vertex 95 55.9 0
    endloop
  endfacet
  facet normal 0 0 1
    outer loop
      vertex 95 30.9 0
      vertex 93 55.9 0
      vertex 93 30.9 0
    endloop
  endfacet
  facet normal -0 0 1
    outer loop
      vertex 111 59.9 0
      vertex 113 55.9 0
      vertex 113 59.9 0
    endloop
  endfacet
  facet normal 0 0 1
    outer loop
      vertex 95 55.9 0
      vertex 113 55.9 0
      vertex 111 59.9 0
    endloop
  endfacet
  facet normal 0 0 1
    outer loop
      vertex 113 55.9 0
      vertex 95 55.9 0
      vertex 113 30.9 0
    endloop
  endfacet
  facet normal 0 0 1
    outer loop
      vertex 97 59.9 0
      vertex 111 59.9 0
      vertex 97 61.9 0
    endloop
  endfacet
  facet normal 0 0 1
    outer loop
      vertex 95 55.9 0
      vertex 111 59.9 0
      vertex 97 59.9 0
    endloop
  endfacet
  facet normal 0 0 1
    outer loop
      vertex 95 55.9 0
      vertex 97 59.9 0
      vertex 95 59.9 0
    endloop
  endfacet
  facet normal 0 0 1
    outer loop
      vertex 113 30.9 0
      vertex 95 55.9 0
      vertex 95 30.9 0
    endloop
  endfacet
  facet normal 0 0 1
    outer loop
      vertex 113 30.9 0
      vertex 95 30.9 0
      vertex 113 26.9 0
    endloop
  endfacet
  facet normal 0 0 1
    outer loop
      vertex 113 26.9 0
      vertex 95 30.9 0
      vertex 95 26.9 0
    endloop
  endfacet
  facet normal -0 0 1
    outer loop
      vertex 113 55.9 0
      vertex 115 30.9 0
      vertex 115 55.9 0
    endloop
  endfacet
  facet normal 0 0 1
    outer loop
      vertex 115 30.9 0
      vertex 113 55.9 0
      vertex 113 30.9 0
    endloop
  endfacet
  facet normal 0 0 1
    outer loop
      vertex 115.913 61.6194 0
      vertex 114.848 60.6654 0
      vertex 115 59.9 0
    endloop
  endfacet
  facet normal 0 0 1
    outer loop
      vertex 115.913 61.6194 0
      vertex 114.414 61.3142 0
      vertex 114.848 60.6654 0
    endloop
  endfacet
  facet normal 0 0 1
    outer loop
      vertex 114 62 0
      vertex 114.414 61.3142 0
      vertex 115.913 61.6194 0
    endloop
  endfacet
  facet normal 0 0 1
    outer loop
      vertex 114 62 0
      vertex 113.765 61.7478 0
      vertex 114.414 61.3142 0
    endloop
  endfacet
  facet normal 0 0 1
    outer loop
      vertex 114 62 0
      vertex 113 61.9 0
      vertex 113.765 61.7478 0
    endloop
  endfacet
  facet normal 0 0 1
    outer loop
      vertex 114 62 0
      vertex 111 61.9 0
      vertex 113 61.9 0
    endloop
  endfacet
  facet normal 0 0 1
    outer loop
      vertex 111 61.9 0
      vertex 97 61.9 0
      vertex 111 59.9 0
    endloop
  endfacet
  facet normal 0 0 1
    outer loop
      vertex 114 62 0
      vertex 97 61.9 0
      vertex 111 61.9 0
    endloop
  endfacet
  facet normal 0 0 1
    outer loop
      vertex 114 62 0
      vertex 95 61.9 0
      vertex 97 61.9 0
    endloop
  endfacet
  facet normal 0 0 1
    outer loop
      vertex 0 62 0
      vertex 93 55.9 0
      vertex 93 59.9 0
    endloop
  endfacet
  facet normal 0 0 1
    outer loop
      vertex 93 55.9 0
      vertex 0 62 0
      vertex 93 30.9 0
    endloop
  endfacet
  facet normal 0 -0 1
    outer loop
      vertex 71 -5 0
      vertex 93 30.9 0
      vertex 0 62 0
    endloop
  endfacet
  facet normal 0 0 1
    outer loop
      vertex 0 62 0
      vertex 93 59.9 0
      vertex 93.1522 60.6654 0
    endloop
  endfacet
  facet normal 0 0 1
    outer loop
      vertex 93.6603 -24 0
      vertex 71 -5 0
      vertex 76 -24 0
    endloop
  endfacet
  facet normal -0 0 1
    outer loop
      vertex 71 -19 0
      vertex 76 -24 0
      vertex 71 -5 0
    endloop
  endfacet
  facet normal 0 0 1
    outer loop
      vertex 76 -24 0
      vertex 71 -19 0
      vertex 74.0866 -23.6194 0
    endloop
  endfacet
  facet normal 0 0 1
    outer loop
      vertex 74.0866 -23.6194 0
      vertex 71 -19 0
      vertex 72.4645 -22.5355 0
    endloop
  endfacet
  facet normal -0 0 1
    outer loop
      vertex 0 62 0
      vertex 95 61.9 0
      vertex 114 62 0
    endloop
  endfacet
  facet normal 0 0 1
    outer loop
      vertex 0 62 0
      vertex 94.2346 61.7478 0
      vertex 95 61.9 0
    endloop
  endfacet
  facet normal 0 0 1
    outer loop
      vertex 0 62 0
      vertex 93.5858 61.3142 0
      vertex 94.2346 61.7478 0
    endloop
  endfacet
  facet normal 0 0 1
    outer loop
      vertex 0 62 0
      vertex 93.1522 60.6654 0
      vertex 93.5858 61.3142 0
    endloop
  endfacet
  facet normal 0 0 1
    outer loop
      vertex 93 30.9 0
      vertex 71 -5 0
      vertex 93 26.9 0
    endloop
  endfacet
  facet normal 0 0 1
    outer loop
      vertex 0 62 0
      vertex 0 -5 0
      vertex 71 -5 0
    endloop
  endfacet
  facet normal 0 0 1
    outer loop
      vertex -5 57 0
      vertex 0 62 0
      vertex -1.91342 61.6194 0
    endloop
  endfacet
  facet normal 0 0 1
    outer loop
      vertex 0 62 0
      vertex -5 57 0
      vertex 0 -5 0
    endloop
  endfacet
  facet normal 0 0 1
    outer loop
      vertex -5 57 0
      vertex -1.91342 61.6194 0
      vertex -3.53554 60.5355 0
    endloop
  endfacet
  facet normal -0 0 1
    outer loop
      vertex -5 0 0
      vertex 0 -5 0
      vertex -5 57 0
    endloop
  endfacet
  facet normal 0 0 1
    outer loop
      vertex -5 57 0
      vertex -3.53554 60.5355 0
      vertex -4.6194 58.9134 0
    endloop
  endfacet
  facet normal 0 0 1
    outer loop
      vertex 0 -5 0
      vertex -5 0 0
      vertex -1.91342 -4.6194 0
    endloop
  endfacet
  facet normal 0 0 1
    outer loop
      vertex -1.91342 -4.6194 0
      vertex -5 0 0
      vertex -3.53554 -3.53554 0
    endloop
  endfacet
  facet normal 0 0 1
    outer loop
      vertex -3.53554 -3.53554 0
      vertex -5 0 0
      vertex -4.6194 -1.91342 0
    endloop
  endfacet
  facet normal 0 0 1
    outer loop
      vertex 72.4645 -22.5355 0
      vertex 71 -19 0
      vertex 71.3806 -20.9134 0
    endloop
  endfacet
  facet normal 0.499988 -0.866032 0
    outer loop
      vertex 123.757 -49.2846 -1.5
      vertex 140.212 -39.7846 0
      vertex 123.757 -49.2846 0
    endloop
  endfacet
  facet normal 0.499988 -0.866032 0
    outer loop
      vertex 140.212 -39.7846 0
      vertex 123.757 -49.2846 -1.5
      vertex 140.212 -39.7846 -1.5
    endloop
  endfacet
  facet normal 0.659281 -0.751897 0
    outer loop
      vertex 140.212 -39.7846 -1.5
      vertex 141.679 -38.4983 0
      vertex 140.212 -39.7846 0
    endloop
  endfacet
  facet normal 0.659281 -0.751897 0
    outer loop
      vertex 141.679 -38.4983 0
      vertex 140.212 -39.7846 -1.5
      vertex 141.679 -38.4983 -1.5
    endloop
  endfacet
  facet normal 0.897047 -0.441935 0
    outer loop
      vertex 141.679 -38.4983 0
      vertex 142.541 -36.7486 -1.5
      vertex 142.541 -36.7486 0
    endloop
  endfacet
  facet normal 0.897047 -0.441935 0
    outer loop
      vertex 142.541 -36.7486 -1.5
      vertex 141.679 -38.4983 0
      vertex 141.679 -38.4983 -1.5
    endloop
  endfacet
  facet normal 0.997846 -0.0656073 0
    outer loop
      vertex 142.541 -36.7486 0
      vertex 142.669 -34.8018 -1.5
      vertex 142.669 -34.8018 0
    endloop
  endfacet
  facet normal 0.997846 -0.0656073 0
    outer loop
      vertex 142.669 -34.8018 -1.5
      vertex 142.541 -36.7486 0
      vertex 142.541 -36.7486 -1.5
    endloop
  endfacet
  facet normal 0.946942 0.321406 0
    outer loop
      vertex 142.669 -34.8018 0
      vertex 142.042 -32.9545 -1.5
      vertex 142.042 -32.9545 0
    endloop
  endfacet
  facet normal 0.946942 0.321406 0
    outer loop
      vertex 142.042 -32.9545 -1.5
      vertex 142.669 -34.8018 0
      vertex 142.669 -34.8018 -1.5
    endloop
  endfacet
  facet normal 0.866026 0.5 0
    outer loop
      vertex 142.042 -32.9545 0
      vertex 132.542 -16.5 -1.5
      vertex 132.542 -16.5 0
    endloop
  endfacet
  facet normal 0.866026 0.5 0
    outer loop
      vertex 132.542 -16.5 -1.5
      vertex 142.042 -32.9545 0
      vertex 142.042 -32.9545 -1.5
    endloop
  endfacet
  facet normal 0.751929 0.659245 0
    outer loop
      vertex 132.542 -16.5 0
      vertex 131.256 -15.0332 -1.5
      vertex 131.256 -15.0332 0
    endloop
  endfacet
  facet normal 0.751929 0.659245 0
    outer loop
      vertex 131.256 -15.0332 -1.5
      vertex 132.542 -16.5 0
      vertex 132.542 -16.5 -1.5
    endloop
  endfacet
  facet normal 0.442204 0.896914 -0
    outer loop
      vertex 131.256 -15.0332 -1.5
      vertex 129.506 -14.1704 0
      vertex 131.256 -15.0332 0
    endloop
  endfacet
  facet normal 0.442204 0.896914 0
    outer loop
      vertex 129.506 -14.1704 0
      vertex 131.256 -15.0332 -1.5
      vertex 129.506 -14.1704 -1.5
    endloop
  endfacet
  facet normal 0.0653964 0.997859 -0
    outer loop
      vertex 129.506 -14.1704 -1.5
      vertex 127.559 -14.0428 0
      vertex 129.506 -14.1704 0
    endloop
  endfacet
  facet normal 0.0653964 0.997859 0
    outer loop
      vertex 127.559 -14.0428 0
      vertex 129.506 -14.1704 -1.5
      vertex 127.559 -14.0428 -1.5
    endloop
  endfacet
  facet normal -0.321498 0.94691 0
    outer loop
      vertex 127.559 -14.0428 -1.5
      vertex 125.712 -14.6699 0
      vertex 127.559 -14.0428 0
    endloop
  endfacet
  facet normal -0.321498 0.94691 0
    outer loop
      vertex 125.712 -14.6699 0
      vertex 127.559 -14.0428 -1.5
      vertex 125.712 -14.6699 -1.5
    endloop
  endfacet
  facet normal -0.499796 0.866143 0
    outer loop
      vertex 125.712 -14.6699 -1.5
      vertex 124.963 -15.1021 0
      vertex 125.712 -14.6699 0
    endloop
  endfacet
  facet normal -0.499796 0.866143 0
    outer loop
      vertex 124.963 -15.1021 0
      vertex 125.712 -14.6699 -1.5
      vertex 124.963 -15.1021 -1.5
    endloop
  endfacet
  facet normal 0.865589 -0.500754 0
    outer loop
      vertex 124.963 -15.1021 0
      vertex 125.285 -14.5455 -1.5
      vertex 125.285 -14.5455 0
    endloop
  endfacet
  facet normal 0.865589 -0.500754 0
    outer loop
      vertex 125.285 -14.5455 -1.5
      vertex 124.963 -15.1021 0
      vertex 124.963 -15.1021 -1.5
    endloop
  endfacet
  facet normal 0.946942 -0.321406 0
    outer loop
      vertex 125.285 -14.5455 0
      vertex 125.912 -12.6982 -1.5
      vertex 125.912 -12.6982 0
    endloop
  endfacet
  facet normal 0.946942 -0.321406 0
    outer loop
      vertex 125.912 -12.6982 -1.5
      vertex 125.285 -14.5455 0
      vertex 125.285 -14.5455 -1.5
    endloop
  endfacet
  facet normal 0.997846 0.0656073 0
    outer loop
      vertex 125.912 -12.6982 0
      vertex 125.784 -10.7514 -1.5
      vertex 125.784 -10.7514 0
    endloop
  endfacet
  facet normal 0.997846 0.0656073 0
    outer loop
      vertex 125.784 -10.7514 -1.5
      vertex 125.912 -12.6982 0
      vertex 125.912 -12.6982 -1.5
    endloop
  endfacet
  facet normal 0.896843 0.44235 0
    outer loop
      vertex 125.784 -10.7514 0
      vertex 124.921 -9.00171 -1.5
      vertex 124.921 -9.00171 0
    endloop
  endfacet
  facet normal 0.896843 0.44235 0
    outer loop
      vertex 124.921 -9.00171 -1.5
      vertex 125.784 -10.7514 0
      vertex 125.784 -10.7514 -1.5
    endloop
  endfacet
  facet normal 0.659287 0.751892 -0
    outer loop
      vertex 124.921 -9.00171 -1.5
      vertex 123.454 -7.71539 0
      vertex 124.921 -9.00171 0
    endloop
  endfacet
  facet normal 0.659287 0.751892 0
    outer loop
      vertex 123.454 -7.71539 0
      vertex 124.921 -9.00171 -1.5
      vertex 123.454 -7.71539 -1.5
    endloop
  endfacet
  facet normal 0.500008 0.866021 -0
    outer loop
      vertex 123.454 -7.71539 -1.5
      vertex 116.923 -3.94463 0
      vertex 123.454 -7.71539 0
    endloop
  endfacet
  facet normal 0.500008 0.866021 0
    outer loop
      vertex 116.923 -3.94463 0
      vertex 123.454 -7.71539 -1.5
      vertex 116.923 -3.94463 -1.5
    endloop
  endfacet
  facet normal 0.555098 -0.831785 0
    outer loop
      vertex 116.923 -3.94463 -1.5
      vertex 117.536 -3.53554 0
      vertex 116.923 -3.94463 0
    endloop
  endfacet
  facet normal 0.555098 -0.831785 0
    outer loop
      vertex 117.536 -3.53554 0
      vertex 116.923 -3.94463 -1.5
      vertex 117.536 -3.53554 -1.5
    endloop
  endfacet
  facet normal 0.831675 -0.555263 0
    outer loop
      vertex 117.536 -3.53554 0
      vertex 118.619 -1.91342 -1.5
      vertex 118.619 -1.91342 0
    endloop
  endfacet
  facet normal 0.831675 -0.555263 0
    outer loop
      vertex 118.619 -1.91342 -1.5
      vertex 117.536 -3.53554 0
      vertex 117.536 -3.53554 -1.5
    endloop
  endfacet
  facet normal 0.980746 -0.195286 0
    outer loop
      vertex 118.619 -1.91342 0
      vertex 119 0 -1.5
      vertex 119 0 0
    endloop
  endfacet
  facet normal 0.980746 -0.195286 0
    outer loop
      vertex 119 0 -1.5
      vertex 118.619 -1.91342 0
      vertex 118.619 -1.91342 -1.5
    endloop
  endfacet
  facet normal 1 -0 0
    outer loop
      vertex 119 0 0
      vertex 119 57 -1.5
      vertex 119 57 0
    endloop
  endfacet
  facet normal 1 0 0
    outer loop
      vertex 119 57 -1.5
      vertex 119 0 0
      vertex 119 0 -1.5
    endloop
  endfacet
  facet normal 0.980746 0.195288 0
    outer loop
      vertex 119 57 0
      vertex 118.619 58.9134 -1.5
      vertex 118.619 58.9134 0
    endloop
  endfacet
  facet normal 0.980746 0.195288 0
    outer loop
      vertex 118.619 58.9134 -1.5
      vertex 119 57 0
      vertex 119 57 -1.5
    endloop
  endfacet
  facet normal 0.831671 0.555268 0
    outer loop
      vertex 118.619 58.9134 0
      vertex 117.536 60.5355 -1.5
      vertex 117.536 60.5355 0
    endloop
  endfacet
  facet normal 0.831671 0.555268 0
    outer loop
      vertex 117.536 60.5355 -1.5
      vertex 118.619 58.9134 0
      vertex 118.619 58.9134 -1.5
    endloop
  endfacet
  facet normal 0.555374 0.831601 -0
    outer loop
      vertex 117.536 60.5355 -1.5
      vertex 115.913 61.6194 0
      vertex 117.536 60.5355 0
    endloop
  endfacet
  facet normal 0.555374 0.831601 0
    outer loop
      vertex 115.913 61.6194 0
      vertex 117.536 60.5355 -1.5
      vertex 115.913 61.6194 -1.5
    endloop
  endfacet
  facet normal 0.19513 0.980777 -0
    outer loop
      vertex 115.913 61.6194 -1.5
      vertex 114 62 0
      vertex 115.913 61.6194 0
    endloop
  endfacet
  facet normal 0.19513 0.980777 0
    outer loop
      vertex 114 62 0
      vertex 115.913 61.6194 -1.5
      vertex 114 62 -1.5
    endloop
  endfacet
  facet normal 0 1 -0
    outer loop
      vertex 114 62 -1.5
      vertex 0 62 0
      vertex 114 62 0
    endloop
  endfacet
  facet normal 0 1 0
    outer loop
      vertex 0 62 0
      vertex 114 62 -1.5
      vertex 0 62 -1.5
    endloop
  endfacet
  facet normal -0.195089 0.980786 0
    outer loop
      vertex 0 62 -1.5
      vertex -1.91342 61.6194 0
      vertex 0 62 0
    endloop
  endfacet
  facet normal -0.195089 0.980786 0
    outer loop
      vertex -1.91342 61.6194 0
      vertex 0 62 -1.5
      vertex -1.91342 61.6194 -1.5
    endloop
  endfacet
  facet normal -0.555582 0.831462 0
    outer loop
      vertex -1.91342 61.6194 -1.5
      vertex -3.53554 60.5355 0
      vertex -1.91342 61.6194 0
    endloop
  endfacet
  facet normal -0.555582 0.831462 0
    outer loop
      vertex -3.53554 60.5355 0
      vertex -1.91342 61.6194 -1.5
      vertex -3.53554 60.5355 -1.5
    endloop
  endfacet
  facet normal -0.831468 0.555573 0
    outer loop
      vertex -4.6194 58.9134 -1.5
      vertex -3.53554 60.5355 0
      vertex -3.53554 60.5355 -1.5
    endloop
  endfacet
  facet normal -0.831468 0.555573 0
    outer loop
      vertex -3.53554 60.5355 0
      vertex -4.6194 58.9134 -1.5
      vertex -4.6194 58.9134 0
    endloop
  endfacet
  facet normal -0.980785 0.195091 0
    outer loop
      vertex -5 57 -1.5
      vertex -4.6194 58.9134 0
      vertex -4.6194 58.9134 -1.5
    endloop
  endfacet
  facet normal -0.980785 0.195091 0
    outer loop
      vertex -4.6194 58.9134 0
      vertex -5 57 -1.5
      vertex -5 57 0
    endloop
  endfacet
  facet normal -1 0 0
    outer loop
      vertex -5 0 -1.5
      vertex -5 57 0
      vertex -5 57 -1.5
    endloop
  endfacet
  facet normal -1 -0 0
    outer loop
      vertex -5 57 0
      vertex -5 0 -1.5
      vertex -5 0 0
    endloop
  endfacet
  facet normal -0.980786 -0.195089 0
    outer loop
      vertex -4.6194 -1.91342 -1.5
      vertex -5 0 0
      vertex -5 0 -1.5
    endloop
  endfacet
  facet normal -0.980786 -0.195089 0
    outer loop
      vertex -5 0 0
      vertex -4.6194 -1.91342 -1.5
      vertex -4.6194 -1.91342 0
    endloop
  endfacet
  facet normal -0.831471 -0.555568 0
    outer loop
      vertex -3.53554 -3.53554 -1.5
      vertex -4.6194 -1.91342 0
      vertex -4.6194 -1.91342 -1.5
    endloop
  endfacet
  facet normal -0.831471 -0.555568 0
    outer loop
      vertex -4.6194 -1.91342 0
      vertex -3.53554 -3.53554 -1.5
      vertex -3.53554 -3.53554 0
    endloop
  endfacet
  facet normal -0.555568 -0.831471 0
    outer loop
      vertex -3.53554 -3.53554 -1.5
      vertex -1.91342 -4.6194 0
      vertex -3.53554 -3.53554 0
    endloop
  endfacet
  facet normal -0.555568 -0.831471 -0
    outer loop
      vertex -1.91342 -4.6194 0
      vertex -3.53554 -3.53554 -1.5
      vertex -1.91342 -4.6194 -1.5
    endloop
  endfacet
  facet normal -0.195089 -0.980786 0
    outer loop
      vertex -1.91342 -4.6194 -1.5
      vertex 0 -5 0
      vertex -1.91342 -4.6194 0
    endloop
  endfacet
  facet normal -0.195089 -0.980786 -0
    outer loop
      vertex 0 -5 0
      vertex -1.91342 -4.6194 -1.5
      vertex 0 -5 -1.5
    endloop
  endfacet
  facet normal 0 -1 0
    outer loop
      vertex 0 -5 -1.5
      vertex 71 -5 0
      vertex 0 -5 0
    endloop
  endfacet
  facet normal 0 -1 -0
    outer loop
      vertex 71 -5 0
      vertex 0 -5 -1.5
      vertex 71 -5 -1.5
    endloop
  endfacet
  facet normal -1 0 0
    outer loop
      vertex 71 -19 -1.5
      vertex 71 -5 0
      vertex 71 -5 -1.5
    endloop
  endfacet
  facet normal -1 -0 0
    outer loop
      vertex 71 -5 0
      vertex 71 -19 -1.5
      vertex 71 -19 0
    endloop
  endfacet
  facet normal -0.980785 -0.195091 0
    outer loop
      vertex 71.3806 -20.9134 -1.5
      vertex 71 -19 0
      vertex 71 -19 -1.5
    endloop
  endfacet
  facet normal -0.980785 -0.195091 0
    outer loop
      vertex 71 -19 0
      vertex 71.3806 -20.9134 -1.5
      vertex 71.3806 -20.9134 0
    endloop
  endfacet
  facet normal -0.831458 -0.555587 0
    outer loop
      vertex 72.4645 -22.5355 -1.5
      vertex 71.3806 -20.9134 0
      vertex 71.3806 -20.9134 -1.5
    endloop
  endfacet
  facet normal -0.831458 -0.555587 0
    outer loop
      vertex 71.3806 -20.9134 0
      vertex 72.4645 -22.5355 -1.5
      vertex 72.4645 -22.5355 0
    endloop
  endfacet
  facet normal -0.555587 -0.831458 0
    outer loop
      vertex 72.4645 -22.5355 -1.5
      vertex 74.0866 -23.6194 0
      vertex 72.4645 -22.5355 0
    endloop
  endfacet
  facet normal -0.555587 -0.831458 -0
    outer loop
      vertex 74.0866 -23.6194 0
      vertex 72.4645 -22.5355 -1.5
      vertex 74.0866 -23.6194 -1.5
    endloop
  endfacet
  facet normal -0.195091 -0.980785 0
    outer loop
      vertex 74.0866 -23.6194 -1.5
      vertex 76 -24 0
      vertex 74.0866 -23.6194 0
    endloop
  endfacet
  facet normal -0.195091 -0.980785 -0
    outer loop
      vertex 76 -24 0
      vertex 74.0866 -23.6194 -1.5
      vertex 76 -24 -1.5
    endloop
  endfacet
  facet normal 0 -1 0
    outer loop
      vertex 76 -24 -1.5
      vertex 93.6603 -24 0
      vertex 76 -24 0
    endloop
  endfacet
  facet normal 0 -1 -0
    outer loop
      vertex 93.6603 -24 0
      vertex 76 -24 -1.5
      vertex 93.6603 -24 -1.5
    endloop
  endfacet
  facet normal -0.499987 -0.866033 0
    outer loop
      vertex 93.6603 -24 -1.5
      vertex 108.249 -32.4225 0
      vertex 93.6603 -24 0
    endloop
  endfacet
  facet normal -0.499987 -0.866033 -0
    outer loop
      vertex 108.249 -32.4225 0
      vertex 93.6603 -24 -1.5
      vertex 108.249 -32.4225 -1.5
    endloop
  endfacet
  facet normal -0.866044 -0.499968 0
    outer loop
      vertex 116.927 -47.4545 -1.5
      vertex 108.249 -32.4225 0
      vertex 108.249 -32.4225 -1.5
    endloop
  endfacet
  facet normal -0.866044 -0.499968 0
    outer loop
      vertex 108.249 -32.4225 0
      vertex 116.927 -47.4545 -1.5
      vertex 116.927 -47.4545 0
    endloop
  endfacet
  facet normal -0.751652 -0.65956 0
    outer loop
      vertex 118.214 -48.9212 -1.5
      vertex 116.927 -47.4545 0
      vertex 116.927 -47.4545 -1.5
    endloop
  endfacet
  facet normal -0.751652 -0.65956 0
    outer loop
      vertex 116.927 -47.4545 0
      vertex 118.214 -48.9212 -1.5
      vertex 118.214 -48.9212 0
    endloop
  endfacet
  facet normal -0.442449 -0.896794 0
    outer loop
      vertex 118.214 -48.9212 -1.5
      vertex 119.963 -49.7841 0
      vertex 118.214 -48.9212 0
    endloop
  endfacet
  facet normal -0.442449 -0.896794 -0
    outer loop
      vertex 119.963 -49.7841 0
      vertex 118.214 -48.9212 -1.5
      vertex 119.963 -49.7841 -1.5
    endloop
  endfacet
  facet normal -0.0653964 -0.997859 0
    outer loop
      vertex 119.963 -49.7841 -1.5
      vertex 121.91 -49.9117 0
      vertex 119.963 -49.7841 0
    endloop
  endfacet
  facet normal -0.0653964 -0.997859 -0
    outer loop
      vertex 121.91 -49.9117 0
      vertex 119.963 -49.7841 -1.5
      vertex 121.91 -49.9117 -1.5
    endloop
  endfacet
  facet normal 0.321498 -0.94691 0
    outer loop
      vertex 121.91 -49.9117 -1.5
      vertex 123.757 -49.2846 0
      vertex 121.91 -49.9117 0
    endloop
  endfacet
  facet normal 0.321498 -0.94691 0
    outer loop
      vertex 123.757 -49.2846 0
      vertex 121.91 -49.9117 -1.5
      vertex 123.757 -49.2846 -1.5
    endloop
  endfacet
endsolid OpenSCAD_Model
