  0
SECTION
  2
BLOCKS
  0
ENDSEC
  0
SECTION
  2
ENTITIES
  0
LINE
  8
0
 10
119.654
 20
-0.145963
 11
119.981
 21
-0.0506293
  0
LINE
  8
0
 10
119.981
 20
-0.0506293
 11
120.282
 21
0.10516
  0
LINE
  8
0
 10
120.282
 20
0.10516
 11
120.549
 21
0.316959
  0
LINE
  8
0
 10
120.549
 20
0.316959
 11
120.785
 21
0.600373
  0
LINE
  8
0
 10
120.785
 20
0.600373
 11
120.796
 21
0.61779
  0
LINE
  8
0
 10
120.796
 20
0.61779
 11
120.802
 21
0.627331
  0
LINE
  8
0
 10
120.802
 20
0.627331
 11
133.985
 21
23.4817
  0
LINE
  8
0
 10
133.985
 20
23.4817
 11
134.22
 21
24.0569
  0
LINE
  8
0
 10
134.22
 20
24.0569
 11
134.294
 21
24.677
  0
LINE
  8
0
 10
134.294
 20
24.677
 11
134.294
 21
84.0225
  0
LINE
  8
0
 10
134.294
 20
84.0225
 11
134.272
 21
84.2417
  0
LINE
  8
0
 10
134.272
 20
84.2417
 11
134.237
 21
84.351
  0
LINE
  8
0
 10
134.237
 20
84.351
 11
134.023
 21
84.6661
  0
LINE
  8
0
 10
134.023
 20
84.6661
 11
133.707
 21
84.8813
  0
LINE
  8
0
 10
133.707
 20
84.8813
 11
133.596
 21
84.9166
  0
LINE
  8
0
 10
133.596
 20
84.9166
 11
133.379
 21
84.9395
  0
LINE
  8
0
 10
133.379
 20
84.9395
 11
114.543
 21
84.9395
  0
LINE
  8
0
 10
114.543
 20
84.9395
 11
114.234
 21
84.9884
  0
LINE
  8
0
 10
114.234
 20
84.9884
 11
113.955
 21
85.1304
  0
LINE
  8
0
 10
113.955
 20
85.1304
 11
113.734
 21
85.3517
  0
LINE
  8
0
 10
113.734
 20
85.3517
 11
113.592
 21
85.6304
  0
LINE
  8
0
 10
113.592
 20
85.6304
 11
113.543
 21
85.9395
  0
LINE
  8
0
 10
113.543
 20
85.9395
 11
113.543
 21
86.2674
  0
LINE
  8
0
 10
113.543
 20
86.2674
 11
113.52
 21
86.4889
  0
LINE
  8
0
 10
113.52
 20
86.4889
 11
113.485
 21
86.6014
  0
LINE
  8
0
 10
113.485
 20
86.6014
 11
113.271
 21
86.9176
  0
LINE
  8
0
 10
113.271
 20
86.9176
 11
112.956
 21
87.133
  0
LINE
  8
0
 10
112.956
 20
87.133
 11
112.845
 21
87.1686
  0
LINE
  8
0
 10
112.845
 20
87.1686
 11
112.628
 21
87.1914
  0
LINE
  8
0
 10
112.628
 20
87.1914
 11
95.543
 21
87.1914
  0
LINE
  8
0
 10
95.543
 20
87.1914
 11
95.234
 21
87.2403
  0
LINE
  8
0
 10
95.234
 20
87.2403
 11
94.9552
 21
87.3824
  0
LINE
  8
0
 10
94.9552
 20
87.3824
 11
94.734
 21
87.6036
  0
LINE
  8
0
 10
94.734
 20
87.6036
 11
94.5919
 21
87.8824
  0
LINE
  8
0
 10
94.5919
 20
87.8824
 11
94.543
 21
88.1914
  0
LINE
  8
0
 10
94.543
 20
88.1914
 11
94.543
 21
88.7694
  0
LINE
  8
0
 10
94.543
 20
88.7694
 11
94.5205
 21
88.9896
  0
LINE
  8
0
 10
94.5205
 20
88.9896
 11
94.4849
 21
89.1019
  0
LINE
  8
0
 10
94.4849
 20
89.1019
 11
94.2712
 21
89.4179
  0
LINE
  8
0
 10
94.2712
 20
89.4179
 11
93.9551
 21
89.6331
  0
LINE
  8
0
 10
93.9551
 20
89.6331
 11
93.8442
 21
89.6687
  0
LINE
  8
0
 10
93.8442
 20
89.6687
 11
93.629
 21
89.6914
  0
LINE
  8
0
 10
93.629
 20
89.6914
 11
76.5449
 21
89.6914
  0
LINE
  8
0
 10
76.5449
 20
89.6914
 11
76.2359
 21
89.7403
  0
LINE
  8
0
 10
76.2359
 20
89.7403
 11
75.9571
 21
89.8824
  0
LINE
  8
0
 10
75.9571
 20
89.8824
 11
75.7359
 21
90.1036
  0
LINE
  8
0
 10
75.7359
 20
90.1036
 11
75.5939
 21
90.3824
  0
LINE
  8
0
 10
75.5939
 20
90.3824
 11
75.5449
 21
90.6914
  0
LINE
  8
0
 10
75.5449
 20
90.6914
 11
75.5449
 21
91.0219
  0
LINE
  8
0
 10
75.5449
 20
91.0219
 11
75.5219
 21
91.2407
  0
LINE
  8
0
 10
75.5219
 20
91.2407
 11
75.4864
 21
91.3526
  0
LINE
  8
0
 10
75.4864
 20
91.3526
 11
75.2721
 21
91.6681
  0
LINE
  8
0
 10
75.2721
 20
91.6681
 11
74.9566
 21
91.8828
  0
LINE
  8
0
 10
74.9566
 20
91.8828
 11
74.8446
 21
91.9187
  0
LINE
  8
0
 10
74.8446
 20
91.9187
 11
74.629
 21
91.9414
  0
LINE
  8
0
 10
74.629
 20
91.9414
 11
57.7262
 21
91.9414
  0
LINE
  8
0
 10
57.7262
 20
91.9414
 11
57.5077
 21
91.9185
  0
LINE
  8
0
 10
57.5077
 20
91.9185
 11
57.3972
 21
91.8833
  0
LINE
  8
0
 10
57.3972
 20
91.8833
 11
57.0813
 21
91.6683
  0
LINE
  8
0
 10
57.0813
 20
91.6683
 11
56.8667
 21
91.3542
  0
LINE
  8
0
 10
56.8667
 20
91.3542
 11
56.8315
 21
91.2435
  0
LINE
  8
0
 10
56.8315
 20
91.2435
 11
56.8086
 21
91.0256
  0
LINE
  8
0
 10
56.8086
 20
91.0256
 11
56.8086
 21
90.6914
  0
LINE
  8
0
 10
56.8086
 20
90.6914
 11
56.7597
 21
90.3824
  0
LINE
  8
0
 10
56.7597
 20
90.3824
 11
56.6176
 21
90.1036
  0
LINE
  8
0
 10
56.6176
 20
90.1036
 11
56.3964
 21
89.8824
  0
LINE
  8
0
 10
56.3964
 20
89.8824
 11
56.1176
 21
89.7403
  0
LINE
  8
0
 10
56.1176
 20
89.7403
 11
55.8086
 21
89.6914
  0
LINE
  8
0
 10
55.8086
 20
89.6914
 11
38.7245
 21
89.6914
  0
LINE
  8
0
 10
38.7245
 20
89.6914
 11
38.5089
 21
89.6687
  0
LINE
  8
0
 10
38.5089
 20
89.6687
 11
38.3973
 21
89.6329
  0
LINE
  8
0
 10
38.3973
 20
89.6329
 11
38.0828
 21
89.4186
  0
LINE
  8
0
 10
38.0828
 20
89.4186
 11
37.8691
 21
89.1037
  0
LINE
  8
0
 10
37.8691
 20
89.1037
 11
37.8335
 21
88.9916
  0
LINE
  8
0
 10
37.8335
 20
88.9916
 11
37.8105
 21
88.7737
  0
LINE
  8
0
 10
37.8105
 20
88.7737
 11
37.8105
 21
85.9414
  0
LINE
  8
0
 10
37.8105
 20
85.9414
 11
37.7616
 21
85.6324
  0
LINE
  8
0
 10
37.7616
 20
85.6324
 11
37.6196
 21
85.3536
  0
LINE
  8
0
 10
37.6196
 20
85.3536
 11
37.3983
 21
85.1324
  0
LINE
  8
0
 10
37.3983
 20
85.1324
 11
37.1196
 21
84.9903
  0
LINE
  8
0
 10
37.1196
 20
84.9903
 11
36.8105
 21
84.9414
  0
LINE
  8
0
 10
36.8105
 20
84.9414
 11
0.726315
 21
84.9414
  0
LINE
  8
0
 10
0.726315
 20
84.9414
 11
0.508448
 21
84.9185
  0
LINE
  8
0
 10
0.508448
 20
84.9185
 11
0.396844
 21
84.883
  0
LINE
  8
0
 10
0.396844
 20
84.883
 11
0.0817589
 21
84.6687
  0
LINE
  8
0
 10
0.0817589
 20
84.6687
 11
-0.13219
 21
84.3547
  0
LINE
  8
0
 10
-0.13219
 20
84.3547
 11
-0.167894
 21
84.2423
  0
LINE
  8
0
 10
-0.167894
 20
84.2423
 11
-0.191406
 21
84.0243
  0
LINE
  8
0
 10
-0.191406
 20
84.0243
 11
-0.191406
 21
28.8723
  0
LINE
  8
0
 10
-0.191406
 20
28.8723
 11
-0.167981
 21
28.6558
  0
LINE
  8
0
 10
-0.167981
 20
28.6558
 11
-0.132305
 21
28.5437
  0
LINE
  8
0
 10
-0.132305
 20
28.5437
 11
0.0818644
 21
28.2289
  0
LINE
  8
0
 10
0.0818644
 20
28.2289
 11
0.396369
 21
28.0153
  0
LINE
  8
0
 10
0.396369
 20
28.0153
 11
0.506759
 21
27.9805
  0
LINE
  8
0
 10
0.506759
 20
27.9805
 11
0.726829
 21
27.958
  0
LINE
  8
0
 10
0.726829
 20
27.958
 11
55.2285
 21
27.958
  0
LINE
  8
0
 10
55.2285
 20
27.958
 11
55.5375
 21
27.9091
  0
LINE
  8
0
 10
55.5375
 20
27.9091
 11
55.8163
 21
27.767
  0
LINE
  8
0
 10
55.8163
 20
27.767
 11
56.0365
 21
27.5472
  0
LINE
  8
0
 10
56.0365
 20
27.5472
 11
66.2548
 21
13.5333
  0
LINE
  8
0
 10
66.2548
 20
13.5333
 11
66.2735
 21
13.5113
  0
LINE
  8
0
 10
66.2735
 20
13.5113
 11
66.6013
 21
13.2918
  0
LINE
  8
0
 10
66.6013
 20
13.2918
 11
67.1257
 21
13.188
  0
LINE
  8
0
 10
67.1257
 20
13.188
 11
67.1748
 21
13.17
  0
LINE
  8
0
 10
67.1748
 20
13.17
 11
103.532
 21
8.44113
  0
LINE
  8
0
 10
103.532
 20
8.44113
 11
103.556
 21
8.43885
  0
LINE
  8
0
 10
103.556
 20
8.43885
 11
103.656
 21
8.42407
  0
LINE
  8
0
 10
103.656
 20
8.42407
 11
103.945
 21
8.36645
  0
LINE
  8
0
 10
103.945
 20
8.36645
 11
104.25
 21
8.25153
  0
LINE
  8
0
 10
104.25
 20
8.25153
 11
118.233
 21
0.169421
  0
LINE
  8
0
 10
118.233
 20
0.169421
 11
118.254
 21
0.161254
  0
LINE
  8
0
 10
118.254
 20
0.161254
 11
118.651
 21
-0.051826
  0
LINE
  8
0
 10
118.651
 20
-0.051826
 11
118.977
 21
-0.148238
  0
LINE
  8
0
 10
118.977
 20
-0.148238
 11
119.314
 21
-0.179902
  0
LINE
  8
0
 10
119.314
 20
-0.179902
 11
119.654
 21
-0.145963
  0
LINE
  8
0
 10
94.5628
 20
65.4182
 11
94.4538
 21
65.4226
  0
LINE
  8
0
 10
94.4538
 20
65.4226
 11
94.4134
 21
65.425
  0
LINE
  8
0
 10
94.4134
 20
65.425
 11
94.2659
 21
65.437
  0
LINE
  8
0
 10
94.2659
 20
65.437
 11
94.2257
 21
65.4411
  0
LINE
  8
0
 10
94.2257
 20
65.4411
 11
94.119
 21
65.4541
  0
LINE
  8
0
 10
94.119
 20
65.4541
 11
94.0792
 21
65.4597
  0
LINE
  8
0
 10
94.0792
 20
65.4597
 11
93.9339
 21
65.4834
  0
LINE
  8
0
 10
93.9339
 20
65.4834
 11
93.8944
 21
65.4907
  0
LINE
  8
0
 10
93.8944
 20
65.4907
 11
93.7905
 21
65.5119
  0
LINE
  8
0
 10
93.7905
 20
65.5119
 11
93.7516
 21
65.5207
  0
LINE
  8
0
 10
93.7516
 20
65.5207
 11
93.6097
 21
65.5557
  0
LINE
  8
0
 10
93.6097
 20
65.5557
 11
93.5711
 21
65.566
  0
LINE
  8
0
 10
93.5711
 20
65.566
 11
93.4704
 21
65.5951
  0
LINE
  8
0
 10
93.4704
 20
65.5951
 11
93.4326
 21
65.6069
  0
LINE
  8
0
 10
93.4326
 20
65.6069
 11
93.2952
 21
65.6526
  0
LINE
  8
0
 10
93.2952
 20
65.6526
 11
93.2579
 21
65.6658
  0
LINE
  8
0
 10
93.2579
 20
65.6658
 11
93.1606
 21
65.7025
  0
LINE
  8
0
 10
93.1606
 20
65.7025
 11
93.1242
 21
65.7171
  0
LINE
  8
0
 10
93.1242
 20
65.7171
 11
92.992
 21
65.773
  0
LINE
  8
0
 10
92.992
 20
65.773
 11
92.9562
 21
65.789
  0
LINE
  8
0
 10
92.9562
 20
65.789
 11
92.8627
 21
65.8329
  0
LINE
  8
0
 10
92.8627
 20
65.8329
 11
92.8278
 21
65.8501
  0
LINE
  8
0
 10
92.8278
 20
65.8501
 11
92.7015
 21
65.9155
  0
LINE
  8
0
 10
92.7015
 20
65.9155
 11
92.6673
 21
65.9341
  0
LINE
  8
0
 10
92.6673
 20
65.9341
 11
92.578
 21
65.9849
  0
LINE
  8
0
 10
92.578
 20
65.9849
 11
92.5448
 21
66.0046
  0
LINE
  8
0
 10
92.5448
 20
66.0046
 11
92.4249
 21
66.0791
  0
LINE
  8
0
 10
92.4249
 20
66.0791
 11
92.3925
 21
66.1
  0
LINE
  8
0
 10
92.3925
 20
66.1
 11
92.3076
 21
66.1574
  0
LINE
  8
0
 10
92.3076
 20
66.1574
 11
92.2763
 21
66.1794
  0
LINE
  8
0
 10
92.2763
 20
66.1794
 11
92.1631
 21
66.2624
  0
LINE
  8
0
 10
92.1631
 20
66.2624
 11
92.1326
 21
66.2857
  0
LINE
  8
0
 10
92.1326
 20
66.2857
 11
92.0525
 21
66.3492
  0
LINE
  8
0
 10
92.0525
 20
66.3492
 11
92.0231
 21
66.3735
  0
LINE
  8
0
 10
92.0231
 20
66.3735
 11
91.917
 21
66.4645
  0
LINE
  8
0
 10
91.917
 20
66.4645
 11
91.8884
 21
66.49
  0
LINE
  8
0
 10
91.8884
 20
66.49
 11
91.8136
 21
66.5593
  0
LINE
  8
0
 10
91.8136
 20
66.5593
 11
91.7861
 21
66.5858
  0
LINE
  8
0
 10
91.7861
 20
66.5858
 11
91.6873
 21
66.6845
  0
LINE
  8
0
 10
91.6873
 20
66.6845
 11
91.6609
 21
66.712
  0
LINE
  8
0
 10
91.6609
 20
66.712
 11
91.5915
 21
66.7869
  0
LINE
  8
0
 10
91.5915
 20
66.7869
 11
91.5661
 21
66.8154
  0
LINE
  8
0
 10
91.5661
 20
66.8154
 11
91.475
 21
66.9215
  0
LINE
  8
0
 10
91.475
 20
66.9215
 11
91.4507
 21
66.951
  0
LINE
  8
0
 10
91.4507
 20
66.951
 11
91.3872
 21
67.0311
  0
LINE
  8
0
 10
91.3872
 20
67.0311
 11
91.3639
 21
67.0616
  0
LINE
  8
0
 10
91.3639
 20
67.0616
 11
91.281
 21
67.1747
  0
LINE
  8
0
 10
91.281
 20
67.1747
 11
91.2589
 21
67.2061
  0
LINE
  8
0
 10
91.2589
 20
67.2061
 11
91.2016
 21
67.291
  0
LINE
  8
0
 10
91.2016
 20
67.291
 11
91.1806
 21
67.3234
  0
LINE
  8
0
 10
91.1806
 20
67.3234
 11
91.1061
 21
67.4433
  0
LINE
  8
0
 10
91.1061
 20
67.4433
 11
91.0864
 21
67.4765
  0
LINE
  8
0
 10
91.0864
 20
67.4765
 11
91.0356
 21
67.5658
  0
LINE
  8
0
 10
91.0356
 20
67.5658
 11
91.0171
 21
67.6
  0
LINE
  8
0
 10
91.0171
 20
67.6
 11
90.9516
 21
67.7263
  0
LINE
  8
0
 10
90.9516
 20
67.7263
 11
90.9344
 21
67.7611
  0
LINE
  8
0
 10
90.9344
 20
67.7611
 11
90.8905
 21
67.8546
  0
LINE
  8
0
 10
90.8905
 20
67.8546
 11
90.8745
 21
67.8904
  0
LINE
  8
0
 10
90.8745
 20
67.8904
 11
90.8186
 21
68.0226
  0
LINE
  8
0
 10
90.8186
 20
68.0226
 11
90.8041
 21
68.059
  0
LINE
  8
0
 10
90.8041
 20
68.059
 11
90.7674
 21
68.1563
  0
LINE
  8
0
 10
90.7674
 20
68.1563
 11
90.7541
 21
68.1936
  0
LINE
  8
0
 10
90.7541
 20
68.1936
 11
90.7084
 21
68.3311
  0
LINE
  8
0
 10
90.7084
 20
68.3311
 11
90.6967
 21
68.3689
  0
LINE
  8
0
 10
90.6967
 20
68.3689
 11
90.6675
 21
68.4696
  0
LINE
  8
0
 10
90.6675
 20
68.4696
 11
90.6572
 21
68.5082
  0
LINE
  8
0
 10
90.6572
 20
68.5082
 11
90.6222
 21
68.65
  0
LINE
  8
0
 10
90.6222
 20
68.65
 11
90.6134
 21
68.689
  0
LINE
  8
0
 10
90.6134
 20
68.689
 11
90.5922
 21
68.7928
  0
LINE
  8
0
 10
90.5922
 20
68.7928
 11
90.5849
 21
68.8324
  0
LINE
  8
0
 10
90.5849
 20
68.8324
 11
90.5613
 21
68.9777
  0
LINE
  8
0
 10
90.5613
 20
68.9777
 11
90.5556
 21
69.0175
  0
LINE
  8
0
 10
90.5556
 20
69.0175
 11
90.5426
 21
69.1241
  0
LINE
  8
0
 10
90.5426
 20
69.1241
 11
90.5385
 21
69.1644
  0
LINE
  8
0
 10
90.5385
 20
69.1644
 11
90.5266
 21
69.3119
  0
LINE
  8
0
 10
90.5266
 20
69.3119
 11
90.5241
 21
69.3522
  0
LINE
  8
0
 10
90.5241
 20
69.3522
 11
90.5197
 21
69.4613
  0
LINE
  8
0
 10
90.5197
 20
69.4613
 11
90.5189
 21
69.5017
  0
LINE
  8
0
 10
90.5189
 20
69.5017
 11
90.5189
 21
69.6494
  0
LINE
  8
0
 10
90.5189
 20
69.6494
 11
90.5197
 21
69.6898
  0
LINE
  8
0
 10
90.5197
 20
69.6898
 11
90.5241
 21
69.7989
  0
LINE
  8
0
 10
90.5241
 20
69.7989
 11
90.5266
 21
69.8393
  0
LINE
  8
0
 10
90.5266
 20
69.8393
 11
90.5385
 21
69.9867
  0
LINE
  8
0
 10
90.5385
 20
69.9867
 11
90.5426
 21
70.0269
  0
LINE
  8
0
 10
90.5426
 20
70.0269
 11
90.5556
 21
70.1336
  0
LINE
  8
0
 10
90.5556
 20
70.1336
 11
90.5612
 21
70.1734
  0
LINE
  8
0
 10
90.5612
 20
70.1734
 11
90.5849
 21
70.3187
  0
LINE
  8
0
 10
90.5849
 20
70.3187
 11
90.5922
 21
70.3583
  0
LINE
  8
0
 10
90.5922
 20
70.3583
 11
90.6134
 21
70.4621
  0
LINE
  8
0
 10
90.6134
 20
70.4621
 11
90.6222
 21
70.5011
  0
LINE
  8
0
 10
90.6222
 20
70.5011
 11
90.6571
 21
70.643
  0
LINE
  8
0
 10
90.6571
 20
70.643
 11
90.6675
 21
70.6815
  0
LINE
  8
0
 10
90.6675
 20
70.6815
 11
90.6966
 21
70.7823
  0
LINE
  8
0
 10
90.6966
 20
70.7823
 11
90.7084
 21
70.8201
  0
LINE
  8
0
 10
90.7084
 20
70.8201
 11
90.7541
 21
70.9575
  0
LINE
  8
0
 10
90.7541
 20
70.9575
 11
90.7673
 21
70.9949
  0
LINE
  8
0
 10
90.7673
 20
70.9949
 11
90.804
 21
71.0922
  0
LINE
  8
0
 10
90.804
 20
71.0922
 11
90.8186
 21
71.1286
  0
LINE
  8
0
 10
90.8186
 20
71.1286
 11
90.8745
 21
71.2608
  0
LINE
  8
0
 10
90.8745
 20
71.2608
 11
90.8905
 21
71.2966
  0
LINE
  8
0
 10
90.8905
 20
71.2966
 11
90.9344
 21
71.3901
  0
LINE
  8
0
 10
90.9344
 20
71.3901
 11
90.9516
 21
71.425
  0
LINE
  8
0
 10
90.9516
 20
71.425
 11
91.0171
 21
71.5514
  0
LINE
  8
0
 10
91.0171
 20
71.5514
 11
91.0356
 21
71.5855
  0
LINE
  8
0
 10
91.0356
 20
71.5855
 11
91.0864
 21
71.6749
  0
LINE
  8
0
 10
91.0864
 20
71.6749
 11
91.1061
 21
71.7081
  0
LINE
  8
0
 10
91.1061
 20
71.7081
 11
91.1806
 21
71.828
  0
LINE
  8
0
 10
91.1806
 20
71.828
 11
91.2016
 21
71.8604
  0
LINE
  8
0
 10
91.2016
 20
71.8604
 11
91.2589
 21
71.9453
  0
LINE
  8
0
 10
91.2589
 20
71.9453
 11
91.281
 21
71.9767
  0
LINE
  8
0
 10
91.281
 20
71.9767
 11
91.364
 21
72.0899
  0
LINE
  8
0
 10
91.364
 20
72.0899
 11
91.3873
 21
72.1204
  0
LINE
  8
0
 10
91.3873
 20
72.1204
 11
91.4508
 21
72.2005
  0
LINE
  8
0
 10
91.4508
 20
72.2005
 11
91.4752
 21
72.2299
  0
LINE
  8
0
 10
91.4752
 20
72.2299
 11
91.5662
 21
72.3361
  0
LINE
  8
0
 10
91.5662
 20
72.3361
 11
91.5917
 21
72.3646
  0
LINE
  8
0
 10
91.5917
 20
72.3646
 11
91.6611
 21
72.4395
  0
LINE
  8
0
 10
91.6611
 20
72.4395
 11
91.6875
 21
72.467
  0
LINE
  8
0
 10
91.6875
 20
72.467
 11
91.7863
 21
72.5658
  0
LINE
  8
0
 10
91.7863
 20
72.5658
 11
91.8138
 21
72.5922
  0
LINE
  8
0
 10
91.8138
 20
72.5922
 11
91.8887
 21
72.6616
  0
LINE
  8
0
 10
91.8887
 20
72.6616
 11
91.9172
 21
72.687
  0
LINE
  8
0
 10
91.9172
 20
72.687
 11
92.0234
 21
72.7781
  0
LINE
  8
0
 10
92.0234
 20
72.7781
 11
92.0529
 21
72.8024
  0
LINE
  8
0
 10
92.0529
 20
72.8024
 11
92.1329
 21
72.8659
  0
LINE
  8
0
 10
92.1329
 20
72.8659
 11
92.1634
 21
72.8892
  0
LINE
  8
0
 10
92.1634
 20
72.8892
 11
92.2767
 21
72.9721
  0
LINE
  8
0
 10
92.2767
 20
72.9721
 11
92.308
 21
72.9942
  0
LINE
  8
0
 10
92.308
 20
72.9942
 11
92.3929
 21
73.0515
  0
LINE
  8
0
 10
92.3929
 20
73.0515
 11
92.4253
 21
73.0725
  0
LINE
  8
0
 10
92.4253
 20
73.0725
 11
92.5453
 21
73.1469
  0
LINE
  8
0
 10
92.5453
 20
73.1469
 11
92.5784
 21
73.1666
  0
LINE
  8
0
 10
92.5784
 20
73.1666
 11
92.6678
 21
73.2174
  0
LINE
  8
0
 10
92.6678
 20
73.2174
 11
92.702
 21
73.236
  0
LINE
  8
0
 10
92.702
 20
73.236
 11
92.8283
 21
73.3014
  0
LINE
  8
0
 10
92.8283
 20
73.3014
 11
92.8631
 21
73.3186
  0
LINE
  8
0
 10
92.8631
 20
73.3186
 11
92.9566
 21
73.3625
  0
LINE
  8
0
 10
92.9566
 20
73.3625
 11
92.9924
 21
73.3785
  0
LINE
  8
0
 10
92.9924
 20
73.3785
 11
93.1246
 21
73.4343
  0
LINE
  8
0
 10
93.1246
 20
73.4343
 11
93.161
 21
73.4489
  0
LINE
  8
0
 10
93.161
 20
73.4489
 11
93.2583
 21
73.4855
  0
LINE
  8
0
 10
93.2583
 20
73.4855
 11
93.2956
 21
73.4988
  0
LINE
  8
0
 10
93.2956
 20
73.4988
 11
93.433
 21
73.5445
  0
LINE
  8
0
 10
93.433
 20
73.5445
 11
93.4708
 21
73.5562
  0
LINE
  8
0
 10
93.4708
 20
73.5562
 11
93.5715
 21
73.5853
  0
LINE
  8
0
 10
93.5715
 20
73.5853
 11
93.6101
 21
73.5956
  0
LINE
  8
0
 10
93.6101
 20
73.5956
 11
93.7519
 21
73.6306
  0
LINE
  8
0
 10
93.7519
 20
73.6306
 11
93.7908
 21
73.6394
  0
LINE
  8
0
 10
93.7908
 20
73.6394
 11
93.8947
 21
73.6606
  0
LINE
  8
0
 10
93.8947
 20
73.6606
 11
93.9342
 21
73.6678
  0
LINE
  8
0
 10
93.9342
 20
73.6678
 11
94.0795
 21
73.6915
  0
LINE
  8
0
 10
94.0795
 20
73.6915
 11
94.1193
 21
73.6971
  0
LINE
  8
0
 10
94.1193
 20
73.6971
 11
94.2259
 21
73.7101
  0
LINE
  8
0
 10
94.2259
 20
73.7101
 11
94.2661
 21
73.7142
  0
LINE
  8
0
 10
94.2661
 20
73.7142
 11
94.4135
 21
73.7261
  0
LINE
  8
0
 10
94.4135
 20
73.7261
 11
94.4539
 21
73.7286
  0
LINE
  8
0
 10
94.4539
 20
73.7286
 11
94.5629
 21
73.733
  0
LINE
  8
0
 10
94.5629
 20
73.733
 11
94.6033
 21
73.7338
  0
LINE
  8
0
 10
94.6033
 20
73.7338
 11
94.751
 21
73.7338
  0
LINE
  8
0
 10
94.751
 20
73.7338
 11
94.7913
 21
73.733
  0
LINE
  8
0
 10
94.7913
 20
73.733
 11
94.9004
 21
73.7286
  0
LINE
  8
0
 10
94.9004
 20
73.7286
 11
94.9407
 21
73.7261
  0
LINE
  8
0
 10
94.9407
 20
73.7261
 11
95.0881
 21
73.7142
  0
LINE
  8
0
 10
95.0881
 20
73.7142
 11
95.1284
 21
73.7101
  0
LINE
  8
0
 10
95.1284
 20
73.7101
 11
95.235
 21
73.6971
  0
LINE
  8
0
 10
95.235
 20
73.6971
 11
95.2748
 21
73.6915
  0
LINE
  8
0
 10
95.2748
 20
73.6915
 11
95.42
 21
73.6678
  0
LINE
  8
0
 10
95.42
 20
73.6678
 11
95.4595
 21
73.6606
  0
LINE
  8
0
 10
95.4595
 20
73.6606
 11
95.5634
 21
73.6394
  0
LINE
  8
0
 10
95.5634
 20
73.6394
 11
95.6023
 21
73.6306
  0
LINE
  8
0
 10
95.6023
 20
73.6306
 11
95.7442
 21
73.5956
  0
LINE
  8
0
 10
95.7442
 20
73.5956
 11
95.7827
 21
73.5853
  0
LINE
  8
0
 10
95.7827
 20
73.5853
 11
95.8835
 21
73.5562
  0
LINE
  8
0
 10
95.8835
 20
73.5562
 11
95.9212
 21
73.5445
  0
LINE
  8
0
 10
95.9212
 20
73.5445
 11
96.0586
 21
73.4988
  0
LINE
  8
0
 10
96.0586
 20
73.4988
 11
96.0959
 21
73.4855
  0
LINE
  8
0
 10
96.0959
 20
73.4855
 11
96.1932
 21
73.4489
  0
LINE
  8
0
 10
96.1932
 20
73.4489
 11
96.2296
 21
73.4343
  0
LINE
  8
0
 10
96.2296
 20
73.4343
 11
96.3618
 21
73.3785
  0
LINE
  8
0
 10
96.3618
 20
73.3785
 11
96.3976
 21
73.3625
  0
LINE
  8
0
 10
96.3976
 20
73.3625
 11
96.4911
 21
73.3186
  0
LINE
  8
0
 10
96.4911
 20
73.3186
 11
96.526
 21
73.3014
  0
LINE
  8
0
 10
96.526
 20
73.3014
 11
96.6523
 21
73.236
  0
LINE
  8
0
 10
96.6523
 20
73.236
 11
96.6865
 21
73.2174
  0
LINE
  8
0
 10
96.6865
 20
73.2174
 11
96.7758
 21
73.1666
  0
LINE
  8
0
 10
96.7758
 20
73.1666
 11
96.809
 21
73.1469
  0
LINE
  8
0
 10
96.809
 20
73.1469
 11
96.9289
 21
73.0725
  0
LINE
  8
0
 10
96.9289
 20
73.0725
 11
96.9613
 21
73.0515
  0
LINE
  8
0
 10
96.9613
 20
73.0515
 11
97.0462
 21
72.9942
  0
LINE
  8
0
 10
97.0462
 20
72.9942
 11
97.0776
 21
72.9721
  0
LINE
  8
0
 10
97.0776
 20
72.9721
 11
97.1908
 21
72.8892
  0
LINE
  8
0
 10
97.1908
 20
72.8892
 11
97.2213
 21
72.8659
  0
LINE
  8
0
 10
97.2213
 20
72.8659
 11
97.3014
 21
72.8024
  0
LINE
  8
0
 10
97.3014
 20
72.8024
 11
97.3308
 21
72.7781
  0
LINE
  8
0
 10
97.3308
 20
72.7781
 11
97.437
 21
72.687
  0
LINE
  8
0
 10
97.437
 20
72.687
 11
97.4655
 21
72.6616
  0
LINE
  8
0
 10
97.4655
 20
72.6616
 11
97.5404
 21
72.5922
  0
LINE
  8
0
 10
97.5404
 20
72.5922
 11
97.5679
 21
72.5658
  0
LINE
  8
0
 10
97.5679
 20
72.5658
 11
97.6667
 21
72.467
  0
LINE
  8
0
 10
97.6667
 20
72.467
 11
97.6932
 21
72.4395
  0
LINE
  8
0
 10
97.6932
 20
72.4395
 11
97.7626
 21
72.3646
  0
LINE
  8
0
 10
97.7626
 20
72.3646
 11
97.788
 21
72.3361
  0
LINE
  8
0
 10
97.788
 20
72.3361
 11
97.8791
 21
72.23
  0
LINE
  8
0
 10
97.8791
 20
72.23
 11
97.9034
 21
72.2005
  0
LINE
  8
0
 10
97.9034
 20
72.2005
 11
97.9669
 21
72.1204
  0
LINE
  8
0
 10
97.9669
 20
72.1204
 11
97.9902
 21
72.0899
  0
LINE
  8
0
 10
97.9902
 20
72.0899
 11
98.0732
 21
71.9767
  0
LINE
  8
0
 10
98.0732
 20
71.9767
 11
98.0953
 21
71.9453
  0
LINE
  8
0
 10
98.0953
 20
71.9453
 11
98.1526
 21
71.8605
  0
LINE
  8
0
 10
98.1526
 20
71.8605
 11
98.1736
 21
71.8281
  0
LINE
  8
0
 10
98.1736
 20
71.8281
 11
98.2481
 21
71.7081
  0
LINE
  8
0
 10
98.2481
 20
71.7081
 11
98.2678
 21
71.6749
  0
LINE
  8
0
 10
98.2678
 20
71.6749
 11
98.3186
 21
71.5855
  0
LINE
  8
0
 10
98.3186
 20
71.5855
 11
98.3372
 21
71.5514
  0
LINE
  8
0
 10
98.3372
 20
71.5514
 11
98.4026
 21
71.425
  0
LINE
  8
0
 10
98.4026
 20
71.425
 11
98.4199
 21
71.3902
  0
LINE
  8
0
 10
98.4199
 20
71.3902
 11
98.4638
 21
71.2967
  0
LINE
  8
0
 10
98.4638
 20
71.2967
 11
98.4798
 21
71.2608
  0
LINE
  8
0
 10
98.4798
 20
71.2608
 11
98.5357
 21
71.1286
  0
LINE
  8
0
 10
98.5357
 20
71.1286
 11
98.5502
 21
71.0922
  0
LINE
  8
0
 10
98.5502
 20
71.0922
 11
98.5869
 21
70.9949
  0
LINE
  8
0
 10
98.5869
 20
70.9949
 11
98.6002
 21
70.9576
  0
LINE
  8
0
 10
98.6002
 20
70.9576
 11
98.6459
 21
70.8201
  0
LINE
  8
0
 10
98.6459
 20
70.8201
 11
98.6576
 21
70.7823
  0
LINE
  8
0
 10
98.6576
 20
70.7823
 11
98.6868
 21
70.6815
  0
LINE
  8
0
 10
98.6868
 20
70.6815
 11
98.6971
 21
70.643
  0
LINE
  8
0
 10
98.6971
 20
70.643
 11
98.7321
 21
70.5011
  0
LINE
  8
0
 10
98.7321
 20
70.5011
 11
98.7408
 21
70.4622
  0
LINE
  8
0
 10
98.7408
 20
70.4622
 11
98.7621
 21
70.3583
  0
LINE
  8
0
 10
98.7621
 20
70.3583
 11
98.7693
 21
70.3187
  0
LINE
  8
0
 10
98.7693
 20
70.3187
 11
98.793
 21
70.1734
  0
LINE
  8
0
 10
98.793
 20
70.1734
 11
98.7987
 21
70.1336
  0
LINE
  8
0
 10
98.7987
 20
70.1336
 11
98.8117
 21
70.0269
  0
LINE
  8
0
 10
98.8117
 20
70.0269
 11
98.8157
 21
69.9867
  0
LINE
  8
0
 10
98.8157
 20
69.9867
 11
98.8277
 21
69.8393
  0
LINE
  8
0
 10
98.8277
 20
69.8393
 11
98.8301
 21
69.7989
  0
LINE
  8
0
 10
98.8301
 20
69.7989
 11
98.8345
 21
69.6898
  0
LINE
  8
0
 10
98.8345
 20
69.6898
 11
98.8354
 21
69.6494
  0
LINE
  8
0
 10
98.8354
 20
69.6494
 11
98.8353
 21
69.5017
  0
LINE
  8
0
 10
98.8353
 20
69.5017
 11
98.8345
 21
69.4613
  0
LINE
  8
0
 10
98.8345
 20
69.4613
 11
98.8301
 21
69.3522
  0
LINE
  8
0
 10
98.8301
 20
69.3522
 11
98.8277
 21
69.3119
  0
LINE
  8
0
 10
98.8277
 20
69.3119
 11
98.8157
 21
69.1644
  0
LINE
  8
0
 10
98.8157
 20
69.1644
 11
98.8116
 21
69.1241
  0
LINE
  8
0
 10
98.8116
 20
69.1241
 11
98.7986
 21
69.0175
  0
LINE
  8
0
 10
98.7986
 20
69.0175
 11
98.793
 21
68.9777
  0
LINE
  8
0
 10
98.793
 20
68.9777
 11
98.7693
 21
68.8324
  0
LINE
  8
0
 10
98.7693
 20
68.8324
 11
98.762
 21
68.7928
  0
LINE
  8
0
 10
98.762
 20
68.7928
 11
98.7408
 21
68.689
  0
LINE
  8
0
 10
98.7408
 20
68.689
 11
98.732
 21
68.65
  0
LINE
  8
0
 10
98.732
 20
68.65
 11
98.697
 21
68.5081
  0
LINE
  8
0
 10
98.697
 20
68.5081
 11
98.6867
 21
68.4696
  0
LINE
  8
0
 10
98.6867
 20
68.4696
 11
98.6576
 21
68.3688
  0
LINE
  8
0
 10
98.6576
 20
68.3688
 11
98.6458
 21
68.331
  0
LINE
  8
0
 10
98.6458
 20
68.331
 11
98.6001
 21
68.1936
  0
LINE
  8
0
 10
98.6001
 20
68.1936
 11
98.5869
 21
68.1563
  0
LINE
  8
0
 10
98.5869
 20
68.1563
 11
98.5502
 21
68.059
  0
LINE
  8
0
 10
98.5502
 20
68.059
 11
98.5356
 21
68.0226
  0
LINE
  8
0
 10
98.5356
 20
68.0226
 11
98.4797
 21
67.8904
  0
LINE
  8
0
 10
98.4797
 20
67.8904
 11
98.4637
 21
67.8546
  0
LINE
  8
0
 10
98.4637
 20
67.8546
 11
98.4198
 21
67.7611
  0
LINE
  8
0
 10
98.4198
 20
67.7611
 11
98.4026
 21
67.7263
  0
LINE
  8
0
 10
98.4026
 20
67.7263
 11
98.3372
 21
67.6
  0
LINE
  8
0
 10
98.3372
 20
67.6
 11
98.3186
 21
67.5658
  0
LINE
  8
0
 10
98.3186
 20
67.5658
 11
98.2678
 21
67.4764
  0
LINE
  8
0
 10
98.2678
 20
67.4764
 11
98.2481
 21
67.4433
  0
LINE
  8
0
 10
98.2481
 20
67.4433
 11
98.1736
 21
67.3233
  0
LINE
  8
0
 10
98.1736
 20
67.3233
 11
98.1527
 21
67.291
  0
LINE
  8
0
 10
98.1527
 20
67.291
 11
98.0953
 21
67.2061
  0
LINE
  8
0
 10
98.0953
 20
67.2061
 11
98.0733
 21
67.1747
  0
LINE
  8
0
 10
98.0733
 20
67.1747
 11
97.9903
 21
67.0615
  0
LINE
  8
0
 10
97.9903
 20
67.0615
 11
97.967
 21
67.0311
  0
LINE
  8
0
 10
97.967
 20
67.0311
 11
97.9035
 21
66.951
  0
LINE
  8
0
 10
97.9035
 20
66.951
 11
97.8792
 21
66.9215
  0
LINE
  8
0
 10
97.8792
 20
66.9215
 11
97.7882
 21
66.8154
  0
LINE
  8
0
 10
97.7882
 20
66.8154
 11
97.7627
 21
66.7869
  0
LINE
  8
0
 10
97.7627
 20
66.7869
 11
97.6934
 21
66.712
  0
LINE
  8
0
 10
97.6934
 20
66.712
 11
97.6669
 21
66.6845
  0
LINE
  8
0
 10
97.6669
 20
66.6845
 11
97.5682
 21
66.5858
  0
LINE
  8
0
 10
97.5682
 20
66.5858
 11
97.5407
 21
66.5593
  0
LINE
  8
0
 10
97.5407
 20
66.5593
 11
97.4658
 21
66.49
  0
LINE
  8
0
 10
97.4658
 20
66.49
 11
97.4373
 21
66.4645
  0
LINE
  8
0
 10
97.4373
 20
66.4645
 11
97.3312
 21
66.3735
  0
LINE
  8
0
 10
97.3312
 20
66.3735
 11
97.3017
 21
66.3492
  0
LINE
  8
0
 10
97.3017
 20
66.3492
 11
97.2216
 21
66.2857
  0
LINE
  8
0
 10
97.2216
 20
66.2857
 11
97.1911
 21
66.2624
  0
LINE
  8
0
 10
97.1911
 20
66.2624
 11
97.078
 21
66.1794
  0
LINE
  8
0
 10
97.078
 20
66.1794
 11
97.0466
 21
66.1574
  0
LINE
  8
0
 10
97.0466
 20
66.1574
 11
96.9617
 21
66.1
  0
LINE
  8
0
 10
96.9617
 20
66.1
 11
96.9294
 21
66.0791
  0
LINE
  8
0
 10
96.9294
 20
66.0791
 11
96.8094
 21
66.0046
  0
LINE
  8
0
 10
96.8094
 20
66.0046
 11
96.7763
 21
65.9849
  0
LINE
  8
0
 10
96.7763
 20
65.9849
 11
96.6869
 21
65.9341
  0
LINE
  8
0
 10
96.6869
 20
65.9341
 11
96.6527
 21
65.9155
  0
LINE
  8
0
 10
96.6527
 20
65.9155
 11
96.5264
 21
65.8501
  0
LINE
  8
0
 10
96.5264
 20
65.8501
 11
96.4916
 21
65.8329
  0
LINE
  8
0
 10
96.4916
 20
65.8329
 11
96.3981
 21
65.789
  0
LINE
  8
0
 10
96.3981
 20
65.789
 11
96.3623
 21
65.773
  0
LINE
  8
0
 10
96.3623
 20
65.773
 11
96.2301
 21
65.7171
  0
LINE
  8
0
 10
96.2301
 20
65.7171
 11
96.1937
 21
65.7025
  0
LINE
  8
0
 10
96.1937
 20
65.7025
 11
96.0964
 21
65.6658
  0
LINE
  8
0
 10
96.0964
 20
65.6658
 11
96.0591
 21
65.6526
  0
LINE
  8
0
 10
96.0591
 20
65.6526
 11
95.9217
 21
65.6069
  0
LINE
  8
0
 10
95.9217
 20
65.6069
 11
95.8839
 21
65.5951
  0
LINE
  8
0
 10
95.8839
 20
65.5951
 11
95.7831
 21
65.566
  0
LINE
  8
0
 10
95.7831
 20
65.566
 11
95.7446
 21
65.5557
  0
LINE
  8
0
 10
95.7446
 20
65.5557
 11
95.6027
 21
65.5207
  0
LINE
  8
0
 10
95.6027
 20
65.5207
 11
95.5637
 21
65.5119
  0
LINE
  8
0
 10
95.5637
 20
65.5119
 11
95.4599
 21
65.4907
  0
LINE
  8
0
 10
95.4599
 20
65.4907
 11
95.4203
 21
65.4834
  0
LINE
  8
0
 10
95.4203
 20
65.4834
 11
95.275
 21
65.4597
  0
LINE
  8
0
 10
95.275
 20
65.4597
 11
95.2352
 21
65.4541
  0
LINE
  8
0
 10
95.2352
 20
65.4541
 11
95.1286
 21
65.4411
  0
LINE
  8
0
 10
95.1286
 20
65.4411
 11
95.0883
 21
65.437
  0
LINE
  8
0
 10
95.0883
 20
65.437
 11
94.9408
 21
65.425
  0
LINE
  8
0
 10
94.9408
 20
65.425
 11
94.9005
 21
65.4226
  0
LINE
  8
0
 10
94.9005
 20
65.4226
 11
94.7914
 21
65.4182
  0
LINE
  8
0
 10
94.7914
 20
65.4182
 11
94.751
 21
65.4174
  0
LINE
  8
0
 10
94.751
 20
65.4174
 11
94.6032
 21
65.4174
  0
LINE
  8
0
 10
94.6032
 20
65.4174
 11
94.5628
 21
65.4182
  0
LINE
  8
0
 10
18.563
 20
61.6681
 11
18.454
 21
61.6725
  0
LINE
  8
0
 10
18.454
 20
61.6725
 11
18.4136
 21
61.675
  0
LINE
  8
0
 10
18.4136
 20
61.675
 11
18.2661
 21
61.6869
  0
LINE
  8
0
 10
18.2661
 20
61.6869
 11
18.2259
 21
61.691
  0
LINE
  8
0
 10
18.2259
 20
61.691
 11
18.1193
 21
61.704
  0
LINE
  8
0
 10
18.1193
 20
61.704
 11
18.0794
 21
61.7097
  0
LINE
  8
0
 10
18.0794
 20
61.7097
 11
17.9342
 21
61.7333
  0
LINE
  8
0
 10
17.9342
 20
61.7333
 11
17.8946
 21
61.7406
  0
LINE
  8
0
 10
17.8946
 20
61.7406
 11
17.7907
 21
61.7618
  0
LINE
  8
0
 10
17.7907
 20
61.7618
 11
17.7518
 21
61.7706
  0
LINE
  8
0
 10
17.7518
 20
61.7706
 11
17.6099
 21
61.8056
  0
LINE
  8
0
 10
17.6099
 20
61.8056
 11
17.5713
 21
61.8159
  0
LINE
  8
0
 10
17.5713
 20
61.8159
 11
17.4706
 21
61.8451
  0
LINE
  8
0
 10
17.4706
 20
61.8451
 11
17.4328
 21
61.8568
  0
LINE
  8
0
 10
17.4328
 20
61.8568
 11
17.2954
 21
61.9025
  0
LINE
  8
0
 10
17.2954
 20
61.9025
 11
17.2581
 21
61.9158
  0
LINE
  8
0
 10
17.2581
 20
61.9158
 11
17.1608
 21
61.9525
  0
LINE
  8
0
 10
17.1608
 20
61.9525
 11
17.1244
 21
61.967
  0
LINE
  8
0
 10
17.1244
 20
61.967
 11
16.9922
 21
62.0229
  0
LINE
  8
0
 10
16.9922
 20
62.0229
 11
16.9564
 21
62.0389
  0
LINE
  8
0
 10
16.9564
 20
62.0389
 11
16.8629
 21
62.0828
  0
LINE
  8
0
 10
16.8629
 20
62.0828
 11
16.828
 21
62.1
  0
LINE
  8
0
 10
16.828
 20
62.1
 11
16.7017
 21
62.1655
  0
LINE
  8
0
 10
16.7017
 20
62.1655
 11
16.6676
 21
62.184
  0
LINE
  8
0
 10
16.6676
 20
62.184
 11
16.5782
 21
62.2348
  0
LINE
  8
0
 10
16.5782
 20
62.2348
 11
16.545
 21
62.2545
  0
LINE
  8
0
 10
16.545
 20
62.2545
 11
16.4251
 21
62.329
  0
LINE
  8
0
 10
16.4251
 20
62.329
 11
16.3927
 21
62.35
  0
LINE
  8
0
 10
16.3927
 20
62.35
 11
16.3078
 21
62.4073
  0
LINE
  8
0
 10
16.3078
 20
62.4073
 11
16.2765
 21
62.4294
  0
LINE
  8
0
 10
16.2765
 20
62.4294
 11
16.1633
 21
62.5123
  0
LINE
  8
0
 10
16.1633
 20
62.5123
 11
16.1328
 21
62.5356
  0
LINE
  8
0
 10
16.1328
 20
62.5356
 11
16.0528
 21
62.5991
  0
LINE
  8
0
 10
16.0528
 20
62.5991
 11
16.0233
 21
62.6234
  0
LINE
  8
0
 10
16.0233
 20
62.6234
 11
15.9172
 21
62.7145
  0
LINE
  8
0
 10
15.9172
 20
62.7145
 11
15.8887
 21
62.7399
  0
LINE
  8
0
 10
15.8887
 20
62.7399
 11
15.8138
 21
62.8093
  0
LINE
  8
0
 10
15.8138
 20
62.8093
 11
15.7863
 21
62.8357
  0
LINE
  8
0
 10
15.7863
 20
62.8357
 11
15.6875
 21
62.9345
  0
LINE
  8
0
 10
15.6875
 20
62.9345
 11
15.6611
 21
62.962
  0
LINE
  8
0
 10
15.6611
 20
62.962
 11
15.5917
 21
63.0368
  0
LINE
  8
0
 10
15.5917
 20
63.0368
 11
15.5663
 21
63.0654
  0
LINE
  8
0
 10
15.5663
 20
63.0654
 11
15.4752
 21
63.1715
  0
LINE
  8
0
 10
15.4752
 20
63.1715
 11
15.4509
 21
63.2009
  0
LINE
  8
0
 10
15.4509
 20
63.2009
 11
15.3874
 21
63.281
  0
LINE
  8
0
 10
15.3874
 20
63.281
 11
15.3641
 21
63.3115
  0
LINE
  8
0
 10
15.3641
 20
63.3115
 11
15.2812
 21
63.4247
  0
LINE
  8
0
 10
15.2812
 20
63.4247
 11
15.2591
 21
63.456
  0
LINE
  8
0
 10
15.2591
 20
63.456
 11
15.2018
 21
63.5409
  0
LINE
  8
0
 10
15.2018
 20
63.5409
 11
15.1808
 21
63.5733
  0
LINE
  8
0
 10
15.1808
 20
63.5733
 11
15.1064
 21
63.6932
  0
LINE
  8
0
 10
15.1064
 20
63.6932
 11
15.0866
 21
63.7264
  0
LINE
  8
0
 10
15.0866
 20
63.7264
 11
15.0358
 21
63.8157
  0
LINE
  8
0
 10
15.0358
 20
63.8157
 11
15.0173
 21
63.8499
  0
LINE
  8
0
 10
15.0173
 20
63.8499
 11
14.9518
 21
63.9762
  0
LINE
  8
0
 10
14.9518
 20
63.9762
 11
14.9346
 21
64.0111
  0
LINE
  8
0
 10
14.9346
 20
64.0111
 11
14.8907
 21
64.1046
  0
LINE
  8
0
 10
14.8907
 20
64.1046
 11
14.8747
 21
64.1404
  0
LINE
  8
0
 10
14.8747
 20
64.1404
 11
14.8189
 21
64.2726
  0
LINE
  8
0
 10
14.8189
 20
64.2726
 11
14.8043
 21
64.309
  0
LINE
  8
0
 10
14.8043
 20
64.309
 11
14.7676
 21
64.4063
  0
LINE
  8
0
 10
14.7676
 20
64.4063
 11
14.7544
 21
64.4436
  0
LINE
  8
0
 10
14.7544
 20
64.4436
 11
14.7086
 21
64.581
  0
LINE
  8
0
 10
14.7086
 20
64.581
 11
14.6969
 21
64.6188
  0
LINE
  8
0
 10
14.6969
 20
64.6188
 11
14.6677
 21
64.7195
  0
LINE
  8
0
 10
14.6677
 20
64.7195
 11
14.6574
 21
64.7581
  0
LINE
  8
0
 10
14.6574
 20
64.7581
 11
14.6224
 21
64.9
  0
LINE
  8
0
 10
14.6224
 20
64.9
 11
14.6137
 21
64.9389
  0
LINE
  8
0
 10
14.6137
 20
64.9389
 11
14.5924
 21
65.0428
  0
LINE
  8
0
 10
14.5924
 20
65.0428
 11
14.5852
 21
65.0823
  0
LINE
  8
0
 10
14.5852
 20
65.0823
 11
14.5615
 21
65.2276
  0
LINE
  8
0
 10
14.5615
 20
65.2276
 11
14.5558
 21
65.2674
  0
LINE
  8
0
 10
14.5558
 20
65.2674
 11
14.5428
 21
65.3741
  0
LINE
  8
0
 10
14.5428
 20
65.3741
 11
14.5387
 21
65.4143
  0
LINE
  8
0
 10
14.5387
 20
65.4143
 11
14.5268
 21
65.5618
  0
LINE
  8
0
 10
14.5268
 20
65.5618
 11
14.5243
 21
65.6022
  0
LINE
  8
0
 10
14.5243
 20
65.6022
 11
14.5199
 21
65.7112
  0
LINE
  8
0
 10
14.5199
 20
65.7112
 11
14.5191
 21
65.7516
  0
LINE
  8
0
 10
14.5191
 20
65.7516
 11
14.5191
 21
65.8994
  0
LINE
  8
0
 10
14.5191
 20
65.8994
 11
14.5199
 21
65.9397
  0
LINE
  8
0
 10
14.5199
 20
65.9397
 11
14.5243
 21
66.0489
  0
LINE
  8
0
 10
14.5243
 20
66.0489
 11
14.5268
 21
66.0892
  0
LINE
  8
0
 10
14.5268
 20
66.0892
 11
14.5387
 21
66.2367
  0
LINE
  8
0
 10
14.5387
 20
66.2367
 11
14.5428
 21
66.2769
  0
LINE
  8
0
 10
14.5428
 20
66.2769
 11
14.5558
 21
66.3835
  0
LINE
  8
0
 10
14.5558
 20
66.3835
 11
14.5615
 21
66.4234
  0
LINE
  8
0
 10
14.5615
 20
66.4234
 11
14.5851
 21
66.5686
  0
LINE
  8
0
 10
14.5851
 20
66.5686
 11
14.5924
 21
66.6082
  0
LINE
  8
0
 10
14.5924
 20
66.6082
 11
14.6136
 21
66.7121
  0
LINE
  8
0
 10
14.6136
 20
66.7121
 11
14.6224
 21
66.751
  0
LINE
  8
0
 10
14.6224
 20
66.751
 11
14.6574
 21
66.8929
  0
LINE
  8
0
 10
14.6574
 20
66.8929
 11
14.6677
 21
66.9315
  0
LINE
  8
0
 10
14.6677
 20
66.9315
 11
14.6968
 21
67.0322
  0
LINE
  8
0
 10
14.6968
 20
67.0322
 11
14.7086
 21
67.07
  0
LINE
  8
0
 10
14.7086
 20
67.07
 11
14.7543
 21
67.2075
  0
LINE
  8
0
 10
14.7543
 20
67.2075
 11
14.7675
 21
67.2448
  0
LINE
  8
0
 10
14.7675
 20
67.2448
 11
14.8042
 21
67.3421
  0
LINE
  8
0
 10
14.8042
 20
67.3421
 11
14.8188
 21
67.3785
  0
LINE
  8
0
 10
14.8188
 20
67.3785
 11
14.8747
 21
67.5107
  0
LINE
  8
0
 10
14.8747
 20
67.5107
 11
14.8907
 21
67.5466
  0
LINE
  8
0
 10
14.8907
 20
67.5466
 11
14.9346
 21
67.6401
  0
LINE
  8
0
 10
14.9346
 20
67.6401
 11
14.9518
 21
67.6749
  0
LINE
  8
0
 10
14.9518
 20
67.6749
 11
15.0173
 21
67.8013
  0
LINE
  8
0
 10
15.0173
 20
67.8013
 11
15.0358
 21
67.8355
  0
LINE
  8
0
 10
15.0358
 20
67.8355
 11
15.0866
 21
67.9248
  0
LINE
  8
0
 10
15.0866
 20
67.9248
 11
15.1064
 21
67.958
  0
LINE
  8
0
 10
15.1064
 20
67.958
 11
15.1808
 21
68.078
  0
LINE
  8
0
 10
15.1808
 20
68.078
 11
15.2018
 21
68.1104
  0
LINE
  8
0
 10
15.2018
 20
68.1104
 11
15.2592
 21
68.1952
  0
LINE
  8
0
 10
15.2592
 20
68.1952
 11
15.2812
 21
68.2266
  0
LINE
  8
0
 10
15.2812
 20
68.2266
 11
15.3642
 21
68.3398
  0
LINE
  8
0
 10
15.3642
 20
68.3398
 11
15.3875
 21
68.3704
  0
LINE
  8
0
 10
15.3875
 20
68.3704
 11
15.451
 21
68.4504
  0
LINE
  8
0
 10
15.451
 20
68.4504
 11
15.4754
 21
68.4799
  0
LINE
  8
0
 10
15.4754
 20
68.4799
 11
15.5664
 21
68.586
  0
LINE
  8
0
 10
15.5664
 20
68.586
 11
15.5919
 21
68.6146
  0
LINE
  8
0
 10
15.5919
 20
68.6146
 11
15.6613
 21
68.6894
  0
LINE
  8
0
 10
15.6613
 20
68.6894
 11
15.6877
 21
68.7169
  0
LINE
  8
0
 10
15.6877
 20
68.7169
 11
15.7865
 21
68.8157
  0
LINE
  8
0
 10
15.7865
 20
68.8157
 11
15.814
 21
68.8422
  0
LINE
  8
0
 10
15.814
 20
68.8422
 11
15.8889
 21
68.9115
  0
LINE
  8
0
 10
15.8889
 20
68.9115
 11
15.9174
 21
68.937
  0
LINE
  8
0
 10
15.9174
 20
68.937
 11
16.0236
 21
69.028
  0
LINE
  8
0
 10
16.0236
 20
69.028
 11
16.0531
 21
69.0523
  0
LINE
  8
0
 10
16.0531
 20
69.0523
 11
16.1331
 21
69.1158
  0
LINE
  8
0
 10
16.1331
 20
69.1158
 11
16.1636
 21
69.1391
  0
LINE
  8
0
 10
16.1636
 20
69.1391
 11
16.2769
 21
69.222
  0
LINE
  8
0
 10
16.2769
 20
69.222
 11
16.3082
 21
69.2441
  0
LINE
  8
0
 10
16.3082
 20
69.2441
 11
16.3931
 21
69.3014
  0
LINE
  8
0
 10
16.3931
 20
69.3014
 11
16.4255
 21
69.3224
  0
LINE
  8
0
 10
16.4255
 20
69.3224
 11
16.5455
 21
69.3968
  0
LINE
  8
0
 10
16.5455
 20
69.3968
 11
16.5786
 21
69.4166
  0
LINE
  8
0
 10
16.5786
 20
69.4166
 11
16.668
 21
69.4673
  0
LINE
  8
0
 10
16.668
 20
69.4673
 11
16.7022
 21
69.4859
  0
LINE
  8
0
 10
16.7022
 20
69.4859
 11
16.8285
 21
69.5513
  0
LINE
  8
0
 10
16.8285
 20
69.5513
 11
16.8633
 21
69.5685
  0
LINE
  8
0
 10
16.8633
 20
69.5685
 11
16.9568
 21
69.6124
  0
LINE
  8
0
 10
16.9568
 20
69.6124
 11
16.9927
 21
69.6284
  0
LINE
  8
0
 10
16.9927
 20
69.6284
 11
17.1248
 21
69.6842
  0
LINE
  8
0
 10
17.1248
 20
69.6842
 11
17.1612
 21
69.6988
  0
LINE
  8
0
 10
17.1612
 20
69.6988
 11
17.2585
 21
69.7355
  0
LINE
  8
0
 10
17.2585
 20
69.7355
 11
17.2958
 21
69.7487
  0
LINE
  8
0
 10
17.2958
 20
69.7487
 11
17.4332
 21
69.7944
  0
LINE
  8
0
 10
17.4332
 20
69.7944
 11
17.471
 21
69.8061
  0
LINE
  8
0
 10
17.471
 20
69.8061
 11
17.5718
 21
69.8353
  0
LINE
  8
0
 10
17.5718
 20
69.8353
 11
17.6103
 21
69.8456
  0
LINE
  8
0
 10
17.6103
 20
69.8456
 11
17.7521
 21
69.8805
  0
LINE
  8
0
 10
17.7521
 20
69.8805
 11
17.7911
 21
69.8893
  0
LINE
  8
0
 10
17.7911
 20
69.8893
 11
17.8949
 21
69.9105
  0
LINE
  8
0
 10
17.8949
 20
69.9105
 11
17.9345
 21
69.9178
  0
LINE
  8
0
 10
17.9345
 20
69.9178
 11
18.0797
 21
69.9414
  0
LINE
  8
0
 10
18.0797
 20
69.9414
 11
18.1195
 21
69.9471
  0
LINE
  8
0
 10
18.1195
 20
69.9471
 11
18.2261
 21
69.9601
  0
LINE
  8
0
 10
18.2261
 20
69.9601
 11
18.2663
 21
69.9641
  0
LINE
  8
0
 10
18.2663
 20
69.9641
 11
18.4137
 21
69.9761
  0
LINE
  8
0
 10
18.4137
 20
69.9761
 11
18.4541
 21
69.9785
  0
LINE
  8
0
 10
18.4541
 20
69.9785
 11
18.5631
 21
69.9829
  0
LINE
  8
0
 10
18.5631
 20
69.9829
 11
18.6035
 21
69.9837
  0
LINE
  8
0
 10
18.6035
 20
69.9837
 11
18.7512
 21
69.9837
  0
LINE
  8
0
 10
18.7512
 20
69.9837
 11
18.7916
 21
69.9829
  0
LINE
  8
0
 10
18.7916
 20
69.9829
 11
18.9006
 21
69.9785
  0
LINE
  8
0
 10
18.9006
 20
69.9785
 11
18.941
 21
69.9761
  0
LINE
  8
0
 10
18.941
 20
69.9761
 11
19.0884
 21
69.9641
  0
LINE
  8
0
 10
19.0884
 20
69.9641
 11
19.1286
 21
69.9601
  0
LINE
  8
0
 10
19.1286
 20
69.9601
 11
19.2352
 21
69.9471
  0
LINE
  8
0
 10
19.2352
 20
69.9471
 11
19.275
 21
69.9414
  0
LINE
  8
0
 10
19.275
 20
69.9414
 11
19.4202
 21
69.9178
  0
LINE
  8
0
 10
19.4202
 20
69.9178
 11
19.4598
 21
69.9105
  0
LINE
  8
0
 10
19.4598
 20
69.9105
 11
19.5636
 21
69.8893
  0
LINE
  8
0
 10
19.5636
 20
69.8893
 11
19.6026
 21
69.8805
  0
LINE
  8
0
 10
19.6026
 20
69.8805
 11
19.7444
 21
69.8456
  0
LINE
  8
0
 10
19.7444
 20
69.8456
 11
19.7829
 21
69.8353
  0
LINE
  8
0
 10
19.7829
 20
69.8353
 11
19.8837
 21
69.8061
  0
LINE
  8
0
 10
19.8837
 20
69.8061
 11
19.9215
 21
69.7944
  0
LINE
  8
0
 10
19.9215
 20
69.7944
 11
20.0589
 21
69.7487
  0
LINE
  8
0
 10
20.0589
 20
69.7487
 11
20.0961
 21
69.7355
  0
LINE
  8
0
 10
20.0961
 20
69.7355
 11
20.1934
 21
69.6988
  0
LINE
  8
0
 10
20.1934
 20
69.6988
 11
20.2298
 21
69.6842
  0
LINE
  8
0
 10
20.2298
 20
69.6842
 11
20.362
 21
69.6284
  0
LINE
  8
0
 10
20.362
 20
69.6284
 11
20.3978
 21
69.6124
  0
LINE
  8
0
 10
20.3978
 20
69.6124
 11
20.4913
 21
69.5685
  0
LINE
  8
0
 10
20.4913
 20
69.5685
 11
20.5262
 21
69.5513
  0
LINE
  8
0
 10
20.5262
 20
69.5513
 11
20.6525
 21
69.4859
  0
LINE
  8
0
 10
20.6525
 20
69.4859
 11
20.6867
 21
69.4673
  0
LINE
  8
0
 10
20.6867
 20
69.4673
 11
20.776
 21
69.4166
  0
LINE
  8
0
 10
20.776
 20
69.4166
 11
20.8092
 21
69.3968
  0
LINE
  8
0
 10
20.8092
 20
69.3968
 11
20.9292
 21
69.3224
  0
LINE
  8
0
 10
20.9292
 20
69.3224
 11
20.9615
 21
69.3014
  0
LINE
  8
0
 10
20.9615
 20
69.3014
 11
21.0464
 21
69.2441
  0
LINE
  8
0
 10
21.0464
 20
69.2441
 11
21.0778
 21
69.222
  0
LINE
  8
0
 10
21.0778
 20
69.222
 11
21.191
 21
69.1391
  0
LINE
  8
0
 10
21.191
 20
69.1391
 11
21.2215
 21
69.1158
  0
LINE
  8
0
 10
21.2215
 20
69.1158
 11
21.3016
 21
69.0523
  0
LINE
  8
0
 10
21.3016
 20
69.0523
 11
21.3311
 21
69.028
  0
LINE
  8
0
 10
21.3311
 20
69.028
 11
21.4372
 21
68.937
  0
LINE
  8
0
 10
21.4372
 20
68.937
 11
21.4657
 21
68.9115
  0
LINE
  8
0
 10
21.4657
 20
68.9115
 11
21.5406
 21
68.8422
  0
LINE
  8
0
 10
21.5406
 20
68.8422
 11
21.5681
 21
68.8157
  0
LINE
  8
0
 10
21.5681
 20
68.8157
 11
21.6669
 21
68.7169
  0
LINE
  8
0
 10
21.6669
 20
68.7169
 11
21.6934
 21
68.6894
  0
LINE
  8
0
 10
21.6934
 20
68.6894
 11
21.7628
 21
68.6146
  0
LINE
  8
0
 10
21.7628
 20
68.6146
 11
21.7882
 21
68.586
  0
LINE
  8
0
 10
21.7882
 20
68.586
 11
21.8793
 21
68.4799
  0
LINE
  8
0
 10
21.8793
 20
68.4799
 11
21.9036
 21
68.4504
  0
LINE
  8
0
 10
21.9036
 20
68.4504
 11
21.9671
 21
68.3704
  0
LINE
  8
0
 10
21.9671
 20
68.3704
 11
21.9904
 21
68.3399
  0
LINE
  8
0
 10
21.9904
 20
68.3399
 11
22.0734
 21
68.2266
  0
LINE
  8
0
 10
22.0734
 20
68.2266
 11
22.0955
 21
68.1953
  0
LINE
  8
0
 10
22.0955
 20
68.1953
 11
22.1528
 21
68.1104
  0
LINE
  8
0
 10
22.1528
 20
68.1104
 11
22.1738
 21
68.078
  0
LINE
  8
0
 10
22.1738
 20
68.078
 11
22.2483
 21
67.958
  0
LINE
  8
0
 10
22.2483
 20
67.958
 11
22.268
 21
67.9248
  0
LINE
  8
0
 10
22.268
 20
67.9248
 11
22.3188
 21
67.8355
  0
LINE
  8
0
 10
22.3188
 20
67.8355
 11
22.3374
 21
67.8013
  0
LINE
  8
0
 10
22.3374
 20
67.8013
 11
22.4029
 21
67.675
  0
LINE
  8
0
 10
22.4029
 20
67.675
 11
22.4201
 21
67.6401
  0
LINE
  8
0
 10
22.4201
 20
67.6401
 11
22.464
 21
67.5466
  0
LINE
  8
0
 10
22.464
 20
67.5466
 11
22.48
 21
67.5108
  0
LINE
  8
0
 10
22.48
 20
67.5108
 11
22.5359
 21
67.3785
  0
LINE
  8
0
 10
22.5359
 20
67.3785
 11
22.5504
 21
67.3421
  0
LINE
  8
0
 10
22.5504
 20
67.3421
 11
22.5871
 21
67.2448
  0
LINE
  8
0
 10
22.5871
 20
67.2448
 11
22.6004
 21
67.2075
  0
LINE
  8
0
 10
22.6004
 20
67.2075
 11
22.6461
 21
67.0701
  0
LINE
  8
0
 10
22.6461
 20
67.0701
 11
22.6578
 21
67.0322
  0
LINE
  8
0
 10
22.6578
 20
67.0322
 11
22.687
 21
66.9315
  0
LINE
  8
0
 10
22.687
 20
66.9315
 11
22.6973
 21
66.8929
  0
LINE
  8
0
 10
22.6973
 20
66.8929
 11
22.7323
 21
66.751
  0
LINE
  8
0
 10
22.7323
 20
66.751
 11
22.7411
 21
66.7121
  0
LINE
  8
0
 10
22.7411
 20
66.7121
 11
22.7623
 21
66.6082
  0
LINE
  8
0
 10
22.7623
 20
66.6082
 11
22.7696
 21
66.5686
  0
LINE
  8
0
 10
22.7696
 20
66.5686
 11
22.7932
 21
66.4234
  0
LINE
  8
0
 10
22.7932
 20
66.4234
 11
22.7989
 21
66.3836
  0
LINE
  8
0
 10
22.7989
 20
66.3836
 11
22.8119
 21
66.2769
  0
LINE
  8
0
 10
22.8119
 20
66.2769
 11
22.816
 21
66.2367
  0
LINE
  8
0
 10
22.816
 20
66.2367
 11
22.8279
 21
66.0892
  0
LINE
  8
0
 10
22.8279
 20
66.0892
 11
22.8303
 21
66.0489
  0
LINE
  8
0
 10
22.8303
 20
66.0489
 11
22.8348
 21
65.9398
  0
LINE
  8
0
 10
22.8348
 20
65.9398
 11
22.8356
 21
65.8994
  0
LINE
  8
0
 10
22.8356
 20
65.8994
 11
22.8356
 21
65.7516
  0
LINE
  8
0
 10
22.8356
 20
65.7516
 11
22.8347
 21
65.7112
  0
LINE
  8
0
 10
22.8347
 20
65.7112
 11
22.8303
 21
65.6022
  0
LINE
  8
0
 10
22.8303
 20
65.6022
 11
22.8279
 21
65.5618
  0
LINE
  8
0
 10
22.8279
 20
65.5618
 11
22.8159
 21
65.4143
  0
LINE
  8
0
 10
22.8159
 20
65.4143
 11
22.8119
 21
65.3741
  0
LINE
  8
0
 10
22.8119
 20
65.3741
 11
22.7989
 21
65.2674
  0
LINE
  8
0
 10
22.7989
 20
65.2674
 11
22.7932
 21
65.2276
  0
LINE
  8
0
 10
22.7932
 20
65.2276
 11
22.7695
 21
65.0823
  0
LINE
  8
0
 10
22.7695
 20
65.0823
 11
22.7623
 21
65.0428
  0
LINE
  8
0
 10
22.7623
 20
65.0428
 11
22.741
 21
64.9389
  0
LINE
  8
0
 10
22.741
 20
64.9389
 11
22.7322
 21
64.8999
  0
LINE
  8
0
 10
22.7322
 20
64.8999
 11
22.6973
 21
64.7581
  0
LINE
  8
0
 10
22.6973
 20
64.7581
 11
22.6869
 21
64.7195
  0
LINE
  8
0
 10
22.6869
 20
64.7195
 11
22.6578
 21
64.6188
  0
LINE
  8
0
 10
22.6578
 20
64.6188
 11
22.646
 21
64.581
  0
LINE
  8
0
 10
22.646
 20
64.581
 11
22.6003
 21
64.4435
  0
LINE
  8
0
 10
22.6003
 20
64.4435
 11
22.5871
 21
64.4062
  0
LINE
  8
0
 10
22.5871
 20
64.4062
 11
22.5504
 21
64.3089
  0
LINE
  8
0
 10
22.5504
 20
64.3089
 11
22.5358
 21
64.2725
  0
LINE
  8
0
 10
22.5358
 20
64.2725
 11
22.4799
 21
64.1404
  0
LINE
  8
0
 10
22.4799
 20
64.1404
 11
22.464
 21
64.1045
  0
LINE
  8
0
 10
22.464
 20
64.1045
 11
22.42
 21
64.011
  0
LINE
  8
0
 10
22.42
 20
64.011
 11
22.4028
 21
63.9762
  0
LINE
  8
0
 10
22.4028
 20
63.9762
 11
22.3374
 21
63.8499
  0
LINE
  8
0
 10
22.3374
 20
63.8499
 11
22.3188
 21
63.8157
  0
LINE
  8
0
 10
22.3188
 20
63.8157
 11
22.268
 21
63.7264
  0
LINE
  8
0
 10
22.268
 20
63.7264
 11
22.2483
 21
63.6932
  0
LINE
  8
0
 10
22.2483
 20
63.6932
 11
22.1739
 21
63.5733
  0
LINE
  8
0
 10
22.1739
 20
63.5733
 11
22.1529
 21
63.5409
  0
LINE
  8
0
 10
22.1529
 20
63.5409
 11
22.0955
 21
63.456
  0
LINE
  8
0
 10
22.0955
 20
63.456
 11
22.0735
 21
63.4247
  0
LINE
  8
0
 10
22.0735
 20
63.4247
 11
21.9905
 21
63.3115
  0
LINE
  8
0
 10
21.9905
 20
63.3115
 11
21.9673
 21
63.281
  0
LINE
  8
0
 10
21.9673
 20
63.281
 11
21.9037
 21
63.2009
  0
LINE
  8
0
 10
21.9037
 20
63.2009
 11
21.8794
 21
63.1715
  0
LINE
  8
0
 10
21.8794
 20
63.1715
 11
21.7884
 21
63.0654
  0
LINE
  8
0
 10
21.7884
 20
63.0654
 11
21.763
 21
63.0368
  0
LINE
  8
0
 10
21.763
 20
63.0368
 11
21.6936
 21
62.9619
  0
LINE
  8
0
 10
21.6936
 20
62.9619
 11
21.6671
 21
62.9345
  0
LINE
  8
0
 10
21.6671
 20
62.9345
 11
21.5684
 21
62.8357
  0
LINE
  8
0
 10
21.5684
 20
62.8357
 11
21.5409
 21
62.8093
  0
LINE
  8
0
 10
21.5409
 20
62.8093
 11
21.466
 21
62.7399
  0
LINE
  8
0
 10
21.466
 20
62.7399
 11
21.4375
 21
62.7145
  0
LINE
  8
0
 10
21.4375
 20
62.7145
 11
21.3314
 21
62.6234
  0
LINE
  8
0
 10
21.3314
 20
62.6234
 11
21.3019
 21
62.5991
  0
LINE
  8
0
 10
21.3019
 20
62.5991
 11
21.2219
 21
62.5356
  0
LINE
  8
0
 10
21.2219
 20
62.5356
 11
21.1914
 21
62.5123
  0
LINE
  8
0
 10
21.1914
 20
62.5123
 11
21.0782
 21
62.4294
  0
LINE
  8
0
 10
21.0782
 20
62.4294
 11
21.0468
 21
62.4073
  0
LINE
  8
0
 10
21.0468
 20
62.4073
 11
20.9619
 21
62.35
  0
LINE
  8
0
 10
20.9619
 20
62.35
 11
20.9296
 21
62.329
  0
LINE
  8
0
 10
20.9296
 20
62.329
 11
20.8096
 21
62.2545
  0
LINE
  8
0
 10
20.8096
 20
62.2545
 11
20.7765
 21
62.2348
  0
LINE
  8
0
 10
20.7765
 20
62.2348
 11
20.6871
 21
62.184
  0
LINE
  8
0
 10
20.6871
 20
62.184
 11
20.653
 21
62.1655
  0
LINE
  8
0
 10
20.653
 20
62.1655
 11
20.5267
 21
62.1
  0
LINE
  8
0
 10
20.5267
 20
62.1
 11
20.4918
 21
62.0828
  0
LINE
  8
0
 10
20.4918
 20
62.0828
 11
20.3983
 21
62.0389
  0
LINE
  8
0
 10
20.3983
 20
62.0389
 11
20.3625
 21
62.0229
  0
LINE
  8
0
 10
20.3625
 20
62.0229
 11
20.2303
 21
61.967
  0
LINE
  8
0
 10
20.2303
 20
61.967
 11
20.1939
 21
61.9525
  0
LINE
  8
0
 10
20.1939
 20
61.9525
 11
20.0966
 21
61.9158
  0
LINE
  8
0
 10
20.0966
 20
61.9158
 11
20.0593
 21
61.9025
  0
LINE
  8
0
 10
20.0593
 20
61.9025
 11
19.9219
 21
61.8568
  0
LINE
  8
0
 10
19.9219
 20
61.8568
 11
19.8841
 21
61.8451
  0
LINE
  8
0
 10
19.8841
 20
61.8451
 11
19.7833
 21
61.8159
  0
LINE
  8
0
 10
19.7833
 20
61.8159
 11
19.7448
 21
61.8056
  0
LINE
  8
0
 10
19.7448
 20
61.8056
 11
19.6029
 21
61.7706
  0
LINE
  8
0
 10
19.6029
 20
61.7706
 11
19.564
 21
61.7618
  0
LINE
  8
0
 10
19.564
 20
61.7618
 11
19.4601
 21
61.7406
  0
LINE
  8
0
 10
19.4601
 20
61.7406
 11
19.4205
 21
61.7333
  0
LINE
  8
0
 10
19.4205
 20
61.7333
 11
19.2752
 21
61.7097
  0
LINE
  8
0
 10
19.2752
 20
61.7097
 11
19.2354
 21
61.704
  0
LINE
  8
0
 10
19.2354
 20
61.704
 11
19.1288
 21
61.691
  0
LINE
  8
0
 10
19.1288
 20
61.691
 11
19.0886
 21
61.6869
  0
LINE
  8
0
 10
19.0886
 20
61.6869
 11
18.9411
 21
61.675
  0
LINE
  8
0
 10
18.9411
 20
61.675
 11
18.9007
 21
61.6725
  0
LINE
  8
0
 10
18.9007
 20
61.6725
 11
18.7916
 21
61.6681
  0
LINE
  8
0
 10
18.7916
 20
61.6681
 11
18.7512
 21
61.6673
  0
LINE
  8
0
 10
18.7512
 20
61.6673
 11
18.6034
 21
61.6673
  0
LINE
  8
0
 10
18.6034
 20
61.6673
 11
18.563
 21
61.6681
  0
LINE
  8
0
 10
18.563
 20
42.9182
 11
18.4539
 21
42.9226
  0
LINE
  8
0
 10
18.4539
 20
42.9226
 11
18.4135
 21
42.9251
  0
LINE
  8
0
 10
18.4135
 20
42.9251
 11
18.266
 21
42.937
  0
LINE
  8
0
 10
18.266
 20
42.937
 11
18.2258
 21
42.9411
  0
LINE
  8
0
 10
18.2258
 20
42.9411
 11
18.1192
 21
42.9541
  0
LINE
  8
0
 10
18.1192
 20
42.9541
 11
18.0794
 21
42.9598
  0
LINE
  8
0
 10
18.0794
 20
42.9598
 11
17.9341
 21
42.9834
  0
LINE
  8
0
 10
17.9341
 20
42.9834
 11
17.8945
 21
42.9907
  0
LINE
  8
0
 10
17.8945
 20
42.9907
 11
17.7906
 21
43.012
  0
LINE
  8
0
 10
17.7906
 20
43.012
 11
17.7517
 21
43.0207
  0
LINE
  8
0
 10
17.7517
 20
43.0207
 11
17.6098
 21
43.0557
  0
LINE
  8
0
 10
17.6098
 20
43.0557
 11
17.5713
 21
43.066
  0
LINE
  8
0
 10
17.5713
 20
43.066
 11
17.4705
 21
43.0952
  0
LINE
  8
0
 10
17.4705
 20
43.0952
 11
17.4327
 21
43.1069
  0
LINE
  8
0
 10
17.4327
 20
43.1069
 11
17.2953
 21
43.1527
  0
LINE
  8
0
 10
17.2953
 20
43.1527
 11
17.258
 21
43.1659
  0
LINE
  8
0
 10
17.258
 20
43.1659
 11
17.1607
 21
43.2026
  0
LINE
  8
0
 10
17.1607
 20
43.2026
 11
17.1243
 21
43.2172
  0
LINE
  8
0
 10
17.1243
 20
43.2172
 11
16.9921
 21
43.273
  0
LINE
  8
0
 10
16.9921
 20
43.273
 11
16.9563
 21
43.289
  0
LINE
  8
0
 10
16.9563
 20
43.289
 11
16.8628
 21
43.3329
  0
LINE
  8
0
 10
16.8628
 20
43.3329
 11
16.8279
 21
43.3501
  0
LINE
  8
0
 10
16.8279
 20
43.3501
 11
16.7016
 21
43.4156
  0
LINE
  8
0
 10
16.7016
 20
43.4156
 11
16.6675
 21
43.4341
  0
LINE
  8
0
 10
16.6675
 20
43.4341
 11
16.5781
 21
43.485
  0
LINE
  8
0
 10
16.5781
 20
43.485
 11
16.545
 21
43.5047
  0
LINE
  8
0
 10
16.545
 20
43.5047
 11
16.425
 21
43.5791
  0
LINE
  8
0
 10
16.425
 20
43.5791
 11
16.3926
 21
43.6001
  0
LINE
  8
0
 10
16.3926
 20
43.6001
 11
16.3078
 21
43.6574
  0
LINE
  8
0
 10
16.3078
 20
43.6574
 11
16.2764
 21
43.6795
  0
LINE
  8
0
 10
16.2764
 20
43.6795
 11
16.1632
 21
43.7625
  0
LINE
  8
0
 10
16.1632
 20
43.7625
 11
16.1327
 21
43.7857
  0
LINE
  8
0
 10
16.1327
 20
43.7857
 11
16.0527
 21
43.8492
  0
LINE
  8
0
 10
16.0527
 20
43.8492
 11
16.0232
 21
43.8736
  0
LINE
  8
0
 10
16.0232
 20
43.8736
 11
15.9171
 21
43.9646
  0
LINE
  8
0
 10
15.9171
 20
43.9646
 11
15.8886
 21
43.99
  0
LINE
  8
0
 10
15.8886
 20
43.99
 11
15.8137
 21
44.0594
  0
LINE
  8
0
 10
15.8137
 20
44.0594
 11
15.7862
 21
44.0859
  0
LINE
  8
0
 10
15.7862
 20
44.0859
 11
15.6875
 21
44.1846
  0
LINE
  8
0
 10
15.6875
 20
44.1846
 11
15.661
 21
44.2121
  0
LINE
  8
0
 10
15.661
 20
44.2121
 11
15.5916
 21
44.287
  0
LINE
  8
0
 10
15.5916
 20
44.287
 11
15.5662
 21
44.3155
  0
LINE
  8
0
 10
15.5662
 20
44.3155
 11
15.4752
 21
44.4216
  0
LINE
  8
0
 10
15.4752
 20
44.4216
 11
15.4509
 21
44.4511
  0
LINE
  8
0
 10
15.4509
 20
44.4511
 11
15.3873
 21
44.5311
  0
LINE
  8
0
 10
15.3873
 20
44.5311
 11
15.3641
 21
44.5616
  0
LINE
  8
0
 10
15.3641
 20
44.5616
 11
15.2811
 21
44.6748
  0
LINE
  8
0
 10
15.2811
 20
44.6748
 11
15.259
 21
44.7062
  0
LINE
  8
0
 10
15.259
 20
44.7062
 11
15.2017
 21
44.791
  0
LINE
  8
0
 10
15.2017
 20
44.791
 11
15.1807
 21
44.8234
  0
LINE
  8
0
 10
15.1807
 20
44.8234
 11
15.1063
 21
44.9433
  0
LINE
  8
0
 10
15.1063
 20
44.9433
 11
15.0866
 21
44.9765
  0
LINE
  8
0
 10
15.0866
 20
44.9765
 11
15.0358
 21
45.0659
  0
LINE
  8
0
 10
15.0358
 20
45.0659
 11
15.0172
 21
45.1
  0
LINE
  8
0
 10
15.0172
 20
45.1
 11
14.9518
 21
45.2263
  0
LINE
  8
0
 10
14.9518
 20
45.2263
 11
14.9346
 21
45.2612
  0
LINE
  8
0
 10
14.9346
 20
45.2612
 11
14.8906
 21
45.3547
  0
LINE
  8
0
 10
14.8906
 20
45.3547
 11
14.8747
 21
45.3905
  0
LINE
  8
0
 10
14.8747
 20
45.3905
 11
14.8188
 21
45.5227
  0
LINE
  8
0
 10
14.8188
 20
45.5227
 11
14.8042
 21
45.5591
  0
LINE
  8
0
 10
14.8042
 20
45.5591
 11
14.7675
 21
45.6564
  0
LINE
  8
0
 10
14.7675
 20
45.6564
 11
14.7543
 21
45.6937
  0
LINE
  8
0
 10
14.7543
 20
45.6937
 11
14.7085
 21
45.8311
  0
LINE
  8
0
 10
14.7085
 20
45.8311
 11
14.6968
 21
45.8689
  0
LINE
  8
0
 10
14.6968
 20
45.8689
 11
14.6677
 21
45.9696
  0
LINE
  8
0
 10
14.6677
 20
45.9696
 11
14.6573
 21
46.0082
  0
LINE
  8
0
 10
14.6573
 20
46.0082
 11
14.6224
 21
46.1501
  0
LINE
  8
0
 10
14.6224
 20
46.1501
 11
14.6136
 21
46.189
  0
LINE
  8
0
 10
14.6136
 20
46.189
 11
14.5923
 21
46.2929
  0
LINE
  8
0
 10
14.5923
 20
46.2929
 11
14.5851
 21
46.3325
  0
LINE
  8
0
 10
14.5851
 20
46.3325
 11
14.5614
 21
46.4777
  0
LINE
  8
0
 10
14.5614
 20
46.4777
 11
14.5557
 21
46.5176
  0
LINE
  8
0
 10
14.5557
 20
46.5176
 11
14.5427
 21
46.6242
  0
LINE
  8
0
 10
14.5427
 20
46.6242
 11
14.5387
 21
46.6644
  0
LINE
  8
0
 10
14.5387
 20
46.6644
 11
14.5267
 21
46.8119
  0
LINE
  8
0
 10
14.5267
 20
46.8119
 11
14.5243
 21
46.8523
  0
LINE
  8
0
 10
14.5243
 20
46.8523
 11
14.5198
 21
46.9613
  0
LINE
  8
0
 10
14.5198
 20
46.9613
 11
14.519
 21
47.0017
  0
LINE
  8
0
 10
14.519
 20
47.0017
 11
14.519
 21
47.1495
  0
LINE
  8
0
 10
14.519
 20
47.1495
 11
14.5198
 21
47.1899
  0
LINE
  8
0
 10
14.5198
 20
47.1899
 11
14.5243
 21
47.299
  0
LINE
  8
0
 10
14.5243
 20
47.299
 11
14.5267
 21
47.3393
  0
LINE
  8
0
 10
14.5267
 20
47.3393
 11
14.5386
 21
47.4868
  0
LINE
  8
0
 10
14.5386
 20
47.4868
 11
14.5427
 21
47.527
  0
LINE
  8
0
 10
14.5427
 20
47.527
 11
14.5557
 21
47.6337
  0
LINE
  8
0
 10
14.5557
 20
47.6337
 11
14.5614
 21
47.6735
  0
LINE
  8
0
 10
14.5614
 20
47.6735
 11
14.585
 21
47.8187
  0
LINE
  8
0
 10
14.585
 20
47.8187
 11
14.5923
 21
47.8583
  0
LINE
  8
0
 10
14.5923
 20
47.8583
 11
14.6135
 21
47.9622
  0
LINE
  8
0
 10
14.6135
 20
47.9622
 11
14.6223
 21
48.0011
  0
LINE
  8
0
 10
14.6223
 20
48.0011
 11
14.6573
 21
48.143
  0
LINE
  8
0
 10
14.6573
 20
48.143
 11
14.6676
 21
48.1816
  0
LINE
  8
0
 10
14.6676
 20
48.1816
 11
14.6967
 21
48.2824
  0
LINE
  8
0
 10
14.6967
 20
48.2824
 11
14.7085
 21
48.3202
  0
LINE
  8
0
 10
14.7085
 20
48.3202
 11
14.7542
 21
48.4576
  0
LINE
  8
0
 10
14.7542
 20
48.4576
 11
14.7675
 21
48.4949
  0
LINE
  8
0
 10
14.7675
 20
48.4949
 11
14.8042
 21
48.5922
  0
LINE
  8
0
 10
14.8042
 20
48.5922
 11
14.8187
 21
48.6286
  0
LINE
  8
0
 10
14.8187
 20
48.6286
 11
14.8746
 21
48.7609
  0
LINE
  8
0
 10
14.8746
 20
48.7609
 11
14.8906
 21
48.7967
  0
LINE
  8
0
 10
14.8906
 20
48.7967
 11
14.9345
 21
48.8902
  0
LINE
  8
0
 10
14.9345
 20
48.8902
 11
14.9517
 21
48.9251
  0
LINE
  8
0
 10
14.9517
 20
48.9251
 11
15.0172
 21
49.0514
  0
LINE
  8
0
 10
15.0172
 20
49.0514
 11
15.0358
 21
49.0856
  0
LINE
  8
0
 10
15.0358
 20
49.0856
 11
15.0866
 21
49.1749
  0
LINE
  8
0
 10
15.0866
 20
49.1749
 11
15.1063
 21
49.2081
  0
LINE
  8
0
 10
15.1063
 20
49.2081
 11
15.1808
 21
49.3281
  0
LINE
  8
0
 10
15.1808
 20
49.3281
 11
15.2017
 21
49.3605
  0
LINE
  8
0
 10
15.2017
 20
49.3605
 11
15.2591
 21
49.4454
  0
LINE
  8
0
 10
15.2591
 20
49.4454
 11
15.2812
 21
49.4767
  0
LINE
  8
0
 10
15.2812
 20
49.4767
 11
15.3642
 21
49.59
  0
LINE
  8
0
 10
15.3642
 20
49.59
 11
15.3874
 21
49.6205
  0
LINE
  8
0
 10
15.3874
 20
49.6205
 11
15.451
 21
49.7005
  0
LINE
  8
0
 10
15.451
 20
49.7005
 11
15.4753
 21
49.73
  0
LINE
  8
0
 10
15.4753
 20
49.73
 11
15.5664
 21
49.8361
  0
LINE
  8
0
 10
15.5664
 20
49.8361
 11
15.5918
 21
49.8647
  0
LINE
  8
0
 10
15.5918
 20
49.8647
 11
15.6612
 21
49.9396
  0
LINE
  8
0
 10
15.6612
 20
49.9396
 11
15.6877
 21
49.9671
  0
LINE
  8
0
 10
15.6877
 20
49.9671
 11
15.7864
 21
50.0658
  0
LINE
  8
0
 10
15.7864
 20
50.0658
 11
15.814
 21
50.0923
  0
LINE
  8
0
 10
15.814
 20
50.0923
 11
15.8888
 21
50.1616
  0
LINE
  8
0
 10
15.8888
 20
50.1616
 11
15.9174
 21
50.1871
  0
LINE
  8
0
 10
15.9174
 20
50.1871
 11
16.0235
 21
50.2781
  0
LINE
  8
0
 10
16.0235
 20
50.2781
 11
16.053
 21
50.3024
  0
LINE
  8
0
 10
16.053
 20
50.3024
 11
16.1331
 21
50.366
  0
LINE
  8
0
 10
16.1331
 20
50.366
 11
16.1636
 21
50.3892
  0
LINE
  8
0
 10
16.1636
 20
50.3892
 11
16.2768
 21
50.4722
  0
LINE
  8
0
 10
16.2768
 20
50.4722
 11
16.3082
 21
50.4942
  0
LINE
  8
0
 10
16.3082
 20
50.4942
 11
16.393
 21
50.5516
  0
LINE
  8
0
 10
16.393
 20
50.5516
 11
16.4254
 21
50.5725
  0
LINE
  8
0
 10
16.4254
 20
50.5725
 11
16.5454
 21
50.647
  0
LINE
  8
0
 10
16.5454
 20
50.647
 11
16.5786
 21
50.6667
  0
LINE
  8
0
 10
16.5786
 20
50.6667
 11
16.6679
 21
50.7175
  0
LINE
  8
0
 10
16.6679
 20
50.7175
 11
16.7021
 21
50.736
  0
LINE
  8
0
 10
16.7021
 20
50.736
 11
16.8284
 21
50.8014
  0
LINE
  8
0
 10
16.8284
 20
50.8014
 11
16.8633
 21
50.8186
  0
LINE
  8
0
 10
16.8633
 20
50.8186
 11
16.9568
 21
50.8625
  0
LINE
  8
0
 10
16.9568
 20
50.8625
 11
16.9926
 21
50.8785
  0
LINE
  8
0
 10
16.9926
 20
50.8785
 11
17.1247
 21
50.9344
  0
LINE
  8
0
 10
17.1247
 20
50.9344
 11
17.1612
 21
50.9489
  0
LINE
  8
0
 10
17.1612
 20
50.9489
 11
17.2585
 21
50.9856
  0
LINE
  8
0
 10
17.2585
 20
50.9856
 11
17.2957
 21
50.9988
  0
LINE
  8
0
 10
17.2957
 20
50.9988
 11
17.4331
 21
51.0445
  0
LINE
  8
0
 10
17.4331
 20
51.0445
 11
17.4709
 21
51.0563
  0
LINE
  8
0
 10
17.4709
 20
51.0563
 11
17.5717
 21
51.0854
  0
LINE
  8
0
 10
17.5717
 20
51.0854
 11
17.6102
 21
51.0957
  0
LINE
  8
0
 10
17.6102
 20
51.0957
 11
17.752
 21
51.1306
  0
LINE
  8
0
 10
17.752
 20
51.1306
 11
17.791
 21
51.1394
  0
LINE
  8
0
 10
17.791
 20
51.1394
 11
17.8948
 21
51.1606
  0
LINE
  8
0
 10
17.8948
 20
51.1606
 11
17.9344
 21
51.1679
  0
LINE
  8
0
 10
17.9344
 20
51.1679
 11
18.0796
 21
51.1915
  0
LINE
  8
0
 10
18.0796
 20
51.1915
 11
18.1194
 21
51.1972
  0
LINE
  8
0
 10
18.1194
 20
51.1972
 11
18.226
 21
51.2102
  0
LINE
  8
0
 10
18.226
 20
51.2102
 11
18.2662
 21
51.2143
  0
LINE
  8
0
 10
18.2662
 20
51.2143
 11
18.4136
 21
51.2262
  0
LINE
  8
0
 10
18.4136
 20
51.2262
 11
18.454
 21
51.2286
  0
LINE
  8
0
 10
18.454
 20
51.2286
 11
18.563
 21
51.233
  0
LINE
  8
0
 10
18.563
 20
51.233
 11
18.6034
 21
51.2339
  0
LINE
  8
0
 10
18.6034
 20
51.2339
 11
18.7511
 21
51.2339
  0
LINE
  8
0
 10
18.7511
 20
51.2339
 11
18.7915
 21
51.233
  0
LINE
  8
0
 10
18.7915
 20
51.233
 11
18.9005
 21
51.2286
  0
LINE
  8
0
 10
18.9005
 20
51.2286
 11
18.9409
 21
51.2262
  0
LINE
  8
0
 10
18.9409
 20
51.2262
 11
19.0883
 21
51.2143
  0
LINE
  8
0
 10
19.0883
 20
51.2143
 11
19.1285
 21
51.2102
  0
LINE
  8
0
 10
19.1285
 20
51.2102
 11
19.2351
 21
51.1972
  0
LINE
  8
0
 10
19.2351
 20
51.1972
 11
19.2749
 21
51.1915
  0
LINE
  8
0
 10
19.2749
 20
51.1915
 11
19.4201
 21
51.1679
  0
LINE
  8
0
 10
19.4201
 20
51.1679
 11
19.4597
 21
51.1606
  0
LINE
  8
0
 10
19.4597
 20
51.1606
 11
19.5635
 21
51.1394
  0
LINE
  8
0
 10
19.5635
 20
51.1394
 11
19.6025
 21
51.1306
  0
LINE
  8
0
 10
19.6025
 20
51.1306
 11
19.7443
 21
51.0957
  0
LINE
  8
0
 10
19.7443
 20
51.0957
 11
19.7828
 21
51.0854
  0
LINE
  8
0
 10
19.7828
 20
51.0854
 11
19.8836
 21
51.0563
  0
LINE
  8
0
 10
19.8836
 20
51.0563
 11
19.9214
 21
51.0445
  0
LINE
  8
0
 10
19.9214
 20
51.0445
 11
20.0588
 21
50.9988
  0
LINE
  8
0
 10
20.0588
 20
50.9988
 11
20.0961
 21
50.9856
  0
LINE
  8
0
 10
20.0961
 20
50.9856
 11
20.1934
 21
50.9489
  0
LINE
  8
0
 10
20.1934
 20
50.9489
 11
20.2298
 21
50.9344
  0
LINE
  8
0
 10
20.2298
 20
50.9344
 11
20.3619
 21
50.8785
  0
LINE
  8
0
 10
20.3619
 20
50.8785
 11
20.3978
 21
50.8625
  0
LINE
  8
0
 10
20.3978
 20
50.8625
 11
20.4912
 21
50.8186
  0
LINE
  8
0
 10
20.4912
 20
50.8186
 11
20.5261
 21
50.8014
  0
LINE
  8
0
 10
20.5261
 20
50.8014
 11
20.6524
 21
50.736
  0
LINE
  8
0
 10
20.6524
 20
50.736
 11
20.6866
 21
50.7175
  0
LINE
  8
0
 10
20.6866
 20
50.7175
 11
20.7759
 21
50.6667
  0
LINE
  8
0
 10
20.7759
 20
50.6667
 11
20.8091
 21
50.647
  0
LINE
  8
0
 10
20.8091
 20
50.647
 11
20.9291
 21
50.5725
  0
LINE
  8
0
 10
20.9291
 20
50.5725
 11
20.9615
 21
50.5516
  0
LINE
  8
0
 10
20.9615
 20
50.5516
 11
21.0463
 21
50.4942
  0
LINE
  8
0
 10
21.0463
 20
50.4942
 11
21.0777
 21
50.4722
  0
LINE
  8
0
 10
21.0777
 20
50.4722
 11
21.1909
 21
50.3892
  0
LINE
  8
0
 10
21.1909
 20
50.3892
 11
21.2214
 21
50.366
  0
LINE
  8
0
 10
21.2214
 20
50.366
 11
21.3015
 21
50.3024
  0
LINE
  8
0
 10
21.3015
 20
50.3024
 11
21.331
 21
50.2781
  0
LINE
  8
0
 10
21.331
 20
50.2781
 11
21.4371
 21
50.1871
  0
LINE
  8
0
 10
21.4371
 20
50.1871
 11
21.4657
 21
50.1617
  0
LINE
  8
0
 10
21.4657
 20
50.1617
 11
21.5405
 21
50.0923
  0
LINE
  8
0
 10
21.5405
 20
50.0923
 11
21.5681
 21
50.0658
  0
LINE
  8
0
 10
21.5681
 20
50.0658
 11
21.6668
 21
49.9671
  0
LINE
  8
0
 10
21.6668
 20
49.9671
 11
21.6933
 21
49.9396
  0
LINE
  8
0
 10
21.6933
 20
49.9396
 11
21.7627
 21
49.8647
  0
LINE
  8
0
 10
21.7627
 20
49.8647
 11
21.7881
 21
49.8362
  0
LINE
  8
0
 10
21.7881
 20
49.8362
 11
21.8792
 21
49.73
  0
LINE
  8
0
 10
21.8792
 20
49.73
 11
21.9035
 21
49.7005
  0
LINE
  8
0
 10
21.9035
 20
49.7005
 11
21.9671
 21
49.6205
  0
LINE
  8
0
 10
21.9671
 20
49.6205
 11
21.9903
 21
49.59
  0
LINE
  8
0
 10
21.9903
 20
49.59
 11
22.0733
 21
49.4768
  0
LINE
  8
0
 10
22.0733
 20
49.4768
 11
22.0954
 21
49.4454
  0
LINE
  8
0
 10
22.0954
 20
49.4454
 11
22.1528
 21
49.3605
  0
LINE
  8
0
 10
22.1528
 20
49.3605
 11
22.1737
 21
49.3281
  0
LINE
  8
0
 10
22.1737
 20
49.3281
 11
22.2482
 21
49.2081
  0
LINE
  8
0
 10
22.2482
 20
49.2081
 11
22.2679
 21
49.175
  0
LINE
  8
0
 10
22.2679
 20
49.175
 11
22.3187
 21
49.0856
  0
LINE
  8
0
 10
22.3187
 20
49.0856
 11
22.3373
 21
49.0514
  0
LINE
  8
0
 10
22.3373
 20
49.0514
 11
22.4028
 21
48.9251
  0
LINE
  8
0
 10
22.4028
 20
48.9251
 11
22.42
 21
48.8902
  0
LINE
  8
0
 10
22.42
 20
48.8902
 11
22.4639
 21
48.7967
  0
LINE
  8
0
 10
22.4639
 20
48.7967
 11
22.4799
 21
48.7609
  0
LINE
  8
0
 10
22.4799
 20
48.7609
 11
22.5358
 21
48.6287
  0
LINE
  8
0
 10
22.5358
 20
48.6287
 11
22.5503
 21
48.5922
  0
LINE
  8
0
 10
22.5503
 20
48.5922
 11
22.5871
 21
48.4949
  0
LINE
  8
0
 10
22.5871
 20
48.4949
 11
22.6003
 21
48.4576
  0
LINE
  8
0
 10
22.6003
 20
48.4576
 11
22.646
 21
48.3202
  0
LINE
  8
0
 10
22.646
 20
48.3202
 11
22.6578
 21
48.2824
  0
LINE
  8
0
 10
22.6578
 20
48.2824
 11
22.6869
 21
48.1816
  0
LINE
  8
0
 10
22.6869
 20
48.1816
 11
22.6972
 21
48.143
  0
LINE
  8
0
 10
22.6972
 20
48.143
 11
22.7322
 21
48.0012
  0
LINE
  8
0
 10
22.7322
 20
48.0012
 11
22.741
 21
47.9622
  0
LINE
  8
0
 10
22.741
 20
47.9622
 11
22.7622
 21
47.8583
  0
LINE
  8
0
 10
22.7622
 20
47.8583
 11
22.7695
 21
47.8188
  0
LINE
  8
0
 10
22.7695
 20
47.8188
 11
22.7931
 21
47.6735
  0
LINE
  8
0
 10
22.7931
 20
47.6735
 11
22.7988
 21
47.6337
  0
LINE
  8
0
 10
22.7988
 20
47.6337
 11
22.8118
 21
47.527
  0
LINE
  8
0
 10
22.8118
 20
47.527
 11
22.8159
 21
47.4868
  0
LINE
  8
0
 10
22.8159
 20
47.4868
 11
22.8278
 21
47.3393
  0
LINE
  8
0
 10
22.8278
 20
47.3393
 11
22.8303
 21
47.299
  0
LINE
  8
0
 10
22.8303
 20
47.299
 11
22.8347
 21
47.1899
  0
LINE
  8
0
 10
22.8347
 20
47.1899
 11
22.8355
 21
47.1495
  0
LINE
  8
0
 10
22.8355
 20
47.1495
 11
22.8355
 21
47.0017
  0
LINE
  8
0
 10
22.8355
 20
47.0017
 11
22.8347
 21
46.9613
  0
LINE
  8
0
 10
22.8347
 20
46.9613
 11
22.8303
 21
46.8523
  0
LINE
  8
0
 10
22.8303
 20
46.8523
 11
22.8278
 21
46.8119
  0
LINE
  8
0
 10
22.8278
 20
46.8119
 11
22.8159
 21
46.6644
  0
LINE
  8
0
 10
22.8159
 20
46.6644
 11
22.8118
 21
46.6242
  0
LINE
  8
0
 10
22.8118
 20
46.6242
 11
22.7988
 21
46.5176
  0
LINE
  8
0
 10
22.7988
 20
46.5176
 11
22.7931
 21
46.4777
  0
LINE
  8
0
 10
22.7931
 20
46.4777
 11
22.7694
 21
46.3324
  0
LINE
  8
0
 10
22.7694
 20
46.3324
 11
22.7622
 21
46.2929
  0
LINE
  8
0
 10
22.7622
 20
46.2929
 11
22.7409
 21
46.189
  0
LINE
  8
0
 10
22.7409
 20
46.189
 11
22.7322
 21
46.1501
  0
LINE
  8
0
 10
22.7322
 20
46.1501
 11
22.6972
 21
46.0082
  0
LINE
  8
0
 10
22.6972
 20
46.0082
 11
22.6869
 21
45.9696
  0
LINE
  8
0
 10
22.6869
 20
45.9696
 11
22.6577
 21
45.8689
  0
LINE
  8
0
 10
22.6577
 20
45.8689
 11
22.646
 21
45.8311
  0
LINE
  8
0
 10
22.646
 20
45.8311
 11
22.6002
 21
45.6937
  0
LINE
  8
0
 10
22.6002
 20
45.6937
 11
22.587
 21
45.6564
  0
LINE
  8
0
 10
22.587
 20
45.6564
 11
22.5503
 21
45.5591
  0
LINE
  8
0
 10
22.5503
 20
45.5591
 11
22.5357
 21
45.5227
  0
LINE
  8
0
 10
22.5357
 20
45.5227
 11
22.4799
 21
45.3905
  0
LINE
  8
0
 10
22.4799
 20
45.3905
 11
22.4639
 21
45.3547
  0
LINE
  8
0
 10
22.4639
 20
45.3547
 11
22.4199
 21
45.2612
  0
LINE
  8
0
 10
22.4199
 20
45.2612
 11
22.4027
 21
45.2263
  0
LINE
  8
0
 10
22.4027
 20
45.2263
 11
22.3373
 21
45.1
  0
LINE
  8
0
 10
22.3373
 20
45.1
 11
22.3187
 21
45.0658
  0
LINE
  8
0
 10
22.3187
 20
45.0658
 11
22.2679
 21
44.9765
  0
LINE
  8
0
 10
22.2679
 20
44.9765
 11
22.2482
 21
44.9433
  0
LINE
  8
0
 10
22.2482
 20
44.9433
 11
22.1738
 21
44.8234
  0
LINE
  8
0
 10
22.1738
 20
44.8234
 11
22.1528
 21
44.791
  0
LINE
  8
0
 10
22.1528
 20
44.791
 11
22.0955
 21
44.7061
  0
LINE
  8
0
 10
22.0955
 20
44.7061
 11
22.0734
 21
44.6748
  0
LINE
  8
0
 10
22.0734
 20
44.6748
 11
21.9904
 21
44.5616
  0
LINE
  8
0
 10
21.9904
 20
44.5616
 11
21.9672
 21
44.5311
  0
LINE
  8
0
 10
21.9672
 20
44.5311
 11
21.9036
 21
44.4511
  0
LINE
  8
0
 10
21.9036
 20
44.4511
 11
21.8793
 21
44.4216
  0
LINE
  8
0
 10
21.8793
 20
44.4216
 11
21.7883
 21
44.3155
  0
LINE
  8
0
 10
21.7883
 20
44.3155
 11
21.7629
 21
44.287
  0
LINE
  8
0
 10
21.7629
 20
44.287
 11
21.6935
 21
44.2121
  0
LINE
  8
0
 10
21.6935
 20
44.2121
 11
21.667
 21
44.1846
  0
LINE
  8
0
 10
21.667
 20
44.1846
 11
21.5683
 21
44.0858
  0
LINE
  8
0
 10
21.5683
 20
44.0858
 11
21.5408
 21
44.0594
  0
LINE
  8
0
 10
21.5408
 20
44.0594
 11
21.4659
 21
43.99
  0
LINE
  8
0
 10
21.4659
 20
43.99
 11
21.4374
 21
43.9646
  0
LINE
  8
0
 10
21.4374
 20
43.9646
 11
21.3313
 21
43.8736
  0
LINE
  8
0
 10
21.3313
 20
43.8736
 11
21.3018
 21
43.8492
  0
LINE
  8
0
 10
21.3018
 20
43.8492
 11
21.2218
 21
43.7857
  0
LINE
  8
0
 10
21.2218
 20
43.7857
 11
21.1913
 21
43.7624
  0
LINE
  8
0
 10
21.1913
 20
43.7624
 11
21.0781
 21
43.6795
  0
LINE
  8
0
 10
21.0781
 20
43.6795
 11
21.0467
 21
43.6574
  0
LINE
  8
0
 10
21.0467
 20
43.6574
 11
20.9619
 21
43.6001
  0
LINE
  8
0
 10
20.9619
 20
43.6001
 11
20.9295
 21
43.5791
  0
LINE
  8
0
 10
20.9295
 20
43.5791
 11
20.8096
 21
43.5047
  0
LINE
  8
0
 10
20.8096
 20
43.5047
 11
20.7764
 21
43.485
  0
LINE
  8
0
 10
20.7764
 20
43.485
 11
20.687
 21
43.4341
  0
LINE
  8
0
 10
20.687
 20
43.4341
 11
20.6529
 21
43.4156
  0
LINE
  8
0
 10
20.6529
 20
43.4156
 11
20.5266
 21
43.3502
  0
LINE
  8
0
 10
20.5266
 20
43.3502
 11
20.4917
 21
43.3329
  0
LINE
  8
0
 10
20.4917
 20
43.3329
 11
20.3982
 21
43.289
  0
LINE
  8
0
 10
20.3982
 20
43.289
 11
20.3624
 21
43.273
  0
LINE
  8
0
 10
20.3624
 20
43.273
 11
20.2302
 21
43.2172
  0
LINE
  8
0
 10
20.2302
 20
43.2172
 11
20.1938
 21
43.2026
  0
LINE
  8
0
 10
20.1938
 20
43.2026
 11
20.0965
 21
43.1659
  0
LINE
  8
0
 10
20.0965
 20
43.1659
 11
20.0592
 21
43.1527
  0
LINE
  8
0
 10
20.0592
 20
43.1527
 11
19.9218
 21
43.1069
  0
LINE
  8
0
 10
19.9218
 20
43.1069
 11
19.884
 21
43.0952
  0
LINE
  8
0
 10
19.884
 20
43.0952
 11
19.7833
 21
43.066
  0
LINE
  8
0
 10
19.7833
 20
43.066
 11
19.7447
 21
43.0557
  0
LINE
  8
0
 10
19.7447
 20
43.0557
 11
19.6028
 21
43.0207
  0
LINE
  8
0
 10
19.6028
 20
43.0207
 11
19.5639
 21
43.012
  0
LINE
  8
0
 10
19.5639
 20
43.012
 11
19.46
 21
42.9907
  0
LINE
  8
0
 10
19.46
 20
42.9907
 11
19.4205
 21
42.9835
  0
LINE
  8
0
 10
19.4205
 20
42.9835
 11
19.2752
 21
42.9598
  0
LINE
  8
0
 10
19.2752
 20
42.9598
 11
19.2353
 21
42.9541
  0
LINE
  8
0
 10
19.2353
 20
42.9541
 11
19.1287
 21
42.9411
  0
LINE
  8
0
 10
19.1287
 20
42.9411
 11
19.0885
 21
42.937
  0
LINE
  8
0
 10
19.0885
 20
42.937
 11
18.941
 21
42.9251
  0
LINE
  8
0
 10
18.941
 20
42.9251
 11
18.9006
 21
42.9226
  0
LINE
  8
0
 10
18.9006
 20
42.9226
 11
18.7916
 21
42.9182
  0
LINE
  8
0
 10
18.7916
 20
42.9182
 11
18.7512
 21
42.9174
  0
LINE
  8
0
 10
18.7512
 20
42.9174
 11
18.6034
 21
42.9174
  0
LINE
  8
0
 10
18.6034
 20
42.9174
 11
18.563
 21
42.9182
  0
LINE
  8
0
 10
61.8131
 20
25.6681
 11
61.704
 21
25.6725
  0
LINE
  8
0
 10
61.704
 20
25.6725
 11
61.6636
 21
25.675
  0
LINE
  8
0
 10
61.6636
 20
25.675
 11
61.5161
 21
25.6869
  0
LINE
  8
0
 10
61.5161
 20
25.6869
 11
61.4759
 21
25.691
  0
LINE
  8
0
 10
61.4759
 20
25.691
 11
61.3693
 21
25.704
  0
LINE
  8
0
 10
61.3693
 20
25.704
 11
61.3294
 21
25.7097
  0
LINE
  8
0
 10
61.3294
 20
25.7097
 11
61.1842
 21
25.7334
  0
LINE
  8
0
 10
61.1842
 20
25.7334
 11
61.1446
 21
25.7406
  0
LINE
  8
0
 10
61.1446
 20
25.7406
 11
61.0407
 21
25.7619
  0
LINE
  8
0
 10
61.0407
 20
25.7619
 11
61.0018
 21
25.7706
  0
LINE
  8
0
 10
61.0018
 20
25.7706
 11
60.8599
 21
25.8056
  0
LINE
  8
0
 10
60.8599
 20
25.8056
 11
60.8213
 21
25.8159
  0
LINE
  8
0
 10
60.8213
 20
25.8159
 11
60.7206
 21
25.8451
  0
LINE
  8
0
 10
60.7206
 20
25.8451
 11
60.6828
 21
25.8568
  0
LINE
  8
0
 10
60.6828
 20
25.8568
 11
60.5454
 21
25.9026
  0
LINE
  8
0
 10
60.5454
 20
25.9026
 11
60.5081
 21
25.9158
  0
LINE
  8
0
 10
60.5081
 20
25.9158
 11
60.4108
 21
25.9525
  0
LINE
  8
0
 10
60.4108
 20
25.9525
 11
60.3744
 21
25.9671
  0
LINE
  8
0
 10
60.3744
 20
25.9671
 11
60.2422
 21
26.0229
  0
LINE
  8
0
 10
60.2422
 20
26.0229
 11
60.2064
 21
26.0389
  0
LINE
  8
0
 10
60.2064
 20
26.0389
 11
60.1129
 21
26.0828
  0
LINE
  8
0
 10
60.1129
 20
26.0828
 11
60.078
 21
26.1001
  0
LINE
  8
0
 10
60.078
 20
26.1001
 11
59.9517
 21
26.1655
  0
LINE
  8
0
 10
59.9517
 20
26.1655
 11
59.9176
 21
26.1841
  0
LINE
  8
0
 10
59.9176
 20
26.1841
 11
59.8282
 21
26.2349
  0
LINE
  8
0
 10
59.8282
 20
26.2349
 11
59.795
 21
26.2546
  0
LINE
  8
0
 10
59.795
 20
26.2546
 11
59.6751
 21
26.329
  0
LINE
  8
0
 10
59.6751
 20
26.329
 11
59.6427
 21
26.35
  0
LINE
  8
0
 10
59.6427
 20
26.35
 11
59.5579
 21
26.4073
  0
LINE
  8
0
 10
59.5579
 20
26.4073
 11
59.5265
 21
26.4294
  0
LINE
  8
0
 10
59.5265
 20
26.4294
 11
59.4133
 21
26.5124
  0
LINE
  8
0
 10
59.4133
 20
26.5124
 11
59.3828
 21
26.5356
  0
LINE
  8
0
 10
59.3828
 20
26.5356
 11
59.3028
 21
26.5992
  0
LINE
  8
0
 10
59.3028
 20
26.5992
 11
59.2733
 21
26.6235
  0
LINE
  8
0
 10
59.2733
 20
26.6235
 11
59.1672
 21
26.7145
  0
LINE
  8
0
 10
59.1672
 20
26.7145
 11
59.1387
 21
26.7399
  0
LINE
  8
0
 10
59.1387
 20
26.7399
 11
59.0638
 21
26.8093
  0
LINE
  8
0
 10
59.0638
 20
26.8093
 11
59.0363
 21
26.8358
  0
LINE
  8
0
 10
59.0363
 20
26.8358
 11
58.9376
 21
26.9345
  0
LINE
  8
0
 10
58.9376
 20
26.9345
 11
58.9111
 21
26.962
  0
LINE
  8
0
 10
58.9111
 20
26.962
 11
58.8417
 21
27.0369
  0
LINE
  8
0
 10
58.8417
 20
27.0369
 11
58.8163
 21
27.0654
  0
LINE
  8
0
 10
58.8163
 20
27.0654
 11
58.7253
 21
27.1715
  0
LINE
  8
0
 10
58.7253
 20
27.1715
 11
58.7009
 21
27.201
  0
LINE
  8
0
 10
58.7009
 20
27.201
 11
58.6374
 21
27.281
  0
LINE
  8
0
 10
58.6374
 20
27.281
 11
58.6142
 21
27.3115
  0
LINE
  8
0
 10
58.6142
 20
27.3115
 11
58.5312
 21
27.4247
  0
LINE
  8
0
 10
58.5312
 20
27.4247
 11
58.5091
 21
27.4561
  0
LINE
  8
0
 10
58.5091
 20
27.4561
 11
58.4518
 21
27.5409
  0
LINE
  8
0
 10
58.4518
 20
27.5409
 11
58.4308
 21
27.5733
  0
LINE
  8
0
 10
58.4308
 20
27.5733
 11
58.3564
 21
27.6933
  0
LINE
  8
0
 10
58.3564
 20
27.6933
 11
58.3367
 21
27.7264
  0
LINE
  8
0
 10
58.3367
 20
27.7264
 11
58.2859
 21
27.8158
  0
LINE
  8
0
 10
58.2859
 20
27.8158
 11
58.2673
 21
27.8499
  0
LINE
  8
0
 10
58.2673
 20
27.8499
 11
58.2019
 21
27.9762
  0
LINE
  8
0
 10
58.2019
 20
27.9762
 11
58.1846
 21
28.0111
  0
LINE
  8
0
 10
58.1846
 20
28.0111
 11
58.1407
 21
28.1046
  0
LINE
  8
0
 10
58.1407
 20
28.1046
 11
58.1247
 21
28.1404
  0
LINE
  8
0
 10
58.1247
 20
28.1404
 11
58.0689
 21
28.2726
  0
LINE
  8
0
 10
58.0689
 20
28.2726
 11
58.0543
 21
28.309
  0
LINE
  8
0
 10
58.0543
 20
28.309
 11
58.0176
 21
28.4063
  0
LINE
  8
0
 10
58.0176
 20
28.4063
 11
58.0044
 21
28.4436
  0
LINE
  8
0
 10
58.0044
 20
28.4436
 11
57.9586
 21
28.581
  0
LINE
  8
0
 10
57.9586
 20
28.581
 11
57.9469
 21
28.6188
  0
LINE
  8
0
 10
57.9469
 20
28.6188
 11
57.9177
 21
28.7196
  0
LINE
  8
0
 10
57.9177
 20
28.7196
 11
57.9074
 21
28.7581
  0
LINE
  8
0
 10
57.9074
 20
28.7581
 11
57.8724
 21
28.9
  0
LINE
  8
0
 10
57.8724
 20
28.9
 11
57.8637
 21
28.9389
  0
LINE
  8
0
 10
57.8637
 20
28.9389
 11
57.8424
 21
29.0428
  0
LINE
  8
0
 10
57.8424
 20
29.0428
 11
57.8352
 21
29.0824
  0
LINE
  8
0
 10
57.8352
 20
29.0824
 11
57.8115
 21
29.2276
  0
LINE
  8
0
 10
57.8115
 20
29.2276
 11
57.8058
 21
29.2675
  0
LINE
  8
0
 10
57.8058
 20
29.2675
 11
57.7928
 21
29.3741
  0
LINE
  8
0
 10
57.7928
 20
29.3741
 11
57.7887
 21
29.4143
  0
LINE
  8
0
 10
57.7887
 20
29.4143
 11
57.7768
 21
29.5618
  0
LINE
  8
0
 10
57.7768
 20
29.5618
 11
57.7743
 21
29.6022
  0
LINE
  8
0
 10
57.7743
 20
29.6022
 11
57.7699
 21
29.7113
  0
LINE
  8
0
 10
57.7699
 20
29.7113
 11
57.7691
 21
29.7516
  0
LINE
  8
0
 10
57.7691
 20
29.7516
 11
57.7691
 21
29.8994
  0
LINE
  8
0
 10
57.7691
 20
29.8994
 11
57.7699
 21
29.9398
  0
LINE
  8
0
 10
57.7699
 20
29.9398
 11
57.7743
 21
30.0489
  0
LINE
  8
0
 10
57.7743
 20
30.0489
 11
57.7768
 21
30.0892
  0
LINE
  8
0
 10
57.7768
 20
30.0892
 11
57.7887
 21
30.2367
  0
LINE
  8
0
 10
57.7887
 20
30.2367
 11
57.7928
 21
30.2769
  0
LINE
  8
0
 10
57.7928
 20
30.2769
 11
57.8058
 21
30.3836
  0
LINE
  8
0
 10
57.8058
 20
30.3836
 11
57.8115
 21
30.4234
  0
LINE
  8
0
 10
57.8115
 20
30.4234
 11
57.8351
 21
30.5687
  0
LINE
  8
0
 10
57.8351
 20
30.5687
 11
57.8424
 21
30.6082
  0
LINE
  8
0
 10
57.8424
 20
30.6082
 11
57.8636
 21
30.7121
  0
LINE
  8
0
 10
57.8636
 20
30.7121
 11
57.8724
 21
30.7511
  0
LINE
  8
0
 10
57.8724
 20
30.7511
 11
57.9074
 21
30.8929
  0
LINE
  8
0
 10
57.9074
 20
30.8929
 11
57.9177
 21
30.9315
  0
LINE
  8
0
 10
57.9177
 20
30.9315
 11
57.9468
 21
31.0323
  0
LINE
  8
0
 10
57.9468
 20
31.0323
 11
57.9586
 21
31.0701
  0
LINE
  8
0
 10
57.9586
 20
31.0701
 11
58.0043
 21
31.2075
  0
LINE
  8
0
 10
58.0043
 20
31.2075
 11
58.0175
 21
31.2448
  0
LINE
  8
0
 10
58.0175
 20
31.2448
 11
58.0542
 21
31.3421
  0
LINE
  8
0
 10
58.0542
 20
31.3421
 11
58.0688
 21
31.3786
  0
LINE
  8
0
 10
58.0688
 20
31.3786
 11
58.1247
 21
31.5108
  0
LINE
  8
0
 10
58.1247
 20
31.5108
 11
58.1407
 21
31.5466
  0
LINE
  8
0
 10
58.1407
 20
31.5466
 11
58.1846
 21
31.6401
  0
LINE
  8
0
 10
58.1846
 20
31.6401
 11
58.2018
 21
31.675
  0
LINE
  8
0
 10
58.2018
 20
31.675
 11
58.2673
 21
31.8013
  0
LINE
  8
0
 10
58.2673
 20
31.8013
 11
58.2858
 21
31.8355
  0
LINE
  8
0
 10
58.2858
 20
31.8355
 11
58.3366
 21
31.9248
  0
LINE
  8
0
 10
58.3366
 20
31.9248
 11
58.3564
 21
31.958
  0
LINE
  8
0
 10
58.3564
 20
31.958
 11
58.4308
 21
32.078
  0
LINE
  8
0
 10
58.4308
 20
32.078
 11
58.4518
 21
32.1104
  0
LINE
  8
0
 10
58.4518
 20
32.1104
 11
58.5092
 21
32.1953
  0
LINE
  8
0
 10
58.5092
 20
32.1953
 11
58.5313
 21
32.2266
  0
LINE
  8
0
 10
58.5313
 20
32.2266
 11
58.6142
 21
32.3399
  0
LINE
  8
0
 10
58.6142
 20
32.3399
 11
58.6375
 21
32.3704
  0
LINE
  8
0
 10
58.6375
 20
32.3704
 11
58.701
 21
32.4504
  0
LINE
  8
0
 10
58.701
 20
32.4504
 11
58.7254
 21
32.4799
  0
LINE
  8
0
 10
58.7254
 20
32.4799
 11
58.8165
 21
32.5861
  0
LINE
  8
0
 10
58.8165
 20
32.5861
 11
58.8419
 21
32.6146
  0
LINE
  8
0
 10
58.8419
 20
32.6146
 11
58.9113
 21
32.6895
  0
LINE
  8
0
 10
58.9113
 20
32.6895
 11
58.9377
 21
32.717
  0
LINE
  8
0
 10
58.9377
 20
32.717
 11
59.0365
 21
32.8157
  0
LINE
  8
0
 10
59.0365
 20
32.8157
 11
59.064
 21
32.8422
  0
LINE
  8
0
 10
59.064
 20
32.8422
 11
59.1389
 21
32.9116
  0
LINE
  8
0
 10
59.1389
 20
32.9116
 11
59.1675
 21
32.937
  0
LINE
  8
0
 10
59.1675
 20
32.937
 11
59.2736
 21
33.028
  0
LINE
  8
0
 10
59.2736
 20
33.028
 11
59.3031
 21
33.0524
  0
LINE
  8
0
 10
59.3031
 20
33.0524
 11
59.3832
 21
33.1159
  0
LINE
  8
0
 10
59.3832
 20
33.1159
 11
59.4137
 21
33.1391
  0
LINE
  8
0
 10
59.4137
 20
33.1391
 11
59.5269
 21
33.2221
  0
LINE
  8
0
 10
59.5269
 20
33.2221
 11
59.5583
 21
33.2442
  0
LINE
  8
0
 10
59.5583
 20
33.2442
 11
59.6431
 21
33.3015
  0
LINE
  8
0
 10
59.6431
 20
33.3015
 11
59.6755
 21
33.3224
  0
LINE
  8
0
 10
59.6755
 20
33.3224
 11
59.7955
 21
33.3969
  0
LINE
  8
0
 10
59.7955
 20
33.3969
 11
59.8287
 21
33.4166
  0
LINE
  8
0
 10
59.8287
 20
33.4166
 11
59.918
 21
33.4674
  0
LINE
  8
0
 10
59.918
 20
33.4674
 11
59.9522
 21
33.4859
  0
LINE
  8
0
 10
59.9522
 20
33.4859
 11
60.0785
 21
33.5513
  0
LINE
  8
0
 10
60.0785
 20
33.5513
 11
60.1133
 21
33.5685
  0
LINE
  8
0
 10
60.1133
 20
33.5685
 11
60.2068
 21
33.6124
  0
LINE
  8
0
 10
60.2068
 20
33.6124
 11
60.2427
 21
33.6284
  0
LINE
  8
0
 10
60.2427
 20
33.6284
 11
60.3748
 21
33.6843
  0
LINE
  8
0
 10
60.3748
 20
33.6843
 11
60.4112
 21
33.6988
  0
LINE
  8
0
 10
60.4112
 20
33.6988
 11
60.5085
 21
33.7355
  0
LINE
  8
0
 10
60.5085
 20
33.7355
 11
60.5458
 21
33.7487
  0
LINE
  8
0
 10
60.5458
 20
33.7487
 11
60.6832
 21
33.7944
  0
LINE
  8
0
 10
60.6832
 20
33.7944
 11
60.721
 21
33.8062
  0
LINE
  8
0
 10
60.721
 20
33.8062
 11
60.8218
 21
33.8353
  0
LINE
  8
0
 10
60.8218
 20
33.8353
 11
60.8603
 21
33.8456
  0
LINE
  8
0
 10
60.8603
 20
33.8456
 11
61.0021
 21
33.8805
  0
LINE
  8
0
 10
61.0021
 20
33.8805
 11
61.0411
 21
33.8893
  0
LINE
  8
0
 10
61.0411
 20
33.8893
 11
61.1449
 21
33.9105
  0
LINE
  8
0
 10
61.1449
 20
33.9105
 11
61.1845
 21
33.9178
  0
LINE
  8
0
 10
61.1845
 20
33.9178
 11
61.3297
 21
33.9414
  0
LINE
  8
0
 10
61.3297
 20
33.9414
 11
61.3695
 21
33.9471
  0
LINE
  8
0
 10
61.3695
 20
33.9471
 11
61.4761
 21
33.9601
  0
LINE
  8
0
 10
61.4761
 20
33.9601
 11
61.5163
 21
33.9642
  0
LINE
  8
0
 10
61.5163
 20
33.9642
 11
61.6637
 21
33.9761
  0
LINE
  8
0
 10
61.6637
 20
33.9761
 11
61.7041
 21
33.9786
  0
LINE
  8
0
 10
61.7041
 20
33.9786
 11
61.8131
 21
33.983
  0
LINE
  8
0
 10
61.8131
 20
33.983
 11
61.8535
 21
33.9838
  0
LINE
  8
0
 10
61.8535
 20
33.9838
 11
62.0012
 21
33.9838
  0
LINE
  8
0
 10
62.0012
 20
33.9838
 11
62.0416
 21
33.983
  0
LINE
  8
0
 10
62.0416
 20
33.983
 11
62.1506
 21
33.9786
  0
LINE
  8
0
 10
62.1506
 20
33.9786
 11
62.191
 21
33.9761
  0
LINE
  8
0
 10
62.191
 20
33.9761
 11
62.3384
 21
33.9642
  0
LINE
  8
0
 10
62.3384
 20
33.9642
 11
62.3786
 21
33.9601
  0
LINE
  8
0
 10
62.3786
 20
33.9601
 11
62.4852
 21
33.9471
  0
LINE
  8
0
 10
62.4852
 20
33.9471
 11
62.525
 21
33.9414
  0
LINE
  8
0
 10
62.525
 20
33.9414
 11
62.6702
 21
33.9178
  0
LINE
  8
0
 10
62.6702
 20
33.9178
 11
62.7098
 21
33.9105
  0
LINE
  8
0
 10
62.7098
 20
33.9105
 11
62.8136
 21
33.8893
  0
LINE
  8
0
 10
62.8136
 20
33.8893
 11
62.8526
 21
33.8805
  0
LINE
  8
0
 10
62.8526
 20
33.8805
 11
62.9944
 21
33.8456
  0
LINE
  8
0
 10
62.9944
 20
33.8456
 11
63.0329
 21
33.8353
  0
LINE
  8
0
 10
63.0329
 20
33.8353
 11
63.1337
 21
33.8062
  0
LINE
  8
0
 10
63.1337
 20
33.8062
 11
63.1715
 21
33.7944
  0
LINE
  8
0
 10
63.1715
 20
33.7944
 11
63.3089
 21
33.7487
  0
LINE
  8
0
 10
63.3089
 20
33.7487
 11
63.3462
 21
33.7355
  0
LINE
  8
0
 10
63.3462
 20
33.7355
 11
63.4434
 21
33.6988
  0
LINE
  8
0
 10
63.4434
 20
33.6988
 11
63.4799
 21
33.6843
  0
LINE
  8
0
 10
63.4799
 20
33.6843
 11
63.612
 21
33.6284
  0
LINE
  8
0
 10
63.612
 20
33.6284
 11
63.6478
 21
33.6124
  0
LINE
  8
0
 10
63.6478
 20
33.6124
 11
63.7413
 21
33.5685
  0
LINE
  8
0
 10
63.7413
 20
33.5685
 11
63.7762
 21
33.5513
  0
LINE
  8
0
 10
63.7762
 20
33.5513
 11
63.9025
 21
33.4859
  0
LINE
  8
0
 10
63.9025
 20
33.4859
 11
63.9367
 21
33.4674
  0
LINE
  8
0
 10
63.9367
 20
33.4674
 11
64.026
 21
33.4166
  0
LINE
  8
0
 10
64.026
 20
33.4166
 11
64.0592
 21
33.3969
  0
LINE
  8
0
 10
64.0592
 20
33.3969
 11
64.1792
 21
33.3224
  0
LINE
  8
0
 10
64.1792
 20
33.3224
 11
64.2115
 21
33.3015
  0
LINE
  8
0
 10
64.2115
 20
33.3015
 11
64.2964
 21
33.2442
  0
LINE
  8
0
 10
64.2964
 20
33.2442
 11
64.3278
 21
33.2221
  0
LINE
  8
0
 10
64.3278
 20
33.2221
 11
64.441
 21
33.1391
  0
LINE
  8
0
 10
64.441
 20
33.1391
 11
64.4715
 21
33.1159
  0
LINE
  8
0
 10
64.4715
 20
33.1159
 11
64.5516
 21
33.0524
  0
LINE
  8
0
 10
64.5516
 20
33.0524
 11
64.5811
 21
33.028
  0
LINE
  8
0
 10
64.5811
 20
33.028
 11
64.6872
 21
32.937
  0
LINE
  8
0
 10
64.6872
 20
32.937
 11
64.7157
 21
32.9116
  0
LINE
  8
0
 10
64.7157
 20
32.9116
 11
64.7906
 21
32.8422
  0
LINE
  8
0
 10
64.7906
 20
32.8422
 11
64.8181
 21
32.8157
  0
LINE
  8
0
 10
64.8181
 20
32.8157
 11
64.9169
 21
32.717
  0
LINE
  8
0
 10
64.9169
 20
32.717
 11
64.9434
 21
32.6895
  0
LINE
  8
0
 10
64.9434
 20
32.6895
 11
65.0128
 21
32.6146
  0
LINE
  8
0
 10
65.0128
 20
32.6146
 11
65.0382
 21
32.5861
  0
LINE
  8
0
 10
65.0382
 20
32.5861
 11
65.1293
 21
32.4799
  0
LINE
  8
0
 10
65.1293
 20
32.4799
 11
65.1536
 21
32.4504
  0
LINE
  8
0
 10
65.1536
 20
32.4504
 11
65.2172
 21
32.3704
  0
LINE
  8
0
 10
65.2172
 20
32.3704
 11
65.2404
 21
32.3399
  0
LINE
  8
0
 10
65.2404
 20
32.3399
 11
65.3234
 21
32.2267
  0
LINE
  8
0
 10
65.3234
 20
32.2267
 11
65.3455
 21
32.1953
  0
LINE
  8
0
 10
65.3455
 20
32.1953
 11
65.4028
 21
32.1104
  0
LINE
  8
0
 10
65.4028
 20
32.1104
 11
65.4238
 21
32.078
  0
LINE
  8
0
 10
65.4238
 20
32.078
 11
65.4983
 21
31.958
  0
LINE
  8
0
 10
65.4983
 20
31.958
 11
65.518
 21
31.9249
  0
LINE
  8
0
 10
65.518
 20
31.9249
 11
65.5688
 21
31.8355
  0
LINE
  8
0
 10
65.5688
 20
31.8355
 11
65.5874
 21
31.8013
  0
LINE
  8
0
 10
65.5874
 20
31.8013
 11
65.6529
 21
31.675
  0
LINE
  8
0
 10
65.6529
 20
31.675
 11
65.6701
 21
31.6401
  0
LINE
  8
0
 10
65.6701
 20
31.6401
 11
65.714
 21
31.5466
  0
LINE
  8
0
 10
65.714
 20
31.5466
 11
65.73
 21
31.5108
  0
LINE
  8
0
 10
65.73
 20
31.5108
 11
65.7859
 21
31.3786
  0
LINE
  8
0
 10
65.7859
 20
31.3786
 11
65.8004
 21
31.3421
  0
LINE
  8
0
 10
65.8004
 20
31.3421
 11
65.8371
 21
31.2448
  0
LINE
  8
0
 10
65.8371
 20
31.2448
 11
65.8504
 21
31.2075
  0
LINE
  8
0
 10
65.8504
 20
31.2075
 11
65.8961
 21
31.0701
  0
LINE
  8
0
 10
65.8961
 20
31.0701
 11
65.9079
 21
31.0323
  0
LINE
  8
0
 10
65.9079
 20
31.0323
 11
65.937
 21
30.9315
  0
LINE
  8
0
 10
65.937
 20
30.9315
 11
65.9473
 21
30.8929
  0
LINE
  8
0
 10
65.9473
 20
30.8929
 11
65.9823
 21
30.7511
  0
LINE
  8
0
 10
65.9823
 20
30.7511
 11
65.9911
 21
30.7121
  0
LINE
  8
0
 10
65.9911
 20
30.7121
 11
66.0123
 21
30.6082
  0
LINE
  8
0
 10
66.0123
 20
30.6082
 11
66.0196
 21
30.5687
  0
LINE
  8
0
 10
66.0196
 20
30.5687
 11
66.0432
 21
30.4234
  0
LINE
  8
0
 10
66.0432
 20
30.4234
 11
66.0489
 21
30.3836
  0
LINE
  8
0
 10
66.0489
 20
30.3836
 11
66.0619
 21
30.2769
  0
LINE
  8
0
 10
66.0619
 20
30.2769
 11
66.066
 21
30.2367
  0
LINE
  8
0
 10
66.066
 20
30.2367
 11
66.0779
 21
30.0892
  0
LINE
  8
0
 10
66.0779
 20
30.0892
 11
66.0804
 21
30.0489
  0
LINE
  8
0
 10
66.0804
 20
30.0489
 11
66.0848
 21
29.9398
  0
LINE
  8
0
 10
66.0848
 20
29.9398
 11
66.0856
 21
29.8994
  0
LINE
  8
0
 10
66.0856
 20
29.8994
 11
66.0856
 21
29.7516
  0
LINE
  8
0
 10
66.0856
 20
29.7516
 11
66.0848
 21
29.7112
  0
LINE
  8
0
 10
66.0848
 20
29.7112
 11
66.0803
 21
29.6022
  0
LINE
  8
0
 10
66.0803
 20
29.6022
 11
66.0779
 21
29.5618
  0
LINE
  8
0
 10
66.0779
 20
29.5618
 11
66.0659
 21
29.4143
  0
LINE
  8
0
 10
66.0659
 20
29.4143
 11
66.0619
 21
29.3741
  0
LINE
  8
0
 10
66.0619
 20
29.3741
 11
66.0489
 21
29.2675
  0
LINE
  8
0
 10
66.0489
 20
29.2675
 11
66.0432
 21
29.2276
  0
LINE
  8
0
 10
66.0432
 20
29.2276
 11
66.0195
 21
29.0823
  0
LINE
  8
0
 10
66.0195
 20
29.0823
 11
66.0123
 21
29.0428
  0
LINE
  8
0
 10
66.0123
 20
29.0428
 11
65.991
 21
28.9389
  0
LINE
  8
0
 10
65.991
 20
28.9389
 11
65.9822
 21
28.9
  0
LINE
  8
0
 10
65.9822
 20
28.9
 11
65.9473
 21
28.7581
  0
LINE
  8
0
 10
65.9473
 20
28.7581
 11
65.9369
 21
28.7195
  0
LINE
  8
0
 10
65.9369
 20
28.7195
 11
65.9078
 21
28.6188
  0
LINE
  8
0
 10
65.9078
 20
28.6188
 11
65.896
 21
28.581
  0
LINE
  8
0
 10
65.896
 20
28.581
 11
65.8503
 21
28.4436
  0
LINE
  8
0
 10
65.8503
 20
28.4436
 11
65.8371
 21
28.4063
  0
LINE
  8
0
 10
65.8371
 20
28.4063
 11
65.8004
 21
28.309
  0
LINE
  8
0
 10
65.8004
 20
28.309
 11
65.7858
 21
28.2726
  0
LINE
  8
0
 10
65.7858
 20
28.2726
 11
65.7299
 21
28.1404
  0
LINE
  8
0
 10
65.7299
 20
28.1404
 11
65.714
 21
28.1046
  0
LINE
  8
0
 10
65.714
 20
28.1046
 11
65.67
 21
28.0111
  0
LINE
  8
0
 10
65.67
 20
28.0111
 11
65.6528
 21
27.9762
  0
LINE
  8
0
 10
65.6528
 20
27.9762
 11
65.5874
 21
27.8499
  0
LINE
  8
0
 10
65.5874
 20
27.8499
 11
65.5688
 21
27.8158
  0
LINE
  8
0
 10
65.5688
 20
27.8158
 11
65.518
 21
27.7264
  0
LINE
  8
0
 10
65.518
 20
27.7264
 11
65.4983
 21
27.6932
  0
LINE
  8
0
 10
65.4983
 20
27.6932
 11
65.4239
 21
27.5733
  0
LINE
  8
0
 10
65.4239
 20
27.5733
 11
65.4029
 21
27.5409
  0
LINE
  8
0
 10
65.4029
 20
27.5409
 11
65.3455
 21
27.4561
  0
LINE
  8
0
 10
65.3455
 20
27.4561
 11
65.3235
 21
27.4247
  0
LINE
  8
0
 10
65.3235
 20
27.4247
 11
65.2405
 21
27.3115
  0
LINE
  8
0
 10
65.2405
 20
27.3115
 11
65.2173
 21
27.281
  0
LINE
  8
0
 10
65.2173
 20
27.281
 11
65.1537
 21
27.201
  0
LINE
  8
0
 10
65.1537
 20
27.201
 11
65.1294
 21
27.1715
  0
LINE
  8
0
 10
65.1294
 20
27.1715
 11
65.0384
 21
27.0654
  0
LINE
  8
0
 10
65.0384
 20
27.0654
 11
65.013
 21
27.0369
  0
LINE
  8
0
 10
65.013
 20
27.0369
 11
64.9436
 21
26.962
  0
LINE
  8
0
 10
64.9436
 20
26.962
 11
64.9171
 21
26.9345
  0
LINE
  8
0
 10
64.9171
 20
26.9345
 11
64.8184
 21
26.8358
  0
LINE
  8
0
 10
64.8184
 20
26.8358
 11
64.7909
 21
26.8093
  0
LINE
  8
0
 10
64.7909
 20
26.8093
 11
64.716
 21
26.7399
  0
LINE
  8
0
 10
64.716
 20
26.7399
 11
64.6875
 21
26.7145
  0
LINE
  8
0
 10
64.6875
 20
26.7145
 11
64.5814
 21
26.6235
  0
LINE
  8
0
 10
64.5814
 20
26.6235
 11
64.5519
 21
26.5991
  0
LINE
  8
0
 10
64.5519
 20
26.5991
 11
64.4719
 21
26.5356
  0
LINE
  8
0
 10
64.4719
 20
26.5356
 11
64.4414
 21
26.5124
  0
LINE
  8
0
 10
64.4414
 20
26.5124
 11
64.3282
 21
26.4294
  0
LINE
  8
0
 10
64.3282
 20
26.4294
 11
64.2968
 21
26.4073
  0
LINE
  8
0
 10
64.2968
 20
26.4073
 11
64.2119
 21
26.35
  0
LINE
  8
0
 10
64.2119
 20
26.35
 11
64.1796
 21
26.329
  0
LINE
  8
0
 10
64.1796
 20
26.329
 11
64.0596
 21
26.2546
  0
LINE
  8
0
 10
64.0596
 20
26.2546
 11
64.0265
 21
26.2349
  0
LINE
  8
0
 10
64.0265
 20
26.2349
 11
63.9371
 21
26.1841
  0
LINE
  8
0
 10
63.9371
 20
26.1841
 11
63.903
 21
26.1655
  0
LINE
  8
0
 10
63.903
 20
26.1655
 11
63.7767
 21
26.1001
  0
LINE
  8
0
 10
63.7767
 20
26.1001
 11
63.7418
 21
26.0829
  0
LINE
  8
0
 10
63.7418
 20
26.0829
 11
63.6483
 21
26.0389
  0
LINE
  8
0
 10
63.6483
 20
26.0389
 11
63.6125
 21
26.0229
  0
LINE
  8
0
 10
63.6125
 20
26.0229
 11
63.4803
 21
25.9671
  0
LINE
  8
0
 10
63.4803
 20
25.9671
 11
63.4439
 21
25.9525
  0
LINE
  8
0
 10
63.4439
 20
25.9525
 11
63.3466
 21
25.9158
  0
LINE
  8
0
 10
63.3466
 20
25.9158
 11
63.3093
 21
25.9026
  0
LINE
  8
0
 10
63.3093
 20
25.9026
 11
63.1719
 21
25.8568
  0
LINE
  8
0
 10
63.1719
 20
25.8568
 11
63.1341
 21
25.8451
  0
LINE
  8
0
 10
63.1341
 20
25.8451
 11
63.0333
 21
25.8159
  0
LINE
  8
0
 10
63.0333
 20
25.8159
 11
62.9948
 21
25.8056
  0
LINE
  8
0
 10
62.9948
 20
25.8056
 11
62.8529
 21
25.7707
  0
LINE
  8
0
 10
62.8529
 20
25.7707
 11
62.814
 21
25.7619
  0
LINE
  8
0
 10
62.814
 20
25.7619
 11
62.7101
 21
25.7406
  0
LINE
  8
0
 10
62.7101
 20
25.7406
 11
62.6705
 21
25.7334
  0
LINE
  8
0
 10
62.6705
 20
25.7334
 11
62.5252
 21
25.7097
  0
LINE
  8
0
 10
62.5252
 20
25.7097
 11
62.4854
 21
25.704
  0
LINE
  8
0
 10
62.4854
 20
25.704
 11
62.3788
 21
25.691
  0
LINE
  8
0
 10
62.3788
 20
25.691
 11
62.3386
 21
25.6869
  0
LINE
  8
0
 10
62.3386
 20
25.6869
 11
62.1911
 21
25.675
  0
LINE
  8
0
 10
62.1911
 20
25.675
 11
62.1507
 21
25.6725
  0
LINE
  8
0
 10
62.1507
 20
25.6725
 11
62.0416
 21
25.6681
  0
LINE
  8
0
 10
62.0416
 20
25.6681
 11
62.0013
 21
25.6673
  0
LINE
  8
0
 10
62.0013
 20
25.6673
 11
61.8534
 21
25.6673
  0
LINE
  8
0
 10
61.8534
 20
25.6673
 11
61.8131
 21
25.6681
  0
LINE
  8
0
 10
108.313
 20
17.9182
 11
108.204
 21
17.9226
  0
LINE
  8
0
 10
108.204
 20
17.9226
 11
108.163
 21
17.9251
  0
LINE
  8
0
 10
108.163
 20
17.9251
 11
108.016
 21
17.937
  0
LINE
  8
0
 10
108.016
 20
17.937
 11
107.976
 21
17.9411
  0
LINE
  8
0
 10
107.976
 20
17.9411
 11
107.869
 21
17.9541
  0
LINE
  8
0
 10
107.869
 20
17.9541
 11
107.829
 21
17.9598
  0
LINE
  8
0
 10
107.829
 20
17.9598
 11
107.684
 21
17.9834
  0
LINE
  8
0
 10
107.684
 20
17.9834
 11
107.644
 21
17.9907
  0
LINE
  8
0
 10
107.644
 20
17.9907
 11
107.541
 21
18.0119
  0
LINE
  8
0
 10
107.541
 20
18.0119
 11
107.502
 21
18.0207
  0
LINE
  8
0
 10
107.502
 20
18.0207
 11
107.36
 21
18.0557
  0
LINE
  8
0
 10
107.36
 20
18.0557
 11
107.321
 21
18.066
  0
LINE
  8
0
 10
107.321
 20
18.066
 11
107.22
 21
18.0952
  0
LINE
  8
0
 10
107.22
 20
18.0952
 11
107.183
 21
18.1069
  0
LINE
  8
0
 10
107.183
 20
18.1069
 11
107.045
 21
18.1526
  0
LINE
  8
0
 10
107.045
 20
18.1526
 11
107.008
 21
18.1659
  0
LINE
  8
0
 10
107.008
 20
18.1659
 11
106.911
 21
18.2026
  0
LINE
  8
0
 10
106.911
 20
18.2026
 11
106.874
 21
18.2171
  0
LINE
  8
0
 10
106.874
 20
18.2171
 11
106.742
 21
18.273
  0
LINE
  8
0
 10
106.742
 20
18.273
 11
106.706
 21
18.289
  0
LINE
  8
0
 10
106.706
 20
18.289
 11
106.613
 21
18.3329
  0
LINE
  8
0
 10
106.613
 20
18.3329
 11
106.578
 21
18.3501
  0
LINE
  8
0
 10
106.578
 20
18.3501
 11
106.452
 21
18.4156
  0
LINE
  8
0
 10
106.452
 20
18.4156
 11
106.417
 21
18.4341
  0
LINE
  8
0
 10
106.417
 20
18.4341
 11
106.328
 21
18.4849
  0
LINE
  8
0
 10
106.328
 20
18.4849
 11
106.295
 21
18.5046
  0
LINE
  8
0
 10
106.295
 20
18.5046
 11
106.175
 21
18.5791
  0
LINE
  8
0
 10
106.175
 20
18.5791
 11
106.143
 21
18.6001
  0
LINE
  8
0
 10
106.143
 20
18.6001
 11
106.058
 21
18.6574
  0
LINE
  8
0
 10
106.058
 20
18.6574
 11
106.026
 21
18.6795
  0
LINE
  8
0
 10
106.026
 20
18.6795
 11
105.913
 21
18.7624
  0
LINE
  8
0
 10
105.913
 20
18.7624
 11
105.883
 21
18.7857
  0
LINE
  8
0
 10
105.883
 20
18.7857
 11
105.803
 21
18.8492
  0
LINE
  8
0
 10
105.803
 20
18.8492
 11
105.773
 21
18.8735
  0
LINE
  8
0
 10
105.773
 20
18.8735
 11
105.667
 21
18.9646
  0
LINE
  8
0
 10
105.667
 20
18.9646
 11
105.638
 21
18.99
  0
LINE
  8
0
 10
105.638
 20
18.99
 11
105.564
 21
19.0594
  0
LINE
  8
0
 10
105.564
 20
19.0594
 11
105.536
 21
19.0858
  0
LINE
  8
0
 10
105.536
 20
19.0858
 11
105.437
 21
19.1846
  0
LINE
  8
0
 10
105.437
 20
19.1846
 11
105.411
 21
19.2121
  0
LINE
  8
0
 10
105.411
 20
19.2121
 11
105.342
 21
19.2869
  0
LINE
  8
0
 10
105.342
 20
19.2869
 11
105.316
 21
19.3155
  0
LINE
  8
0
 10
105.316
 20
19.3155
 11
105.225
 21
19.4216
  0
LINE
  8
0
 10
105.225
 20
19.4216
 11
105.201
 21
19.451
  0
LINE
  8
0
 10
105.201
 20
19.451
 11
105.137
 21
19.5311
  0
LINE
  8
0
 10
105.137
 20
19.5311
 11
105.114
 21
19.5616
  0
LINE
  8
0
 10
105.114
 20
19.5616
 11
105.031
 21
19.6748
  0
LINE
  8
0
 10
105.031
 20
19.6748
 11
105.009
 21
19.7061
  0
LINE
  8
0
 10
105.009
 20
19.7061
 11
104.952
 21
19.791
  0
LINE
  8
0
 10
104.952
 20
19.791
 11
104.931
 21
19.8234
  0
LINE
  8
0
 10
104.931
 20
19.8234
 11
104.856
 21
19.9433
  0
LINE
  8
0
 10
104.856
 20
19.9433
 11
104.836
 21
19.9765
  0
LINE
  8
0
 10
104.836
 20
19.9765
 11
104.786
 21
20.0658
  0
LINE
  8
0
 10
104.786
 20
20.0658
 11
104.767
 21
20.1
  0
LINE
  8
0
 10
104.767
 20
20.1
 11
104.702
 21
20.2263
  0
LINE
  8
0
 10
104.702
 20
20.2263
 11
104.684
 21
20.2612
  0
LINE
  8
0
 10
104.684
 20
20.2612
 11
104.641
 21
20.3547
  0
LINE
  8
0
 10
104.641
 20
20.3547
 11
104.625
 21
20.3905
  0
LINE
  8
0
 10
104.625
 20
20.3905
 11
104.569
 21
20.5227
  0
LINE
  8
0
 10
104.569
 20
20.5227
 11
104.554
 21
20.5591
  0
LINE
  8
0
 10
104.554
 20
20.5591
 11
104.517
 21
20.6564
  0
LINE
  8
0
 10
104.517
 20
20.6564
 11
104.504
 21
20.6937
  0
LINE
  8
0
 10
104.504
 20
20.6937
 11
104.458
 21
20.8311
  0
LINE
  8
0
 10
104.458
 20
20.8311
 11
104.447
 21
20.8689
  0
LINE
  8
0
 10
104.447
 20
20.8689
 11
104.418
 21
20.9696
  0
LINE
  8
0
 10
104.418
 20
20.9696
 11
104.407
 21
21.0082
  0
LINE
  8
0
 10
104.407
 20
21.0082
 11
104.372
 21
21.1501
  0
LINE
  8
0
 10
104.372
 20
21.1501
 11
104.363
 21
21.189
  0
LINE
  8
0
 10
104.363
 20
21.189
 11
104.342
 21
21.2929
  0
LINE
  8
0
 10
104.342
 20
21.2929
 11
104.335
 21
21.3324
  0
LINE
  8
0
 10
104.335
 20
21.3324
 11
104.311
 21
21.4777
  0
LINE
  8
0
 10
104.311
 20
21.4777
 11
104.306
 21
21.5175
  0
LINE
  8
0
 10
104.306
 20
21.5175
 11
104.293
 21
21.6242
  0
LINE
  8
0
 10
104.293
 20
21.6242
 11
104.289
 21
21.6644
  0
LINE
  8
0
 10
104.289
 20
21.6644
 11
104.277
 21
21.8119
  0
LINE
  8
0
 10
104.277
 20
21.8119
 11
104.274
 21
21.8523
  0
LINE
  8
0
 10
104.274
 20
21.8523
 11
104.27
 21
21.9613
  0
LINE
  8
0
 10
104.27
 20
21.9613
 11
104.269
 21
22.0017
  0
LINE
  8
0
 10
104.269
 20
22.0017
 11
104.269
 21
22.1495
  0
LINE
  8
0
 10
104.269
 20
22.1495
 11
104.27
 21
22.1899
  0
LINE
  8
0
 10
104.27
 20
22.1899
 11
104.274
 21
22.299
  0
LINE
  8
0
 10
104.274
 20
22.299
 11
104.277
 21
22.3393
  0
LINE
  8
0
 10
104.277
 20
22.3393
 11
104.289
 21
22.4868
  0
LINE
  8
0
 10
104.289
 20
22.4868
 11
104.293
 21
22.527
  0
LINE
  8
0
 10
104.293
 20
22.527
 11
104.306
 21
22.6336
  0
LINE
  8
0
 10
104.306
 20
22.6336
 11
104.311
 21
22.6735
  0
LINE
  8
0
 10
104.311
 20
22.6735
 11
104.335
 21
22.8187
  0
LINE
  8
0
 10
104.335
 20
22.8187
 11
104.342
 21
22.8583
  0
LINE
  8
0
 10
104.342
 20
22.8583
 11
104.363
 21
22.9622
  0
LINE
  8
0
 10
104.363
 20
22.9622
 11
104.372
 21
23.0011
  0
LINE
  8
0
 10
104.372
 20
23.0011
 11
104.407
 21
23.143
  0
LINE
  8
0
 10
104.407
 20
23.143
 11
104.418
 21
23.1816
  0
LINE
  8
0
 10
104.418
 20
23.1816
 11
104.447
 21
23.2823
  0
LINE
  8
0
 10
104.447
 20
23.2823
 11
104.458
 21
23.3201
  0
LINE
  8
0
 10
104.458
 20
23.3201
 11
104.504
 21
23.4576
  0
LINE
  8
0
 10
104.504
 20
23.4576
 11
104.517
 21
23.4949
  0
LINE
  8
0
 10
104.517
 20
23.4949
 11
104.554
 21
23.5922
  0
LINE
  8
0
 10
104.554
 20
23.5922
 11
104.569
 21
23.6286
  0
LINE
  8
0
 10
104.569
 20
23.6286
 11
104.625
 21
23.7608
  0
LINE
  8
0
 10
104.625
 20
23.7608
 11
104.64
 21
23.7967
  0
LINE
  8
0
 10
104.64
 20
23.7967
 11
104.684
 21
23.8902
  0
LINE
  8
0
 10
104.684
 20
23.8902
 11
104.702
 21
23.925
  0
LINE
  8
0
 10
104.702
 20
23.925
 11
104.767
 21
24.0514
  0
LINE
  8
0
 10
104.767
 20
24.0514
 11
104.786
 21
24.0856
  0
LINE
  8
0
 10
104.786
 20
24.0856
 11
104.836
 21
24.1749
  0
LINE
  8
0
 10
104.836
 20
24.1749
 11
104.856
 21
24.2081
  0
LINE
  8
0
 10
104.856
 20
24.2081
 11
104.931
 21
24.3281
  0
LINE
  8
0
 10
104.931
 20
24.3281
 11
104.952
 21
24.3605
  0
LINE
  8
0
 10
104.952
 20
24.3605
 11
105.009
 21
24.4453
  0
LINE
  8
0
 10
105.009
 20
24.4453
 11
105.031
 21
24.4767
  0
LINE
  8
0
 10
105.031
 20
24.4767
 11
105.114
 21
24.59
  0
LINE
  8
0
 10
105.114
 20
24.59
 11
105.137
 21
24.6205
  0
LINE
  8
0
 10
105.137
 20
24.6205
 11
105.201
 21
24.7005
  0
LINE
  8
0
 10
105.201
 20
24.7005
 11
105.225
 21
24.73
  0
LINE
  8
0
 10
105.225
 20
24.73
 11
105.316
 21
24.8361
  0
LINE
  8
0
 10
105.316
 20
24.8361
 11
105.342
 21
24.8647
  0
LINE
  8
0
 10
105.342
 20
24.8647
 11
105.411
 21
24.9395
  0
LINE
  8
0
 10
105.411
 20
24.9395
 11
105.438
 21
24.967
  0
LINE
  8
0
 10
105.438
 20
24.967
 11
105.536
 21
25.0658
  0
LINE
  8
0
 10
105.536
 20
25.0658
 11
105.564
 21
25.0923
  0
LINE
  8
0
 10
105.564
 20
25.0923
 11
105.639
 21
25.1616
  0
LINE
  8
0
 10
105.639
 20
25.1616
 11
105.667
 21
25.1871
  0
LINE
  8
0
 10
105.667
 20
25.1871
 11
105.773
 21
25.2781
  0
LINE
  8
0
 10
105.773
 20
25.2781
 11
105.803
 21
25.3024
  0
LINE
  8
0
 10
105.803
 20
25.3024
 11
105.883
 21
25.3659
  0
LINE
  8
0
 10
105.883
 20
25.3659
 11
105.913
 21
25.3892
  0
LINE
  8
0
 10
105.913
 20
25.3892
 11
106.027
 21
25.4722
  0
LINE
  8
0
 10
106.027
 20
25.4722
 11
106.058
 21
25.4942
  0
LINE
  8
0
 10
106.058
 20
25.4942
 11
106.143
 21
25.5515
  0
LINE
  8
0
 10
106.143
 20
25.5515
 11
106.175
 21
25.5725
  0
LINE
  8
0
 10
106.175
 20
25.5725
 11
106.295
 21
25.647
  0
LINE
  8
0
 10
106.295
 20
25.647
 11
106.328
 21
25.6667
  0
LINE
  8
0
 10
106.328
 20
25.6667
 11
106.418
 21
25.7174
  0
LINE
  8
0
 10
106.418
 20
25.7174
 11
106.452
 21
25.736
  0
LINE
  8
0
 10
106.452
 20
25.736
 11
106.578
 21
25.8014
  0
LINE
  8
0
 10
106.578
 20
25.8014
 11
106.613
 21
25.8186
  0
LINE
  8
0
 10
106.613
 20
25.8186
 11
106.707
 21
25.8625
  0
LINE
  8
0
 10
106.707
 20
25.8625
 11
106.742
 21
25.8785
  0
LINE
  8
0
 10
106.742
 20
25.8785
 11
106.875
 21
25.9343
  0
LINE
  8
0
 10
106.875
 20
25.9343
 11
106.911
 21
25.9489
  0
LINE
  8
0
 10
106.911
 20
25.9489
 11
107.008
 21
25.9856
  0
LINE
  8
0
 10
107.008
 20
25.9856
 11
107.046
 21
25.9988
  0
LINE
  8
0
 10
107.046
 20
25.9988
 11
107.183
 21
26.0445
  0
LINE
  8
0
 10
107.183
 20
26.0445
 11
107.221
 21
26.0562
  0
LINE
  8
0
 10
107.221
 20
26.0562
 11
107.322
 21
26.0854
  0
LINE
  8
0
 10
107.322
 20
26.0854
 11
107.36
 21
26.0957
  0
LINE
  8
0
 10
107.36
 20
26.0957
 11
107.502
 21
26.1306
  0
LINE
  8
0
 10
107.502
 20
26.1306
 11
107.541
 21
26.1394
  0
LINE
  8
0
 10
107.541
 20
26.1394
 11
107.645
 21
26.1606
  0
LINE
  8
0
 10
107.645
 20
26.1606
 11
107.684
 21
26.1679
  0
LINE
  8
0
 10
107.684
 20
26.1679
 11
107.83
 21
26.1915
  0
LINE
  8
0
 10
107.83
 20
26.1915
 11
107.869
 21
26.1972
  0
LINE
  8
0
 10
107.869
 20
26.1972
 11
107.976
 21
26.2102
  0
LINE
  8
0
 10
107.976
 20
26.2102
 11
108.016
 21
26.2142
  0
LINE
  8
0
 10
108.016
 20
26.2142
 11
108.164
 21
26.2262
  0
LINE
  8
0
 10
108.164
 20
26.2262
 11
108.204
 21
26.2286
  0
LINE
  8
0
 10
108.204
 20
26.2286
 11
108.313
 21
26.233
  0
LINE
  8
0
 10
108.313
 20
26.233
 11
108.353
 21
26.2338
  0
LINE
  8
0
 10
108.353
 20
26.2338
 11
108.501
 21
26.2338
  0
LINE
  8
0
 10
108.501
 20
26.2338
 11
108.541
 21
26.233
  0
LINE
  8
0
 10
108.541
 20
26.233
 11
108.65
 21
26.2286
  0
LINE
  8
0
 10
108.65
 20
26.2286
 11
108.691
 21
26.2262
  0
LINE
  8
0
 10
108.691
 20
26.2262
 11
108.838
 21
26.2142
  0
LINE
  8
0
 10
108.838
 20
26.2142
 11
108.878
 21
26.2102
  0
LINE
  8
0
 10
108.878
 20
26.2102
 11
108.985
 21
26.1972
  0
LINE
  8
0
 10
108.985
 20
26.1972
 11
109.025
 21
26.1915
  0
LINE
  8
0
 10
109.025
 20
26.1915
 11
109.17
 21
26.1679
  0
LINE
  8
0
 10
109.17
 20
26.1679
 11
109.21
 21
26.1606
  0
LINE
  8
0
 10
109.21
 20
26.1606
 11
109.313
 21
26.1394
  0
LINE
  8
0
 10
109.313
 20
26.1394
 11
109.352
 21
26.1306
  0
LINE
  8
0
 10
109.352
 20
26.1306
 11
109.494
 21
26.0957
  0
LINE
  8
0
 10
109.494
 20
26.0957
 11
109.533
 21
26.0854
  0
LINE
  8
0
 10
109.533
 20
26.0854
 11
109.633
 21
26.0562
  0
LINE
  8
0
 10
109.633
 20
26.0562
 11
109.671
 21
26.0445
  0
LINE
  8
0
 10
109.671
 20
26.0445
 11
109.809
 21
25.9988
  0
LINE
  8
0
 10
109.809
 20
25.9988
 11
109.846
 21
25.9856
  0
LINE
  8
0
 10
109.846
 20
25.9856
 11
109.943
 21
25.9489
  0
LINE
  8
0
 10
109.943
 20
25.9489
 11
109.98
 21
25.9343
  0
LINE
  8
0
 10
109.98
 20
25.9343
 11
110.112
 21
25.8785
  0
LINE
  8
0
 10
110.112
 20
25.8785
 11
110.148
 21
25.8625
  0
LINE
  8
0
 10
110.148
 20
25.8625
 11
110.241
 21
25.8186
  0
LINE
  8
0
 10
110.241
 20
25.8186
 11
110.276
 21
25.8014
  0
LINE
  8
0
 10
110.276
 20
25.8014
 11
110.402
 21
25.736
  0
LINE
  8
0
 10
110.402
 20
25.736
 11
110.436
 21
25.7174
  0
LINE
  8
0
 10
110.436
 20
25.7174
 11
110.526
 21
25.6667
  0
LINE
  8
0
 10
110.526
 20
25.6667
 11
110.559
 21
25.647
  0
LINE
  8
0
 10
110.559
 20
25.647
 11
110.679
 21
25.5725
  0
LINE
  8
0
 10
110.679
 20
25.5725
 11
110.711
 21
25.5515
  0
LINE
  8
0
 10
110.711
 20
25.5515
 11
110.796
 21
25.4942
  0
LINE
  8
0
 10
110.796
 20
25.4942
 11
110.828
 21
25.4722
  0
LINE
  8
0
 10
110.828
 20
25.4722
 11
110.941
 21
25.3892
  0
LINE
  8
0
 10
110.941
 20
25.3892
 11
110.971
 21
25.3659
  0
LINE
  8
0
 10
110.971
 20
25.3659
 11
111.051
 21
25.3024
  0
LINE
  8
0
 10
111.051
 20
25.3024
 11
111.081
 21
25.2781
  0
LINE
  8
0
 10
111.081
 20
25.2781
 11
111.187
 21
25.1871
  0
LINE
  8
0
 10
111.187
 20
25.1871
 11
111.216
 21
25.1616
  0
LINE
  8
0
 10
111.216
 20
25.1616
 11
111.29
 21
25.0923
  0
LINE
  8
0
 10
111.29
 20
25.0923
 11
111.318
 21
25.0658
  0
LINE
  8
0
 10
111.318
 20
25.0658
 11
111.417
 21
24.967
  0
LINE
  8
0
 10
111.417
 20
24.967
 11
111.443
 21
24.9395
  0
LINE
  8
0
 10
111.443
 20
24.9395
 11
111.513
 21
24.8647
  0
LINE
  8
0
 10
111.513
 20
24.8647
 11
111.538
 21
24.8361
  0
LINE
  8
0
 10
111.538
 20
24.8361
 11
111.629
 21
24.73
  0
LINE
  8
0
 10
111.629
 20
24.73
 11
111.653
 21
24.7005
  0
LINE
  8
0
 10
111.653
 20
24.7005
 11
111.717
 21
24.6205
  0
LINE
  8
0
 10
111.717
 20
24.6205
 11
111.74
 21
24.59
  0
LINE
  8
0
 10
111.74
 20
24.59
 11
111.823
 21
24.4767
  0
LINE
  8
0
 10
111.823
 20
24.4767
 11
111.845
 21
24.4454
  0
LINE
  8
0
 10
111.845
 20
24.4454
 11
111.903
 21
24.3605
  0
LINE
  8
0
 10
111.903
 20
24.3605
 11
111.924
 21
24.3281
  0
LINE
  8
0
 10
111.924
 20
24.3281
 11
111.998
 21
24.2081
  0
LINE
  8
0
 10
111.998
 20
24.2081
 11
112.018
 21
24.1749
  0
LINE
  8
0
 10
112.018
 20
24.1749
 11
112.069
 21
24.0856
  0
LINE
  8
0
 10
112.069
 20
24.0856
 11
112.087
 21
24.0514
  0
LINE
  8
0
 10
112.087
 20
24.0514
 11
112.153
 21
23.9251
  0
LINE
  8
0
 10
112.153
 20
23.9251
 11
112.17
 21
23.8902
  0
LINE
  8
0
 10
112.17
 20
23.8902
 11
112.214
 21
23.7967
  0
LINE
  8
0
 10
112.214
 20
23.7967
 11
112.23
 21
23.7609
  0
LINE
  8
0
 10
112.23
 20
23.7609
 11
112.286
 21
23.6286
  0
LINE
  8
0
 10
112.286
 20
23.6286
 11
112.3
 21
23.5922
  0
LINE
  8
0
 10
112.3
 20
23.5922
 11
112.337
 21
23.4949
  0
LINE
  8
0
 10
112.337
 20
23.4949
 11
112.35
 21
23.4576
  0
LINE
  8
0
 10
112.35
 20
23.4576
 11
112.396
 21
23.3202
  0
LINE
  8
0
 10
112.396
 20
23.3202
 11
112.408
 21
23.2824
  0
LINE
  8
0
 10
112.408
 20
23.2824
 11
112.437
 21
23.1816
  0
LINE
  8
0
 10
112.437
 20
23.1816
 11
112.447
 21
23.143
  0
LINE
  8
0
 10
112.447
 20
23.143
 11
112.482
 21
23.0011
  0
LINE
  8
0
 10
112.482
 20
23.0011
 11
112.491
 21
22.9622
  0
LINE
  8
0
 10
112.491
 20
22.9622
 11
112.512
 21
22.8583
  0
LINE
  8
0
 10
112.512
 20
22.8583
 11
112.519
 21
22.8187
  0
LINE
  8
0
 10
112.519
 20
22.8187
 11
112.543
 21
22.6735
  0
LINE
  8
0
 10
112.543
 20
22.6735
 11
112.549
 21
22.6337
  0
LINE
  8
0
 10
112.549
 20
22.6337
 11
112.562
 21
22.527
  0
LINE
  8
0
 10
112.562
 20
22.527
 11
112.566
 21
22.4868
  0
LINE
  8
0
 10
112.566
 20
22.4868
 11
112.578
 21
22.3393
  0
LINE
  8
0
 10
112.578
 20
22.3393
 11
112.58
 21
22.299
  0
LINE
  8
0
 10
112.58
 20
22.299
 11
112.585
 21
22.1899
  0
LINE
  8
0
 10
112.585
 20
22.1899
 11
112.585
 21
22.1495
  0
LINE
  8
0
 10
112.585
 20
22.1495
 11
112.585
 21
22.0017
  0
LINE
  8
0
 10
112.585
 20
22.0017
 11
112.585
 21
21.9613
  0
LINE
  8
0
 10
112.585
 20
21.9613
 11
112.58
 21
21.8523
  0
LINE
  8
0
 10
112.58
 20
21.8523
 11
112.578
 21
21.8119
  0
LINE
  8
0
 10
112.578
 20
21.8119
 11
112.566
 21
21.6644
  0
LINE
  8
0
 10
112.566
 20
21.6644
 11
112.562
 21
21.6242
  0
LINE
  8
0
 10
112.562
 20
21.6242
 11
112.549
 21
21.5175
  0
LINE
  8
0
 10
112.549
 20
21.5175
 11
112.543
 21
21.4777
  0
LINE
  8
0
 10
112.543
 20
21.4777
 11
112.519
 21
21.3324
  0
LINE
  8
0
 10
112.519
 20
21.3324
 11
112.512
 21
21.2929
  0
LINE
  8
0
 10
112.512
 20
21.2929
 11
112.491
 21
21.189
  0
LINE
  8
0
 10
112.491
 20
21.189
 11
112.482
 21
21.15
  0
LINE
  8
0
 10
112.482
 20
21.15
 11
112.447
 21
21.0082
  0
LINE
  8
0
 10
112.447
 20
21.0082
 11
112.437
 21
20.9696
  0
LINE
  8
0
 10
112.437
 20
20.9696
 11
112.408
 21
20.8689
  0
LINE
  8
0
 10
112.408
 20
20.8689
 11
112.396
 21
20.8311
  0
LINE
  8
0
 10
112.396
 20
20.8311
 11
112.35
 21
20.6936
  0
LINE
  8
0
 10
112.35
 20
20.6936
 11
112.337
 21
20.6563
  0
LINE
  8
0
 10
112.337
 20
20.6563
 11
112.3
 21
20.559
  0
LINE
  8
0
 10
112.3
 20
20.559
 11
112.286
 21
20.5226
  0
LINE
  8
0
 10
112.286
 20
20.5226
 11
112.23
 21
20.3905
  0
LINE
  8
0
 10
112.23
 20
20.3905
 11
112.214
 21
20.3546
  0
LINE
  8
0
 10
112.214
 20
20.3546
 11
112.17
 21
20.2611
  0
LINE
  8
0
 10
112.17
 20
20.2611
 11
112.153
 21
20.2263
  0
LINE
  8
0
 10
112.153
 20
20.2263
 11
112.087
 21
20.1
  0
LINE
  8
0
 10
112.087
 20
20.1
 11
112.069
 21
20.0658
  0
LINE
  8
0
 10
112.069
 20
20.0658
 11
112.018
 21
19.9765
  0
LINE
  8
0
 10
112.018
 20
19.9765
 11
111.998
 21
19.9433
  0
LINE
  8
0
 10
111.998
 20
19.9433
 11
111.924
 21
19.8234
  0
LINE
  8
0
 10
111.924
 20
19.8234
 11
111.903
 21
19.791
  0
LINE
  8
0
 10
111.903
 20
19.791
 11
111.845
 21
19.7061
  0
LINE
  8
0
 10
111.845
 20
19.7061
 11
111.823
 21
19.6748
  0
LINE
  8
0
 10
111.823
 20
19.6748
 11
111.74
 21
19.5616
  0
LINE
  8
0
 10
111.74
 20
19.5616
 11
111.717
 21
19.5311
  0
LINE
  8
0
 10
111.717
 20
19.5311
 11
111.654
 21
19.451
  0
LINE
  8
0
 10
111.654
 20
19.451
 11
111.629
 21
19.4216
  0
LINE
  8
0
 10
111.629
 20
19.4216
 11
111.538
 21
19.3155
  0
LINE
  8
0
 10
111.538
 20
19.3155
 11
111.513
 21
19.2869
  0
LINE
  8
0
 10
111.513
 20
19.2869
 11
111.443
 21
19.212
  0
LINE
  8
0
 10
111.443
 20
19.212
 11
111.417
 21
19.1846
  0
LINE
  8
0
 10
111.417
 20
19.1846
 11
111.318
 21
19.0858
  0
LINE
  8
0
 10
111.318
 20
19.0858
 11
111.291
 21
19.0594
  0
LINE
  8
0
 10
111.291
 20
19.0594
 11
111.216
 21
18.99
  0
LINE
  8
0
 10
111.216
 20
18.99
 11
111.187
 21
18.9646
  0
LINE
  8
0
 10
111.187
 20
18.9646
 11
111.081
 21
18.8735
  0
LINE
  8
0
 10
111.081
 20
18.8735
 11
111.052
 21
18.8492
  0
LINE
  8
0
 10
111.052
 20
18.8492
 11
110.972
 21
18.7857
  0
LINE
  8
0
 10
110.972
 20
18.7857
 11
110.941
 21
18.7624
  0
LINE
  8
0
 10
110.941
 20
18.7624
 11
110.828
 21
18.6795
  0
LINE
  8
0
 10
110.828
 20
18.6795
 11
110.797
 21
18.6574
  0
LINE
  8
0
 10
110.797
 20
18.6574
 11
110.712
 21
18.6001
  0
LINE
  8
0
 10
110.712
 20
18.6001
 11
110.679
 21
18.5791
  0
LINE
  8
0
 10
110.679
 20
18.5791
 11
110.559
 21
18.5046
  0
LINE
  8
0
 10
110.559
 20
18.5046
 11
110.526
 21
18.4849
  0
LINE
  8
0
 10
110.526
 20
18.4849
 11
110.437
 21
18.4341
  0
LINE
  8
0
 10
110.437
 20
18.4341
 11
110.403
 21
18.4156
  0
LINE
  8
0
 10
110.403
 20
18.4156
 11
110.276
 21
18.3501
  0
LINE
  8
0
 10
110.276
 20
18.3501
 11
110.242
 21
18.3329
  0
LINE
  8
0
 10
110.242
 20
18.3329
 11
110.148
 21
18.289
  0
LINE
  8
0
 10
110.148
 20
18.289
 11
110.112
 21
18.273
  0
LINE
  8
0
 10
110.112
 20
18.273
 11
109.98
 21
18.2171
  0
LINE
  8
0
 10
109.98
 20
18.2171
 11
109.944
 21
18.2026
  0
LINE
  8
0
 10
109.944
 20
18.2026
 11
109.846
 21
18.1659
  0
LINE
  8
0
 10
109.846
 20
18.1659
 11
109.809
 21
18.1526
  0
LINE
  8
0
 10
109.809
 20
18.1526
 11
109.672
 21
18.1069
  0
LINE
  8
0
 10
109.672
 20
18.1069
 11
109.634
 21
18.0952
  0
LINE
  8
0
 10
109.634
 20
18.0952
 11
109.533
 21
18.066
  0
LINE
  8
0
 10
109.533
 20
18.066
 11
109.495
 21
18.0557
  0
LINE
  8
0
 10
109.495
 20
18.0557
 11
109.353
 21
18.0207
  0
LINE
  8
0
 10
109.353
 20
18.0207
 11
109.314
 21
18.0119
  0
LINE
  8
0
 10
109.314
 20
18.0119
 11
109.21
 21
17.9907
  0
LINE
  8
0
 10
109.21
 20
17.9907
 11
109.17
 21
17.9834
  0
LINE
  8
0
 10
109.17
 20
17.9834
 11
109.025
 21
17.9598
  0
LINE
  8
0
 10
109.025
 20
17.9598
 11
108.985
 21
17.9541
  0
LINE
  8
0
 10
108.985
 20
17.9541
 11
108.879
 21
17.9411
  0
LINE
  8
0
 10
108.879
 20
17.9411
 11
108.838
 21
17.937
  0
LINE
  8
0
 10
108.838
 20
17.937
 11
108.691
 21
17.9251
  0
LINE
  8
0
 10
108.691
 20
17.9251
 11
108.651
 21
17.9226
  0
LINE
  8
0
 10
108.651
 20
17.9226
 11
108.541
 21
17.9182
  0
LINE
  8
0
 10
108.541
 20
17.9182
 11
108.501
 21
17.9174
  0
LINE
  8
0
 10
108.501
 20
17.9174
 11
108.353
 21
17.9174
  0
LINE
  8
0
 10
108.353
 20
17.9174
 11
108.313
 21
17.9182
  0
ENDSEC
  0
SECTION
  2
OBJECTS
  0
DICTIONARY
  0
ENDSEC
  0
EOF
