999
dxfrw 0.6.3
  0
SECTION
  2
HEADER
  9
$ACADVER
  1
AC1021
  9
$DWGCODEPAGE
  3
ANSI_1252
  9
$INSBASE
 10
0
 20
0
 30
0
  9
$EXTMIN
 10
17.347919
 20
20.745635
 30
0
  9
$EXTMAX
 10
109.757314
 20
70.90506999999999
 30
0
  9
$LIMMIN
 10
0
 20
0
  9
$LIMMAX
 10
420
 20
297
  9
$ORTHOMODE
 70
    0
  9
$REGENMODE
 70
    1
  9
$FILLMODE
 70
    1
  9
$QTEXTMODE
 70
    0
  9
$MIRRTEXT
 70
    0
  9
$LTSCALE
 40
1
  9
$ATTMODE
 70
    0
  9
$TEXTSIZE
 40
2.5
  9
$TRACEWID
 40
15.68
  9
$TEXTSTYLE
  7
STANDARD
  9
$CLAYER
  8
0
  9
$CELTYPE
  6
BYLAYER
  9
$CECOLOR
 62
  256
  9
$CELTSCALE
 40
1
  9
$DISPSILH
 70
    0
  9
$DIMSCALE
 40
2.5
  9
$DIMASZ
 40
2.5
  9
$DIMEXO
 40
0.625
  9
$DIMDLI
 40
3.75
  9
$DIMRND
 40
0
  9
$DIMDLE
 40
0
  9
$DIMEXE
 40
1.25
  9
$DIMTP
 40
0
  9
$DIMTM
 40
0
  9
$DIMTXT
 40
2.5
  9
$DIMCEN
 40
2.5
  9
$DIMTSZ
 40
0
  9
$DIMTOL
 70
    0
  9
$DIMLIM
 70
    0
  9
$DIMTIH
 70
    0
  9
$DIMTOH
 70
    0
  9
$DIMSE1
 70
    0
  9
$DIMSE2
 70
    0
  9
$DIMTAD
 70
    1
  9
$DIMZIN
 70
    8
  9
$DIMBLK
  1

  9
$DIMASO
 70
    1
  9
$DIMSHO
 70
    1
  9
$DIMPOST
  1

  9
$DIMAPOST
  1

  9
$DIMALT
 70
    0
  9
$DIMALTD
 70
    3
  9
$DIMALTF
 40
0.03937
  9
$DIMLFAC
 40
1
  9
$DIMTOFL
 70
    1
  9
$DIMTVP
 40
0
  9
$DIMTIX
 70
    0
  9
$DIMSOXD
 70
    0
  9
$DIMSAH
 70
    0
  9
$DIMBLK1
  1

  9
$DIMBLK2
  1

  9
$DIMSTYLE
  2
Standard
  9
$DIMCLRD
 70
    0
  9
$DIMCLRE
 70
    0
  9
$DIMCLRT
 70
    0
  9
$DIMTFAC
 40
1
  9
$DIMGAP
 40
0.625
  9
$DIMJUST
 70
    0
  9
$DIMSD1
 70
    0
  9
$DIMSD2
 70
    0
  9
$DIMTOLJ
 70
    0
  9
$DIMTZIN
 70
    8
  9
$DIMALTZ
 70
    0
  9
$DIMALTTZ
 70
    0
  9
$DIMUPT
 70
    0
  9
$DIMDEC
 70
    2
  9
$DIMTDEC
 70
    2
  9
$DIMALTU
 70
    2
  9
$DIMALTTD
 70
    3
  9
$DIMTXSTY
  7
STANDARD
  9
$DIMAUNIT
 70
    0
  9
$DIMADEC
 70
    0
  9
$DIMALTRND
 40
0
  9
$DIMAZIN
 70
    0
  9
$DIMDSEP
 70
   44
  9
$DIMATFIT
 70
    3
  9
$DIMFRAC
 70
    0
  9
$DIMLDRBLK
  1
STANDARD
  9
$DIMLUNIT
 70
    2
  9
$DIMLWD
 70
   -2
  9
$DIMLWE
 70
   -2
  9
$DIMTMOVE
 70
    0
  9
$DIMFXL
 40
1
  9
$DIMFXLON
 70
    0
  9
$DIMJOGANG
 40
0.7854
  9
$DIMTFILL
 70
    0
  9
$DIMTFILLCLR
 70
    0
  9
$DIMARCSYM
 70
    0
  9
$DIMLTYPE
  6

  9
$DIMLTEX1
  6

  9
$DIMLTEX2
  6

  9
$LUNITS
 70
    2
  9
$LUPREC
 70
    4
  9
$SKETCHINC
 40
1
  9
$FILLETRAD
 40
0
  9
$AUNITS
 70
    0
  9
$AUPREC
 70
    2
  9
$MENU
  1
.
  9
$ELEVATION
 40
0
  9
$PELEVATION
 40
0
  9
$THICKNESS
 40
0
  9
$LIMCHECK
 70
    0
  9
$CHAMFERA
 40
0
  9
$CHAMFERB
 40
0
  9
$CHAMFERC
 40
0
  9
$CHAMFERD
 40
0
  9
$SKPOLY
 70
    0
  9
$USRTIMER
 70
    1
  9
$ANGBASE
 50
0
  9
$ANGDIR
 70
    0
  9
$PDMODE
 70
   34
  9
$PDSIZE
 40
0
  9
$PLINEWID
 40
0
  9
$SPLFRAME
 70
    0
  9
$SPLINETYPE
 70
    2
  9
$SPLINESEGS
 70
    8
  9
$HANDSEED
  5
20000
  9
$SURFTAB1
 70
    6
  9
$SURFTAB2
 70
    6
  9
$SURFTYPE
 70
    6
  9
$SURFU
 70
    6
  9
$SURFV
 70
    6
  9
$UCSBASE
  2

  9
$UCSNAME
  2

  9
$UCSORG
 10
0
 20
0
 30
0
  9
$UCSXDIR
 10
1
 20
0
 30
0
  9
$UCSYDIR
 10
0
 20
1
 30
0
  9
$UCSORTHOREF
  2

  9
$UCSORTHOVIEW
 70
    0
  9
$UCSORGTOP
 10
0
 20
0
 30
0
  9
$UCSORGBOTTOM
 10
0
 20
0
 30
0
  9
$UCSORGLEFT
 10
0
 20
0
 30
0
  9
$UCSORGRIGHT
 10
0
 20
0
 30
0
  9
$UCSORGFRONT
 10
0
 20
0
 30
0
  9
$UCSORGBACK
 10
0
 20
0
 30
0
  9
$PUCSBASE
  2

  9
$PUCSNAME
  2

  9
$PUCSORG
 10
0
 20
0
 30
0
  9
$PUCSXDIR
 10
1
 20
0
 30
0
  9
$PUCSYDIR
 10
0
 20
1
 30
0
  9
$PUCSORTHOREF
  2

  9
$PUCSORTHOVIEW
 70
    0
  9
$PUCSORGTOP
 10
0
 20
0
 30
0
  9
$PUCSORGBOTTOM
 10
0
 20
0
 30
0
  9
$PUCSORGLEFT
 10
0
 20
0
 30
0
  9
$PUCSORGRIGHT
 10
0
 20
0
 30
0
  9
$PUCSORGFRONT
 10
0
 20
0
 30
0
  9
$PUCSORGBACK
 10
0
 20
0
 30
0
  9
$USERI1
 70
    0
  9
$USERI2
 70
    0
  9
$USERI3
 70
    0
  9
$USERI4
 70
    0
  9
$USERI5
 70
    0
  9
$USERR1
 40
0
  9
$USERR2
 40
0
  9
$USERR3
 40
0
  9
$USERR4
 40
0
  9
$USERR5
 40
0
  9
$WORLDVIEW
 70
    1
  9
$SHADEDGE
 70
    3
  9
$SHADEDIF
 70
   70
  9
$TILEMODE
 70
    1
  9
$MAXACTVP
 70
   64
  9
$PINSBASE
 10
0
 20
0
 30
0
  9
$PLIMCHECK
 70
    0
  9
$PEXTMIN
 10
0
 20
0
 30
0
  9
$PEXTMAX
 10
0
 20
0
 30
0
  9
$GRIDMODE
 70
    0
  9
$SNAPSTYLE
 70
    0
  9
$PLIMMIN
 10
0
 20
0
  9
$PLIMMAX
 10
3.131799570685756e-06
 20
2.211988675945856e-06
  9
$UNITMODE
 70
    0
  9
$VISRETAIN
 70
    1
  9
$PLINEGEN
 70
    0
  9
$PSLTSCALE
 70
    1
  9
$TREEDEPTH
 70
 3020
  9
$CMLSTYLE
  2
Standard
  9
$CMLJUST
 70
    0
  9
$CMLSCALE
 40
20
  9
$PROXYGRAPHICS
 70
    1
  9
$MEASUREMENT
 70
    1
  9
$CELWEIGHT
370
   -1
  9
$ENDCAPS
280
    0
  9
$JOINSTYLE
280
    0
  9
$LWDISPLAY
290
    0
  9
$INSUNITS
 70
    4
  9
$HYPERLINKBASE
  1

  9
$STYLESHEET
  1

  9
$XEDIT
290
    1
  9
$CEPSNTYPE
380
    0
  9
$PSTYLEMODE
290
    1
  9
$EXTNAMES
290
    1
  9
$PSVPSCALE
 40
1
  9
$OLESTARTUP
290
    0
  9
$SORTENTS
280
  127
  9
$INDEXCTL
280
    0
  9
$HIDETEXT
280
    1
  9
$XCLIPFRAME
290
    0
  9
$HALOGAP
280
    0
  9
$OBSCOLOR
 70
  257
  9
$OBSLTYPE
280
    0
  9
$INTERSECTIONDISPLAY
280
    0
  9
$INTERSECTIONCOLOR
 70
  257
  9
$DIMASSOC
280
    1
  9
$PROJECTNAME
  1

  9
$CAMERADISPLAY
290
    0
  9
$LENSLENGTH
 40
50
  9
$CAMERAHEIGHT
 40
0
  9
$STEPSPERSEC
 40
2
  9
$STEPSIZE
 40
50
  9
$3DDWFPREC
 40
2
  9
$PSOLWIDTH
 40
5
  9
$PSOLHEIGHT
 40
80
  9
$LOFTANG1
 40
1.570796326794897
  9
$LOFTANG2
 40
1.570796326794897
  9
$LOFTMAG1
 40
0
  9
$LOFTMAG2
 40
0
  9
$LOFTPARAM
 70
    7
  9
$LOFTNORMALS
280
    1
  9
$LATITUDE
 40
1
  9
$LONGITUDE
 40
1
  9
$NORTHDIRECTION
 40
0
  9
$TIMEZONE
 70
-8000
  9
$LIGHTGLYPHDISPLAY
280
    1
  9
$TILEMODELIGHTSYNCH
280
    1
  9
$SOLIDHIST
280
    1
  9
$SHOWHIST
280
    1
  9
$DWFFRAME
280
    2
  9
$DGNFRAME
280
    0
  9
$REALWORLDSCALE
290
    1
  9
$INTERFERECOLOR
 62
    1
  9
$CSHADOW
280
    0
  9
$SHADOWPLANELOCATION
 40
0
  0
ENDSEC
  0
SECTION
  2
CLASSES
  0
ENDSEC
  0
SECTION
  2
TABLES
  0
TABLE
  2
VPORT
  5
8
330
0
100
AcDbSymbolTable
 70
    1
  0
VPORT
  5
31
330
2
100
AcDbSymbolTableRecord
100
AcDbViewportTableRecord
  2
*ACTIVE
 70
    0
 10
0
 20
0
 11
1
 21
1
 12
12.40629816278101
 22
36.88251957802841
 13
0
 23
0
 14
10
 24
10
 15
10
 25
10
 16
0
 26
0
 36
1
 17
0
 27
0
 37
0
 40
15.42048118265923
 41
0.8896492728828058
 42
50
 43
0
 44
0
 50
0
 51
0
 71
    0
 72
  100
 73
    1
 74
    3
 75
    0
 76
    0
 77
    0
 78
    0
281
    0
 65
    1
110
0
120
0
130
0
111
1
121
0
131
0
112
0
122
1
132
0
 79
    0
146
0
348
10020
 60
    7
 61
    5
292
1
282
    1
141
0
142
0
 63
  250
421
3358443
  0
ENDTAB
  0
TABLE
  2
LTYPE
  5
5
330
0
100
AcDbSymbolTable
 70
    4
  0
LTYPE
  5
14
330
5
100
AcDbSymbolTableRecord
100
AcDbLinetypeTableRecord
  2
ByBlock
 70
    0
  3

 72
   65
 73
    0
 40
0
  0
LTYPE
  5
15
330
5
100
AcDbSymbolTableRecord
100
AcDbLinetypeTableRecord
  2
ByLayer
 70
    0
  3

 72
   65
 73
    0
 40
0
  0
LTYPE
  5
16
330
5
100
AcDbSymbolTableRecord
100
AcDbLinetypeTableRecord
  2
Continuous
 70
    0
  3
Solid line
 72
   65
 73
    0
 40
0
  0
LTYPE
  5
32
330
5
100
AcDbSymbolTableRecord
100
AcDbLinetypeTableRecord
  2
DOT
 70
    0
  3
Dot . . . . . . . . . . . . . . . . . . . . . .
 72
   65
 73
    2
 40
6.35
 49
0
 74
    0
 49
-6.35
 74
    0
  0
LTYPE
  5
33
330
5
100
AcDbSymbolTableRecord
100
AcDbLinetypeTableRecord
  2
DOTTINY
 70
    0
  3
Dot (.15x) .....................................
 72
   65
 73
    2
 40
0.9525
 49
0
 74
    0
 49
-0.9525
 74
    0
  0
LTYPE
  5
34
330
5
100
AcDbSymbolTableRecord
100
AcDbLinetypeTableRecord
  2
DOT2
 70
    0
  3
Dot (.5x) .....................................
 72
   65
 73
    2
 40
3.175
 49
0
 74
    0
 49
-3.175
 74
    0
  0
LTYPE
  5
35
330
5
100
AcDbSymbolTableRecord
100
AcDbLinetypeTableRecord
  2
DOTX2
 70
    0
  3
Dot (2x) .  .  .  .  .  .  .  .  .  .  .  .  .
 72
   65
 73
    2
 40
12.7
 49
0
 74
    0
 49
-12.7
 74
    0
  0
LTYPE
  5
36
330
5
100
AcDbSymbolTableRecord
100
AcDbLinetypeTableRecord
  2
DASHED
 70
    0
  3
Dashed _ _ _ _ _ _ _ _ _ _ _ _ _ _ _ _ _
 72
   65
 73
    2
 40
19.05
 49
12.7
 74
    0
 49
-6.35
 74
    0
  0
LTYPE
  5
37
330
5
100
AcDbSymbolTableRecord
100
AcDbLinetypeTableRecord
  2
DASHEDTINY
 70
    0
  3
Dashed (.15x) _ _ _ _ _ _ _ _ _ _ _ _ _ _ _ _ _
 72
   65
 73
    2
 40
2.8575
 49
1.905
 74
    0
 49
-0.9525
 74
    0
  0
LTYPE
  5
38
330
5
100
AcDbSymbolTableRecord
100
AcDbLinetypeTableRecord
  2
DASHED2
 70
    0
  3
Dashed (.5x) _ _ _ _ _ _ _ _ _ _ _ _ _ _ _ _ _
 72
   65
 73
    2
 40
9.524999999999999
 49
6.35
 74
    0
 49
-3.175
 74
    0
  0
LTYPE
  5
39
330
5
100
AcDbSymbolTableRecord
100
AcDbLinetypeTableRecord
  2
DASHEDX2
 70
    0
  3
Dashed (2x) ____  ____  ____  ____  ____  ___
 72
   65
 73
    2
 40
38.09999999999999
 49
25.4
 74
    0
 49
-12.7
 74
    0
  0
LTYPE
  5
3A
330
5
100
AcDbSymbolTableRecord
100
AcDbLinetypeTableRecord
  2
DASHDOT
 70
    0
  3
Dash dot __ . __ . __ . __ . __ . __ . __ . __
 72
   65
 73
    4
 40
25.4
 49
12.7
 74
    0
 49
-6.35
 74
    0
 49
0
 74
    0
 49
-6.35
 74
    0
  0
LTYPE
  5
3B
330
5
100
AcDbSymbolTableRecord
100
AcDbLinetypeTableRecord
  2
DASHDOTTINY
 70
    0
  3
Dash dot (.15x) _._._._._._._._._._._._._._._.
 72
   65
 73
    4
 40
3.81
 49
1.905
 74
    0
 49
-0.9525
 74
    0
 49
0
 74
    0
 49
-0.9525
 74
    0
  0
LTYPE
  5
3C
330
5
100
AcDbSymbolTableRecord
100
AcDbLinetypeTableRecord
  2
DASHDOT2
 70
    0
  3
Dash dot (.5x) _._._._._._._._._._._._._._._.
 72
   65
 73
    4
 40
12.7
 49
6.35
 74
    0
 49
-3.175
 74
    0
 49
0
 74
    0
 49
-3.175
 74
    0
  0
LTYPE
  5
3D
330
5
100
AcDbSymbolTableRecord
100
AcDbLinetypeTableRecord
  2
DASHDOTX2
 70
    0
  3
Dash dot (2x) ____  .  ____  .  ____  .  ___
 72
   65
 73
    4
 40
50.8
 49
25.4
 74
    0
 49
-12.7
 74
    0
 49
0
 74
    0
 49
-12.7
 74
    0
  0
LTYPE
  5
3E
330
5
100
AcDbSymbolTableRecord
100
AcDbLinetypeTableRecord
  2
DIVIDE
 70
    0
  3
Divide ____ . . ____ . . ____ . . ____ . . ____
 72
   65
 73
    6
 40
31.75
 49
12.7
 74
    0
 49
-6.35
 74
    0
 49
0
 74
    0
 49
-6.35
 74
    0
 49
0
 74
    0
 49
-6.35
 74
    0
  0
LTYPE
  5
3F
330
5
100
AcDbSymbolTableRecord
100
AcDbLinetypeTableRecord
  2
DIVIDETINY
 70
    0
  3
Divide (.15x) __..__..__..__..__..__..__..__.._
 72
   65
 73
    6
 40
4.7625
 49
1.905
 74
    0
 49
-0.9525
 74
    0
 49
0
 74
    0
 49
-0.9525
 74
    0
 49
0
 74
    0
 49
-0.9525
 74
    0
  0
LTYPE
  5
40
330
5
100
AcDbSymbolTableRecord
100
AcDbLinetypeTableRecord
  2
DIVIDE2
 70
    0
  3
Divide (.5x) __..__..__..__..__..__..__..__.._
 72
   65
 73
    6
 40
15.875
 49
6.35
 74
    0
 49
-3.175
 74
    0
 49
0
 74
    0
 49
-3.175
 74
    0
 49
0
 74
    0
 49
-3.175
 74
    0
  0
LTYPE
  5
41
330
5
100
AcDbSymbolTableRecord
100
AcDbLinetypeTableRecord
  2
DIVIDEX2
 70
    0
  3
Divide (2x) ________  .  .  ________  .  .  _
 72
   65
 73
    6
 40
63.5
 49
25.4
 74
    0
 49
-12.7
 74
    0
 49
0
 74
    0
 49
-12.7
 74
    0
 49
0
 74
    0
 49
-12.7
 74
    0
  0
LTYPE
  5
42
330
5
100
AcDbSymbolTableRecord
100
AcDbLinetypeTableRecord
  2
BORDER
 70
    0
  3
Border __ __ . __ __ . __ __ . __ __ . __ __ .
 72
   65
 73
    6
 40
44.45
 49
12.7
 74
    0
 49
-6.35
 74
    0
 49
12.7
 74
    0
 49
-6.35
 74
    0
 49
0
 74
    0
 49
-6.35
 74
    0
  0
LTYPE
  5
43
330
5
100
AcDbSymbolTableRecord
100
AcDbLinetypeTableRecord
  2
BORDERTINY
 70
    0
  3
Border (.15x) __.__.__.__.__.__.__.__.__.__.__.
 72
   65
 73
    6
 40
6.6675
 49
1.905
 74
    0
 49
-0.9525
 74
    0
 49
1.905
 74
    0
 49
-0.9525
 74
    0
 49
0
 74
    0
 49
-0.9525
 74
    0
  0
LTYPE
  5
44
330
5
100
AcDbSymbolTableRecord
100
AcDbLinetypeTableRecord
  2
BORDER2
 70
    0
  3
Border (.5x) __.__.__.__.__.__.__.__.__.__.__.
 72
   65
 73
    6
 40
22.225
 49
6.35
 74
    0
 49
-3.175
 74
    0
 49
6.35
 74
    0
 49
-3.175
 74
    0
 49
0
 74
    0
 49
-3.175
 74
    0
  0
LTYPE
  5
45
330
5
100
AcDbSymbolTableRecord
100
AcDbLinetypeTableRecord
  2
BORDERX2
 70
    0
  3
Border (2x) ____  ____  .  ____  ____  .  ___
 72
   65
 73
    6
 40
88.89999999999999
 49
25.4
 74
    0
 49
-12.7
 74
    0
 49
25.4
 74
    0
 49
-12.7
 74
    0
 49
0
 74
    0
 49
-12.7
 74
    0
  0
LTYPE
  5
46
330
5
100
AcDbSymbolTableRecord
100
AcDbLinetypeTableRecord
  2
CENTER
 70
    0
  3
Center ____ _ ____ _ ____ _ ____ _ ____ _ ____
 72
   65
 73
    4
 40
50.8
 49
31.75
 74
    0
 49
-6.35
 74
    0
 49
6.35
 74
    0
 49
-6.35
 74
    0
  0
LTYPE
  5
47
330
5
100
AcDbSymbolTableRecord
100
AcDbLinetypeTableRecord
  2
CENTERTINY
 70
    0
  3
Center (.15x) ___ _ ___ _ ___ _ ___ _ ___ _ ___
 72
   65
 73
    4
 40
7.619999999999999
 49
4.7625
 74
    0
 49
-0.9525
 74
    0
 49
0.9525
 74
    0
 49
-0.9525
 74
    0
  0
LTYPE
  5
48
330
5
100
AcDbSymbolTableRecord
100
AcDbLinetypeTableRecord
  2
CENTER2
 70
    0
  3
Center (.5x) ___ _ ___ _ ___ _ ___ _ ___ _ ___
 72
   65
 73
    4
 40
28.575
 49
19.05
 74
    0
 49
-3.175
 74
    0
 49
3.175
 74
    0
 49
-3.175
 74
    0
  0
LTYPE
  5
49
330
5
100
AcDbSymbolTableRecord
100
AcDbLinetypeTableRecord
  2
CENTERX2
 70
    0
  3
Center (2x) ________  __  ________  __  _____
 72
   65
 73
    4
 40
101.6
 49
63.5
 74
    0
 49
-12.7
 74
    0
 49
12.7
 74
    0
 49
-12.7
 74
    0
  0
ENDTAB
  0
TABLE
  2
LAYER
  5
2
330
0
100
AcDbSymbolTable
 70
    1
  0
LAYER
  5
10
330
2
100
AcDbSymbolTableRecord
100
AcDbLayerTableRecord
  2
0
 70
    0
 62
    7
  6
CONTINUOUS
370
   -3
390
F
  0
LAYER
  5
4A
330
2
100
AcDbSymbolTableRecord
100
AcDbLayerTableRecord
  2
Layer_1
 70
    0
 62
    7
  6
CONTINUOUS
370
   -3
390
F
  0
ENDTAB
  0
TABLE
  2
STYLE
  5
3
330
0
100
AcDbSymbolTable
 70
    3
  0
STYLE
  5
4B
330
2
100
AcDbSymbolTableRecord
100
AcDbTextStyleTableRecord
  2
Standard
 70
    0
 40
0
 41
1
 50
0
 71
    0
 42
1
  3
txt
  4

  0
ENDTAB
  0
TABLE
  2
VIEW
  5
6
330
0
100
AcDbSymbolTable
 70
    0
  0
ENDTAB
  0
TABLE
  2
UCS
  5
7
330
0
100
AcDbSymbolTable
 70
    0
  0
ENDTAB
  0
TABLE
  2
APPID
  5
9
330
0
100
AcDbSymbolTable
 70
    1
  0
APPID
  5
12
330
9
100
AcDbSymbolTableRecord
100
AcDbRegAppTableRecord
  2
ACAD
 70
    0
  0
APPID
  5
4C
330
9
100
AcDbSymbolTableRecord
100
AcDbRegAppTableRecord
  2
LibreCad
 70
    0
  0
ENDTAB
  0
TABLE
  2
DIMSTYLE
  5
A
330
0
100
AcDbSymbolTable
 70
    1
100
AcDbDimStyleTable
 71
    1
  0
DIMSTYLE
105
4D
330
A
100
AcDbSymbolTableRecord
100
AcDbDimStyleTableRecord
  2
Standard
 70
    0
 40
1
 41
2.5
 42
0.625
 43
0.38
 44
1.25
 45
0
 46
0
 47
0
 48
0
 49
1
140
2.5
141
0.09
142
2.5
143
25.4
144
1
145
0
146
1
147
0.625
148
0
 71
    0
 72
    0
 73
    0
 74
    1
 75
    0
 76
    0
 77
    0
 78
    1
 79
    0
170
    0
171
    2
172
    0
173
    0
174
    0
175
    0
176
    0
177
    0
178
    0
179
    0
271
    2
272
    4
273
    2
274
    2
275
    0
276
    0
277
    2
278
    0
279
    0
280
    0
281
    0
282
    0
283
    1
284
    0
285
    0
286
    0
288
    0
289
    3
340
standard
341

371
   -2
372
   -2
  0
ENDTAB
  0
TABLE
  2
BLOCK_RECORD
  5
1
330
0
100
AcDbSymbolTable
 70
    2
  0
BLOCK_RECORD
  5
1F
330
1
100
AcDbSymbolTableRecord
100
AcDbBlockTableRecord
  2
*Model_Space
 70
    0
280
    1
281
    0
  0
BLOCK_RECORD
  5
1E
330
1
100
AcDbSymbolTableRecord
100
AcDbBlockTableRecord
  2
*Paper_Space
 70
    0
280
    1
281
    0
  0
ENDTAB
  0
ENDSEC
  0
SECTION
  2
BLOCKS
  0
BLOCK
  5
20
330
1F
100
AcDbEntity
  8
0
100
AcDbBlockBegin
  2
*Model_Space
 70
    0
 10
0
 20
0
 30
0
  3
*Model_Space
  1

  0
ENDBLK
  5
21
330
1F
100
AcDbEntity
  8
0
100
AcDbBlockEnd
  0
BLOCK
  5
1C
330
1B
100
AcDbEntity
  8
0
100
AcDbBlockBegin
  2
*Paper_Space
 70
    0
 10
0
 20
0
 30
0
  3
*Paper_Space
  1

  0
ENDBLK
  5
1D
330
1F
100
AcDbEntity
  8
0
100
AcDbBlockEnd
  0
ENDSEC
  0
SECTION
  2
ENTITIES
  0
LINE
  5
4E
100
AcDbEntity
  8
Layer_1
  6
ByLayer
 62
    7
370
   -1
100
AcDbLine
 10
20.00736
 20
47.075388
 11
20.00551675469101
 21
47.00476923557449
  0
LINE
  5
4F
100
AcDbEntity
  8
Layer_1
  6
ByLayer
 62
    7
370
   -1
100
AcDbLine
 10
20.00551675469101
 20
47.00476923557449
 11
20.00004829351147
 21
46.93511034245243
  0
LINE
  5
50
100
AcDbEntity
  8
Layer_1
  6
ByLayer
 62
    7
370
   -1
100
AcDbLine
 10
20.00004829351147
 20
46.93511034245243
 11
19.99104652858246
 21
46.86650322731697
  0
LINE
  5
51
100
AcDbEntity
  8
Layer_1
  6
ByLayer
 62
    7
370
   -1
100
AcDbLine
 10
19.99104652858246
 20
46.86650322731697
 11
19.97860337202511
 21
46.7990397968514
  0
LINE
  5
52
100
AcDbEntity
  8
Layer_1
  6
ByLayer
 62
    7
370
   -1
100
AcDbLine
 10
19.97860337202511
 20
46.7990397968514
 11
19.96281073596052
 21
46.73281195773891
  0
LINE
  5
53
100
AcDbEntity
  8
Layer_1
  6
ByLayer
 62
    7
370
   -1
100
AcDbLine
 10
19.96281073596052
 20
46.73281195773891
 11
19.94376053250982
 21
46.66791161666275
  0
LINE
  5
54
100
AcDbEntity
  8
Layer_1
  6
ByLayer
 62
    7
370
   -1
100
AcDbLine
 10
19.94376053250982
 20
46.66791161666275
 11
19.9215446737941
 21
46.60443068030613
  0
LINE
  5
55
100
AcDbEntity
  8
Layer_1
  6
ByLayer
 62
    7
370
   -1
100
AcDbLine
 10
19.9215446737941
 20
46.60443068030613
 11
19.89625507193447
 21
46.54246105535228
  0
LINE
  5
56
100
AcDbEntity
  8
Layer_1
  6
ByLayer
 62
    7
370
   -1
100
AcDbLine
 10
19.89625507193447
 20
46.54246105535228
 11
19.86798363905206
 21
46.48209464848443
  0
LINE
  5
57
100
AcDbEntity
  8
Layer_1
  6
ByLayer
 62
    7
370
   -1
100
AcDbLine
 10
19.86798363905206
 20
46.48209464848443
 11
19.83682228726796
 21
46.42342336638581
  0
LINE
  5
58
100
AcDbEntity
  8
Layer_1
  6
ByLayer
 62
    7
370
   -1
100
AcDbLine
 10
19.83682228726796
 20
46.42342336638581
 11
19.8028629287033
 21
46.36653911573966
  0
LINE
  5
59
100
AcDbEntity
  8
Layer_1
  6
ByLayer
 62
    7
370
   -1
100
AcDbLine
 10
19.8028629287033
 20
46.36653911573966
 11
19.76619747547917
 21
46.31153380322917
  0
LINE
  5
5A
100
AcDbEntity
  8
Layer_1
  6
ByLayer
 62
    7
370
   -1
100
AcDbLine
 10
19.76619747547917
 20
46.31153380322917
 11
19.72691783971669
 21
46.25849933553758
  0
LINE
  5
5B
100
AcDbEntity
  8
Layer_1
  6
ByLayer
 62
    7
370
   -1
100
AcDbLine
 10
19.72691783971669
 20
46.25849933553758
 11
19.68511593353697
 21
46.20752761934813
  0
LINE
  5
5C
100
AcDbEntity
  8
Layer_1
  6
ByLayer
 62
    7
370
   -1
100
AcDbLine
 10
19.68511593353697
 20
46.20752761934813
 11
19.64088366906113
 21
46.15871056134403
  0
LINE
  5
5D
100
AcDbEntity
  8
Layer_1
  6
ByLayer
 62
    7
370
   -1
100
AcDbLine
 10
19.64088366906113
 20
46.15871056134403
 11
19.59431295841026
 21
46.11214006820851
  0
LINE
  5
5E
100
AcDbEntity
  8
Layer_1
  6
ByLayer
 62
    7
370
   -1
100
AcDbLine
 10
19.59431295841026
 20
46.11214006820851
 11
19.54549571370548
 21
46.06790804662482
  0
LINE
  5
5F
100
AcDbEntity
  8
Layer_1
  6
ByLayer
 62
    7
370
   -1
100
AcDbLine
 10
19.54549571370548
 20
46.06790804662482
 11
19.49452384706791
 21
46.02610640327616
  0
LINE
  5
60
100
AcDbEntity
  8
Layer_1
  6
ByLayer
 62
    7
370
   -1
100
AcDbLine
 10
19.49452384706791
 20
46.02610640327616
 11
19.44148927061864
 21
45.98682704484575
  0
LINE
  5
61
100
AcDbEntity
  8
Layer_1
  6
ByLayer
 62
    7
370
   -1
100
AcDbLine
 10
19.44148927061864
 20
45.98682704484575
 11
19.3864838964788
 21
45.95016187801684
  0
LINE
  5
62
100
AcDbEntity
  8
Layer_1
  6
ByLayer
 62
    7
370
   -1
100
AcDbLine
 10
19.3864838964788
 20
45.95016187801684
 11
19.32959963676949
 21
45.91620280947267
  0
LINE
  5
63
100
AcDbEntity
  8
Layer_1
  6
ByLayer
 62
    7
370
   -1
100
AcDbLine
 10
19.32959963676949
 20
45.91620280947267
 11
19.27092840361183
 21
45.88504174589641
  0
LINE
  5
64
100
AcDbEntity
  8
Layer_1
  6
ByLayer
 62
    7
370
   -1
100
AcDbLine
 10
19.27092840361183
 20
45.88504174589641
 11
19.21056210912692
 21
45.85677059397133
  0
LINE
  5
65
100
AcDbEntity
  8
Layer_1
  6
ByLayer
 62
    7
370
   -1
100
AcDbLine
 10
19.21056210912692
 20
45.85677059397133
 11
19.14859266543587
 21
45.83148126038066
  0
LINE
  5
66
100
AcDbEntity
  8
Layer_1
  6
ByLayer
 62
    7
370
   -1
100
AcDbLine
 10
19.14859266543587
 20
45.83148126038066
 11
19.0851119846598
 21
45.80926565180759
  0
LINE
  5
67
100
AcDbEntity
  8
Layer_1
  6
ByLayer
 62
    7
370
   -1
100
AcDbLine
 10
19.0851119846598
 20
45.80926565180759
 11
19.02021197891981
 21
45.79021567493538
  0
LINE
  5
68
100
AcDbEntity
  8
Layer_1
  6
ByLayer
 62
    7
370
   -1
100
AcDbLine
 10
19.02021197891981
 20
45.79021567493538
 11
18.95398456033702
 21
45.77442323644725
  0
LINE
  5
69
100
AcDbEntity
  8
Layer_1
  6
ByLayer
 62
    7
370
   -1
100
AcDbLine
 10
18.95398456033702
 20
45.77442323644725
 11
18.88652164103253
 21
45.76198024302641
  0
LINE
  5
6A
100
AcDbEntity
  8
Layer_1
  6
ByLayer
 62
    7
370
   -1
100
AcDbLine
 10
18.88652164103253
 20
45.76198024302641
 11
18.81791513312745
 21
45.75297860135611
  0
LINE
  5
6B
100
AcDbEntity
  8
Layer_1
  6
ByLayer
 62
    7
370
   -1
100
AcDbLine
 10
18.81791513312745
 20
45.75297860135611
 11
18.74825694874291
 21
45.74751021811957
  0
LINE
  5
6C
100
AcDbEntity
  8
Layer_1
  6
ByLayer
 62
    7
370
   -1
100
AcDbLine
 10
18.74825694874291
 20
45.74751021811957
 11
18.677639
 21
45.745667
  0
LINE
  5
6D
100
AcDbEntity
  8
Layer_1
  6
ByLayer
 62
    7
370
   -1
100
AcDbLine
 10
18.677639
 20
45.745667
 11
18.60701933231513
 21
45.74751021811957
  0
LINE
  5
6E
100
AcDbEntity
  8
Layer_1
  6
ByLayer
 62
    7
370
   -1
100
AcDbLine
 10
18.60701933231513
 20
45.74751021811957
 11
18.5373596606022
 21
45.75297860135613
  0
LINE
  5
6F
100
AcDbEntity
  8
Layer_1
  6
ByLayer
 62
    7
370
   -1
100
AcDbLine
 10
18.5373596606022
 20
45.75297860135613
 11
18.46875188509953
 21
45.76198024302641
  0
LINE
  5
70
100
AcDbEntity
  8
Layer_1
  6
ByLayer
 62
    7
370
   -1
100
AcDbLine
 10
18.46875188509953
 20
45.76198024302641
 11
18.40128790604545
 21
45.77442323644725
  0
LINE
  5
71
100
AcDbEntity
  8
Layer_1
  6
ByLayer
 62
    7
370
   -1
100
AcDbLine
 10
18.40128790604545
 20
45.77442323644725
 11
18.33505962367829
 21
45.79021567493538
  0
LINE
  5
72
100
AcDbEntity
  8
Layer_1
  6
ByLayer
 62
    7
370
   -1
100
AcDbLine
 10
18.33505962367829
 20
45.79021567493538
 11
18.27015893823638
 21
45.80926565180759
  0
LINE
  5
73
100
AcDbEntity
  8
Layer_1
  6
ByLayer
 62
    7
370
   -1
100
AcDbLine
 10
18.27015893823638
 20
45.80926565180759
 11
18.20667774995804
 21
45.83148126038064
  0
LINE
  5
74
100
AcDbEntity
  8
Layer_1
  6
ByLayer
 62
    7
370
   -1
100
AcDbLine
 10
18.20667774995804
 20
45.83148126038064
 11
18.1447079590816
 21
45.85677059397133
  0
LINE
  5
75
100
AcDbEntity
  8
Layer_1
  6
ByLayer
 62
    7
370
   -1
100
AcDbLine
 10
18.1447079590816
 20
45.85677059397133
 11
18.08434146584539
 21
45.88504174589641
  0
LINE
  5
76
100
AcDbEntity
  8
Layer_1
  6
ByLayer
 62
    7
370
   -1
100
AcDbLine
 10
18.08434146584539
 20
45.88504174589641
 11
18.02567017048773
 21
45.91620280947265
  0
LINE
  5
77
100
AcDbEntity
  8
Layer_1
  6
ByLayer
 62
    7
370
   -1
100
AcDbLine
 10
18.02567017048773
 20
45.91620280947265
 11
17.96878597324696
 21
45.95016187801685
  0
LINE
  5
78
100
AcDbEntity
  8
Layer_1
  6
ByLayer
 62
    7
370
   -1
100
AcDbLine
 10
17.96878597324696
 20
45.95016187801685
 11
17.91378077436138
 21
45.98682704484575
  0
LINE
  5
79
100
AcDbEntity
  8
Layer_1
  6
ByLayer
 62
    7
370
   -1
100
AcDbLine
 10
17.91378077436138
 20
45.98682704484575
 11
17.86074647406935
 21
46.02610640327615
  0
LINE
  5
7A
100
AcDbEntity
  8
Layer_1
  6
ByLayer
 62
    7
370
   -1
100
AcDbLine
 10
17.86074647406935
 20
46.02610640327615
 11
17.80977497260918
 21
46.06790804662482
  0
LINE
  5
7B
100
AcDbEntity
  8
Layer_1
  6
ByLayer
 62
    7
370
   -1
100
AcDbLine
 10
17.80977497260918
 20
46.06790804662482
 11
17.76095817021919
 21
46.11214006820852
  0
LINE
  5
7C
100
AcDbEntity
  8
Layer_1
  6
ByLayer
 62
    7
370
   -1
100
AcDbLine
 10
17.76095817021919
 20
46.11214006820852
 11
17.71438796713772
 21
46.15871056134403
  0
LINE
  5
7D
100
AcDbEntity
  8
Layer_1
  6
ByLayer
 62
    7
370
   -1
100
AcDbLine
 10
17.71438796713772
 20
46.15871056134403
 11
17.6701562636031
 21
46.20752761934813
  0
LINE
  5
7E
100
AcDbEntity
  8
Layer_1
  6
ByLayer
 62
    7
370
   -1
100
AcDbLine
 10
17.6701562636031
 20
46.20752761934813
 11
17.62835495985365
 21
46.25849933553758
  0
LINE
  5
7F
100
AcDbEntity
  8
Layer_1
  6
ByLayer
 62
    7
370
   -1
100
AcDbLine
 10
17.62835495985365
 20
46.25849933553758
 11
17.58907595612769
 21
46.31153380322916
  0
LINE
  5
80
100
AcDbEntity
  8
Layer_1
  6
ByLayer
 62
    7
370
   -1
100
AcDbLine
 10
17.58907595612769
 20
46.31153380322916
 11
17.55241115266356
 21
46.36653911573965
  0
LINE
  5
81
100
AcDbEntity
  8
Layer_1
  6
ByLayer
 62
    7
370
   -1
100
AcDbLine
 10
17.55241115266356
 20
46.36653911573965
 11
17.51845244969958
 21
46.42342336638582
  0
LINE
  5
82
100
AcDbEntity
  8
Layer_1
  6
ByLayer
 62
    7
370
   -1
100
AcDbLine
 10
17.51845244969958
 20
46.42342336638582
 11
17.48729174747407
 21
46.48209464848444
  0
LINE
  5
83
100
AcDbEntity
  8
Layer_1
  6
ByLayer
 62
    7
370
   -1
100
AcDbLine
 10
17.48729174747407
 20
46.48209464848444
 11
17.45902094622537
 21
46.54246105535228
  0
LINE
  5
84
100
AcDbEntity
  8
Layer_1
  6
ByLayer
 62
    7
370
   -1
100
AcDbLine
 10
17.45902094622537
 20
46.54246105535228
 11
17.43373194619181
 21
46.60443068030613
  0
LINE
  5
85
100
AcDbEntity
  8
Layer_1
  6
ByLayer
 62
    7
370
   -1
100
AcDbLine
 10
17.43373194619181
 20
46.60443068030613
 11
17.41151664761169
 21
46.66791161666275
  0
LINE
  5
86
100
AcDbEntity
  8
Layer_1
  6
ByLayer
 62
    7
370
   -1
100
AcDbLine
 10
17.41151664761169
 20
46.66791161666275
 11
17.39246695072337
 21
46.7328119577389
  0
LINE
  5
87
100
AcDbEntity
  8
Layer_1
  6
ByLayer
 62
    7
370
   -1
100
AcDbLine
 10
17.39246695072337
 20
46.7328119577389
 11
17.37667475576517
 21
46.7990397968514
  0
LINE
  5
88
100
AcDbEntity
  8
Layer_1
  6
ByLayer
 62
    7
370
   -1
100
AcDbLine
 10
17.37667475576517
 20
46.7990397968514
 11
17.3642319629754
 21
46.86650322731698
  0
LINE
  5
89
100
AcDbEntity
  8
Layer_1
  6
ByLayer
 62
    7
370
   -1
100
AcDbLine
 10
17.3642319629754
 20
46.86650322731698
 11
17.35523047259239
 21
46.93511034245241
  0
LINE
  5
8A
100
AcDbEntity
  8
Layer_1
  6
ByLayer
 62
    7
370
   -1
100
AcDbLine
 10
17.35523047259239
 20
46.93511034245241
 11
17.34976218485449
 21
47.0047692355745
  0
LINE
  5
8B
100
AcDbEntity
  8
Layer_1
  6
ByLayer
 62
    7
370
   -1
100
AcDbLine
 10
17.34976218485449
 20
47.0047692355745
 11
17.347919
 21
47.075388
  0
LINE
  5
8C
100
AcDbEntity
  8
Layer_1
  6
ByLayer
 62
    7
370
   -1
100
AcDbLine
 10
17.347919
 20
47.075388
 11
17.34976218485449
 21
47.14604573592695
  0
LINE
  5
8D
100
AcDbEntity
  8
Layer_1
  6
ByLayer
 62
    7
370
   -1
100
AcDbLine
 10
17.34976218485449
 20
47.14604573592695
 11
17.3552304725924
 21
47.21573849095365
  0
LINE
  5
8E
100
AcDbEntity
  8
Layer_1
  6
ByLayer
 62
    7
370
   -1
100
AcDbLine
 10
17.3552304725924
 20
47.21573849095365
 11
17.3642319629754
 21
47.28437461820684
  0
LINE
  5
8F
100
AcDbEntity
  8
Layer_1
  6
ByLayer
 62
    7
370
   -1
100
AcDbLine
 10
17.3642319629754
 20
47.28437461820684
 11
17.37667475576517
 21
47.35186247081334
  0
LINE
  5
90
100
AcDbEntity
  8
Layer_1
  6
ByLayer
 62
    7
370
   -1
100
AcDbLine
 10
17.37667475576517
 20
47.35186247081334
 11
17.39246695072337
 21
47.4181104018999
  0
LINE
  5
91
100
AcDbEntity
  8
Layer_1
  6
ByLayer
 62
    7
370
   -1
100
AcDbLine
 10
17.39246695072337
 20
47.4181104018999
 11
17.4115166476117
 21
47.48302676459333
  0
LINE
  5
92
100
AcDbEntity
  8
Layer_1
  6
ByLayer
 62
    7
370
   -1
100
AcDbLine
 10
17.4115166476117
 20
47.48302676459333
 11
17.43373194619181
 21
47.54651991202041
  0
LINE
  5
93
100
AcDbEntity
  8
Layer_1
  6
ByLayer
 62
    7
370
   -1
100
AcDbLine
 10
17.43373194619181
 20
47.54651991202041
 11
17.45902094622537
 21
47.60849819730792
  0
LINE
  5
94
100
AcDbEntity
  8
Layer_1
  6
ByLayer
 62
    7
370
   -1
100
AcDbLine
 10
17.45902094622537
 20
47.60849819730792
 11
17.48729174747407
 21
47.66886997358262
  0
LINE
  5
95
100
AcDbEntity
  8
Layer_1
  6
ByLayer
 62
    7
370
   -1
100
AcDbLine
 10
17.48729174747407
 20
47.66886997358262
 11
17.51845244969957
 21
47.72754359397133
  0
LINE
  5
96
100
AcDbEntity
  8
Layer_1
  6
ByLayer
 62
    7
370
   -1
100
AcDbLine
 10
17.51845244969957
 20
47.72754359397133
 11
17.55241115266356
 21
47.78442741160082
  0
LINE
  5
97
100
AcDbEntity
  8
Layer_1
  6
ByLayer
 62
    7
370
   -1
100
AcDbLine
 10
17.55241115266356
 20
47.78442741160082
 11
17.58907595612769
 21
47.83942977959786
  0
LINE
  5
98
100
AcDbEntity
  8
Layer_1
  6
ByLayer
 62
    7
370
   -1
100
AcDbLine
 10
17.58907595612769
 20
47.83942977959786
 11
17.62835495985365
 21
47.89245905108925
  0
LINE
  5
99
100
AcDbEntity
  8
Layer_1
  6
ByLayer
 62
    7
370
   -1
100
AcDbLine
 10
17.62835495985365
 20
47.89245905108925
 11
17.6701562636031
 21
47.94342357920178
  0
LINE
  5
9A
100
AcDbEntity
  8
Layer_1
  6
ByLayer
 62
    7
370
   -1
100
AcDbLine
 10
17.6701562636031
 20
47.94342357920178
 11
17.71438796713773
 21
47.9922317170622
  0
LINE
  5
9B
100
AcDbEntity
  8
Layer_1
  6
ByLayer
 62
    7
370
   -1
100
AcDbLine
 10
17.71438796713773
 20
47.9922317170622
 11
17.76095817021919
 21
48.03879181779732
  0
LINE
  5
9C
100
AcDbEntity
  8
Layer_1
  6
ByLayer
 62
    7
370
   -1
100
AcDbLine
 10
17.76095817021919
 20
48.03879181779732
 11
17.80977497260918
 21
48.08301223453392
  0
LINE
  5
9D
100
AcDbEntity
  8
Layer_1
  6
ByLayer
 62
    7
370
   -1
100
AcDbLine
 10
17.80977497260918
 20
48.08301223453392
 11
17.86074647406935
 21
48.12480132039878
  0
LINE
  5
9E
100
AcDbEntity
  8
Layer_1
  6
ByLayer
 62
    7
370
   -1
100
AcDbLine
 10
17.86074647406935
 20
48.12480132039878
 11
17.91378077436138
 21
48.16406742851868
  0
LINE
  5
9F
100
AcDbEntity
  8
Layer_1
  6
ByLayer
 62
    7
370
   -1
100
AcDbLine
 10
17.91378077436138
 20
48.16406742851868
 11
17.96878597324695
 21
48.20071891202041
  0
LINE
  5
A0
100
AcDbEntity
  8
Layer_1
  6
ByLayer
 62
    7
370
   -1
100
AcDbLine
 10
17.96878597324695
 20
48.20071891202041
 11
18.02567017048773
 21
48.23466412403075
  0
LINE
  5
A1
100
AcDbEntity
  8
Layer_1
  6
ByLayer
 62
    7
370
   -1
100
AcDbLine
 10
18.02567017048773
 20
48.23466412403075
 11
18.08434146584539
 21
48.26581141767649
  0
LINE
  5
A2
100
AcDbEntity
  8
Layer_1
  6
ByLayer
 62
    7
370
   -1
100
AcDbLine
 10
18.08434146584539
 20
48.26581141767649
 11
18.1447079590816
 21
48.29406914608439
  0
LINE
  5
A3
100
AcDbEntity
  8
Layer_1
  6
ByLayer
 62
    7
370
   -1
100
AcDbLine
 10
18.1447079590816
 20
48.29406914608439
 11
18.20667774995804
 21
48.31934566238126
  0
LINE
  5
A4
100
AcDbEntity
  8
Layer_1
  6
ByLayer
 62
    7
370
   -1
100
AcDbLine
 10
18.20667774995804
 20
48.31934566238126
 11
18.27015893823638
 21
48.34154931969387
  0
LINE
  5
A5
100
AcDbEntity
  8
Layer_1
  6
ByLayer
 62
    7
370
   -1
100
AcDbLine
 10
18.27015893823638
 20
48.34154931969387
 11
18.33505962367829
 21
48.360588471149
  0
LINE
  5
A6
100
AcDbEntity
  8
Layer_1
  6
ByLayer
 62
    7
370
   -1
100
AcDbLine
 10
18.33505962367829
 20
48.360588471149
 11
18.40128790604545
 21
48.37637146987346
  0
LINE
  5
A7
100
AcDbEntity
  8
Layer_1
  6
ByLayer
 62
    7
370
   -1
100
AcDbLine
 10
18.40128790604545
 20
48.37637146987346
 11
18.46875188509953
 21
48.38880666899399
  0
LINE
  5
A8
100
AcDbEntity
  8
Layer_1
  6
ByLayer
 62
    7
370
   -1
100
AcDbLine
 10
18.46875188509953
 20
48.38880666899399
 11
18.53735966060219
 21
48.39780242163741
  0
LINE
  5
A9
100
AcDbEntity
  8
Layer_1
  6
ByLayer
 62
    7
370
   -1
100
AcDbLine
 10
18.53735966060219
 20
48.39780242163741
 11
18.60701933231513
 21
48.40326708093048
  0
LINE
  5
AA
100
AcDbEntity
  8
Layer_1
  6
ByLayer
 62
    7
370
   -1
100
AcDbLine
 10
18.60701933231513
 20
48.40326708093048
 11
18.677639
 21
48.405109
  0
LINE
  5
AB
100
AcDbEntity
  8
Layer_1
  6
ByLayer
 62
    7
370
   -1
100
AcDbLine
 10
18.677639
 20
48.405109
 11
18.74825694874291
 21
48.40326708093049
  0
LINE
  5
AC
100
AcDbEntity
  8
Layer_1
  6
ByLayer
 62
    7
370
   -1
100
AcDbLine
 10
18.74825694874291
 20
48.40326708093049
 11
18.81791513312745
 21
48.39780242163742
  0
LINE
  5
AD
100
AcDbEntity
  8
Layer_1
  6
ByLayer
 62
    7
370
   -1
100
AcDbLine
 10
18.81791513312745
 20
48.39780242163742
 11
18.88652164103253
 21
48.38880666899399
  0
LINE
  5
AE
100
AcDbEntity
  8
Layer_1
  6
ByLayer
 62
    7
370
   -1
100
AcDbLine
 10
18.88652164103253
 20
48.38880666899399
 11
18.95398456033701
 21
48.37637146987345
  0
LINE
  5
AF
100
AcDbEntity
  8
Layer_1
  6
ByLayer
 62
    7
370
   -1
100
AcDbLine
 10
18.95398456033701
 20
48.37637146987345
 11
19.0202119789198
 21
48.36058847114901
  0
LINE
  5
B0
100
AcDbEntity
  8
Layer_1
  6
ByLayer
 62
    7
370
   -1
100
AcDbLine
 10
19.0202119789198
 20
48.36058847114901
 11
19.0851119846598
 21
48.34154931969388
  0
LINE
  5
B1
100
AcDbEntity
  8
Layer_1
  6
ByLayer
 62
    7
370
   -1
100
AcDbLine
 10
19.0851119846598
 20
48.34154931969388
 11
19.14859266543587
 21
48.31934566238126
  0
LINE
  5
B2
100
AcDbEntity
  8
Layer_1
  6
ByLayer
 62
    7
370
   -1
100
AcDbLine
 10
19.14859266543587
 20
48.31934566238126
 11
19.21056210912692
 21
48.29406914608439
  0
LINE
  5
B3
100
AcDbEntity
  8
Layer_1
  6
ByLayer
 62
    7
370
   -1
100
AcDbLine
 10
19.21056210912692
 20
48.29406914608439
 11
19.27092840361183
 21
48.26581141767648
  0
LINE
  5
B4
100
AcDbEntity
  8
Layer_1
  6
ByLayer
 62
    7
370
   -1
100
AcDbLine
 10
19.27092840361183
 20
48.26581141767648
 11
19.32959963676949
 21
48.23466412403074
  0
LINE
  5
B5
100
AcDbEntity
  8
Layer_1
  6
ByLayer
 62
    7
370
   -1
100
AcDbLine
 10
19.32959963676949
 20
48.23466412403074
 11
19.3864838964788
 21
48.20071891202041
  0
LINE
  5
B6
100
AcDbEntity
  8
Layer_1
  6
ByLayer
 62
    7
370
   -1
100
AcDbLine
 10
19.3864838964788
 20
48.20071891202041
 11
19.44148927061864
 21
48.16406742851868
  0
LINE
  5
B7
100
AcDbEntity
  8
Layer_1
  6
ByLayer
 62
    7
370
   -1
100
AcDbLine
 10
19.44148927061864
 20
48.16406742851868
 11
19.49452384706791
 21
48.12480132039878
  0
LINE
  5
B8
100
AcDbEntity
  8
Layer_1
  6
ByLayer
 62
    7
370
   -1
100
AcDbLine
 10
19.49452384706791
 20
48.12480132039878
 11
19.54549571370548
 21
48.08301223453392
  0
LINE
  5
B9
100
AcDbEntity
  8
Layer_1
  6
ByLayer
 62
    7
370
   -1
100
AcDbLine
 10
19.54549571370548
 20
48.08301223453392
 11
19.59431295841026
 21
48.03879181779732
  0
LINE
  5
BA
100
AcDbEntity
  8
Layer_1
  6
ByLayer
 62
    7
370
   -1
100
AcDbLine
 10
19.59431295841026
 20
48.03879181779732
 11
19.64088366906113
 21
47.9922317170622
  0
LINE
  5
BB
100
AcDbEntity
  8
Layer_1
  6
ByLayer
 62
    7
370
   -1
100
AcDbLine
 10
19.64088366906113
 20
47.9922317170622
 11
19.68511593353697
 21
47.94342357920178
  0
LINE
  5
BC
100
AcDbEntity
  8
Layer_1
  6
ByLayer
 62
    7
370
   -1
100
AcDbLine
 10
19.68511593353697
 20
47.94342357920178
 11
19.72691783971669
 21
47.89245905108926
  0
LINE
  5
BD
100
AcDbEntity
  8
Layer_1
  6
ByLayer
 62
    7
370
   -1
100
AcDbLine
 10
19.72691783971669
 20
47.89245905108926
 11
19.76619747547917
 21
47.83942977959787
  0
LINE
  5
BE
100
AcDbEntity
  8
Layer_1
  6
ByLayer
 62
    7
370
   -1
100
AcDbLine
 10
19.76619747547917
 20
47.83942977959787
 11
19.8028629287033
 21
47.78442741160082
  0
LINE
  5
BF
100
AcDbEntity
  8
Layer_1
  6
ByLayer
 62
    7
370
   -1
100
AcDbLine
 10
19.8028629287033
 20
47.78442741160082
 11
19.83682228726797
 21
47.72754359397134
  0
LINE
  5
C0
100
AcDbEntity
  8
Layer_1
  6
ByLayer
 62
    7
370
   -1
100
AcDbLine
 10
19.83682228726797
 20
47.72754359397134
 11
19.86798363905206
 21
47.66886997358263
  0
LINE
  5
C1
100
AcDbEntity
  8
Layer_1
  6
ByLayer
 62
    7
370
   -1
100
AcDbLine
 10
19.86798363905206
 20
47.66886997358263
 11
19.89625507193448
 21
47.60849819730791
  0
LINE
  5
C2
100
AcDbEntity
  8
Layer_1
  6
ByLayer
 62
    7
370
   -1
100
AcDbLine
 10
19.89625507193448
 20
47.60849819730791
 11
19.9215446737941
 21
47.54651991202041
  0
LINE
  5
C3
100
AcDbEntity
  8
Layer_1
  6
ByLayer
 62
    7
370
   -1
100
AcDbLine
 10
19.9215446737941
 20
47.54651991202041
 11
19.94376053250982
 21
47.48302676459333
  0
LINE
  5
C4
100
AcDbEntity
  8
Layer_1
  6
ByLayer
 62
    7
370
   -1
100
AcDbLine
 10
19.94376053250982
 20
47.48302676459333
 11
19.96281073596052
 21
47.4181104018999
  0
LINE
  5
C5
100
AcDbEntity
  8
Layer_1
  6
ByLayer
 62
    7
370
   -1
100
AcDbLine
 10
19.96281073596052
 20
47.4181104018999
 11
19.97860337202511
 21
47.35186247081333
  0
LINE
  5
C6
100
AcDbEntity
  8
Layer_1
  6
ByLayer
 62
    7
370
   -1
100
AcDbLine
 10
19.97860337202511
 20
47.35186247081333
 11
19.99104652858246
 21
47.28437461820684
  0
LINE
  5
C7
100
AcDbEntity
  8
Layer_1
  6
ByLayer
 62
    7
370
   -1
100
AcDbLine
 10
19.99104652858246
 20
47.28437461820684
 11
20.00004829351146
 21
47.21573849095364
  0
LINE
  5
C8
100
AcDbEntity
  8
Layer_1
  6
ByLayer
 62
    7
370
   -1
100
AcDbLine
 10
20.00004829351146
 20
47.21573849095364
 11
20.00551675469101
 21
47.14604573592695
  0
LINE
  5
C9
100
AcDbEntity
  8
Layer_1
  6
ByLayer
 62
    7
370
   -1
100
AcDbLine
 10
20.00551675469101
 20
47.14604573592695
 11
20.00736
 21
47.075388
  0
LINE
  5
CA
100
AcDbEntity
  8
Layer_1
  6
ByLayer
 62
    7
370
   -1
100
AcDbLine
 10
20.00744
 20
65.825277
 11
20.00559675469101
 21
65.75465823862912
  0
LINE
  5
CB
100
AcDbEntity
  8
Layer_1
  6
ByLayer
 62
    7
370
   -1
100
AcDbLine
 10
20.00559675469101
 20
65.75465823862912
 11
20.00012829351147
 21
65.68499935440235
  0
LINE
  5
CC
100
AcDbEntity
  8
Layer_1
  6
ByLayer
 62
    7
370
   -1
100
AcDbLine
 10
20.00012829351147
 20
65.68499935440235
 11
19.99112652858246
 21
65.61639225360008
  0
LINE
  5
CD
100
AcDbEntity
  8
Layer_1
  6
ByLayer
 62
    7
370
   -1
100
AcDbLine
 10
19.99112652858246
 20
65.61639225360008
 11
19.97868337202511
 21
65.54892884250279
  0
LINE
  5
CE
100
AcDbEntity
  8
Layer_1
  6
ByLayer
 62
    7
370
   -1
100
AcDbLine
 10
19.97868337202511
 20
65.54892884250279
 11
19.96289073596052
 21
65.48270102739082
  0
LINE
  5
CF
100
AcDbEntity
  8
Layer_1
  6
ByLayer
 62
    7
370
   -1
100
AcDbLine
 10
19.96289073596052
 20
65.48270102739082
 11
19.94384053250982
 21
65.41780071454465
  0
LINE
  5
D0
100
AcDbEntity
  8
Layer_1
  6
ByLayer
 62
    7
370
   -1
100
AcDbLine
 10
19.94384053250982
 20
65.41780071454465
 11
19.9216246737941
 21
65.3543198102447
  0
LINE
  5
D1
100
AcDbEntity
  8
Layer_1
  6
ByLayer
 62
    7
370
   -1
100
AcDbLine
 10
19.9216246737941
 20
65.3543198102447
 11
19.89633507193447
 21
65.29235022077138
  0
LINE
  5
D2
100
AcDbEntity
  8
Layer_1
  6
ByLayer
 62
    7
370
   -1
100
AcDbLine
 10
19.89633507193447
 20
65.29235022077138
 11
19.86806363905206
 21
65.23198385240508
  0
LINE
  5
D3
100
AcDbEntity
  8
Layer_1
  6
ByLayer
 62
    7
370
   -1
100
AcDbLine
 10
19.86806363905206
 20
65.23198385240508
 11
19.83690228726796
 21
65.17331261142625
  0
LINE
  5
D4
100
AcDbEntity
  8
Layer_1
  6
ByLayer
 62
    7
370
   -1
100
AcDbLine
 10
19.83690228726796
 20
65.17331261142625
 11
19.8029429287033
 21
65.11642840411534
  0
LINE
  5
D5
100
AcDbEntity
  8
Layer_1
  6
ByLayer
 62
    7
370
   -1
100
AcDbLine
 10
19.8029429287033
 20
65.11642840411534
 11
19.76627747547917
 21
65.06142313675271
  0
LINE
  5
D6
100
AcDbEntity
  8
Layer_1
  6
ByLayer
 62
    7
370
   -1
100
AcDbLine
 10
19.76627747547917
 20
65.06142313675271
 11
19.72699783971669
 21
65.00838871561882
  0
LINE
  5
D7
100
AcDbEntity
  8
Layer_1
  6
ByLayer
 62
    7
370
   -1
100
AcDbLine
 10
19.72699783971669
 20
65.00838871561882
 11
19.68519593353697
 21
64.95741704699405
  0
LINE
  5
D8
100
AcDbEntity
  8
Layer_1
  6
ByLayer
 62
    7
370
   -1
100
AcDbLine
 10
19.68519593353697
 20
64.95741704699405
 11
19.64096366906112
 21
64.90860003715888
  0
LINE
  5
D9
100
AcDbEntity
  8
Layer_1
  6
ByLayer
 62
    7
370
   -1
100
AcDbLine
 10
19.64096366906112
 20
64.90860003715888
 11
19.59439295841026
 21
64.86202959239368
  0
LINE
  5
DA
100
AcDbEntity
  8
Layer_1
  6
ByLayer
 62
    7
370
   -1
100
AcDbLine
 10
19.59439295841026
 20
64.86202959239368
 11
19.54557571370548
 21
64.81779761897889
  0
LINE
  5
DB
100
AcDbEntity
  8
Layer_1
  6
ByLayer
 62
    7
370
   -1
100
AcDbLine
 10
19.54557571370548
 20
64.81779761897889
 11
19.49460384706791
 21
64.77599602319493
  0
LINE
  5
DC
100
AcDbEntity
  8
Layer_1
  6
ByLayer
 62
    7
370
   -1
100
AcDbLine
 10
19.49460384706791
 20
64.77599602319493
 11
19.44156927061864
 21
64.73671671132222
  0
LINE
  5
DD
100
AcDbEntity
  8
Layer_1
  6
ByLayer
 62
    7
370
   -1
100
AcDbLine
 10
19.44156927061864
 20
64.73671671132222
 11
19.3865638964788
 21
64.70005158964116
  0
LINE
  5
DE
100
AcDbEntity
  8
Layer_1
  6
ByLayer
 62
    7
370
   -1
100
AcDbLine
 10
19.3865638964788
 20
64.70005158964116
 11
19.32967963676949
 21
64.66609256443222
  0
LINE
  5
DF
100
AcDbEntity
  8
Layer_1
  6
ByLayer
 62
    7
370
   -1
100
AcDbLine
 10
19.32967963676949
 20
64.66609256443222
 11
19.27100840361183
 21
64.63493154197577
  0
LINE
  5
E0
100
AcDbEntity
  8
Layer_1
  6
ByLayer
 62
    7
370
   -1
100
AcDbLine
 10
19.27100840361183
 20
64.63493154197577
 11
19.21064210912692
 21
64.60666042855225
  0
LINE
  5
E1
100
AcDbEntity
  8
Layer_1
  6
ByLayer
 62
    7
370
   -1
100
AcDbLine
 10
19.21064210912692
 20
64.60666042855225
 11
19.14867266543587
 21
64.58137113044208
  0
LINE
  5
E2
100
AcDbEntity
  8
Layer_1
  6
ByLayer
 62
    7
370
   -1
100
AcDbLine
 10
19.14867266543587
 20
64.58137113044208
 11
19.0851919846598
 21
64.55915555392569
  0
LINE
  5
E3
100
AcDbEntity
  8
Layer_1
  6
ByLayer
 62
    7
370
   -1
100
AcDbLine
 10
19.0851919846598
 20
64.55915555392569
 11
19.02029197891981
 21
64.54010560528349
  0
LINE
  5
E4
100
AcDbEntity
  8
Layer_1
  6
ByLayer
 62
    7
370
   -1
100
AcDbLine
 10
19.02029197891981
 20
64.54010560528349
 11
18.95406456033702
 21
64.52431319079588
  0
LINE
  5
E5
100
AcDbEntity
  8
Layer_1
  6
ByLayer
 62
    7
370
   -1
100
AcDbLine
 10
18.95406456033702
 20
64.52431319079588
 11
18.88660164103253
 21
64.51187021674332
  0
LINE
  5
E6
100
AcDbEntity
  8
Layer_1
  6
ByLayer
 62
    7
370
   -1
100
AcDbLine
 10
18.88660164103253
 20
64.51187021674332
 11
18.81799513312745
 21
64.50286858940619
  0
LINE
  5
E7
100
AcDbEntity
  8
Layer_1
  6
ByLayer
 62
    7
370
   -1
100
AcDbLine
 10
18.81799513312745
 20
64.50286858940619
 11
18.74833694874291
 21
64.49740021506496
  0
LINE
  5
E8
100
AcDbEntity
  8
Layer_1
  6
ByLayer
 62
    7
370
   -1
100
AcDbLine
 10
18.74833694874291
 20
64.49740021506496
 11
18.677719
 21
64.49555700000001
  0
LINE
  5
E9
100
AcDbEntity
  8
Layer_1
  6
ByLayer
 62
    7
370
   -1
100
AcDbLine
 10
18.677719
 20
64.49555700000001
 11
18.60709933231513
 21
64.49740021506496
  0
LINE
  5
EA
100
AcDbEntity
  8
Layer_1
  6
ByLayer
 62
    7
370
   -1
100
AcDbLine
 10
18.60709933231513
 20
64.49740021506496
 11
18.5374396606022
 21
64.50286858940622
  0
LINE
  5
EB
100
AcDbEntity
  8
Layer_1
  6
ByLayer
 62
    7
370
   -1
100
AcDbLine
 10
18.5374396606022
 20
64.50286858940622
 11
18.46883188509953
 21
64.51187021674332
  0
LINE
  5
EC
100
AcDbEntity
  8
Layer_1
  6
ByLayer
 62
    7
370
   -1
100
AcDbLine
 10
18.46883188509953
 20
64.51187021674332
 11
18.40136790604545
 21
64.52431319079589
  0
LINE
  5
ED
100
AcDbEntity
  8
Layer_1
  6
ByLayer
 62
    7
370
   -1
100
AcDbLine
 10
18.40136790604545
 20
64.52431319079589
 11
18.33513962367829
 21
64.54010560528349
  0
LINE
  5
EE
100
AcDbEntity
  8
Layer_1
  6
ByLayer
 62
    7
370
   -1
100
AcDbLine
 10
18.33513962367829
 20
64.54010560528349
 11
18.27023893823638
 21
64.55915555392569
  0
LINE
  5
EF
100
AcDbEntity
  8
Layer_1
  6
ByLayer
 62
    7
370
   -1
100
AcDbLine
 10
18.27023893823638
 20
64.55915555392569
 11
18.20675774995804
 21
64.58137113044208
  0
LINE
  5
F0
100
AcDbEntity
  8
Layer_1
  6
ByLayer
 62
    7
370
   -1
100
AcDbLine
 10
18.20675774995804
 20
64.58137113044208
 11
18.1447879590816
 21
64.60666042855225
  0
LINE
  5
F1
100
AcDbEntity
  8
Layer_1
  6
ByLayer
 62
    7
370
   -1
100
AcDbLine
 10
18.1447879590816
 20
64.60666042855225
 11
18.08442146584539
 21
64.63493154197577
  0
LINE
  5
F2
100
AcDbEntity
  8
Layer_1
  6
ByLayer
 62
    7
370
   -1
100
AcDbLine
 10
18.08442146584539
 20
64.63493154197577
 11
18.02575017048773
 21
64.6660925644322
  0
LINE
  5
F3
100
AcDbEntity
  8
Layer_1
  6
ByLayer
 62
    7
370
   -1
100
AcDbLine
 10
18.02575017048773
 20
64.6660925644322
 11
17.96886597324696
 21
64.70005158964116
  0
LINE
  5
F4
100
AcDbEntity
  8
Layer_1
  6
ByLayer
 62
    7
370
   -1
100
AcDbLine
 10
17.96886597324696
 20
64.70005158964116
 11
17.91386077436139
 21
64.73671671132222
  0
LINE
  5
F5
100
AcDbEntity
  8
Layer_1
  6
ByLayer
 62
    7
370
   -1
100
AcDbLine
 10
17.91386077436139
 20
64.73671671132222
 11
17.86082647406935
 21
64.77599602319492
  0
LINE
  5
F6
100
AcDbEntity
  8
Layer_1
  6
ByLayer
 62
    7
370
   -1
100
AcDbLine
 10
17.86082647406935
 20
64.77599602319492
 11
17.80985497260918
 21
64.81779761897889
  0
LINE
  5
F7
100
AcDbEntity
  8
Layer_1
  6
ByLayer
 62
    7
370
   -1
100
AcDbLine
 10
17.80985497260918
 20
64.81779761897889
 11
17.7610381702192
 21
64.86202959239368
  0
LINE
  5
F8
100
AcDbEntity
  8
Layer_1
  6
ByLayer
 62
    7
370
   -1
100
AcDbLine
 10
17.7610381702192
 20
64.86202959239368
 11
17.71446796713773
 21
64.90860003715888
  0
LINE
  5
F9
100
AcDbEntity
  8
Layer_1
  6
ByLayer
 62
    7
370
   -1
100
AcDbLine
 10
17.71446796713773
 20
64.90860003715888
 11
17.6702362636031
 21
64.95741704699407
  0
LINE
  5
FA
100
AcDbEntity
  8
Layer_1
  6
ByLayer
 62
    7
370
   -1
100
AcDbLine
 10
17.6702362636031
 20
64.95741704699407
 11
17.62843495985365
 21
65.00838871561881
  0
LINE
  5
FB
100
AcDbEntity
  8
Layer_1
  6
ByLayer
 62
    7
370
   -1
100
AcDbLine
 10
17.62843495985365
 20
65.00838871561881
 11
17.58915595612769
 21
65.06142313675271
  0
LINE
  5
FC
100
AcDbEntity
  8
Layer_1
  6
ByLayer
 62
    7
370
   -1
100
AcDbLine
 10
17.58915595612769
 20
65.06142313675271
 11
17.55249115266356
 21
65.11642840411534
  0
LINE
  5
FD
100
AcDbEntity
  8
Layer_1
  6
ByLayer
 62
    7
370
   -1
100
AcDbLine
 10
17.55249115266356
 20
65.11642840411534
 11
17.51853244969958
 21
65.17331261142628
  0
LINE
  5
FE
100
AcDbEntity
  8
Layer_1
  6
ByLayer
 62
    7
370
   -1
100
AcDbLine
 10
17.51853244969958
 20
65.17331261142628
 11
17.48737174747407
 21
65.23198385240509
  0
LINE
  5
FF
100
AcDbEntity
  8
Layer_1
  6
ByLayer
 62
    7
370
   -1
100
AcDbLine
 10
17.48737174747407
 20
65.23198385240509
 11
17.45910094622537
 21
65.29235022077137
  0
LINE
  5
100
100
AcDbEntity
  8
Layer_1
  6
ByLayer
 62
    7
370
   -1
100
AcDbLine
 10
17.45910094622537
 20
65.29235022077137
 11
17.4338119461918
 21
65.3543198102447
  0
LINE
  5
101
100
AcDbEntity
  8
Layer_1
  6
ByLayer
 62
    7
370
   -1
100
AcDbLine
 10
17.4338119461918
 20
65.3543198102447
 11
17.4115966476117
 21
65.41780071454465
  0
LINE
  5
102
100
AcDbEntity
  8
Layer_1
  6
ByLayer
 62
    7
370
   -1
100
AcDbLine
 10
17.4115966476117
 20
65.41780071454465
 11
17.39254695072337
 21
65.48270102739082
  0
LINE
  5
103
100
AcDbEntity
  8
Layer_1
  6
ByLayer
 62
    7
370
   -1
100
AcDbLine
 10
17.39254695072337
 20
65.48270102739082
 11
17.37675475576517
 21
65.54892884250278
  0
LINE
  5
104
100
AcDbEntity
  8
Layer_1
  6
ByLayer
 62
    7
370
   -1
100
AcDbLine
 10
17.37675475576517
 20
65.54892884250278
 11
17.3643119629754
 21
65.61639225360008
  0
LINE
  5
105
100
AcDbEntity
  8
Layer_1
  6
ByLayer
 62
    7
370
   -1
100
AcDbLine
 10
17.3643119629754
 20
65.61639225360008
 11
17.35531047259239
 21
65.68499935440232
  0
LINE
  5
106
100
AcDbEntity
  8
Layer_1
  6
ByLayer
 62
    7
370
   -1
100
AcDbLine
 10
17.35531047259239
 20
65.68499935440232
 11
17.34984218485449
 21
65.75465823862912
  0
LINE
  5
107
100
AcDbEntity
  8
Layer_1
  6
ByLayer
 62
    7
370
   -1
100
AcDbLine
 10
17.34984218485449
 20
65.75465823862912
 11
17.347999
 21
65.825277
  0
LINE
  5
108
100
AcDbEntity
  8
Layer_1
  6
ByLayer
 62
    7
370
   -1
100
AcDbLine
 10
17.347999
 20
65.825277
 11
17.34984218485449
 21
65.89593482655836
  0
LINE
  5
109
100
AcDbEntity
  8
Layer_1
  6
ByLayer
 62
    7
370
   -1
100
AcDbLine
 10
17.34984218485449
 20
65.89593482655836
 11
17.3553104725924
 21
65.96562766033367
  0
LINE
  5
10A
100
AcDbEntity
  8
Layer_1
  6
ByLayer
 62
    7
370
   -1
100
AcDbLine
 10
17.3553104725924
 20
65.96562766033367
 11
17.3643119629754
 21
66.03426385505691
  0
LINE
  5
10B
100
AcDbEntity
  8
Layer_1
  6
ByLayer
 62
    7
370
   -1
100
AcDbLine
 10
17.3643119629754
 20
66.03426385505691
 11
17.37675475576517
 21
66.10175176445907
  0
LINE
  5
10C
100
AcDbEntity
  8
Layer_1
  6
ByLayer
 62
    7
370
   -1
100
AcDbLine
 10
17.37675475576517
 20
66.10175176445907
 11
17.39254695072337
 21
66.16799974227115
  0
LINE
  5
10D
100
AcDbEntity
  8
Layer_1
  6
ByLayer
 62
    7
370
   -1
100
AcDbLine
 10
17.39254695072337
 20
66.16799974227115
 11
17.4115966476117
 21
66.23291614222417
  0
LINE
  5
10E
100
AcDbEntity
  8
Layer_1
  6
ByLayer
 62
    7
370
   -1
100
AcDbLine
 10
17.4115966476117
 20
66.23291614222417
 11
17.43381194619181
 21
66.29640931804909
  0
LINE
  5
10F
100
AcDbEntity
  8
Layer_1
  6
ByLayer
 62
    7
370
   -1
100
AcDbLine
 10
17.43381194619181
 20
66.29640931804909
 11
17.45910094622537
 21
66.35838762347689
  0
LINE
  5
110
100
AcDbEntity
  8
Layer_1
  6
ByLayer
 62
    7
370
   -1
100
AcDbLine
 10
17.45910094622537
 20
66.35838762347689
 11
17.48737174747407
 21
66.41875941223859
  0
LINE
  5
111
100
AcDbEntity
  8
Layer_1
  6
ByLayer
 62
    7
370
   -1
100
AcDbLine
 10
17.48737174747407
 20
66.41875941223859
 11
17.51853244969957
 21
66.47743303806519
  0
LINE
  5
112
100
AcDbEntity
  8
Layer_1
  6
ByLayer
 62
    7
370
   -1
100
AcDbLine
 10
17.51853244969957
 20
66.47743303806519
 11
17.55249115266356
 21
66.53431685468766
  0
LINE
  5
113
100
AcDbEntity
  8
Layer_1
  6
ByLayer
 62
    7
370
   -1
100
AcDbLine
 10
17.55249115266356
 20
66.53431685468766
 11
17.58915595612769
 21
66.58931921583701
  0
LINE
  5
114
100
AcDbEntity
  8
Layer_1
  6
ByLayer
 62
    7
370
   -1
100
AcDbLine
 10
17.58915595612769
 20
66.58931921583701
 11
17.62843495985365
 21
66.64234847524421
  0
LINE
  5
115
100
AcDbEntity
  8
Layer_1
  6
ByLayer
 62
    7
370
   -1
100
AcDbLine
 10
17.62843495985365
 20
66.64234847524421
 11
17.6702362636031
 21
66.69331298664027
  0
LINE
  5
116
100
AcDbEntity
  8
Layer_1
  6
ByLayer
 62
    7
370
   -1
100
AcDbLine
 10
17.6702362636031
 20
66.69331298664027
 11
17.71446796713773
 21
66.74212110375618
  0
LINE
  5
117
100
AcDbEntity
  8
Layer_1
  6
ByLayer
 62
    7
370
   -1
100
AcDbLine
 10
17.71446796713773
 20
66.74212110375618
 11
17.76103817021919
 21
66.78868118032291
  0
LINE
  5
118
100
AcDbEntity
  8
Layer_1
  6
ByLayer
 62
    7
370
   -1
100
AcDbLine
 10
17.76103817021919
 20
66.78868118032291
 11
17.80985497260918
 21
66.83290157007151
  0
LINE
  5
119
100
AcDbEntity
  8
Layer_1
  6
ByLayer
 62
    7
370
   -1
100
AcDbLine
 10
17.80985497260918
 20
66.83290157007151
 11
17.86082647406935
 21
66.87469062673291
  0
LINE
  5
11A
100
AcDbEntity
  8
Layer_1
  6
ByLayer
 62
    7
370
   -1
100
AcDbLine
 10
17.86082647406935
 20
66.87469062673291
 11
17.91386077436139
 21
66.91395670403813
  0
LINE
  5
11B
100
AcDbEntity
  8
Layer_1
  6
ByLayer
 62
    7
370
   -1
100
AcDbLine
 10
17.91386077436139
 20
66.91395670403813
 11
17.96886597324695
 21
66.95060815571817
  0
LINE
  5
11C
100
AcDbEntity
  8
Layer_1
  6
ByLayer
 62
    7
370
   -1
100
AcDbLine
 10
17.96886597324695
 20
66.95060815571817
 11
18.02575017048773
 21
66.98455333550402
  0
LINE
  5
11D
100
AcDbEntity
  8
Layer_1
  6
ByLayer
 62
    7
370
   -1
100
AcDbLine
 10
18.02575017048773
 20
66.98455333550402
 11
18.08442146584539
 21
67.01570059712665
  0
LINE
  5
11E
100
AcDbEntity
  8
Layer_1
  6
ByLayer
 62
    7
370
   -1
100
AcDbLine
 10
18.08442146584539
 20
67.01570059712665
 11
18.1447879590816
 21
67.04395829431709
  0
LINE
  5
11F
100
AcDbEntity
  8
Layer_1
  6
ByLayer
 62
    7
370
   -1
100
AcDbLine
 10
18.1447879590816
 20
67.04395829431709
 11
18.20675774995804
 21
67.0692347808063
  0
LINE
  5
120
100
AcDbEntity
  8
Layer_1
  6
ByLayer
 62
    7
370
   -1
100
AcDbLine
 10
18.20675774995804
 20
67.0692347808063
 11
18.27023893823638
 21
67.09143841032528
  0
LINE
  5
121
100
AcDbEntity
  8
Layer_1
  6
ByLayer
 62
    7
370
   -1
100
AcDbLine
 10
18.27023893823638
 20
67.09143841032528
 11
18.33513962367829
 21
67.11047753660502
  0
LINE
  5
122
100
AcDbEntity
  8
Layer_1
  6
ByLayer
 62
    7
370
   -1
100
AcDbLine
 10
18.33513962367829
 20
67.11047753660502
 11
18.40136790604545
 21
67.12626051337654
  0
LINE
  5
123
100
AcDbEntity
  8
Layer_1
  6
ByLayer
 62
    7
370
   -1
100
AcDbLine
 10
18.40136790604545
 20
67.12626051337654
 11
18.46883188509953
 21
67.1386956943708
  0
LINE
  5
124
100
AcDbEntity
  8
Layer_1
  6
ByLayer
 62
    7
370
   -1
100
AcDbLine
 10
18.46883188509953
 20
67.1386956943708
 11
18.53743966060219
 21
67.14769143331878
  0
LINE
  5
125
100
AcDbEntity
  8
Layer_1
  6
ByLayer
 62
    7
370
   -1
100
AcDbLine
 10
18.53743966060219
 20
67.14769143331878
 11
18.60709933231513
 21
67.15315608395153
  0
LINE
  5
126
100
AcDbEntity
  8
Layer_1
  6
ByLayer
 62
    7
370
   -1
100
AcDbLine
 10
18.60709933231513
 20
67.15315608395153
 11
18.677719
 21
67.15499800000001
  0
LINE
  5
127
100
AcDbEntity
  8
Layer_1
  6
ByLayer
 62
    7
370
   -1
100
AcDbLine
 10
18.677719
 20
67.15499800000001
 11
18.74833694874291
 21
67.15315608395154
  0
LINE
  5
128
100
AcDbEntity
  8
Layer_1
  6
ByLayer
 62
    7
370
   -1
100
AcDbLine
 10
18.74833694874291
 20
67.15315608395154
 11
18.81799513312746
 21
67.14769143331881
  0
LINE
  5
129
100
AcDbEntity
  8
Layer_1
  6
ByLayer
 62
    7
370
   -1
100
AcDbLine
 10
18.81799513312746
 20
67.14769143331881
 11
18.88660164103253
 21
67.13869569437078
  0
LINE
  5
12A
100
AcDbEntity
  8
Layer_1
  6
ByLayer
 62
    7
370
   -1
100
AcDbLine
 10
18.88660164103253
 20
67.13869569437078
 11
18.95406456033702
 21
67.12626051337654
  0
LINE
  5
12B
100
AcDbEntity
  8
Layer_1
  6
ByLayer
 62
    7
370
   -1
100
AcDbLine
 10
18.95406456033702
 20
67.12626051337654
 11
19.02029197891981
 21
67.11047753660502
  0
LINE
  5
12C
100
AcDbEntity
  8
Layer_1
  6
ByLayer
 62
    7
370
   -1
100
AcDbLine
 10
19.02029197891981
 20
67.11047753660502
 11
19.08519198465979
 21
67.09143841032527
  0
LINE
  5
12D
100
AcDbEntity
  8
Layer_1
  6
ByLayer
 62
    7
370
   -1
100
AcDbLine
 10
19.08519198465979
 20
67.09143841032527
 11
19.14867266543587
 21
67.06923478080628
  0
LINE
  5
12E
100
AcDbEntity
  8
Layer_1
  6
ByLayer
 62
    7
370
   -1
100
AcDbLine
 10
19.14867266543587
 20
67.06923478080628
 11
19.21064210912692
 21
67.04395829431708
  0
LINE
  5
12F
100
AcDbEntity
  8
Layer_1
  6
ByLayer
 62
    7
370
   -1
100
AcDbLine
 10
19.21064210912692
 20
67.04395829431708
 11
19.27100840361183
 21
67.01570059712665
  0
LINE
  5
130
100
AcDbEntity
  8
Layer_1
  6
ByLayer
 62
    7
370
   -1
100
AcDbLine
 10
19.27100840361183
 20
67.01570059712665
 11
19.32967963676949
 21
66.98455333550402
  0
LINE
  5
131
100
AcDbEntity
  8
Layer_1
  6
ByLayer
 62
    7
370
   -1
100
AcDbLine
 10
19.32967963676949
 20
66.98455333550402
 11
19.3865638964788
 21
66.95060815571817
  0
LINE
  5
132
100
AcDbEntity
  8
Layer_1
  6
ByLayer
 62
    7
370
   -1
100
AcDbLine
 10
19.3865638964788
 20
66.95060815571817
 11
19.44156927061864
 21
66.91395670403814
  0
LINE
  5
133
100
AcDbEntity
  8
Layer_1
  6
ByLayer
 62
    7
370
   -1
100
AcDbLine
 10
19.44156927061864
 20
66.91395670403814
 11
19.49460384706791
 21
66.8746906267329
  0
LINE
  5
134
100
AcDbEntity
  8
Layer_1
  6
ByLayer
 62
    7
370
   -1
100
AcDbLine
 10
19.49460384706791
 20
66.8746906267329
 11
19.54557571370548
 21
66.8329015700715
  0
LINE
  5
135
100
AcDbEntity
  8
Layer_1
  6
ByLayer
 62
    7
370
   -1
100
AcDbLine
 10
19.54557571370548
 20
66.8329015700715
 11
19.59439295841025
 21
66.78868118032293
  0
LINE
  5
136
100
AcDbEntity
  8
Layer_1
  6
ByLayer
 62
    7
370
   -1
100
AcDbLine
 10
19.59439295841025
 20
66.78868118032293
 11
19.64096366906113
 21
66.74212110375616
  0
LINE
  5
137
100
AcDbEntity
  8
Layer_1
  6
ByLayer
 62
    7
370
   -1
100
AcDbLine
 10
19.64096366906113
 20
66.74212110375616
 11
19.68519593353697
 21
66.69331298664027
  0
LINE
  5
138
100
AcDbEntity
  8
Layer_1
  6
ByLayer
 62
    7
370
   -1
100
AcDbLine
 10
19.68519593353697
 20
66.69331298664027
 11
19.72699783971669
 21
66.64234847524421
  0
LINE
  5
139
100
AcDbEntity
  8
Layer_1
  6
ByLayer
 62
    7
370
   -1
100
AcDbLine
 10
19.72699783971669
 20
66.64234847524421
 11
19.76627747547917
 21
66.58931921583701
  0
LINE
  5
13A
100
AcDbEntity
  8
Layer_1
  6
ByLayer
 62
    7
370
   -1
100
AcDbLine
 10
19.76627747547917
 20
66.58931921583701
 11
19.8029429287033
 21
66.53431685468766
  0
LINE
  5
13B
100
AcDbEntity
  8
Layer_1
  6
ByLayer
 62
    7
370
   -1
100
AcDbLine
 10
19.8029429287033
 20
66.53431685468766
 11
19.83690228726797
 21
66.4774330380652
  0
LINE
  5
13C
100
AcDbEntity
  8
Layer_1
  6
ByLayer
 62
    7
370
   -1
100
AcDbLine
 10
19.83690228726797
 20
66.4774330380652
 11
19.86806363905206
 21
66.4187594122386
  0
LINE
  5
13D
100
AcDbEntity
  8
Layer_1
  6
ByLayer
 62
    7
370
   -1
100
AcDbLine
 10
19.86806363905206
 20
66.4187594122386
 11
19.89633507193448
 21
66.35838762347689
  0
LINE
  5
13E
100
AcDbEntity
  8
Layer_1
  6
ByLayer
 62
    7
370
   -1
100
AcDbLine
 10
19.89633507193448
 20
66.35838762347689
 11
19.9216246737941
 21
66.29640931804909
  0
LINE
  5
13F
100
AcDbEntity
  8
Layer_1
  6
ByLayer
 62
    7
370
   -1
100
AcDbLine
 10
19.9216246737941
 20
66.29640931804909
 11
19.94384053250982
 21
66.23291614222416
  0
LINE
  5
140
100
AcDbEntity
  8
Layer_1
  6
ByLayer
 62
    7
370
   -1
100
AcDbLine
 10
19.94384053250982
 20
66.23291614222416
 11
19.96289073596052
 21
66.16799974227115
  0
LINE
  5
141
100
AcDbEntity
  8
Layer_1
  6
ByLayer
 62
    7
370
   -1
100
AcDbLine
 10
19.96289073596052
 20
66.16799974227115
 11
19.97868337202511
 21
66.10175176445907
  0
LINE
  5
142
100
AcDbEntity
  8
Layer_1
  6
ByLayer
 62
    7
370
   -1
100
AcDbLine
 10
19.97868337202511
 20
66.10175176445907
 11
19.99112652858246
 21
66.03426385505691
  0
LINE
  5
143
100
AcDbEntity
  8
Layer_1
  6
ByLayer
 62
    7
370
   -1
100
AcDbLine
 10
19.99112652858246
 20
66.03426385505691
 11
20.00012829351146
 21
65.96562766033365
  0
LINE
  5
144
100
AcDbEntity
  8
Layer_1
  6
ByLayer
 62
    7
370
   -1
100
AcDbLine
 10
20.00012829351146
 20
65.96562766033365
 11
20.00559675469101
 21
65.89593482655836
  0
LINE
  5
145
100
AcDbEntity
  8
Layer_1
  6
ByLayer
 62
    7
370
   -1
100
AcDbLine
 10
20.00559675469101
 20
65.89593482655836
 11
20.00744
 21
65.825277
  0
LINE
  5
146
100
AcDbEntity
  8
Layer_1
  6
ByLayer
 62
    7
370
   -1
100
AcDbLine
 10
20.00736
 20
47.075388
 11
20.00736
 21
47.075388
  0
LINE
  5
147
100
AcDbEntity
  8
Layer_1
  6
ByLayer
 62
    7
370
   -1
100
AcDbLine
 10
63.257471
 20
29.82529
 11
63.25562775469102
 21
29.75467114494311
  0
LINE
  5
148
100
AcDbEntity
  8
Layer_1
  6
ByLayer
 62
    7
370
   -1
100
AcDbLine
 10
63.25562775469102
 20
29.75467114494311
 11
63.25015929351147
 21
29.68501217307241
  0
LINE
  5
149
100
AcDbEntity
  8
Layer_1
  6
ByLayer
 62
    7
370
   -1
100
AcDbLine
 10
63.25015929351147
 20
29.68501217307241
 11
63.24115752858246
 21
29.61640499046692
  0
LINE
  5
14A
100
AcDbEntity
  8
Layer_1
  6
ByLayer
 62
    7
370
   -1
100
AcDbLine
 10
63.24115752858246
 20
29.61640499046692
 11
63.22871437202511
 21
29.54894150320566
  0
LINE
  5
14B
100
AcDbEntity
  8
Layer_1
  6
ByLayer
 62
    7
370
   -1
100
AcDbLine
 10
63.22871437202511
 20
29.54894150320566
 11
63.21292173596053
 21
29.48271361736765
  0
LINE
  5
14C
100
AcDbEntity
  8
Layer_1
  6
ByLayer
 62
    7
370
   -1
100
AcDbLine
 10
63.21292173596053
 20
29.48271361736765
 11
63.19387153250982
 21
29.41781323903193
  0
LINE
  5
14D
100
AcDbEntity
  8
Layer_1
  6
ByLayer
 62
    7
370
   -1
100
AcDbLine
 10
63.19387153250982
 20
29.41781323903193
 11
63.1716556737941
 21
29.35433227427747
  0
LINE
  5
14E
100
AcDbEntity
  8
Layer_1
  6
ByLayer
 62
    7
370
   -1
100
AcDbLine
 10
63.1716556737941
 20
29.35433227427747
 11
63.14636607193448
 21
29.29236262918331
  0
LINE
  5
14F
100
AcDbEntity
  8
Layer_1
  6
ByLayer
 62
    7
370
   -1
100
AcDbLine
 10
63.14636607193448
 20
29.29236262918331
 11
63.11809463905205
 21
29.23199620982847
  0
LINE
  5
150
100
AcDbEntity
  8
Layer_1
  6
ByLayer
 62
    7
370
   -1
100
AcDbLine
 10
63.11809463905205
 20
29.23199620982847
 11
63.08693328726795
 21
29.17332492229196
  0
LINE
  5
151
100
AcDbEntity
  8
Layer_1
  6
ByLayer
 62
    7
370
   -1
100
AcDbLine
 10
63.08693328726795
 20
29.17332492229196
 11
63.0529739287033
 21
29.11644067265281
  0
LINE
  5
152
100
AcDbEntity
  8
Layer_1
  6
ByLayer
 62
    7
370
   -1
100
AcDbLine
 10
63.0529739287033
 20
29.11644067265281
 11
63.01630847547917
 21
29.06143536699003
  0
LINE
  5
153
100
AcDbEntity
  8
Layer_1
  6
ByLayer
 62
    7
370
   -1
100
AcDbLine
 10
63.01630847547917
 20
29.06143536699003
 11
62.9770288397167
 21
29.00840091138263
  0
LINE
  5
154
100
AcDbEntity
  8
Layer_1
  6
ByLayer
 62
    7
370
   -1
100
AcDbLine
 10
62.9770288397167
 20
29.00840091138263
 11
62.93522693353698
 21
28.95742921190963
  0
LINE
  5
155
100
AcDbEntity
  8
Layer_1
  6
ByLayer
 62
    7
370
   -1
100
AcDbLine
 10
62.93522693353698
 20
28.95742921190963
 11
62.89099466906113
 21
28.90861217465006
  0
LINE
  5
156
100
AcDbEntity
  8
Layer_1
  6
ByLayer
 62
    7
370
   -1
100
AcDbLine
 10
62.89099466906113
 20
28.90861217465006
 11
62.84442395841025
 21
28.86204170568292
  0
LINE
  5
157
100
AcDbEntity
  8
Layer_1
  6
ByLayer
 62
    7
370
   -1
100
AcDbLine
 10
62.84442395841025
 20
28.86204170568292
 11
62.79560671370548
 21
28.81780971108724
  0
LINE
  5
158
100
AcDbEntity
  8
Layer_1
  6
ByLayer
 62
    7
370
   -1
100
AcDbLine
 10
62.79560671370548
 20
28.81780971108724
 11
62.74463484706791
 21
28.77600809694204
  0
LINE
  5
159
100
AcDbEntity
  8
Layer_1
  6
ByLayer
 62
    7
370
   -1
100
AcDbLine
 10
62.74463484706791
 20
28.77600809694204
 11
62.69160027061865
 21
28.73672876932631
  0
LINE
  5
15A
100
AcDbEntity
  8
Layer_1
  6
ByLayer
 62
    7
370
   -1
100
AcDbLine
 10
62.69160027061865
 20
28.73672876932631
 11
62.6365948964788
 21
28.70006363431909
  0
LINE
  5
15B
100
AcDbEntity
  8
Layer_1
  6
ByLayer
 62
    7
370
   -1
100
AcDbLine
 10
62.6365948964788
 20
28.70006363431909
 11
62.57971063676951
 21
28.6661045979994
  0
LINE
  5
15C
100
AcDbEntity
  8
Layer_1
  6
ByLayer
 62
    7
370
   -1
100
AcDbLine
 10
62.57971063676951
 20
28.6661045979994
 11
62.52103940361184
 21
28.63494356644625
  0
LINE
  5
15D
100
AcDbEntity
  8
Layer_1
  6
ByLayer
 62
    7
370
   -1
100
AcDbLine
 10
62.52103940361184
 20
28.63494356644625
 11
62.46067310912692
 21
28.60667244573865
  0
LINE
  5
15E
100
AcDbEntity
  8
Layer_1
  6
ByLayer
 62
    7
370
   -1
100
AcDbLine
 10
62.46067310912692
 20
28.60667244573865
 11
62.39870366543587
 21
28.58138314195563
  0
LINE
  5
15F
100
AcDbEntity
  8
Layer_1
  6
ByLayer
 62
    7
370
   -1
100
AcDbLine
 10
62.39870366543587
 20
28.58138314195563
 11
62.33522298465979
 21
28.5591675611762
  0
LINE
  5
160
100
AcDbEntity
  8
Layer_1
  6
ByLayer
 62
    7
370
   -1
100
AcDbLine
 10
62.33522298465979
 20
28.5591675611762
 11
62.27032297891981
 21
28.54011760947937
  0
LINE
  5
161
100
AcDbEntity
  8
Layer_1
  6
ByLayer
 62
    7
370
   -1
100
AcDbLine
 10
62.27032297891981
 20
28.54011760947937
 11
62.20409556033702
 21
28.52432519294418
  0
LINE
  5
162
100
AcDbEntity
  8
Layer_1
  6
ByLayer
 62
    7
370
   -1
100
AcDbLine
 10
62.20409556033702
 20
28.52432519294418
 11
62.13663264103253
 21
28.51188221764963
  0
LINE
  5
163
100
AcDbEntity
  8
Layer_1
  6
ByLayer
 62
    7
370
   -1
100
AcDbLine
 10
62.13663264103253
 20
28.51188221764963
 11
62.06802613312745
 21
28.50288058967473
  0
LINE
  5
164
100
AcDbEntity
  8
Layer_1
  6
ByLayer
 62
    7
370
   -1
100
AcDbLine
 10
62.06802613312745
 20
28.50288058967473
 11
61.99836794874291
 21
28.49741221509852
  0
LINE
  5
165
100
AcDbEntity
  8
Layer_1
  6
ByLayer
 62
    7
370
   -1
100
AcDbLine
 10
61.99836794874291
 20
28.49741221509852
 11
61.92775
 21
28.495569
  0
LINE
  5
166
100
AcDbEntity
  8
Layer_1
  6
ByLayer
 62
    7
370
   -1
100
AcDbLine
 10
61.92775
 20
28.495569
 11
61.85713033231514
 21
28.49741221509852
  0
LINE
  5
167
100
AcDbEntity
  8
Layer_1
  6
ByLayer
 62
    7
370
   -1
100
AcDbLine
 10
61.85713033231514
 20
28.49741221509852
 11
61.78747066060221
 21
28.50288058967474
  0
LINE
  5
168
100
AcDbEntity
  8
Layer_1
  6
ByLayer
 62
    7
370
   -1
100
AcDbLine
 10
61.78747066060221
 20
28.50288058967474
 11
61.71886288509953
 21
28.51188221764962
  0
LINE
  5
169
100
AcDbEntity
  8
Layer_1
  6
ByLayer
 62
    7
370
   -1
100
AcDbLine
 10
61.71886288509953
 20
28.51188221764962
 11
61.65139890604545
 21
28.52432519294418
  0
LINE
  5
16A
100
AcDbEntity
  8
Layer_1
  6
ByLayer
 62
    7
370
   -1
100
AcDbLine
 10
61.65139890604545
 20
28.52432519294418
 11
61.58517062367829
 21
28.54011760947937
  0
LINE
  5
16B
100
AcDbEntity
  8
Layer_1
  6
ByLayer
 62
    7
370
   -1
100
AcDbLine
 10
61.58517062367829
 20
28.54011760947937
 11
61.5202699382364
 21
28.5591675611762
  0
LINE
  5
16C
100
AcDbEntity
  8
Layer_1
  6
ByLayer
 62
    7
370
   -1
100
AcDbLine
 10
61.5202699382364
 20
28.5591675611762
 11
61.45678874995804
 21
28.58138314195562
  0
LINE
  5
16D
100
AcDbEntity
  8
Layer_1
  6
ByLayer
 62
    7
370
   -1
100
AcDbLine
 10
61.45678874995804
 20
28.58138314195562
 11
61.39481895908161
 21
28.60667244573865
  0
LINE
  5
16E
100
AcDbEntity
  8
Layer_1
  6
ByLayer
 62
    7
370
   -1
100
AcDbLine
 10
61.39481895908161
 20
28.60667244573865
 11
61.33445246584539
 21
28.63494356644624
  0
LINE
  5
16F
100
AcDbEntity
  8
Layer_1
  6
ByLayer
 62
    7
370
   -1
100
AcDbLine
 10
61.33445246584539
 20
28.63494356644624
 11
61.27578117048772
 21
28.66610459799939
  0
LINE
  5
170
100
AcDbEntity
  8
Layer_1
  6
ByLayer
 62
    7
370
   -1
100
AcDbLine
 10
61.27578117048772
 20
28.66610459799939
 11
61.21889697324696
 21
28.70006363431909
  0
LINE
  5
171
100
AcDbEntity
  8
Layer_1
  6
ByLayer
 62
    7
370
   -1
100
AcDbLine
 10
61.21889697324696
 20
28.70006363431909
 11
61.16389177436139
 21
28.73672876932631
  0
LINE
  5
172
100
AcDbEntity
  8
Layer_1
  6
ByLayer
 62
    7
370
   -1
100
AcDbLine
 10
61.16389177436139
 20
28.73672876932631
 11
61.11085747406936
 21
28.77600809694203
  0
LINE
  5
173
100
AcDbEntity
  8
Layer_1
  6
ByLayer
 62
    7
370
   -1
100
AcDbLine
 10
61.11085747406936
 20
28.77600809694203
 11
61.05988597260918
 21
28.81780971108724
  0
LINE
  5
174
100
AcDbEntity
  8
Layer_1
  6
ByLayer
 62
    7
370
   -1
100
AcDbLine
 10
61.05988597260918
 20
28.81780971108724
 11
61.01106917021919
 21
28.86204170568292
  0
LINE
  5
175
100
AcDbEntity
  8
Layer_1
  6
ByLayer
 62
    7
370
   -1
100
AcDbLine
 10
61.01106917021919
 20
28.86204170568292
 11
60.96449896713772
 21
28.90861217465006
  0
LINE
  5
176
100
AcDbEntity
  8
Layer_1
  6
ByLayer
 62
    7
370
   -1
100
AcDbLine
 10
60.96449896713772
 20
28.90861217465006
 11
60.9202672636031
 21
28.95742921190964
  0
LINE
  5
177
100
AcDbEntity
  8
Layer_1
  6
ByLayer
 62
    7
370
   -1
100
AcDbLine
 10
60.9202672636031
 20
28.95742921190964
 11
60.87846595985366
 21
29.00840091138263
  0
LINE
  5
178
100
AcDbEntity
  8
Layer_1
  6
ByLayer
 62
    7
370
   -1
100
AcDbLine
 10
60.87846595985366
 20
29.00840091138263
 11
60.83918695612769
 21
29.06143536699003
  0
LINE
  5
179
100
AcDbEntity
  8
Layer_1
  6
ByLayer
 62
    7
370
   -1
100
AcDbLine
 10
60.83918695612769
 20
29.06143536699003
 11
60.80252215266356
 21
29.11644067265281
  0
LINE
  5
17A
100
AcDbEntity
  8
Layer_1
  6
ByLayer
 62
    7
370
   -1
100
AcDbLine
 10
60.80252215266356
 20
29.11644067265281
 11
60.76856344969958
 21
29.17332492229197
  0
LINE
  5
17B
100
AcDbEntity
  8
Layer_1
  6
ByLayer
 62
    7
370
   -1
100
AcDbLine
 10
60.76856344969958
 20
29.17332492229197
 11
60.73740274747406
 21
29.23199620982847
  0
LINE
  5
17C
100
AcDbEntity
  8
Layer_1
  6
ByLayer
 62
    7
370
   -1
100
AcDbLine
 10
60.73740274747406
 20
29.23199620982847
 11
60.70913194622537
 21
29.29236262918331
  0
LINE
  5
17D
100
AcDbEntity
  8
Layer_1
  6
ByLayer
 62
    7
370
   -1
100
AcDbLine
 10
60.70913194622537
 20
29.29236262918331
 11
60.68384294619181
 21
29.35433227427747
  0
LINE
  5
17E
100
AcDbEntity
  8
Layer_1
  6
ByLayer
 62
    7
370
   -1
100
AcDbLine
 10
60.68384294619181
 20
29.35433227427747
 11
60.6616276476117
 21
29.41781323903192
  0
LINE
  5
17F
100
AcDbEntity
  8
Layer_1
  6
ByLayer
 62
    7
370
   -1
100
AcDbLine
 10
60.6616276476117
 20
29.41781323903192
 11
60.64257795072337
 21
29.48271361736766
  0
LINE
  5
180
100
AcDbEntity
  8
Layer_1
  6
ByLayer
 62
    7
370
   -1
100
AcDbLine
 10
60.64257795072337
 20
29.48271361736766
 11
60.62678575576517
 21
29.54894150320567
  0
LINE
  5
181
100
AcDbEntity
  8
Layer_1
  6
ByLayer
 62
    7
370
   -1
100
AcDbLine
 10
60.62678575576517
 20
29.54894150320567
 11
60.6143429629754
 21
29.61640499046692
  0
LINE
  5
182
100
AcDbEntity
  8
Layer_1
  6
ByLayer
 62
    7
370
   -1
100
AcDbLine
 10
60.6143429629754
 20
29.61640499046692
 11
60.60534147259239
 21
29.6850121730724
  0
LINE
  5
183
100
AcDbEntity
  8
Layer_1
  6
ByLayer
 62
    7
370
   -1
100
AcDbLine
 10
60.60534147259239
 20
29.6850121730724
 11
60.59987318485449
 21
29.7546711449431
  0
LINE
  5
184
100
AcDbEntity
  8
Layer_1
  6
ByLayer
 62
    7
370
   -1
100
AcDbLine
 10
60.59987318485449
 20
29.7546711449431
 11
60.59803
 21
29.82529
  0
LINE
  5
185
100
AcDbEntity
  8
Layer_1
  6
ByLayer
 62
    7
370
   -1
100
AcDbLine
 10
60.59803
 20
29.82529
 11
60.59987318485449
 21
29.89594773287235
  0
LINE
  5
186
100
AcDbEntity
  8
Layer_1
  6
ByLayer
 62
    7
370
   -1
100
AcDbLine
 10
60.59987318485449
 20
29.89594773287235
 11
60.6053414725924
 21
29.96564047900373
  0
LINE
  5
187
100
AcDbEntity
  8
Layer_1
  6
ByLayer
 62
    7
370
   -1
100
AcDbLine
 10
60.6053414725924
 20
29.96564047900373
 11
60.6143429629754
 21
30.03427659192374
  0
LINE
  5
188
100
AcDbEntity
  8
Layer_1
  6
ByLayer
 62
    7
370
   -1
100
AcDbLine
 10
60.6143429629754
 20
30.03427659192374
 11
60.62678575576518
 21
30.10176442516196
  0
LINE
  5
189
100
AcDbEntity
  8
Layer_1
  6
ByLayer
 62
    7
370
   -1
100
AcDbLine
 10
60.62678575576518
 20
30.10176442516196
 11
60.64257795072338
 21
30.16801233224799
  0
LINE
  5
18A
100
AcDbEntity
  8
Layer_1
  6
ByLayer
 62
    7
370
   -1
100
AcDbLine
 10
60.64257795072338
 20
30.16801233224799
 11
60.6616276476117
 21
30.23292866671143
  0
LINE
  5
18B
100
AcDbEntity
  8
Layer_1
  6
ByLayer
 62
    7
370
   -1
100
AcDbLine
 10
60.6616276476117
 20
30.23292866671143
 11
60.68384294619181
 21
30.29642178208184
  0
LINE
  5
18C
100
AcDbEntity
  8
Layer_1
  6
ByLayer
 62
    7
370
   -1
100
AcDbLine
 10
60.68384294619181
 20
30.29642178208184
 11
60.70913194622537
 21
30.35840003188883
  0
LINE
  5
18D
100
AcDbEntity
  8
Layer_1
  6
ByLayer
 62
    7
370
   -1
100
AcDbLine
 10
60.70913194622537
 20
30.35840003188883
 11
60.73740274747406
 21
30.41877176966197
  0
LINE
  5
18E
100
AcDbEntity
  8
Layer_1
  6
ByLayer
 62
    7
370
   -1
100
AcDbLine
 10
60.73740274747406
 20
30.41877176966197
 11
60.76856344969956
 21
30.47744534893088
  0
LINE
  5
18F
100
AcDbEntity
  8
Layer_1
  6
ByLayer
 62
    7
370
   -1
100
AcDbLine
 10
60.76856344969956
 20
30.47744534893088
 11
60.80252215266356
 21
30.53432912322513
  0
LINE
  5
190
100
AcDbEntity
  8
Layer_1
  6
ByLayer
 62
    7
370
   -1
100
AcDbLine
 10
60.80252215266356
 20
30.53432912322513
 11
60.83918695612768
 21
30.58933144607431
  0
LINE
  5
191
100
AcDbEntity
  8
Layer_1
  6
ByLayer
 62
    7
370
   -1
100
AcDbLine
 10
60.83918695612768
 20
30.58933144607431
 11
60.87846595985364
 21
30.64236067100802
  0
LINE
  5
192
100
AcDbEntity
  8
Layer_1
  6
ByLayer
 62
    7
370
   -1
100
AcDbLine
 10
60.87846595985364
 20
30.64236067100802
 11
60.92026726360311
 21
30.69332515155584
  0
LINE
  5
193
100
AcDbEntity
  8
Layer_1
  6
ByLayer
 62
    7
370
   -1
100
AcDbLine
 10
60.92026726360311
 20
30.69332515155584
 11
60.96449896713773
 21
30.74213324124735
  0
LINE
  5
194
100
AcDbEntity
  8
Layer_1
  6
ByLayer
 62
    7
370
   -1
100
AcDbLine
 10
60.96449896713773
 20
30.74213324124735
 11
61.01106917021919
 21
30.78869329361216
  0
LINE
  5
195
100
AcDbEntity
  8
Layer_1
  6
ByLayer
 62
    7
370
   -1
100
AcDbLine
 10
61.01106917021919
 20
30.78869329361216
 11
61.05988597260918
 21
30.83291366217985
  0
LINE
  5
196
100
AcDbEntity
  8
Layer_1
  6
ByLayer
 62
    7
370
   -1
100
AcDbLine
 10
61.05988597260918
 20
30.83291366217985
 11
61.11085747406936
 21
30.87470270048001
  0
LINE
  5
197
100
AcDbEntity
  8
Layer_1
  6
ByLayer
 62
    7
370
   -1
100
AcDbLine
 10
61.11085747406936
 20
30.87470270048001
 11
61.16389177436139
 21
30.91396876204223
  0
LINE
  5
198
100
AcDbEntity
  8
Layer_1
  6
ByLayer
 62
    7
370
   -1
100
AcDbLine
 10
61.16389177436139
 20
30.91396876204223
 11
61.21889697324695
 21
30.95062020039609
  0
LINE
  5
199
100
AcDbEntity
  8
Layer_1
  6
ByLayer
 62
    7
370
   -1
100
AcDbLine
 10
61.21889697324695
 20
30.95062020039609
 11
61.27578117048773
 21
30.9845653690712
  0
LINE
  5
19A
100
AcDbEntity
  8
Layer_1
  6
ByLayer
 62
    7
370
   -1
100
AcDbLine
 10
61.27578117048773
 20
30.9845653690712
 11
61.33445246584539
 21
31.01571262159712
  0
LINE
  5
19B
100
AcDbEntity
  8
Layer_1
  6
ByLayer
 62
    7
370
   -1
100
AcDbLine
 10
61.33445246584539
 20
31.01571262159712
 11
61.3948189590816
 21
31.04397031150347
  0
LINE
  5
19C
100
AcDbEntity
  8
Layer_1
  6
ByLayer
 62
    7
370
   -1
100
AcDbLine
 10
61.3948189590816
 20
31.04397031150347
 11
61.45678874995804
 21
31.06924679231983
  0
LINE
  5
19D
100
AcDbEntity
  8
Layer_1
  6
ByLayer
 62
    7
370
   -1
100
AcDbLine
 10
61.45678874995804
 20
31.06924679231983
 11
61.52026993823637
 21
31.09145041757578
  0
LINE
  5
19E
100
AcDbEntity
  8
Layer_1
  6
ByLayer
 62
    7
370
   -1
100
AcDbLine
 10
61.52026993823637
 20
31.09145041757578
 11
61.58517062367829
 21
31.11048954080091
  0
LINE
  5
19F
100
AcDbEntity
  8
Layer_1
  6
ByLayer
 62
    7
370
   -1
100
AcDbLine
 10
61.58517062367829
 20
31.11048954080091
 11
61.65139890604546
 21
31.12627251552482
  0
LINE
  5
1A0
100
AcDbEntity
  8
Layer_1
  6
ByLayer
 62
    7
370
   -1
100
AcDbLine
 10
61.65139890604546
 20
31.12627251552482
 11
61.71886288509953
 21
31.1387076952771
  0
LINE
  5
1A1
100
AcDbEntity
  8
Layer_1
  6
ByLayer
 62
    7
370
   -1
100
AcDbLine
 10
61.71886288509953
 20
31.1387076952771
 11
61.7874706606022
 21
31.14770343358732
  0
LINE
  5
1A2
100
AcDbEntity
  8
Layer_1
  6
ByLayer
 62
    7
370
   -1
100
AcDbLine
 10
61.7874706606022
 20
31.14770343358732
 11
61.85713033231513
 21
31.1531680839851
  0
LINE
  5
1A3
100
AcDbEntity
  8
Layer_1
  6
ByLayer
 62
    7
370
   -1
100
AcDbLine
 10
61.85713033231513
 20
31.1531680839851
 11
61.92775
 21
31.15501
  0
LINE
  5
1A4
100
AcDbEntity
  8
Layer_1
  6
ByLayer
 62
    7
370
   -1
100
AcDbLine
 10
61.92775
 20
31.15501
 11
61.99836794874292
 21
31.1531680839851
  0
LINE
  5
1A5
100
AcDbEntity
  8
Layer_1
  6
ByLayer
 62
    7
370
   -1
100
AcDbLine
 10
61.99836794874292
 20
31.1531680839851
 11
62.06802613312746
 21
31.14770343358733
  0
LINE
  5
1A6
100
AcDbEntity
  8
Layer_1
  6
ByLayer
 62
    7
370
   -1
100
AcDbLine
 10
62.06802613312746
 20
31.14770343358733
 11
62.13663264103253
 21
31.13870769527709
  0
LINE
  5
1A7
100
AcDbEntity
  8
Layer_1
  6
ByLayer
 62
    7
370
   -1
100
AcDbLine
 10
62.13663264103253
 20
31.13870769527709
 11
62.20409556033701
 21
31.12627251552482
  0
LINE
  5
1A8
100
AcDbEntity
  8
Layer_1
  6
ByLayer
 62
    7
370
   -1
100
AcDbLine
 10
62.20409556033701
 20
31.12627251552482
 11
62.27032297891981
 21
31.11048954080091
  0
LINE
  5
1A9
100
AcDbEntity
  8
Layer_1
  6
ByLayer
 62
    7
370
   -1
100
AcDbLine
 10
62.27032297891981
 20
31.11048954080091
 11
62.3352229846598
 21
31.09145041757579
  0
LINE
  5
1AA
100
AcDbEntity
  8
Layer_1
  6
ByLayer
 62
    7
370
   -1
100
AcDbLine
 10
62.3352229846598
 20
31.09145041757579
 11
62.39870366543587
 21
31.06924679231983
  0
LINE
  5
1AB
100
AcDbEntity
  8
Layer_1
  6
ByLayer
 62
    7
370
   -1
100
AcDbLine
 10
62.39870366543587
 20
31.06924679231983
 11
62.46067310912693
 21
31.04397031150348
  0
LINE
  5
1AC
100
AcDbEntity
  8
Layer_1
  6
ByLayer
 62
    7
370
   -1
100
AcDbLine
 10
62.46067310912693
 20
31.04397031150348
 11
62.52103940361182
 21
31.01571262159713
  0
LINE
  5
1AD
100
AcDbEntity
  8
Layer_1
  6
ByLayer
 62
    7
370
   -1
100
AcDbLine
 10
62.52103940361182
 20
31.01571262159713
 11
62.57971063676949
 21
30.98456536907119
  0
LINE
  5
1AE
100
AcDbEntity
  8
Layer_1
  6
ByLayer
 62
    7
370
   -1
100
AcDbLine
 10
62.57971063676949
 20
30.98456536907119
 11
62.6365948964788
 21
30.9506202003961
  0
LINE
  5
1AF
100
AcDbEntity
  8
Layer_1
  6
ByLayer
 62
    7
370
   -1
100
AcDbLine
 10
62.6365948964788
 20
30.9506202003961
 11
62.69160027061865
 21
30.91396876204222
  0
LINE
  5
1B0
100
AcDbEntity
  8
Layer_1
  6
ByLayer
 62
    7
370
   -1
100
AcDbLine
 10
62.69160027061865
 20
30.91396876204222
 11
62.7446348470679
 21
30.87470270048001
  0
LINE
  5
1B1
100
AcDbEntity
  8
Layer_1
  6
ByLayer
 62
    7
370
   -1
100
AcDbLine
 10
62.7446348470679
 20
30.87470270048001
 11
62.79560671370549
 21
30.83291366217986
  0
LINE
  5
1B2
100
AcDbEntity
  8
Layer_1
  6
ByLayer
 62
    7
370
   -1
100
AcDbLine
 10
62.79560671370549
 20
30.83291366217986
 11
62.84442395841026
 21
30.78869329361217
  0
LINE
  5
1B3
100
AcDbEntity
  8
Layer_1
  6
ByLayer
 62
    7
370
   -1
100
AcDbLine
 10
62.84442395841026
 20
30.78869329361217
 11
62.89099466906112
 21
30.74213324124736
  0
LINE
  5
1B4
100
AcDbEntity
  8
Layer_1
  6
ByLayer
 62
    7
370
   -1
100
AcDbLine
 10
62.89099466906112
 20
30.74213324124736
 11
62.93522693353698
 21
30.69332515155584
  0
LINE
  5
1B5
100
AcDbEntity
  8
Layer_1
  6
ByLayer
 62
    7
370
   -1
100
AcDbLine
 10
62.93522693353698
 20
30.69332515155584
 11
62.9770288397167
 21
30.64236067100803
  0
LINE
  5
1B6
100
AcDbEntity
  8
Layer_1
  6
ByLayer
 62
    7
370
   -1
100
AcDbLine
 10
62.9770288397167
 20
30.64236067100803
 11
63.01630847547918
 21
30.58933144607432
  0
LINE
  5
1B7
100
AcDbEntity
  8
Layer_1
  6
ByLayer
 62
    7
370
   -1
100
AcDbLine
 10
63.01630847547918
 20
30.58933144607432
 11
63.0529739287033
 21
30.53432912322513
  0
LINE
  5
1B8
100
AcDbEntity
  8
Layer_1
  6
ByLayer
 62
    7
370
   -1
100
AcDbLine
 10
63.0529739287033
 20
30.53432912322513
 11
63.08693328726797
 21
30.47744534893089
  0
LINE
  5
1B9
100
AcDbEntity
  8
Layer_1
  6
ByLayer
 62
    7
370
   -1
100
AcDbLine
 10
63.08693328726797
 20
30.47744534893089
 11
63.11809463905206
 21
30.41877176966198
  0
LINE
  5
1BA
100
AcDbEntity
  8
Layer_1
  6
ByLayer
 62
    7
370
   -1
100
AcDbLine
 10
63.11809463905206
 20
30.41877176966198
 11
63.14636607193449
 21
30.35840003188883
  0
LINE
  5
1BB
100
AcDbEntity
  8
Layer_1
  6
ByLayer
 62
    7
370
   -1
100
AcDbLine
 10
63.14636607193449
 20
30.35840003188883
 11
63.17165567379411
 21
30.29642178208184
  0
LINE
  5
1BC
100
AcDbEntity
  8
Layer_1
  6
ByLayer
 62
    7
370
   -1
100
AcDbLine
 10
63.17165567379411
 20
30.29642178208184
 11
63.19387153250982
 21
30.23292866671142
  0
LINE
  5
1BD
100
AcDbEntity
  8
Layer_1
  6
ByLayer
 62
    7
370
   -1
100
AcDbLine
 10
63.19387153250982
 20
30.23292866671142
 11
63.21292173596053
 21
30.16801233224799
  0
LINE
  5
1BE
100
AcDbEntity
  8
Layer_1
  6
ByLayer
 62
    7
370
   -1
100
AcDbLine
 10
63.21292173596053
 20
30.16801233224799
 11
63.22871437202511
 21
30.10176442516197
  0
LINE
  5
1BF
100
AcDbEntity
  8
Layer_1
  6
ByLayer
 62
    7
370
   -1
100
AcDbLine
 10
63.22871437202511
 20
30.10176442516197
 11
63.24115752858246
 21
30.03427659192374
  0
LINE
  5
1C0
100
AcDbEntity
  8
Layer_1
  6
ByLayer
 62
    7
370
   -1
100
AcDbLine
 10
63.24115752858246
 20
30.03427659192374
 11
63.25015929351147
 21
29.96564047900372
  0
LINE
  5
1C1
100
AcDbEntity
  8
Layer_1
  6
ByLayer
 62
    7
370
   -1
100
AcDbLine
 10
63.25015929351147
 20
29.96564047900372
 11
63.25562775469102
 21
29.89594773287234
  0
LINE
  5
1C2
100
AcDbEntity
  8
Layer_1
  6
ByLayer
 62
    7
370
   -1
100
AcDbLine
 10
63.25562775469102
 20
29.89594773287234
 11
63.257471
 21
29.82529
  0
LINE
  5
1C3
100
AcDbEntity
  8
Layer_1
  6
ByLayer
 62
    7
370
   -1
100
AcDbLine
 10
20.00744
 20
65.825277
 11
20.00744
 21
65.825277
  0
LINE
  5
1C4
100
AcDbEntity
  8
Layer_1
  6
ByLayer
 62
    7
370
   -1
100
AcDbLine
 10
109.757314
 20
22.075356
 11
109.755470754691
 21
22.0047371449431
  0
LINE
  5
1C5
100
AcDbEntity
  8
Layer_1
  6
ByLayer
 62
    7
370
   -1
100
AcDbLine
 10
109.755470754691
 20
22.0047371449431
 11
109.7500022935115
 21
21.93507817307241
  0
LINE
  5
1C6
100
AcDbEntity
  8
Layer_1
  6
ByLayer
 62
    7
370
   -1
100
AcDbLine
 10
109.7500022935115
 20
21.93507817307241
 11
109.7410005285824
 21
21.86647099046692
  0
LINE
  5
1C7
100
AcDbEntity
  8
Layer_1
  6
ByLayer
 62
    7
370
   -1
100
AcDbLine
 10
109.7410005285824
 20
21.86647099046692
 11
109.7285573720251
 21
21.79900750320567
  0
LINE
  5
1C8
100
AcDbEntity
  8
Layer_1
  6
ByLayer
 62
    7
370
   -1
100
AcDbLine
 10
109.7285573720251
 20
21.79900750320567
 11
109.7127647359605
 21
21.73277961736766
  0
LINE
  5
1C9
100
AcDbEntity
  8
Layer_1
  6
ByLayer
 62
    7
370
   -1
100
AcDbLine
 10
109.7127647359605
 20
21.73277961736766
 11
109.6937145325098
 21
21.66787923903193
  0
LINE
  5
1CA
100
AcDbEntity
  8
Layer_1
  6
ByLayer
 62
    7
370
   -1
100
AcDbLine
 10
109.6937145325098
 20
21.66787923903193
 11
109.6714986737941
 21
21.60439827427746
  0
LINE
  5
1CB
100
AcDbEntity
  8
Layer_1
  6
ByLayer
 62
    7
370
   -1
100
AcDbLine
 10
109.6714986737941
 20
21.60439827427746
 11
109.6462090719345
 21
21.54242862918331
  0
LINE
  5
1CC
100
AcDbEntity
  8
Layer_1
  6
ByLayer
 62
    7
370
   -1
100
AcDbLine
 10
109.6462090719345
 20
21.54242862918331
 11
109.6179376390521
 21
21.48206220982847
  0
LINE
  5
1CD
100
AcDbEntity
  8
Layer_1
  6
ByLayer
 62
    7
370
   -1
100
AcDbLine
 10
109.6179376390521
 20
21.48206220982847
 11
109.5867762872679
 21
21.42339092229197
  0
LINE
  5
1CE
100
AcDbEntity
  8
Layer_1
  6
ByLayer
 62
    7
370
   -1
100
AcDbLine
 10
109.5867762872679
 20
21.42339092229197
 11
109.5528169287033
 21
21.36650667265281
  0
LINE
  5
1CF
100
AcDbEntity
  8
Layer_1
  6
ByLayer
 62
    7
370
   -1
100
AcDbLine
 10
109.5528169287033
 20
21.36650667265281
 11
109.5161514754792
 21
21.31150136699003
  0
LINE
  5
1D0
100
AcDbEntity
  8
Layer_1
  6
ByLayer
 62
    7
370
   -1
100
AcDbLine
 10
109.5161514754792
 20
21.31150136699003
 11
109.4768718397167
 21
21.25846691138263
  0
LINE
  5
1D1
100
AcDbEntity
  8
Layer_1
  6
ByLayer
 62
    7
370
   -1
100
AcDbLine
 10
109.4768718397167
 20
21.25846691138263
 11
109.435069933537
 21
21.20749521190964
  0
LINE
  5
1D2
100
AcDbEntity
  8
Layer_1
  6
ByLayer
 62
    7
370
   -1
100
AcDbLine
 10
109.435069933537
 20
21.20749521190964
 11
109.3908376690611
 21
21.15867817465006
  0
LINE
  5
1D3
100
AcDbEntity
  8
Layer_1
  6
ByLayer
 62
    7
370
   -1
100
AcDbLine
 10
109.3908376690611
 20
21.15867817465006
 11
109.3442669584102
 21
21.11210770568292
  0
LINE
  5
1D4
100
AcDbEntity
  8
Layer_1
  6
ByLayer
 62
    7
370
   -1
100
AcDbLine
 10
109.3442669584102
 20
21.11210770568292
 11
109.2954497137055
 21
21.06787571108724
  0
LINE
  5
1D5
100
AcDbEntity
  8
Layer_1
  6
ByLayer
 62
    7
370
   -1
100
AcDbLine
 10
109.2954497137055
 20
21.06787571108724
 11
109.2444778470679
 21
21.02607409694203
  0
LINE
  5
1D6
100
AcDbEntity
  8
Layer_1
  6
ByLayer
 62
    7
370
   -1
100
AcDbLine
 10
109.2444778470679
 20
21.02607409694203
 11
109.1914432706186
 21
20.98679476932631
  0
LINE
  5
1D7
100
AcDbEntity
  8
Layer_1
  6
ByLayer
 62
    7
370
   -1
100
AcDbLine
 10
109.1914432706186
 20
20.98679476932631
 11
109.1364378964788
 21
20.95012963431909
  0
LINE
  5
1D8
100
AcDbEntity
  8
Layer_1
  6
ByLayer
 62
    7
370
   -1
100
AcDbLine
 10
109.1364378964788
 20
20.95012963431909
 11
109.0795536367695
 21
20.9161705979994
  0
LINE
  5
1D9
100
AcDbEntity
  8
Layer_1
  6
ByLayer
 62
    7
370
   -1
100
AcDbLine
 10
109.0795536367695
 20
20.9161705979994
 11
109.0208824036118
 21
20.88500956644624
  0
LINE
  5
1DA
100
AcDbEntity
  8
Layer_1
  6
ByLayer
 62
    7
370
   -1
100
AcDbLine
 10
109.0208824036118
 20
20.88500956644624
 11
108.9605161091269
 21
20.85673844573865
  0
LINE
  5
1DB
100
AcDbEntity
  8
Layer_1
  6
ByLayer
 62
    7
370
   -1
100
AcDbLine
 10
108.9605161091269
 20
20.85673844573865
 11
108.8985466654359
 21
20.83144914195562
  0
LINE
  5
1DC
100
AcDbEntity
  8
Layer_1
  6
ByLayer
 62
    7
370
   -1
100
AcDbLine
 10
108.8985466654359
 20
20.83144914195562
 11
108.8350659846598
 21
20.80923356117619
  0
LINE
  5
1DD
100
AcDbEntity
  8
Layer_1
  6
ByLayer
 62
    7
370
   -1
100
AcDbLine
 10
108.8350659846598
 20
20.80923356117619
 11
108.7701659789198
 21
20.79018360947937
  0
LINE
  5
1DE
100
AcDbEntity
  8
Layer_1
  6
ByLayer
 62
    7
370
   -1
100
AcDbLine
 10
108.7701659789198
 20
20.79018360947937
 11
108.703938560337
 21
20.77439119294418
  0
LINE
  5
1DF
100
AcDbEntity
  8
Layer_1
  6
ByLayer
 62
    7
370
   -1
100
AcDbLine
 10
108.703938560337
 20
20.77439119294418
 11
108.6364756410325
 21
20.76194821764962
  0
LINE
  5
1E0
100
AcDbEntity
  8
Layer_1
  6
ByLayer
 62
    7
370
   -1
100
AcDbLine
 10
108.6364756410325
 20
20.76194821764962
 11
108.5678691331275
 21
20.75294658967473
  0
LINE
  5
1E1
100
AcDbEntity
  8
Layer_1
  6
ByLayer
 62
    7
370
   -1
100
AcDbLine
 10
108.5678691331275
 20
20.75294658967473
 11
108.4982109487429
 21
20.74747821509852
  0
LINE
  5
1E2
100
AcDbEntity
  8
Layer_1
  6
ByLayer
 62
    7
370
   -1
100
AcDbLine
 10
108.4982109487429
 20
20.74747821509852
 11
108.427593
 21
20.745635
  0
LINE
  5
1E3
100
AcDbEntity
  8
Layer_1
  6
ByLayer
 62
    7
370
   -1
100
AcDbLine
 10
108.427593
 20
20.745635
 11
108.3569733323151
 21
20.74747821509852
  0
LINE
  5
1E4
100
AcDbEntity
  8
Layer_1
  6
ByLayer
 62
    7
370
   -1
100
AcDbLine
 10
108.3569733323151
 20
20.74747821509852
 11
108.2873136606022
 21
20.75294658967474
  0
LINE
  5
1E5
100
AcDbEntity
  8
Layer_1
  6
ByLayer
 62
    7
370
   -1
100
AcDbLine
 10
108.2873136606022
 20
20.75294658967474
 11
108.2187058850995
 21
20.76194821764963
  0
LINE
  5
1E6
100
AcDbEntity
  8
Layer_1
  6
ByLayer
 62
    7
370
   -1
100
AcDbLine
 10
108.2187058850995
 20
20.76194821764963
 11
108.1512419060455
 21
20.77439119294418
  0
LINE
  5
1E7
100
AcDbEntity
  8
Layer_1
  6
ByLayer
 62
    7
370
   -1
100
AcDbLine
 10
108.1512419060455
 20
20.77439119294418
 11
108.0850136236783
 21
20.79018360947937
  0
LINE
  5
1E8
100
AcDbEntity
  8
Layer_1
  6
ByLayer
 62
    7
370
   -1
100
AcDbLine
 10
108.0850136236783
 20
20.79018360947937
 11
108.0201129382364
 21
20.8092335611762
  0
LINE
  5
1E9
100
AcDbEntity
  8
Layer_1
  6
ByLayer
 62
    7
370
   -1
100
AcDbLine
 10
108.0201129382364
 20
20.8092335611762
 11
107.956631749958
 21
20.83144914195562
  0
LINE
  5
1EA
100
AcDbEntity
  8
Layer_1
  6
ByLayer
 62
    7
370
   -1
100
AcDbLine
 10
107.956631749958
 20
20.83144914195562
 11
107.8946619590816
 21
20.85673844573865
  0
LINE
  5
1EB
100
AcDbEntity
  8
Layer_1
  6
ByLayer
 62
    7
370
   -1
100
AcDbLine
 10
107.8946619590816
 20
20.85673844573865
 11
107.8342954658454
 21
20.88500956644624
  0
LINE
  5
1EC
100
AcDbEntity
  8
Layer_1
  6
ByLayer
 62
    7
370
   -1
100
AcDbLine
 10
107.8342954658454
 20
20.88500956644624
 11
107.7756241704877
 21
20.91617059799939
  0
LINE
  5
1ED
100
AcDbEntity
  8
Layer_1
  6
ByLayer
 62
    7
370
   -1
100
AcDbLine
 10
107.7756241704877
 20
20.91617059799939
 11
107.718739973247
 21
20.95012963431909
  0
LINE
  5
1EE
100
AcDbEntity
  8
Layer_1
  6
ByLayer
 62
    7
370
   -1
100
AcDbLine
 10
107.718739973247
 20
20.95012963431909
 11
107.6637347743614
 21
20.9867947693263
  0
LINE
  5
1EF
100
AcDbEntity
  8
Layer_1
  6
ByLayer
 62
    7
370
   -1
100
AcDbLine
 10
107.6637347743614
 20
20.9867947693263
 11
107.6107004740693
 21
21.02607409694203
  0
LINE
  5
1F0
100
AcDbEntity
  8
Layer_1
  6
ByLayer
 62
    7
370
   -1
100
AcDbLine
 10
107.6107004740693
 20
21.02607409694203
 11
107.5597289726092
 21
21.06787571108724
  0
LINE
  5
1F1
100
AcDbEntity
  8
Layer_1
  6
ByLayer
 62
    7
370
   -1
100
AcDbLine
 10
107.5597289726092
 20
21.06787571108724
 11
107.5109121702192
 21
21.11210770568292
  0
LINE
  5
1F2
100
AcDbEntity
  8
Layer_1
  6
ByLayer
 62
    7
370
   -1
100
AcDbLine
 10
107.5109121702192
 20
21.11210770568292
 11
107.4643419671377
 21
21.15867817465006
  0
LINE
  5
1F3
100
AcDbEntity
  8
Layer_1
  6
ByLayer
 62
    7
370
   -1
100
AcDbLine
 10
107.4643419671377
 20
21.15867817465006
 11
107.4201102636031
 21
21.20749521190964
  0
LINE
  5
1F4
100
AcDbEntity
  8
Layer_1
  6
ByLayer
 62
    7
370
   -1
100
AcDbLine
 10
107.4201102636031
 20
21.20749521190964
 11
107.3783089598537
 21
21.25846691138263
  0
LINE
  5
1F5
100
AcDbEntity
  8
Layer_1
  6
ByLayer
 62
    7
370
   -1
100
AcDbLine
 10
107.3783089598537
 20
21.25846691138263
 11
107.3390299561277
 21
21.31150136699003
  0
LINE
  5
1F6
100
AcDbEntity
  8
Layer_1
  6
ByLayer
 62
    7
370
   -1
100
AcDbLine
 10
107.3390299561277
 20
21.31150136699003
 11
107.3023651526636
 21
21.36650667265281
  0
LINE
  5
1F7
100
AcDbEntity
  8
Layer_1
  6
ByLayer
 62
    7
370
   -1
100
AcDbLine
 10
107.3023651526636
 20
21.36650667265281
 11
107.2684064496996
 21
21.42339092229196
  0
LINE
  5
1F8
100
AcDbEntity
  8
Layer_1
  6
ByLayer
 62
    7
370
   -1
100
AcDbLine
 10
107.2684064496996
 20
21.42339092229196
 11
107.2372457474741
 21
21.48206220982847
  0
LINE
  5
1F9
100
AcDbEntity
  8
Layer_1
  6
ByLayer
 62
    7
370
   -1
100
AcDbLine
 10
107.2372457474741
 20
21.48206220982847
 11
107.2089749462254
 21
21.54242862918331
  0
LINE
  5
1FA
100
AcDbEntity
  8
Layer_1
  6
ByLayer
 62
    7
370
   -1
100
AcDbLine
 10
107.2089749462254
 20
21.54242862918331
 11
107.1836859461918
 21
21.60439827427746
  0
LINE
  5
1FB
100
AcDbEntity
  8
Layer_1
  6
ByLayer
 62
    7
370
   -1
100
AcDbLine
 10
107.1836859461918
 20
21.60439827427746
 11
107.1614706476117
 21
21.66787923903192
  0
LINE
  5
1FC
100
AcDbEntity
  8
Layer_1
  6
ByLayer
 62
    7
370
   -1
100
AcDbLine
 10
107.1614706476117
 20
21.66787923903192
 11
107.1424209507234
 21
21.73277961736766
  0
LINE
  5
1FD
100
AcDbEntity
  8
Layer_1
  6
ByLayer
 62
    7
370
   -1
100
AcDbLine
 10
107.1424209507234
 20
21.73277961736766
 11
107.1266287557652
 21
21.79900750320567
  0
LINE
  5
1FE
100
AcDbEntity
  8
Layer_1
  6
ByLayer
 62
    7
370
   -1
100
AcDbLine
 10
107.1266287557652
 20
21.79900750320567
 11
107.1141859629754
 21
21.86647099046692
  0
LINE
  5
1FF
100
AcDbEntity
  8
Layer_1
  6
ByLayer
 62
    7
370
   -1
100
AcDbLine
 10
107.1141859629754
 20
21.86647099046692
 11
107.1051844725924
 21
21.9350781730724
  0
LINE
  5
200
100
AcDbEntity
  8
Layer_1
  6
ByLayer
 62
    7
370
   -1
100
AcDbLine
 10
107.1051844725924
 20
21.9350781730724
 11
107.0997161848545
 21
22.0047371449431
  0
LINE
  5
201
100
AcDbEntity
  8
Layer_1
  6
ByLayer
 62
    7
370
   -1
100
AcDbLine
 10
107.0997161848545
 20
22.0047371449431
 11
107.097873
 21
22.075356
  0
LINE
  5
202
100
AcDbEntity
  8
Layer_1
  6
ByLayer
 62
    7
370
   -1
100
AcDbLine
 10
107.097873
 20
22.075356
 11
107.0997161848545
 21
22.14601373287235
  0
LINE
  5
203
100
AcDbEntity
  8
Layer_1
  6
ByLayer
 62
    7
370
   -1
100
AcDbLine
 10
107.0997161848545
 20
22.14601373287235
 11
107.1051844725924
 21
22.21570647900373
  0
LINE
  5
204
100
AcDbEntity
  8
Layer_1
  6
ByLayer
 62
    7
370
   -1
100
AcDbLine
 10
107.1051844725924
 20
22.21570647900373
 11
107.1141859629754
 21
22.28434259192374
  0
LINE
  5
205
100
AcDbEntity
  8
Layer_1
  6
ByLayer
 62
    7
370
   -1
100
AcDbLine
 10
107.1141859629754
 20
22.28434259192374
 11
107.1266287557652
 21
22.35183042516196
  0
LINE
  5
206
100
AcDbEntity
  8
Layer_1
  6
ByLayer
 62
    7
370
   -1
100
AcDbLine
 10
107.1266287557652
 20
22.35183042516196
 11
107.1424209507234
 21
22.41807833224799
  0
LINE
  5
207
100
AcDbEntity
  8
Layer_1
  6
ByLayer
 62
    7
370
   -1
100
AcDbLine
 10
107.1424209507234
 20
22.41807833224799
 11
107.1614706476117
 21
22.48299466671142
  0
LINE
  5
208
100
AcDbEntity
  8
Layer_1
  6
ByLayer
 62
    7
370
   -1
100
AcDbLine
 10
107.1614706476117
 20
22.48299466671142
 11
107.1836859461918
 21
22.54648778208184
  0
LINE
  5
209
100
AcDbEntity
  8
Layer_1
  6
ByLayer
 62
    7
370
   -1
100
AcDbLine
 10
107.1836859461918
 20
22.54648778208184
 11
107.2089749462254
 21
22.60846603188883
  0
LINE
  5
20A
100
AcDbEntity
  8
Layer_1
  6
ByLayer
 62
    7
370
   -1
100
AcDbLine
 10
107.2089749462254
 20
22.60846603188883
 11
107.2372457474741
 21
22.66883776966198
  0
LINE
  5
20B
100
AcDbEntity
  8
Layer_1
  6
ByLayer
 62
    7
370
   -1
100
AcDbLine
 10
107.2372457474741
 20
22.66883776966198
 11
107.2684064496996
 21
22.72751134893088
  0
LINE
  5
20C
100
AcDbEntity
  8
Layer_1
  6
ByLayer
 62
    7
370
   -1
100
AcDbLine
 10
107.2684064496996
 20
22.72751134893088
 11
107.3023651526636
 21
22.78439512322513
  0
LINE
  5
20D
100
AcDbEntity
  8
Layer_1
  6
ByLayer
 62
    7
370
   -1
100
AcDbLine
 10
107.3023651526636
 20
22.78439512322513
 11
107.3390299561277
 21
22.83939744607432
  0
LINE
  5
20E
100
AcDbEntity
  8
Layer_1
  6
ByLayer
 62
    7
370
   -1
100
AcDbLine
 10
107.3390299561277
 20
22.83939744607432
 11
107.3783089598536
 21
22.89242667100802
  0
LINE
  5
20F
100
AcDbEntity
  8
Layer_1
  6
ByLayer
 62
    7
370
   -1
100
AcDbLine
 10
107.3783089598536
 20
22.89242667100802
 11
107.4201102636031
 21
22.94339115155584
  0
LINE
  5
210
100
AcDbEntity
  8
Layer_1
  6
ByLayer
 62
    7
370
   -1
100
AcDbLine
 10
107.4201102636031
 20
22.94339115155584
 11
107.4643419671377
 21
22.99219924124736
  0
LINE
  5
211
100
AcDbEntity
  8
Layer_1
  6
ByLayer
 62
    7
370
   -1
100
AcDbLine
 10
107.4643419671377
 20
22.99219924124736
 11
107.5109121702192
 21
23.03875929361216
  0
LINE
  5
212
100
AcDbEntity
  8
Layer_1
  6
ByLayer
 62
    7
370
   -1
100
AcDbLine
 10
107.5109121702192
 20
23.03875929361216
 11
107.5597289726092
 21
23.08297966217986
  0
LINE
  5
213
100
AcDbEntity
  8
Layer_1
  6
ByLayer
 62
    7
370
   -1
100
AcDbLine
 10
107.5597289726092
 20
23.08297966217986
 11
107.6107004740693
 21
23.12476870048001
  0
LINE
  5
214
100
AcDbEntity
  8
Layer_1
  6
ByLayer
 62
    7
370
   -1
100
AcDbLine
 10
107.6107004740693
 20
23.12476870048001
 11
107.6637347743614
 21
23.16403476204223
  0
LINE
  5
215
100
AcDbEntity
  8
Layer_1
  6
ByLayer
 62
    7
370
   -1
100
AcDbLine
 10
107.6637347743614
 20
23.16403476204223
 11
107.718739973247
 21
23.2006862003961
  0
LINE
  5
216
100
AcDbEntity
  8
Layer_1
  6
ByLayer
 62
    7
370
   -1
100
AcDbLine
 10
107.718739973247
 20
23.2006862003961
 11
107.7756241704877
 21
23.2346313690712
  0
LINE
  5
217
100
AcDbEntity
  8
Layer_1
  6
ByLayer
 62
    7
370
   -1
100
AcDbLine
 10
107.7756241704877
 20
23.2346313690712
 11
107.8342954658454
 21
23.26577862159713
  0
LINE
  5
218
100
AcDbEntity
  8
Layer_1
  6
ByLayer
 62
    7
370
   -1
100
AcDbLine
 10
107.8342954658454
 20
23.26577862159713
 11
107.8946619590816
 21
23.29403631150348
  0
LINE
  5
219
100
AcDbEntity
  8
Layer_1
  6
ByLayer
 62
    7
370
   -1
100
AcDbLine
 10
107.8946619590816
 20
23.29403631150348
 11
107.956631749958
 21
23.31931279231983
  0
LINE
  5
21A
100
AcDbEntity
  8
Layer_1
  6
ByLayer
 62
    7
370
   -1
100
AcDbLine
 10
107.956631749958
 20
23.31931279231983
 11
108.0201129382364
 21
23.34151641757578
  0
LINE
  5
21B
100
AcDbEntity
  8
Layer_1
  6
ByLayer
 62
    7
370
   -1
100
AcDbLine
 10
108.0201129382364
 20
23.34151641757578
 11
108.0850136236783
 21
23.36055554080091
  0
LINE
  5
21C
100
AcDbEntity
  8
Layer_1
  6
ByLayer
 62
    7
370
   -1
100
AcDbLine
 10
108.0850136236783
 20
23.36055554080091
 11
108.1512419060455
 21
23.37633851552483
  0
LINE
  5
21D
100
AcDbEntity
  8
Layer_1
  6
ByLayer
 62
    7
370
   -1
100
AcDbLine
 10
108.1512419060455
 20
23.37633851552483
 11
108.2187058850995
 21
23.3887736952771
  0
LINE
  5
21E
100
AcDbEntity
  8
Layer_1
  6
ByLayer
 62
    7
370
   -1
100
AcDbLine
 10
108.2187058850995
 20
23.3887736952771
 11
108.2873136606022
 21
23.39776943358732
  0
LINE
  5
21F
100
AcDbEntity
  8
Layer_1
  6
ByLayer
 62
    7
370
   -1
100
AcDbLine
 10
108.2873136606022
 20
23.39776943358732
 11
108.3569733323151
 21
23.4032340839851
  0
LINE
  5
220
100
AcDbEntity
  8
Layer_1
  6
ByLayer
 62
    7
370
   -1
100
AcDbLine
 10
108.3569733323151
 20
23.4032340839851
 11
108.427593
 21
23.405076
  0
LINE
  5
221
100
AcDbEntity
  8
Layer_1
  6
ByLayer
 62
    7
370
   -1
100
AcDbLine
 10
108.427593
 20
23.405076
 11
108.4982109487429
 21
23.4032340839851
  0
LINE
  5
222
100
AcDbEntity
  8
Layer_1
  6
ByLayer
 62
    7
370
   -1
100
AcDbLine
 10
108.4982109487429
 20
23.4032340839851
 11
108.5678691331275
 21
23.39776943358733
  0
LINE
  5
223
100
AcDbEntity
  8
Layer_1
  6
ByLayer
 62
    7
370
   -1
100
AcDbLine
 10
108.5678691331275
 20
23.39776943358733
 11
108.6364756410325
 21
23.3887736952771
  0
LINE
  5
224
100
AcDbEntity
  8
Layer_1
  6
ByLayer
 62
    7
370
   -1
100
AcDbLine
 10
108.6364756410325
 20
23.3887736952771
 11
108.703938560337
 21
23.37633851552483
  0
LINE
  5
225
100
AcDbEntity
  8
Layer_1
  6
ByLayer
 62
    7
370
   -1
100
AcDbLine
 10
108.703938560337
 20
23.37633851552483
 11
108.7701659789198
 21
23.36055554080091
  0
LINE
  5
226
100
AcDbEntity
  8
Layer_1
  6
ByLayer
 62
    7
370
   -1
100
AcDbLine
 10
108.7701659789198
 20
23.36055554080091
 11
108.8350659846598
 21
23.34151641757578
  0
LINE
  5
227
100
AcDbEntity
  8
Layer_1
  6
ByLayer
 62
    7
370
   -1
100
AcDbLine
 10
108.8350659846598
 20
23.34151641757578
 11
108.8985466654359
 21
23.31931279231983
  0
LINE
  5
228
100
AcDbEntity
  8
Layer_1
  6
ByLayer
 62
    7
370
   -1
100
AcDbLine
 10
108.8985466654359
 20
23.31931279231983
 11
108.9605161091269
 21
23.29403631150347
  0
LINE
  5
229
100
AcDbEntity
  8
Layer_1
  6
ByLayer
 62
    7
370
   -1
100
AcDbLine
 10
108.9605161091269
 20
23.29403631150347
 11
109.0208824036118
 21
23.26577862159713
  0
LINE
  5
22A
100
AcDbEntity
  8
Layer_1
  6
ByLayer
 62
    7
370
   -1
100
AcDbLine
 10
109.0208824036118
 20
23.26577862159713
 11
109.0795536367695
 21
23.23463136907119
  0
LINE
  5
22B
100
AcDbEntity
  8
Layer_1
  6
ByLayer
 62
    7
370
   -1
100
AcDbLine
 10
109.0795536367695
 20
23.23463136907119
 11
109.1364378964788
 21
23.2006862003961
  0
LINE
  5
22C
100
AcDbEntity
  8
Layer_1
  6
ByLayer
 62
    7
370
   -1
100
AcDbLine
 10
109.1364378964788
 20
23.2006862003961
 11
109.1914432706186
 21
23.16403476204223
  0
LINE
  5
22D
100
AcDbEntity
  8
Layer_1
  6
ByLayer
 62
    7
370
   -1
100
AcDbLine
 10
109.1914432706186
 20
23.16403476204223
 11
109.2444778470679
 21
23.12476870048001
  0
LINE
  5
22E
100
AcDbEntity
  8
Layer_1
  6
ByLayer
 62
    7
370
   -1
100
AcDbLine
 10
109.2444778470679
 20
23.12476870048001
 11
109.2954497137055
 21
23.08297966217986
  0
LINE
  5
22F
100
AcDbEntity
  8
Layer_1
  6
ByLayer
 62
    7
370
   -1
100
AcDbLine
 10
109.2954497137055
 20
23.08297966217986
 11
109.3442669584103
 21
23.03875929361217
  0
LINE
  5
230
100
AcDbEntity
  8
Layer_1
  6
ByLayer
 62
    7
370
   -1
100
AcDbLine
 10
109.3442669584103
 20
23.03875929361217
 11
109.3908376690611
 21
22.99219924124736
  0
LINE
  5
231
100
AcDbEntity
  8
Layer_1
  6
ByLayer
 62
    7
370
   -1
100
AcDbLine
 10
109.3908376690611
 20
22.99219924124736
 11
109.435069933537
 21
22.94339115155584
  0
LINE
  5
232
100
AcDbEntity
  8
Layer_1
  6
ByLayer
 62
    7
370
   -1
100
AcDbLine
 10
109.435069933537
 20
22.94339115155584
 11
109.4768718397167
 21
22.89242667100802
  0
LINE
  5
233
100
AcDbEntity
  8
Layer_1
  6
ByLayer
 62
    7
370
   -1
100
AcDbLine
 10
109.4768718397167
 20
22.89242667100802
 11
109.5161514754792
 21
22.83939744607432
  0
LINE
  5
234
100
AcDbEntity
  8
Layer_1
  6
ByLayer
 62
    7
370
   -1
100
AcDbLine
 10
109.5161514754792
 20
22.83939744607432
 11
109.5528169287033
 21
22.78439512322513
  0
LINE
  5
235
100
AcDbEntity
  8
Layer_1
  6
ByLayer
 62
    7
370
   -1
100
AcDbLine
 10
109.5528169287033
 20
22.78439512322513
 11
109.586776287268
 21
22.72751134893089
  0
LINE
  5
236
100
AcDbEntity
  8
Layer_1
  6
ByLayer
 62
    7
370
   -1
100
AcDbLine
 10
109.586776287268
 20
22.72751134893089
 11
109.6179376390521
 21
22.66883776966198
  0
LINE
  5
237
100
AcDbEntity
  8
Layer_1
  6
ByLayer
 62
    7
370
   -1
100
AcDbLine
 10
109.6179376390521
 20
22.66883776966198
 11
109.6462090719345
 21
22.60846603188882
  0
LINE
  5
238
100
AcDbEntity
  8
Layer_1
  6
ByLayer
 62
    7
370
   -1
100
AcDbLine
 10
109.6462090719345
 20
22.60846603188882
 11
109.6714986737941
 21
22.54648778208184
  0
LINE
  5
239
100
AcDbEntity
  8
Layer_1
  6
ByLayer
 62
    7
370
   -1
100
AcDbLine
 10
109.6714986737941
 20
22.54648778208184
 11
109.6937145325098
 21
22.48299466671142
  0
LINE
  5
23A
100
AcDbEntity
  8
Layer_1
  6
ByLayer
 62
    7
370
   -1
100
AcDbLine
 10
109.6937145325098
 20
22.48299466671142
 11
109.7127647359605
 21
22.41807833224799
  0
LINE
  5
23B
100
AcDbEntity
  8
Layer_1
  6
ByLayer
 62
    7
370
   -1
100
AcDbLine
 10
109.7127647359605
 20
22.41807833224799
 11
109.7285573720251
 21
22.35183042516196
  0
LINE
  5
23C
100
AcDbEntity
  8
Layer_1
  6
ByLayer
 62
    7
370
   -1
100
AcDbLine
 10
109.7285573720251
 20
22.35183042516196
 11
109.7410005285824
 21
22.28434259192374
  0
LINE
  5
23D
100
AcDbEntity
  8
Layer_1
  6
ByLayer
 62
    7
370
   -1
100
AcDbLine
 10
109.7410005285824
 20
22.28434259192374
 11
109.7500022935114
 21
22.21570647900373
  0
LINE
  5
23E
100
AcDbEntity
  8
Layer_1
  6
ByLayer
 62
    7
370
   -1
100
AcDbLine
 10
109.7500022935114
 20
22.21570647900373
 11
109.755470754691
 21
22.14601373287234
  0
LINE
  5
23F
100
AcDbEntity
  8
Layer_1
  6
ByLayer
 62
    7
370
   -1
100
AcDbLine
 10
109.755470754691
 20
22.14601373287234
 11
109.757314
 21
22.075356
  0
LINE
  5
240
100
AcDbEntity
  8
Layer_1
  6
ByLayer
 62
    7
370
   -1
100
AcDbLine
 10
63.257471
 20
29.82529
 11
63.257471
 21
29.82529
  0
LINE
  5
241
100
AcDbEntity
  8
Layer_1
  6
ByLayer
 62
    7
370
   -1
100
AcDbLine
 10
96.007267
 20
69.575349
 11
96.00542375469102
 21
69.50473023557451
  0
LINE
  5
242
100
AcDbEntity
  8
Layer_1
  6
ByLayer
 62
    7
370
   -1
100
AcDbLine
 10
96.00542375469102
 20
69.50473023557451
 11
95.99995529351149
 21
69.43507134245242
  0
LINE
  5
243
100
AcDbEntity
  8
Layer_1
  6
ByLayer
 62
    7
370
   -1
100
AcDbLine
 10
95.99995529351149
 20
69.43507134245242
 11
95.99095352858245
 21
69.36646422731698
  0
LINE
  5
244
100
AcDbEntity
  8
Layer_1
  6
ByLayer
 62
    7
370
   -1
100
AcDbLine
 10
95.99095352858245
 20
69.36646422731698
 11
95.97851037202511
 21
69.2990007968514
  0
LINE
  5
245
100
AcDbEntity
  8
Layer_1
  6
ByLayer
 62
    7
370
   -1
100
AcDbLine
 10
95.97851037202511
 20
69.2990007968514
 11
95.96271773596052
 21
69.2327729577389
  0
LINE
  5
246
100
AcDbEntity
  8
Layer_1
  6
ByLayer
 62
    7
370
   -1
100
AcDbLine
 10
95.96271773596052
 20
69.2327729577389
 11
95.94366753250983
 21
69.16787261666276
  0
LINE
  5
247
100
AcDbEntity
  8
Layer_1
  6
ByLayer
 62
    7
370
   -1
100
AcDbLine
 10
95.94366753250983
 20
69.16787261666276
 11
95.9214516737941
 21
69.10439168030612
  0
LINE
  5
248
100
AcDbEntity
  8
Layer_1
  6
ByLayer
 62
    7
370
   -1
100
AcDbLine
 10
95.9214516737941
 20
69.10439168030612
 11
95.89616207193447
 21
69.04242205535229
  0
LINE
  5
249
100
AcDbEntity
  8
Layer_1
  6
ByLayer
 62
    7
370
   -1
100
AcDbLine
 10
95.89616207193447
 20
69.04242205535229
 11
95.86789063905205
 21
68.98205564848443
  0
LINE
  5
24A
100
AcDbEntity
  8
Layer_1
  6
ByLayer
 62
    7
370
   -1
100
AcDbLine
 10
95.86789063905205
 20
68.98205564848443
 11
95.83672928726796
 21
68.92338436638582
  0
LINE
  5
24B
100
AcDbEntity
  8
Layer_1
  6
ByLayer
 62
    7
370
   -1
100
AcDbLine
 10
95.83672928726796
 20
68.92338436638582
 11
95.8027699287033
 21
68.86650011573965
  0
LINE
  5
24C
100
AcDbEntity
  8
Layer_1
  6
ByLayer
 62
    7
370
   -1
100
AcDbLine
 10
95.8027699287033
 20
68.86650011573965
 11
95.76610447547917
 21
68.81149480322917
  0
LINE
  5
24D
100
AcDbEntity
  8
Layer_1
  6
ByLayer
 62
    7
370
   -1
100
AcDbLine
 10
95.76610447547917
 20
68.81149480322917
 11
95.7268248397167
 21
68.75846033553758
  0
LINE
  5
24E
100
AcDbEntity
  8
Layer_1
  6
ByLayer
 62
    7
370
   -1
100
AcDbLine
 10
95.7268248397167
 20
68.75846033553758
 11
95.68502293353697
 21
68.70748861934813
  0
LINE
  5
24F
100
AcDbEntity
  8
Layer_1
  6
ByLayer
 62
    7
370
   -1
100
AcDbLine
 10
95.68502293353697
 20
68.70748861934813
 11
95.64079066906113
 21
68.65867156134404
  0
LINE
  5
250
100
AcDbEntity
  8
Layer_1
  6
ByLayer
 62
    7
370
   -1
100
AcDbLine
 10
95.64079066906113
 20
68.65867156134404
 11
95.59421995841025
 21
68.61210106820852
  0
LINE
  5
251
100
AcDbEntity
  8
Layer_1
  6
ByLayer
 62
    7
370
   -1
100
AcDbLine
 10
95.59421995841025
 20
68.61210106820852
 11
95.54540271370549
 21
68.56786904662482
  0
LINE
  5
252
100
AcDbEntity
  8
Layer_1
  6
ByLayer
 62
    7
370
   -1
100
AcDbLine
 10
95.54540271370549
 20
68.56786904662482
 11
95.49443084706792
 21
68.52606740327616
  0
LINE
  5
253
100
AcDbEntity
  8
Layer_1
  6
ByLayer
 62
    7
370
   -1
100
AcDbLine
 10
95.49443084706792
 20
68.52606740327616
 11
95.44139627061864
 21
68.48678804484577
  0
LINE
  5
254
100
AcDbEntity
  8
Layer_1
  6
ByLayer
 62
    7
370
   -1
100
AcDbLine
 10
95.44139627061864
 20
68.48678804484577
 11
95.38639089647879
 21
68.45012287801684
  0
LINE
  5
255
100
AcDbEntity
  8
Layer_1
  6
ByLayer
 62
    7
370
   -1
100
AcDbLine
 10
95.38639089647879
 20
68.45012287801684
 11
95.32950663676951
 21
68.41616380947266
  0
LINE
  5
256
100
AcDbEntity
  8
Layer_1
  6
ByLayer
 62
    7
370
   -1
100
AcDbLine
 10
95.32950663676951
 20
68.41616380947266
 11
95.27083540361184
 21
68.38500274589641
  0
LINE
  5
257
100
AcDbEntity
  8
Layer_1
  6
ByLayer
 62
    7
370
   -1
100
AcDbLine
 10
95.27083540361184
 20
68.38500274589641
 11
95.21046910912692
 21
68.35673159397133
  0
LINE
  5
258
100
AcDbEntity
  8
Layer_1
  6
ByLayer
 62
    7
370
   -1
100
AcDbLine
 10
95.21046910912692
 20
68.35673159397133
 11
95.14849966543588
 21
68.33144226038065
  0
LINE
  5
259
100
AcDbEntity
  8
Layer_1
  6
ByLayer
 62
    7
370
   -1
100
AcDbLine
 10
95.14849966543588
 20
68.33144226038065
 11
95.0850189846598
 21
68.30922665180759
  0
LINE
  5
25A
100
AcDbEntity
  8
Layer_1
  6
ByLayer
 62
    7
370
   -1
100
AcDbLine
 10
95.0850189846598
 20
68.30922665180759
 11
95.02011897891981
 21
68.29017667493538
  0
LINE
  5
25B
100
AcDbEntity
  8
Layer_1
  6
ByLayer
 62
    7
370
   -1
100
AcDbLine
 10
95.02011897891981
 20
68.29017667493538
 11
94.95389156033703
 21
68.27438423644725
  0
LINE
  5
25C
100
AcDbEntity
  8
Layer_1
  6
ByLayer
 62
    7
370
   -1
100
AcDbLine
 10
94.95389156033703
 20
68.27438423644725
 11
94.88642864103252
 21
68.26194124302641
  0
LINE
  5
25D
100
AcDbEntity
  8
Layer_1
  6
ByLayer
 62
    7
370
   -1
100
AcDbLine
 10
94.88642864103252
 20
68.26194124302641
 11
94.81782213312746
 21
68.2529396013561
  0
LINE
  5
25E
100
AcDbEntity
  8
Layer_1
  6
ByLayer
 62
    7
370
   -1
100
AcDbLine
 10
94.81782213312746
 20
68.2529396013561
 11
94.74816394874291
 21
68.24747121811956
  0
LINE
  5
25F
100
AcDbEntity
  8
Layer_1
  6
ByLayer
 62
    7
370
   -1
100
AcDbLine
 10
94.74816394874291
 20
68.24747121811956
 11
94.67754600000001
 21
68.245628
  0
LINE
  5
260
100
AcDbEntity
  8
Layer_1
  6
ByLayer
 62
    7
370
   -1
100
AcDbLine
 10
94.67754600000001
 20
68.245628
 11
94.60692633231514
 21
68.24747121811956
  0
LINE
  5
261
100
AcDbEntity
  8
Layer_1
  6
ByLayer
 62
    7
370
   -1
100
AcDbLine
 10
94.60692633231514
 20
68.24747121811956
 11
94.53726666060221
 21
68.25293960135613
  0
LINE
  5
262
100
AcDbEntity
  8
Layer_1
  6
ByLayer
 62
    7
370
   -1
100
AcDbLine
 10
94.53726666060221
 20
68.25293960135613
 11
94.46865888509954
 21
68.26194124302641
  0
LINE
  5
263
100
AcDbEntity
  8
Layer_1
  6
ByLayer
 62
    7
370
   -1
100
AcDbLine
 10
94.46865888509954
 20
68.26194124302641
 11
94.40119490604546
 21
68.27438423644725
  0
LINE
  5
264
100
AcDbEntity
  8
Layer_1
  6
ByLayer
 62
    7
370
   -1
100
AcDbLine
 10
94.40119490604546
 20
68.27438423644725
 11
94.33496662367831
 21
68.29017667493537
  0
LINE
  5
265
100
AcDbEntity
  8
Layer_1
  6
ByLayer
 62
    7
370
   -1
100
AcDbLine
 10
94.33496662367831
 20
68.29017667493537
 11
94.27006593823639
 21
68.30922665180761
  0
LINE
  5
266
100
AcDbEntity
  8
Layer_1
  6
ByLayer
 62
    7
370
   -1
100
AcDbLine
 10
94.27006593823639
 20
68.30922665180761
 11
94.20658474995804
 21
68.33144226038065
  0
LINE
  5
267
100
AcDbEntity
  8
Layer_1
  6
ByLayer
 62
    7
370
   -1
100
AcDbLine
 10
94.20658474995804
 20
68.33144226038065
 11
94.14461495908161
 21
68.35673159397135
  0
LINE
  5
268
100
AcDbEntity
  8
Layer_1
  6
ByLayer
 62
    7
370
   -1
100
AcDbLine
 10
94.14461495908161
 20
68.35673159397135
 11
94.08424846584538
 21
68.38500274589641
  0
LINE
  5
269
100
AcDbEntity
  8
Layer_1
  6
ByLayer
 62
    7
370
   -1
100
AcDbLine
 10
94.08424846584538
 20
68.38500274589641
 11
94.02557717048771
 21
68.41616380947265
  0
LINE
  5
26A
100
AcDbEntity
  8
Layer_1
  6
ByLayer
 62
    7
370
   -1
100
AcDbLine
 10
94.02557717048771
 20
68.41616380947265
 11
93.96869297324696
 21
68.45012287801684
  0
LINE
  5
26B
100
AcDbEntity
  8
Layer_1
  6
ByLayer
 62
    7
370
   -1
100
AcDbLine
 10
93.96869297324696
 20
68.45012287801684
 11
93.91368777436138
 21
68.48678804484577
  0
LINE
  5
26C
100
AcDbEntity
  8
Layer_1
  6
ByLayer
 62
    7
370
   -1
100
AcDbLine
 10
93.91368777436138
 20
68.48678804484577
 11
93.86065347406935
 21
68.52606740327616
  0
LINE
  5
26D
100
AcDbEntity
  8
Layer_1
  6
ByLayer
 62
    7
370
   -1
100
AcDbLine
 10
93.86065347406935
 20
68.52606740327616
 11
93.80968197260917
 21
68.56786904662482
  0
LINE
  5
26E
100
AcDbEntity
  8
Layer_1
  6
ByLayer
 62
    7
370
   -1
100
AcDbLine
 10
93.80968197260917
 20
68.56786904662482
 11
93.7608651702192
 21
68.61210106820852
  0
LINE
  5
26F
100
AcDbEntity
  8
Layer_1
  6
ByLayer
 62
    7
370
   -1
100
AcDbLine
 10
93.7608651702192
 20
68.61210106820852
 11
93.71429496713773
 21
68.65867156134404
  0
LINE
  5
270
100
AcDbEntity
  8
Layer_1
  6
ByLayer
 62
    7
370
   -1
100
AcDbLine
 10
93.71429496713773
 20
68.65867156134404
 11
93.67006326360311
 21
68.70748861934813
  0
LINE
  5
271
100
AcDbEntity
  8
Layer_1
  6
ByLayer
 62
    7
370
   -1
100
AcDbLine
 10
93.67006326360311
 20
68.70748861934813
 11
93.62826195985365
 21
68.75846033553758
  0
LINE
  5
272
100
AcDbEntity
  8
Layer_1
  6
ByLayer
 62
    7
370
   -1
100
AcDbLine
 10
93.62826195985365
 20
68.75846033553758
 11
93.58898295612769
 21
68.81149480322917
  0
LINE
  5
273
100
AcDbEntity
  8
Layer_1
  6
ByLayer
 62
    7
370
   -1
100
AcDbLine
 10
93.58898295612769
 20
68.81149480322917
 11
93.55231815266356
 21
68.86650011573965
  0
LINE
  5
274
100
AcDbEntity
  8
Layer_1
  6
ByLayer
 62
    7
370
   -1
100
AcDbLine
 10
93.55231815266356
 20
68.86650011573965
 11
93.51835944969957
 21
68.92338436638583
  0
LINE
  5
275
100
AcDbEntity
  8
Layer_1
  6
ByLayer
 62
    7
370
   -1
100
AcDbLine
 10
93.51835944969957
 20
68.92338436638583
 11
93.48719874747407
 21
68.98205564848445
  0
LINE
  5
276
100
AcDbEntity
  8
Layer_1
  6
ByLayer
 62
    7
370
   -1
100
AcDbLine
 10
93.48719874747407
 20
68.98205564848445
 11
93.45892794622537
 21
69.04242205535229
  0
LINE
  5
277
100
AcDbEntity
  8
Layer_1
  6
ByLayer
 62
    7
370
   -1
100
AcDbLine
 10
93.45892794622537
 20
69.04242205535229
 11
93.43363894619181
 21
69.10439168030614
  0
LINE
  5
278
100
AcDbEntity
  8
Layer_1
  6
ByLayer
 62
    7
370
   -1
100
AcDbLine
 10
93.43363894619181
 20
69.10439168030614
 11
93.41142364761168
 21
69.16787261666275
  0
LINE
  5
279
100
AcDbEntity
  8
Layer_1
  6
ByLayer
 62
    7
370
   -1
100
AcDbLine
 10
93.41142364761168
 20
69.16787261666275
 11
93.39237395072337
 21
69.23277295773892
  0
LINE
  5
27A
100
AcDbEntity
  8
Layer_1
  6
ByLayer
 62
    7
370
   -1
100
AcDbLine
 10
93.39237395072337
 20
69.23277295773892
 11
93.37658175576516
 21
69.2990007968514
  0
LINE
  5
27B
100
AcDbEntity
  8
Layer_1
  6
ByLayer
 62
    7
370
   -1
100
AcDbLine
 10
93.37658175576516
 20
69.2990007968514
 11
93.36413896297539
 21
69.36646422731698
  0
LINE
  5
27C
100
AcDbEntity
  8
Layer_1
  6
ByLayer
 62
    7
370
   -1
100
AcDbLine
 10
93.36413896297539
 20
69.36646422731698
 11
93.35513747259239
 21
69.43507134245242
  0
LINE
  5
27D
100
AcDbEntity
  8
Layer_1
  6
ByLayer
 62
    7
370
   -1
100
AcDbLine
 10
93.35513747259239
 20
69.43507134245242
 11
93.34966918485448
 21
69.5047302355745
  0
LINE
  5
27E
100
AcDbEntity
  8
Layer_1
  6
ByLayer
 62
    7
370
   -1
100
AcDbLine
 10
93.34966918485448
 20
69.5047302355745
 11
93.347826
 21
69.575349
  0
LINE
  5
27F
100
AcDbEntity
  8
Layer_1
  6
ByLayer
 62
    7
370
   -1
100
AcDbLine
 10
93.347826
 20
69.575349
 11
93.34966918485451
 21
69.64600673592697
  0
LINE
  5
280
100
AcDbEntity
  8
Layer_1
  6
ByLayer
 62
    7
370
   -1
100
AcDbLine
 10
93.34966918485451
 20
69.64600673592697
 11
93.3551374725924
 21
69.71569949095365
  0
LINE
  5
281
100
AcDbEntity
  8
Layer_1
  6
ByLayer
 62
    7
370
   -1
100
AcDbLine
 10
93.3551374725924
 20
69.71569949095365
 11
93.3641389629754
 21
69.78433561820685
  0
LINE
  5
282
100
AcDbEntity
  8
Layer_1
  6
ByLayer
 62
    7
370
   -1
100
AcDbLine
 10
93.3641389629754
 20
69.78433561820685
 11
93.37658175576516
 21
69.85182347081333
  0
LINE
  5
283
100
AcDbEntity
  8
Layer_1
  6
ByLayer
 62
    7
370
   -1
100
AcDbLine
 10
93.37658175576516
 20
69.85182347081333
 11
93.39237395072338
 21
69.91807140189989
  0
LINE
  5
284
100
AcDbEntity
  8
Layer_1
  6
ByLayer
 62
    7
370
   -1
100
AcDbLine
 10
93.39237395072338
 20
69.91807140189989
 11
93.4114236476117
 21
69.98298776459335
  0
LINE
  5
285
100
AcDbEntity
  8
Layer_1
  6
ByLayer
 62
    7
370
   -1
100
AcDbLine
 10
93.4114236476117
 20
69.98298776459335
 11
93.43363894619181
 21
70.04648091202041
  0
LINE
  5
286
100
AcDbEntity
  8
Layer_1
  6
ByLayer
 62
    7
370
   -1
100
AcDbLine
 10
93.43363894619181
 20
70.04648091202041
 11
93.45892794622537
 21
70.10845919730791
  0
LINE
  5
287
100
AcDbEntity
  8
Layer_1
  6
ByLayer
 62
    7
370
   -1
100
AcDbLine
 10
93.45892794622537
 20
70.10845919730791
 11
93.48719874747407
 21
70.16883097358262
  0
LINE
  5
288
100
AcDbEntity
  8
Layer_1
  6
ByLayer
 62
    7
370
   -1
100
AcDbLine
 10
93.48719874747407
 20
70.16883097358262
 11
93.51835944969956
 21
70.22750459397132
  0
LINE
  5
289
100
AcDbEntity
  8
Layer_1
  6
ByLayer
 62
    7
370
   -1
100
AcDbLine
 10
93.51835944969956
 20
70.22750459397132
 11
93.55231815266356
 21
70.28438841160082
  0
LINE
  5
28A
100
AcDbEntity
  8
Layer_1
  6
ByLayer
 62
    7
370
   -1
100
AcDbLine
 10
93.55231815266356
 20
70.28438841160082
 11
93.58898295612769
 21
70.33939077959786
  0
LINE
  5
28B
100
AcDbEntity
  8
Layer_1
  6
ByLayer
 62
    7
370
   -1
100
AcDbLine
 10
93.58898295612769
 20
70.33939077959786
 11
93.62826195985365
 21
70.39242005108925
  0
LINE
  5
28C
100
AcDbEntity
  8
Layer_1
  6
ByLayer
 62
    7
370
   -1
100
AcDbLine
 10
93.62826195985365
 20
70.39242005108925
 11
93.67006326360311
 21
70.44338457920176
  0
LINE
  5
28D
100
AcDbEntity
  8
Layer_1
  6
ByLayer
 62
    7
370
   -1
100
AcDbLine
 10
93.67006326360311
 20
70.44338457920176
 11
93.71429496713772
 21
70.4921927170622
  0
LINE
  5
28E
100
AcDbEntity
  8
Layer_1
  6
ByLayer
 62
    7
370
   -1
100
AcDbLine
 10
93.71429496713772
 20
70.4921927170622
 11
93.76086517021919
 21
70.53875281779732
  0
LINE
  5
28F
100
AcDbEntity
  8
Layer_1
  6
ByLayer
 62
    7
370
   -1
100
AcDbLine
 10
93.76086517021919
 20
70.53875281779732
 11
93.80968197260917
 21
70.58297323453391
  0
LINE
  5
290
100
AcDbEntity
  8
Layer_1
  6
ByLayer
 62
    7
370
   -1
100
AcDbLine
 10
93.80968197260917
 20
70.58297323453391
 11
93.86065347406935
 21
70.62476232039877
  0
LINE
  5
291
100
AcDbEntity
  8
Layer_1
  6
ByLayer
 62
    7
370
   -1
100
AcDbLine
 10
93.86065347406935
 20
70.62476232039877
 11
93.91368777436139
 21
70.66402842851866
  0
LINE
  5
292
100
AcDbEntity
  8
Layer_1
  6
ByLayer
 62
    7
370
   -1
100
AcDbLine
 10
93.91368777436139
 20
70.66402842851866
 11
93.96869297324696
 21
70.70067991202041
  0
LINE
  5
293
100
AcDbEntity
  8
Layer_1
  6
ByLayer
 62
    7
370
   -1
100
AcDbLine
 10
93.96869297324696
 20
70.70067991202041
 11
94.02557717048774
 21
70.73462512403076
  0
LINE
  5
294
100
AcDbEntity
  8
Layer_1
  6
ByLayer
 62
    7
370
   -1
100
AcDbLine
 10
94.02557717048774
 20
70.73462512403076
 11
94.08424846584541
 21
70.76577241767647
  0
LINE
  5
295
100
AcDbEntity
  8
Layer_1
  6
ByLayer
 62
    7
370
   -1
100
AcDbLine
 10
94.08424846584541
 20
70.76577241767647
 11
94.14461495908161
 21
70.79403014608438
  0
LINE
  5
296
100
AcDbEntity
  8
Layer_1
  6
ByLayer
 62
    7
370
   -1
100
AcDbLine
 10
94.14461495908161
 20
70.79403014608438
 11
94.20658474995804
 21
70.81930666238125
  0
LINE
  5
297
100
AcDbEntity
  8
Layer_1
  6
ByLayer
 62
    7
370
   -1
100
AcDbLine
 10
94.20658474995804
 20
70.81930666238125
 11
94.27006593823639
 21
70.84151031969387
  0
LINE
  5
298
100
AcDbEntity
  8
Layer_1
  6
ByLayer
 62
    7
370
   -1
100
AcDbLine
 10
94.27006593823639
 20
70.84151031969387
 11
94.3349666236783
 21
70.860549471149
  0
LINE
  5
299
100
AcDbEntity
  8
Layer_1
  6
ByLayer
 62
    7
370
   -1
100
AcDbLine
 10
94.3349666236783
 20
70.860549471149
 11
94.40119490604546
 21
70.87633246987345
  0
LINE
  5
29A
100
AcDbEntity
  8
Layer_1
  6
ByLayer
 62
    7
370
   -1
100
AcDbLine
 10
94.40119490604546
 20
70.87633246987345
 11
94.46865888509953
 21
70.88876766899398
  0
LINE
  5
29B
100
AcDbEntity
  8
Layer_1
  6
ByLayer
 62
    7
370
   -1
100
AcDbLine
 10
94.46865888509953
 20
70.88876766899398
 11
94.5372666606022
 21
70.89776342163739
  0
LINE
  5
29C
100
AcDbEntity
  8
Layer_1
  6
ByLayer
 62
    7
370
   -1
100
AcDbLine
 10
94.5372666606022
 20
70.89776342163739
 11
94.60692633231513
 21
70.90322808093048
  0
LINE
  5
29D
100
AcDbEntity
  8
Layer_1
  6
ByLayer
 62
    7
370
   -1
100
AcDbLine
 10
94.60692633231513
 20
70.90322808093048
 11
94.67754600000001
 21
70.90506999999999
  0
LINE
  5
29E
100
AcDbEntity
  8
Layer_1
  6
ByLayer
 62
    7
370
   -1
100
AcDbLine
 10
94.67754600000001
 20
70.90506999999999
 11
94.74816394874294
 21
70.90322808093048
  0
LINE
  5
29F
100
AcDbEntity
  8
Layer_1
  6
ByLayer
 62
    7
370
   -1
100
AcDbLine
 10
94.74816394874294
 20
70.90322808093048
 11
94.81782213312746
 21
70.89776342163742
  0
LINE
  5
2A0
100
AcDbEntity
  8
Layer_1
  6
ByLayer
 62
    7
370
   -1
100
AcDbLine
 10
94.81782213312746
 20
70.89776342163742
 11
94.88642864103254
 21
70.88876766899399
  0
LINE
  5
2A1
100
AcDbEntity
  8
Layer_1
  6
ByLayer
 62
    7
370
   -1
100
AcDbLine
 10
94.88642864103254
 20
70.88876766899399
 11
94.95389156033703
 21
70.87633246987345
  0
LINE
  5
2A2
100
AcDbEntity
  8
Layer_1
  6
ByLayer
 62
    7
370
   -1
100
AcDbLine
 10
94.95389156033703
 20
70.87633246987345
 11
95.02011897891981
 21
70.860549471149
  0
LINE
  5
2A3
100
AcDbEntity
  8
Layer_1
  6
ByLayer
 62
    7
370
   -1
100
AcDbLine
 10
95.02011897891981
 20
70.860549471149
 11
95.08501898465981
 21
70.84151031969387
  0
LINE
  5
2A4
100
AcDbEntity
  8
Layer_1
  6
ByLayer
 62
    7
370
   -1
100
AcDbLine
 10
95.08501898465981
 20
70.84151031969387
 11
95.14849966543586
 21
70.81930666238125
  0
LINE
  5
2A5
100
AcDbEntity
  8
Layer_1
  6
ByLayer
 62
    7
370
   -1
100
AcDbLine
 10
95.14849966543586
 20
70.81930666238125
 11
95.21046910912692
 21
70.7940301460844
  0
LINE
  5
2A6
100
AcDbEntity
  8
Layer_1
  6
ByLayer
 62
    7
370
   -1
100
AcDbLine
 10
95.21046910912692
 20
70.7940301460844
 11
95.27083540361183
 21
70.76577241767646
  0
LINE
  5
2A7
100
AcDbEntity
  8
Layer_1
  6
ByLayer
 62
    7
370
   -1
100
AcDbLine
 10
95.27083540361183
 20
70.76577241767646
 11
95.32950663676948
 21
70.73462512403073
  0
LINE
  5
2A8
100
AcDbEntity
  8
Layer_1
  6
ByLayer
 62
    7
370
   -1
100
AcDbLine
 10
95.32950663676948
 20
70.73462512403073
 11
95.3863908964788
 21
70.70067991202041
  0
LINE
  5
2A9
100
AcDbEntity
  8
Layer_1
  6
ByLayer
 62
    7
370
   -1
100
AcDbLine
 10
95.3863908964788
 20
70.70067991202041
 11
95.44139627061864
 21
70.66402842851868
  0
LINE
  5
2AA
100
AcDbEntity
  8
Layer_1
  6
ByLayer
 62
    7
370
   -1
100
AcDbLine
 10
95.44139627061864
 20
70.66402842851868
 11
95.49443084706792
 21
70.62476232039877
  0
LINE
  5
2AB
100
AcDbEntity
  8
Layer_1
  6
ByLayer
 62
    7
370
   -1
100
AcDbLine
 10
95.49443084706792
 20
70.62476232039877
 11
95.54540271370547
 21
70.58297323453391
  0
LINE
  5
2AC
100
AcDbEntity
  8
Layer_1
  6
ByLayer
 62
    7
370
   -1
100
AcDbLine
 10
95.54540271370547
 20
70.58297323453391
 11
95.59421995841026
 21
70.53875281779732
  0
LINE
  5
2AD
100
AcDbEntity
  8
Layer_1
  6
ByLayer
 62
    7
370
   -1
100
AcDbLine
 10
95.59421995841026
 20
70.53875281779732
 11
95.64079066906112
 21
70.4921927170622
  0
LINE
  5
2AE
100
AcDbEntity
  8
Layer_1
  6
ByLayer
 62
    7
370
   -1
100
AcDbLine
 10
95.64079066906112
 20
70.4921927170622
 11
95.68502293353697
 21
70.44338457920176
  0
LINE
  5
2AF
100
AcDbEntity
  8
Layer_1
  6
ByLayer
 62
    7
370
   -1
100
AcDbLine
 10
95.68502293353697
 20
70.44338457920176
 11
95.7268248397167
 21
70.39242005108926
  0
LINE
  5
2B0
100
AcDbEntity
  8
Layer_1
  6
ByLayer
 62
    7
370
   -1
100
AcDbLine
 10
95.7268248397167
 20
70.39242005108926
 11
95.76610447547918
 21
70.33939077959786
  0
LINE
  5
2B1
100
AcDbEntity
  8
Layer_1
  6
ByLayer
 62
    7
370
   -1
100
AcDbLine
 10
95.76610447547918
 20
70.33939077959786
 11
95.8027699287033
 21
70.28438841160082
  0
LINE
  5
2B2
100
AcDbEntity
  8
Layer_1
  6
ByLayer
 62
    7
370
   -1
100
AcDbLine
 10
95.8027699287033
 20
70.28438841160082
 11
95.83672928726797
 21
70.22750459397133
  0
LINE
  5
2B3
100
AcDbEntity
  8
Layer_1
  6
ByLayer
 62
    7
370
   -1
100
AcDbLine
 10
95.83672928726797
 20
70.22750459397133
 11
95.86789063905206
 21
70.16883097358263
  0
LINE
  5
2B4
100
AcDbEntity
  8
Layer_1
  6
ByLayer
 62
    7
370
   -1
100
AcDbLine
 10
95.86789063905206
 20
70.16883097358263
 11
95.89616207193447
 21
70.10845919730792
  0
LINE
  5
2B5
100
AcDbEntity
  8
Layer_1
  6
ByLayer
 62
    7
370
   -1
100
AcDbLine
 10
95.89616207193447
 20
70.10845919730792
 11
95.92145167379411
 21
70.04648091202041
  0
LINE
  5
2B6
100
AcDbEntity
  8
Layer_1
  6
ByLayer
 62
    7
370
   -1
100
AcDbLine
 10
95.92145167379411
 20
70.04648091202041
 11
95.94366753250981
 21
69.98298776459333
  0
LINE
  5
2B7
100
AcDbEntity
  8
Layer_1
  6
ByLayer
 62
    7
370
   -1
100
AcDbLine
 10
95.94366753250981
 20
69.98298776459333
 11
95.96271773596052
 21
69.91807140189991
  0
LINE
  5
2B8
100
AcDbEntity
  8
Layer_1
  6
ByLayer
 62
    7
370
   -1
100
AcDbLine
 10
95.96271773596052
 20
69.91807140189991
 11
95.97851037202511
 21
69.85182347081334
  0
LINE
  5
2B9
100
AcDbEntity
  8
Layer_1
  6
ByLayer
 62
    7
370
   -1
100
AcDbLine
 10
95.97851037202511
 20
69.85182347081334
 11
95.99095352858245
 21
69.78433561820684
  0
LINE
  5
2BA
100
AcDbEntity
  8
Layer_1
  6
ByLayer
 62
    7
370
   -1
100
AcDbLine
 10
95.99095352858245
 20
69.78433561820684
 11
95.99995529351145
 21
69.71569949095364
  0
LINE
  5
2BB
100
AcDbEntity
  8
Layer_1
  6
ByLayer
 62
    7
370
   -1
100
AcDbLine
 10
95.99995529351145
 20
69.71569949095364
 11
96.00542375469101
 21
69.64600673592696
  0
LINE
  5
2BC
100
AcDbEntity
  8
Layer_1
  6
ByLayer
 62
    7
370
   -1
100
AcDbLine
 10
96.00542375469101
 20
69.64600673592696
 11
96.007267
 21
69.575349
  0
LINE
  5
2BD
100
AcDbEntity
  8
Layer_1
  6
ByLayer
 62
    7
370
   -1
100
AcDbLine
 10
109.757314
 20
22.075356
 11
109.757314
 21
22.075356
  0
LINE
  5
2BE
100
AcDbEntity
  8
Layer_1
  6
ByLayer
 62
    7
370
   -1
100
AcDbLine
 10
96.007267
 20
69.575349
 11
96.007267
 21
69.575349
  0
ENDSEC
  0
SECTION
  2
OBJECTS
  0
DICTIONARY
  5
C
330
0
100
AcDbDictionary
281
    1
  3
ACAD_GROUP
350
D
  0
DICTIONARY
  5
D
330
C
100
AcDbDictionary
281
    1
  0
ENDSEC
  0
EOF
