999
dxfrw 0.6.3
  0
SECTION
  2
HEADER
  9
$ACADVER
  1
AC1021
  9
$DWGCODEPAGE
  3
ANSI_1252
  9
$INSBASE
 10
0
 20
0
 30
0
  9
$EXTMIN
 10
17.577679
 20
20.975385
 30
0
  9
$EXTMAX
 10
109.527554
 20
70.67531
 30
0
  9
$LIMMIN
 10
0
 20
0
  9
$LIMMAX
 10
420
 20
297
  9
$ORTHOMODE
 70
    0
  9
$REGENMODE
 70
    1
  9
$FILLMODE
 70
    1
  9
$QTEXTMODE
 70
    0
  9
$MIRRTEXT
 70
    0
  9
$LTSCALE
 40
1
  9
$ATTMODE
 70
    0
  9
$TEXTSIZE
 40
2.5
  9
$TRACEWID
 40
15.68
  9
$TEXTSTYLE
  7
STANDARD
  9
$CLAYER
  8
0
  9
$CELTYPE
  6
BYLAYER
  9
$CECOLOR
 62
  256
  9
$CELTSCALE
 40
1
  9
$DISPSILH
 70
    0
  9
$DIMSCALE
 40
2.5
  9
$DIMASZ
 40
2.5
  9
$DIMEXO
 40
0.625
  9
$DIMDLI
 40
3.75
  9
$DIMRND
 40
0
  9
$DIMDLE
 40
0
  9
$DIMEXE
 40
1.25
  9
$DIMTP
 40
0
  9
$DIMTM
 40
0
  9
$DIMTXT
 40
2.5
  9
$DIMCEN
 40
2.5
  9
$DIMTSZ
 40
0
  9
$DIMTOL
 70
    0
  9
$DIMLIM
 70
    0
  9
$DIMTIH
 70
    0
  9
$DIMTOH
 70
    0
  9
$DIMSE1
 70
    0
  9
$DIMSE2
 70
    0
  9
$DIMTAD
 70
    1
  9
$DIMZIN
 70
    8
  9
$DIMBLK
  1

  9
$DIMASO
 70
    1
  9
$DIMSHO
 70
    1
  9
$DIMPOST
  1

  9
$DIMAPOST
  1

  9
$DIMALT
 70
    0
  9
$DIMALTD
 70
    3
  9
$DIMALTF
 40
0.03937
  9
$DIMLFAC
 40
1
  9
$DIMTOFL
 70
    1
  9
$DIMTVP
 40
0
  9
$DIMTIX
 70
    0
  9
$DIMSOXD
 70
    0
  9
$DIMSAH
 70
    0
  9
$DIMBLK1
  1

  9
$DIMBLK2
  1

  9
$DIMSTYLE
  2
Standard
  9
$DIMCLRD
 70
    0
  9
$DIMCLRE
 70
    0
  9
$DIMCLRT
 70
    0
  9
$DIMTFAC
 40
1
  9
$DIMGAP
 40
0.625
  9
$DIMJUST
 70
    0
  9
$DIMSD1
 70
    0
  9
$DIMSD2
 70
    0
  9
$DIMTOLJ
 70
    0
  9
$DIMTZIN
 70
    8
  9
$DIMALTZ
 70
    0
  9
$DIMALTTZ
 70
    0
  9
$DIMUPT
 70
    0
  9
$DIMDEC
 70
    2
  9
$DIMTDEC
 70
    2
  9
$DIMALTU
 70
    2
  9
$DIMALTTD
 70
    3
  9
$DIMTXSTY
  7
STANDARD
  9
$DIMAUNIT
 70
    0
  9
$DIMADEC
 70
    0
  9
$DIMALTRND
 40
0
  9
$DIMAZIN
 70
    0
  9
$DIMDSEP
 70
   44
  9
$DIMATFIT
 70
    3
  9
$DIMFRAC
 70
    0
  9
$DIMLDRBLK
  1
STANDARD
  9
$DIMLUNIT
 70
    2
  9
$DIMLWD
 70
   -2
  9
$DIMLWE
 70
   -2
  9
$DIMTMOVE
 70
    0
  9
$DIMFXL
 40
1
  9
$DIMFXLON
 70
    0
  9
$DIMJOGANG
 40
0.7854
  9
$DIMTFILL
 70
    0
  9
$DIMTFILLCLR
 70
    0
  9
$DIMARCSYM
 70
    0
  9
$DIMLTYPE
  6

  9
$DIMLTEX1
  6

  9
$DIMLTEX2
  6

  9
$LUNITS
 70
    2
  9
$LUPREC
 70
    4
  9
$SKETCHINC
 40
1
  9
$FILLETRAD
 40
0
  9
$AUNITS
 70
    0
  9
$AUPREC
 70
    2
  9
$MENU
  1
.
  9
$ELEVATION
 40
0
  9
$PELEVATION
 40
0
  9
$THICKNESS
 40
0
  9
$LIMCHECK
 70
    0
  9
$CHAMFERA
 40
0
  9
$CHAMFERB
 40
0
  9
$CHAMFERC
 40
0
  9
$CHAMFERD
 40
0
  9
$SKPOLY
 70
    0
  9
$USRTIMER
 70
    1
  9
$ANGBASE
 50
0
  9
$ANGDIR
 70
    0
  9
$PDMODE
 70
   34
  9
$PDSIZE
 40
0
  9
$PLINEWID
 40
0
  9
$SPLFRAME
 70
    0
  9
$SPLINETYPE
 70
    2
  9
$SPLINESEGS
 70
    8
  9
$HANDSEED
  5
20000
  9
$SURFTAB1
 70
    6
  9
$SURFTAB2
 70
    6
  9
$SURFTYPE
 70
    6
  9
$SURFU
 70
    6
  9
$SURFV
 70
    6
  9
$UCSBASE
  2

  9
$UCSNAME
  2

  9
$UCSORG
 10
0
 20
0
 30
0
  9
$UCSXDIR
 10
1
 20
0
 30
0
  9
$UCSYDIR
 10
0
 20
1
 30
0
  9
$UCSORTHOREF
  2

  9
$UCSORTHOVIEW
 70
    0
  9
$UCSORGTOP
 10
0
 20
0
 30
0
  9
$UCSORGBOTTOM
 10
0
 20
0
 30
0
  9
$UCSORGLEFT
 10
0
 20
0
 30
0
  9
$UCSORGRIGHT
 10
0
 20
0
 30
0
  9
$UCSORGFRONT
 10
0
 20
0
 30
0
  9
$UCSORGBACK
 10
0
 20
0
 30
0
  9
$PUCSBASE
  2

  9
$PUCSNAME
  2

  9
$PUCSORG
 10
0
 20
0
 30
0
  9
$PUCSXDIR
 10
1
 20
0
 30
0
  9
$PUCSYDIR
 10
0
 20
1
 30
0
  9
$PUCSORTHOREF
  2

  9
$PUCSORTHOVIEW
 70
    0
  9
$PUCSORGTOP
 10
0
 20
0
 30
0
  9
$PUCSORGBOTTOM
 10
0
 20
0
 30
0
  9
$PUCSORGLEFT
 10
0
 20
0
 30
0
  9
$PUCSORGRIGHT
 10
0
 20
0
 30
0
  9
$PUCSORGFRONT
 10
0
 20
0
 30
0
  9
$PUCSORGBACK
 10
0
 20
0
 30
0
  9
$USERI1
 70
    0
  9
$USERI2
 70
    0
  9
$USERI3
 70
    0
  9
$USERI4
 70
    0
  9
$USERI5
 70
    0
  9
$USERR1
 40
0
  9
$USERR2
 40
0
  9
$USERR3
 40
0
  9
$USERR4
 40
0
  9
$USERR5
 40
0
  9
$WORLDVIEW
 70
    1
  9
$SHADEDGE
 70
    3
  9
$SHADEDIF
 70
   70
  9
$TILEMODE
 70
    1
  9
$MAXACTVP
 70
   64
  9
$PINSBASE
 10
0
 20
0
 30
0
  9
$PLIMCHECK
 70
    0
  9
$PEXTMIN
 10
0
 20
0
 30
0
  9
$PEXTMAX
 10
0
 20
0
 30
0
  9
$GRIDMODE
 70
    0
  9
$SNAPSTYLE
 70
    0
  9
$PLIMMIN
 10
0
 20
0
  9
$PLIMMAX
 10
3.131799570685756e-06
 20
2.211988675945856e-06
  9
$UNITMODE
 70
    0
  9
$VISRETAIN
 70
    1
  9
$PLINEGEN
 70
    0
  9
$PSLTSCALE
 70
    1
  9
$TREEDEPTH
 70
 3020
  9
$CMLSTYLE
  2
Standard
  9
$CMLJUST
 70
    0
  9
$CMLSCALE
 40
20
  9
$PROXYGRAPHICS
 70
    1
  9
$MEASUREMENT
 70
    1
  9
$CELWEIGHT
370
   -1
  9
$ENDCAPS
280
    0
  9
$JOINSTYLE
280
    0
  9
$LWDISPLAY
290
    0
  9
$INSUNITS
 70
    4
  9
$HYPERLINKBASE
  1

  9
$STYLESHEET
  1

  9
$XEDIT
290
    1
  9
$CEPSNTYPE
380
    0
  9
$PSTYLEMODE
290
    1
  9
$EXTNAMES
290
    1
  9
$PSVPSCALE
 40
1
  9
$OLESTARTUP
290
    0
  9
$SORTENTS
280
  127
  9
$INDEXCTL
280
    0
  9
$HIDETEXT
280
    1
  9
$XCLIPFRAME
290
    0
  9
$HALOGAP
280
    0
  9
$OBSCOLOR
 70
  257
  9
$OBSLTYPE
280
    0
  9
$INTERSECTIONDISPLAY
280
    0
  9
$INTERSECTIONCOLOR
 70
  257
  9
$DIMASSOC
280
    1
  9
$PROJECTNAME
  1

  9
$CAMERADISPLAY
290
    0
  9
$LENSLENGTH
 40
50
  9
$CAMERAHEIGHT
 40
0
  9
$STEPSPERSEC
 40
2
  9
$STEPSIZE
 40
50
  9
$3DDWFPREC
 40
2
  9
$PSOLWIDTH
 40
5
  9
$PSOLHEIGHT
 40
80
  9
$LOFTANG1
 40
1.570796326794897
  9
$LOFTANG2
 40
1.570796326794897
  9
$LOFTMAG1
 40
0
  9
$LOFTMAG2
 40
0
  9
$LOFTPARAM
 70
    7
  9
$LOFTNORMALS
280
    1
  9
$LATITUDE
 40
1
  9
$LONGITUDE
 40
1
  9
$NORTHDIRECTION
 40
0
  9
$TIMEZONE
 70
-8000
  9
$LIGHTGLYPHDISPLAY
280
    1
  9
$TILEMODELIGHTSYNCH
280
    1
  9
$SOLIDHIST
280
    1
  9
$SHOWHIST
280
    1
  9
$DWFFRAME
280
    2
  9
$DGNFRAME
280
    0
  9
$REALWORLDSCALE
290
    1
  9
$INTERFERECOLOR
 62
    1
  9
$CSHADOW
280
    0
  9
$SHADOWPLANELOCATION
 40
0
  0
ENDSEC
  0
SECTION
  2
CLASSES
  0
ENDSEC
  0
SECTION
  2
TABLES
  0
TABLE
  2
VPORT
  5
8
330
0
100
AcDbSymbolTable
 70
    1
  0
VPORT
  5
31
330
2
100
AcDbSymbolTableRecord
100
AcDbViewportTableRecord
  2
*ACTIVE
 70
    0
 10
0
 20
0
 11
1
 21
1
 12
80.43847181568501
 22
76.54314630402956
 13
0
 23
0
 14
10
 24
10
 15
10
 25
10
 16
0
 26
0
 36
1
 17
0
 27
0
 37
0
 40
224.175983195771
 41
0.9044309296264118
 42
50
 43
0
 44
0
 50
0
 51
0
 71
    0
 72
  100
 73
    1
 74
    3
 75
    0
 76
    0
 77
    0
 78
    0
281
    0
 65
    1
110
0
120
0
130
0
111
1
121
0
131
0
112
0
122
1
132
0
 79
    0
146
0
348
10020
 60
    7
 61
    5
292
1
282
    1
141
0
142
0
 63
  250
421
3358443
  0
ENDTAB
  0
TABLE
  2
LTYPE
  5
5
330
0
100
AcDbSymbolTable
 70
    4
  0
LTYPE
  5
14
330
5
100
AcDbSymbolTableRecord
100
AcDbLinetypeTableRecord
  2
ByBlock
 70
    0
  3

 72
   65
 73
    0
 40
0
  0
LTYPE
  5
15
330
5
100
AcDbSymbolTableRecord
100
AcDbLinetypeTableRecord
  2
ByLayer
 70
    0
  3

 72
   65
 73
    0
 40
0
  0
LTYPE
  5
16
330
5
100
AcDbSymbolTableRecord
100
AcDbLinetypeTableRecord
  2
Continuous
 70
    0
  3
Solid line
 72
   65
 73
    0
 40
0
  0
LTYPE
  5
32
330
5
100
AcDbSymbolTableRecord
100
AcDbLinetypeTableRecord
  2
DOT
 70
    0
  3
Dot . . . . . . . . . . . . . . . . . . . . . .
 72
   65
 73
    2
 40
6.35
 49
0
 74
    0
 49
-6.35
 74
    0
  0
LTYPE
  5
33
330
5
100
AcDbSymbolTableRecord
100
AcDbLinetypeTableRecord
  2
DOTTINY
 70
    0
  3
Dot (.15x) .....................................
 72
   65
 73
    2
 40
0.9525
 49
0
 74
    0
 49
-0.9525
 74
    0
  0
LTYPE
  5
34
330
5
100
AcDbSymbolTableRecord
100
AcDbLinetypeTableRecord
  2
DOT2
 70
    0
  3
Dot (.5x) .....................................
 72
   65
 73
    2
 40
3.175
 49
0
 74
    0
 49
-3.175
 74
    0
  0
LTYPE
  5
35
330
5
100
AcDbSymbolTableRecord
100
AcDbLinetypeTableRecord
  2
DOTX2
 70
    0
  3
Dot (2x) .  .  .  .  .  .  .  .  .  .  .  .  .
 72
   65
 73
    2
 40
12.7
 49
0
 74
    0
 49
-12.7
 74
    0
  0
LTYPE
  5
36
330
5
100
AcDbSymbolTableRecord
100
AcDbLinetypeTableRecord
  2
DASHED
 70
    0
  3
Dashed _ _ _ _ _ _ _ _ _ _ _ _ _ _ _ _ _
 72
   65
 73
    2
 40
19.05
 49
12.7
 74
    0
 49
-6.35
 74
    0
  0
LTYPE
  5
37
330
5
100
AcDbSymbolTableRecord
100
AcDbLinetypeTableRecord
  2
DASHEDTINY
 70
    0
  3
Dashed (.15x) _ _ _ _ _ _ _ _ _ _ _ _ _ _ _ _ _
 72
   65
 73
    2
 40
2.8575
 49
1.905
 74
    0
 49
-0.9525
 74
    0
  0
LTYPE
  5
38
330
5
100
AcDbSymbolTableRecord
100
AcDbLinetypeTableRecord
  2
DASHED2
 70
    0
  3
Dashed (.5x) _ _ _ _ _ _ _ _ _ _ _ _ _ _ _ _ _
 72
   65
 73
    2
 40
9.524999999999999
 49
6.35
 74
    0
 49
-3.175
 74
    0
  0
LTYPE
  5
39
330
5
100
AcDbSymbolTableRecord
100
AcDbLinetypeTableRecord
  2
DASHEDX2
 70
    0
  3
Dashed (2x) ____  ____  ____  ____  ____  ___
 72
   65
 73
    2
 40
38.09999999999999
 49
25.4
 74
    0
 49
-12.7
 74
    0
  0
LTYPE
  5
3A
330
5
100
AcDbSymbolTableRecord
100
AcDbLinetypeTableRecord
  2
DASHDOT
 70
    0
  3
Dash dot __ . __ . __ . __ . __ . __ . __ . __
 72
   65
 73
    4
 40
25.4
 49
12.7
 74
    0
 49
-6.35
 74
    0
 49
0
 74
    0
 49
-6.35
 74
    0
  0
LTYPE
  5
3B
330
5
100
AcDbSymbolTableRecord
100
AcDbLinetypeTableRecord
  2
DASHDOTTINY
 70
    0
  3
Dash dot (.15x) _._._._._._._._._._._._._._._.
 72
   65
 73
    4
 40
3.81
 49
1.905
 74
    0
 49
-0.9525
 74
    0
 49
0
 74
    0
 49
-0.9525
 74
    0
  0
LTYPE
  5
3C
330
5
100
AcDbSymbolTableRecord
100
AcDbLinetypeTableRecord
  2
DASHDOT2
 70
    0
  3
Dash dot (.5x) _._._._._._._._._._._._._._._.
 72
   65
 73
    4
 40
12.7
 49
6.35
 74
    0
 49
-3.175
 74
    0
 49
0
 74
    0
 49
-3.175
 74
    0
  0
LTYPE
  5
3D
330
5
100
AcDbSymbolTableRecord
100
AcDbLinetypeTableRecord
  2
DASHDOTX2
 70
    0
  3
Dash dot (2x) ____  .  ____  .  ____  .  ___
 72
   65
 73
    4
 40
50.8
 49
25.4
 74
    0
 49
-12.7
 74
    0
 49
0
 74
    0
 49
-12.7
 74
    0
  0
LTYPE
  5
3E
330
5
100
AcDbSymbolTableRecord
100
AcDbLinetypeTableRecord
  2
DIVIDE
 70
    0
  3
Divide ____ . . ____ . . ____ . . ____ . . ____
 72
   65
 73
    6
 40
31.75
 49
12.7
 74
    0
 49
-6.35
 74
    0
 49
0
 74
    0
 49
-6.35
 74
    0
 49
0
 74
    0
 49
-6.35
 74
    0
  0
LTYPE
  5
3F
330
5
100
AcDbSymbolTableRecord
100
AcDbLinetypeTableRecord
  2
DIVIDETINY
 70
    0
  3
Divide (.15x) __..__..__..__..__..__..__..__.._
 72
   65
 73
    6
 40
4.7625
 49
1.905
 74
    0
 49
-0.9525
 74
    0
 49
0
 74
    0
 49
-0.9525
 74
    0
 49
0
 74
    0
 49
-0.9525
 74
    0
  0
LTYPE
  5
40
330
5
100
AcDbSymbolTableRecord
100
AcDbLinetypeTableRecord
  2
DIVIDE2
 70
    0
  3
Divide (.5x) __..__..__..__..__..__..__..__.._
 72
   65
 73
    6
 40
15.875
 49
6.35
 74
    0
 49
-3.175
 74
    0
 49
0
 74
    0
 49
-3.175
 74
    0
 49
0
 74
    0
 49
-3.175
 74
    0
  0
LTYPE
  5
41
330
5
100
AcDbSymbolTableRecord
100
AcDbLinetypeTableRecord
  2
DIVIDEX2
 70
    0
  3
Divide (2x) ________  .  .  ________  .  .  _
 72
   65
 73
    6
 40
63.5
 49
25.4
 74
    0
 49
-12.7
 74
    0
 49
0
 74
    0
 49
-12.7
 74
    0
 49
0
 74
    0
 49
-12.7
 74
    0
  0
LTYPE
  5
42
330
5
100
AcDbSymbolTableRecord
100
AcDbLinetypeTableRecord
  2
BORDER
 70
    0
  3
Border __ __ . __ __ . __ __ . __ __ . __ __ .
 72
   65
 73
    6
 40
44.45
 49
12.7
 74
    0
 49
-6.35
 74
    0
 49
12.7
 74
    0
 49
-6.35
 74
    0
 49
0
 74
    0
 49
-6.35
 74
    0
  0
LTYPE
  5
43
330
5
100
AcDbSymbolTableRecord
100
AcDbLinetypeTableRecord
  2
BORDERTINY
 70
    0
  3
Border (.15x) __.__.__.__.__.__.__.__.__.__.__.
 72
   65
 73
    6
 40
6.6675
 49
1.905
 74
    0
 49
-0.9525
 74
    0
 49
1.905
 74
    0
 49
-0.9525
 74
    0
 49
0
 74
    0
 49
-0.9525
 74
    0
  0
LTYPE
  5
44
330
5
100
AcDbSymbolTableRecord
100
AcDbLinetypeTableRecord
  2
BORDER2
 70
    0
  3
Border (.5x) __.__.__.__.__.__.__.__.__.__.__.
 72
   65
 73
    6
 40
22.225
 49
6.35
 74
    0
 49
-3.175
 74
    0
 49
6.35
 74
    0
 49
-3.175
 74
    0
 49
0
 74
    0
 49
-3.175
 74
    0
  0
LTYPE
  5
45
330
5
100
AcDbSymbolTableRecord
100
AcDbLinetypeTableRecord
  2
BORDERX2
 70
    0
  3
Border (2x) ____  ____  .  ____  ____  .  ___
 72
   65
 73
    6
 40
88.89999999999999
 49
25.4
 74
    0
 49
-12.7
 74
    0
 49
25.4
 74
    0
 49
-12.7
 74
    0
 49
0
 74
    0
 49
-12.7
 74
    0
  0
LTYPE
  5
46
330
5
100
AcDbSymbolTableRecord
100
AcDbLinetypeTableRecord
  2
CENTER
 70
    0
  3
Center ____ _ ____ _ ____ _ ____ _ ____ _ ____
 72
   65
 73
    4
 40
50.8
 49
31.75
 74
    0
 49
-6.35
 74
    0
 49
6.35
 74
    0
 49
-6.35
 74
    0
  0
LTYPE
  5
47
330
5
100
AcDbSymbolTableRecord
100
AcDbLinetypeTableRecord
  2
CENTERTINY
 70
    0
  3
Center (.15x) ___ _ ___ _ ___ _ ___ _ ___ _ ___
 72
   65
 73
    4
 40
7.619999999999999
 49
4.7625
 74
    0
 49
-0.9525
 74
    0
 49
0.9525
 74
    0
 49
-0.9525
 74
    0
  0
LTYPE
  5
48
330
5
100
AcDbSymbolTableRecord
100
AcDbLinetypeTableRecord
  2
CENTER2
 70
    0
  3
Center (.5x) ___ _ ___ _ ___ _ ___ _ ___ _ ___
 72
   65
 73
    4
 40
28.575
 49
19.05
 74
    0
 49
-3.175
 74
    0
 49
3.175
 74
    0
 49
-3.175
 74
    0
  0
LTYPE
  5
49
330
5
100
AcDbSymbolTableRecord
100
AcDbLinetypeTableRecord
  2
CENTERX2
 70
    0
  3
Center (2x) ________  __  ________  __  _____
 72
   65
 73
    4
 40
101.6
 49
63.5
 74
    0
 49
-12.7
 74
    0
 49
12.7
 74
    0
 49
-12.7
 74
    0
  0
ENDTAB
  0
TABLE
  2
LAYER
  5
2
330
0
100
AcDbSymbolTable
 70
    1
  0
LAYER
  5
10
330
2
100
AcDbSymbolTableRecord
100
AcDbLayerTableRecord
  2
0
 70
    0
 62
    7
  6
CONTINUOUS
370
   -3
390
F
  0
LAYER
  5
4A
330
2
100
AcDbSymbolTableRecord
100
AcDbLayerTableRecord
  2
Layer_1
 70
    0
 62
    7
  6
CONTINUOUS
370
   -3
390
F
  0
ENDTAB
  0
TABLE
  2
STYLE
  5
3
330
0
100
AcDbSymbolTable
 70
    3
  0
STYLE
  5
4B
330
2
100
AcDbSymbolTableRecord
100
AcDbTextStyleTableRecord
  2
Standard
 70
    0
 40
0
 41
1
 50
0
 71
    0
 42
1
  3
txt
  4

  0
ENDTAB
  0
TABLE
  2
VIEW
  5
6
330
0
100
AcDbSymbolTable
 70
    0
  0
ENDTAB
  0
TABLE
  2
UCS
  5
7
330
0
100
AcDbSymbolTable
 70
    0
  0
ENDTAB
  0
TABLE
  2
APPID
  5
9
330
0
100
AcDbSymbolTable
 70
    1
  0
APPID
  5
12
330
9
100
AcDbSymbolTableRecord
100
AcDbRegAppTableRecord
  2
ACAD
 70
    0
  0
APPID
  5
4C
330
9
100
AcDbSymbolTableRecord
100
AcDbRegAppTableRecord
  2
LibreCad
 70
    0
  0
ENDTAB
  0
TABLE
  2
DIMSTYLE
  5
A
330
0
100
AcDbSymbolTable
 70
    1
100
AcDbDimStyleTable
 71
    1
  0
DIMSTYLE
105
4D
330
A
100
AcDbSymbolTableRecord
100
AcDbDimStyleTableRecord
  2
Standard
 70
    0
 40
1
 41
2.5
 42
0.625
 43
0.38
 44
1.25
 45
0
 46
0
 47
0
 48
0
 49
1
140
2.5
141
0.09
142
2.5
143
25.4
144
1
145
0
146
1
147
0.625
148
0
 71
    0
 72
    0
 73
    0
 74
    1
 75
    0
 76
    0
 77
    0
 78
    1
 79
    0
170
    0
171
    2
172
    0
173
    0
174
    0
175
    0
176
    0
177
    0
178
    0
179
    0
271
    2
272
    4
273
    2
274
    2
275
    0
276
    0
277
    2
278
    0
279
    0
280
    0
281
    0
282
    0
283
    1
284
    0
285
    0
286
    0
288
    0
289
    3
340
standard
341

371
   -2
372
   -2
  0
ENDTAB
  0
TABLE
  2
BLOCK_RECORD
  5
1
330
0
100
AcDbSymbolTable
 70
    2
  0
BLOCK_RECORD
  5
1F
330
1
100
AcDbSymbolTableRecord
100
AcDbBlockTableRecord
  2
*Model_Space
 70
    0
280
    1
281
    0
  0
BLOCK_RECORD
  5
1E
330
1
100
AcDbSymbolTableRecord
100
AcDbBlockTableRecord
  2
*Paper_Space
 70
    0
280
    1
281
    0
  0
ENDTAB
  0
ENDSEC
  0
SECTION
  2
BLOCKS
  0
BLOCK
  5
20
330
1F
100
AcDbEntity
  8
0
100
AcDbBlockBegin
  2
*Model_Space
 70
    0
 10
0
 20
0
 30
0
  3
*Model_Space
  1

  0
ENDBLK
  5
21
330
1F
100
AcDbEntity
  8
0
100
AcDbBlockEnd
  0
BLOCK
  5
1C
330
1B
100
AcDbEntity
  8
0
100
AcDbBlockBegin
  2
*Paper_Space
 70
    0
 10
0
 20
0
 30
0
  3
*Paper_Space
  1

  0
ENDBLK
  5
1D
330
1F
100
AcDbEntity
  8
0
100
AcDbBlockEnd
  0
ENDSEC
  0
SECTION
  2
ENTITIES
  0
LINE
  5
4E
100
AcDbEntity
  8
Layer_1
  6
ByLayer
 62
    7
370
   -1
100
AcDbLine
 10
19.77767
 20
65.825287
 11
19.77614526934309
 21
65.76686937857072
  0
LINE
  5
4F
100
AcDbEntity
  8
Layer_1
  6
ByLayer
 62
    7
370
   -1
100
AcDbLine
 10
19.77614526934309
 20
65.76686937857072
 11
19.77162176140445
 21
65.70924590369576
  0
LINE
  5
50
100
AcDbEntity
  8
Layer_1
  6
ByLayer
 62
    7
370
   -1
100
AcDbLine
 10
19.77162176140445
 20
65.70924590369576
 11
19.76417550223222
 21
65.65249259497836
  0
LINE
  5
51
100
AcDbEntity
  8
Layer_1
  6
ByLayer
 62
    7
370
   -1
100
AcDbLine
 10
19.76417550223222
 20
65.65249259497836
 11
19.75388251787453
 21
65.59668547202176
  0
LINE
  5
52
100
AcDbEntity
  8
Layer_1
  6
ByLayer
 62
    7
370
   -1
100
AcDbLine
 10
19.75388251787453
 20
65.59668547202176
 11
19.74081883437951
 21
65.54190055442919
  0
LINE
  5
53
100
AcDbEntity
  8
Layer_1
  6
ByLayer
 62
    7
370
   -1
100
AcDbLine
 10
19.74081883437951
 20
65.54190055442919
 11
19.72506047779531
 21
65.4882138618039
  0
LINE
  5
54
100
AcDbEntity
  8
Layer_1
  6
ByLayer
 62
    7
370
   -1
100
AcDbLine
 10
19.72506047779531
 20
65.4882138618039
 11
19.70668347417005
 21
65.43570141374913
  0
LINE
  5
55
100
AcDbEntity
  8
Layer_1
  6
ByLayer
 62
    7
370
   -1
100
AcDbLine
 10
19.70668347417005
 20
65.43570141374913
 11
19.68576384955188
 21
65.38443922986809
  0
LINE
  5
56
100
AcDbEntity
  8
Layer_1
  6
ByLayer
 62
    7
370
   -1
100
AcDbLine
 10
19.68576384955188
 20
65.38443922986809
 11
19.66237762998892
 21
65.33450332976402
  0
LINE
  5
57
100
AcDbEntity
  8
Layer_1
  6
ByLayer
 62
    7
370
   -1
100
AcDbLine
 10
19.66237762998892
 20
65.33450332976402
 11
19.63660084152932
 21
65.28596973304016
  0
LINE
  5
58
100
AcDbEntity
  8
Layer_1
  6
ByLayer
 62
    7
370
   -1
100
AcDbLine
 10
19.63660084152932
 20
65.28596973304016
 11
19.60850951022121
 21
65.23891445929979
  0
LINE
  5
59
100
AcDbEntity
  8
Layer_1
  6
ByLayer
 62
    7
370
   -1
100
AcDbLine
 10
19.60850951022121
 20
65.23891445929979
 11
19.57817966211272
 21
65.19341352814608
  0
LINE
  5
5A
100
AcDbEntity
  8
Layer_1
  6
ByLayer
 62
    7
370
   -1
100
AcDbLine
 10
19.57817966211272
 20
65.19341352814608
 11
19.54568732325199
 21
65.1495429591823
  0
LINE
  5
5B
100
AcDbEntity
  8
Layer_1
  6
ByLayer
 62
    7
370
   -1
100
AcDbLine
 10
19.54568732325199
 20
65.1495429591823
 11
19.51110851968716
 21
65.10737877201169
  0
LINE
  5
5C
100
AcDbEntity
  8
Layer_1
  6
ByLayer
 62
    7
370
   -1
100
AcDbLine
 10
19.51110851968716
 20
65.10737877201169
 11
19.47451927746635
 21
65.06699698623746
  0
LINE
  5
5D
100
AcDbEntity
  8
Layer_1
  6
ByLayer
 62
    7
370
   -1
100
AcDbLine
 10
19.47451927746635
 20
65.06699698623746
 11
19.43599562263771
 21
65.02847362146287
  0
LINE
  5
5E
100
AcDbEntity
  8
Layer_1
  6
ByLayer
 62
    7
370
   -1
100
AcDbLine
 10
19.43599562263771
 20
65.02847362146287
 11
19.39561358124937
 21
64.99188469729113
  0
LINE
  5
5F
100
AcDbEntity
  8
Layer_1
  6
ByLayer
 62
    7
370
   -1
100
AcDbLine
 10
19.39561358124937
 20
64.99188469729113
 11
19.35344917934947
 21
64.95730623332551
  0
LINE
  5
60
100
AcDbEntity
  8
Layer_1
  6
ByLayer
 62
    7
370
   -1
100
AcDbLine
 10
19.35344917934947
 20
64.95730623332551
 11
19.30957844298614
 21
64.9248142491692
  0
LINE
  5
61
100
AcDbEntity
  8
Layer_1
  6
ByLayer
 62
    7
370
   -1
100
AcDbLine
 10
19.30957844298614
 20
64.9248142491692
 11
19.26407739820751
 21
64.89448476442548
  0
LINE
  5
62
100
AcDbEntity
  8
Layer_1
  6
ByLayer
 62
    7
370
   -1
100
AcDbLine
 10
19.26407739820751
 20
64.89448476442548
 11
19.21702207106173
 21
64.86639379869759
  0
LINE
  5
63
100
AcDbEntity
  8
Layer_1
  6
ByLayer
 62
    7
370
   -1
100
AcDbLine
 10
19.21702207106173
 20
64.86639379869759
 11
19.16848848759692
 21
64.84061737158873
  0
LINE
  5
64
100
AcDbEntity
  8
Layer_1
  6
ByLayer
 62
    7
370
   -1
100
AcDbLine
 10
19.16848848759692
 20
64.84061737158873
 11
19.11855267386123
 21
64.81723150270216
  0
LINE
  5
65
100
AcDbEntity
  8
Layer_1
  6
ByLayer
 62
    7
370
   -1
100
AcDbLine
 10
19.11855267386123
 20
64.81723150270216
 11
19.06729065590279
 21
64.79631221164109
  0
LINE
  5
66
100
AcDbEntity
  8
Layer_1
  6
ByLayer
 62
    7
370
   -1
100
AcDbLine
 10
19.06729065590279
 20
64.79631221164109
 11
19.01477845976973
 21
64.77793551800879
  0
LINE
  5
67
100
AcDbEntity
  8
Layer_1
  6
ByLayer
 62
    7
370
   -1
100
AcDbLine
 10
19.01477845976973
 20
64.77793551800879
 11
18.96109211151019
 21
64.76217744140847
  0
LINE
  5
68
100
AcDbEntity
  8
Layer_1
  6
ByLayer
 62
    7
370
   -1
100
AcDbLine
 10
18.96109211151019
 20
64.76217744140847
 11
18.9063076371723
 21
64.74911400144339
  0
LINE
  5
69
100
AcDbEntity
  8
Layer_1
  6
ByLayer
 62
    7
370
   -1
100
AcDbLine
 10
18.9063076371723
 20
64.74911400144339
 11
18.85050106280421
 21
64.73882121771676
  0
LINE
  5
6A
100
AcDbEntity
  8
Layer_1
  6
ByLayer
 62
    7
370
   -1
100
AcDbLine
 10
18.85050106280421
 20
64.73882121771676
 11
18.79374841445403
 21
64.73137510983182
  0
LINE
  5
6B
100
AcDbEntity
  8
Layer_1
  6
ByLayer
 62
    7
370
   -1
100
AcDbLine
 10
18.79374841445403
 20
64.73137510983182
 11
18.73612571816992
 21
64.72685169739182
  0
LINE
  5
6C
100
AcDbEntity
  8
Layer_1
  6
ByLayer
 62
    7
370
   -1
100
AcDbLine
 10
18.73612571816992
 20
64.72685169739182
 11
18.677709
 21
64.72532699999999
  0
LINE
  5
6D
100
AcDbEntity
  8
Layer_1
  6
ByLayer
 62
    7
370
   -1
100
AcDbLine
 10
18.677709
 20
64.72532699999999
 11
18.6192922848847
 21
64.72685169739184
  0
LINE
  5
6E
100
AcDbEntity
  8
Layer_1
  6
ByLayer
 62
    7
370
   -1
100
AcDbLine
 10
18.6192922848847
 20
64.72685169739184
 11
18.56166959749589
 21
64.73137510983183
  0
LINE
  5
6F
100
AcDbEntity
  8
Layer_1
  6
ByLayer
 62
    7
370
   -1
100
AcDbLine
 10
18.56166959749589
 20
64.73137510983183
 11
18.50491696347891
 21
64.73882121771676
  0
LINE
  5
70
100
AcDbEntity
  8
Layer_1
  6
ByLayer
 62
    7
370
   -1
100
AcDbLine
 10
18.50491696347891
 20
64.73882121771676
 11
18.44911040847907
 21
64.74911400144339
  0
LINE
  5
71
100
AcDbEntity
  8
Layer_1
  6
ByLayer
 62
    7
370
   -1
100
AcDbLine
 10
18.44911040847907
 20
64.74911400144339
 11
18.39432595814172
 21
64.76217744140847
  0
LINE
  5
72
100
AcDbEntity
  8
Layer_1
  6
ByLayer
 62
    7
370
   -1
100
AcDbLine
 10
18.39432595814172
 20
64.76217744140847
 11
18.34063963811218
 21
64.7779355180088
  0
LINE
  5
73
100
AcDbEntity
  8
Layer_1
  6
ByLayer
 62
    7
370
   -1
100
AcDbLine
 10
18.34063963811218
 20
64.7779355180088
 11
18.28812747403578
 21
64.79631221164109
  0
LINE
  5
74
100
AcDbEntity
  8
Layer_1
  6
ByLayer
 62
    7
370
   -1
100
AcDbLine
 10
18.28812747403578
 20
64.79631221164109
 11
18.23686549155785
 21
64.81723150270216
  0
LINE
  5
75
100
AcDbEntity
  8
Layer_1
  6
ByLayer
 62
    7
370
   -1
100
AcDbLine
 10
18.23686549155785
 20
64.81723150270216
 11
18.18692971632372
 21
64.84061737158872
  0
LINE
  5
76
100
AcDbEntity
  8
Layer_1
  6
ByLayer
 62
    7
370
   -1
100
AcDbLine
 10
18.18692971632372
 20
64.84061737158872
 11
18.13839617397872
 21
64.86639379869757
  0
LINE
  5
77
100
AcDbEntity
  8
Layer_1
  6
ByLayer
 62
    7
370
   -1
100
AcDbLine
 10
18.13839617397872
 20
64.86639379869757
 11
18.09134089016817
 21
64.8944847644255
  0
LINE
  5
78
100
AcDbEntity
  8
Layer_1
  6
ByLayer
 62
    7
370
   -1
100
AcDbLine
 10
18.09134089016817
 20
64.8944847644255
 11
18.04583989053741
 21
64.92481424916922
  0
LINE
  5
79
100
AcDbEntity
  8
Layer_1
  6
ByLayer
 62
    7
370
   -1
100
AcDbLine
 10
18.04583989053741
 20
64.92481424916922
 11
18.00196920073176
 21
64.9573062333255
  0
LINE
  5
7A
100
AcDbEntity
  8
Layer_1
  6
ByLayer
 62
    7
370
   -1
100
AcDbLine
 10
18.00196920073176
 20
64.9573062333255
 11
17.95980484639656
 21
64.99188469729113
  0
LINE
  5
7B
100
AcDbEntity
  8
Layer_1
  6
ByLayer
 62
    7
370
   -1
100
AcDbLine
 10
17.95980484639656
 20
64.99188469729113
 11
17.91942285317714
 21
65.02847362146285
  0
LINE
  5
7C
100
AcDbEntity
  8
Layer_1
  6
ByLayer
 62
    7
370
   -1
100
AcDbLine
 10
17.91942285317714
 20
65.02847362146285
 11
17.88089924671881
 21
65.06699698623744
  0
LINE
  5
7D
100
AcDbEntity
  8
Layer_1
  6
ByLayer
 62
    7
370
   -1
100
AcDbLine
 10
17.88089924671881
 20
65.06699698623744
 11
17.84431005266691
 21
65.10737877201169
  0
LINE
  5
7E
100
AcDbEntity
  8
Layer_1
  6
ByLayer
 62
    7
370
   -1
100
AcDbLine
 10
17.84431005266691
 20
65.10737877201169
 11
17.80973129666678
 21
65.1495429591823
  0
LINE
  5
7F
100
AcDbEntity
  8
Layer_1
  6
ByLayer
 62
    7
370
   -1
100
AcDbLine
 10
17.80973129666678
 20
65.1495429591823
 11
17.77723900436374
 21
65.19341352814608
  0
LINE
  5
80
100
AcDbEntity
  8
Layer_1
  6
ByLayer
 62
    7
370
   -1
100
AcDbLine
 10
17.77723900436374
 20
65.19341352814608
 11
17.74690920140311
 21
65.23891445929978
  0
LINE
  5
81
100
AcDbEntity
  8
Layer_1
  6
ByLayer
 62
    7
370
   -1
100
AcDbLine
 10
17.74690920140311
 20
65.23891445929978
 11
17.71881791343024
 21
65.28596973304019
  0
LINE
  5
82
100
AcDbEntity
  8
Layer_1
  6
ByLayer
 62
    7
370
   -1
100
AcDbLine
 10
17.71881791343024
 20
65.28596973304019
 11
17.69304116609043
 21
65.33450332976403
  0
LINE
  5
83
100
AcDbEntity
  8
Layer_1
  6
ByLayer
 62
    7
370
   -1
100
AcDbLine
 10
17.69304116609043
 20
65.33450332976403
 11
17.66965498502904
 21
65.38443922986809
  0
LINE
  5
84
100
AcDbEntity
  8
Layer_1
  6
ByLayer
 62
    7
370
   -1
100
AcDbLine
 10
17.66965498502904
 20
65.38443922986809
 11
17.64873539589138
 21
65.43570141374911
  0
LINE
  5
85
100
AcDbEntity
  8
Layer_1
  6
ByLayer
 62
    7
370
   -1
100
AcDbLine
 10
17.64873539589138
 20
65.43570141374911
 11
17.63035842432279
 21
65.4882138618039
  0
LINE
  5
86
100
AcDbEntity
  8
Layer_1
  6
ByLayer
 62
    7
370
   -1
100
AcDbLine
 10
17.63035842432279
 20
65.4882138618039
 11
17.61460009596858
 21
65.54190055442919
  0
LINE
  5
87
100
AcDbEntity
  8
Layer_1
  6
ByLayer
 62
    7
370
   -1
100
AcDbLine
 10
17.61460009596858
 20
65.54190055442919
 11
17.60153643647411
 21
65.59668547202176
  0
LINE
  5
88
100
AcDbEntity
  8
Layer_1
  6
ByLayer
 62
    7
370
   -1
100
AcDbLine
 10
17.60153643647411
 20
65.59668547202176
 11
17.59124347148468
 21
65.65249259497836
  0
LINE
  5
89
100
AcDbEntity
  8
Layer_1
  6
ByLayer
 62
    7
370
   -1
100
AcDbLine
 10
17.59124347148468
 20
65.65249259497836
 11
17.58379722664563
 21
65.70924590369575
  0
LINE
  5
8A
100
AcDbEntity
  8
Layer_1
  6
ByLayer
 62
    7
370
   -1
100
AcDbLine
 10
17.58379722664563
 20
65.70924590369575
 11
17.5792737276023
 21
65.76686937857072
  0
LINE
  5
8B
100
AcDbEntity
  8
Layer_1
  6
ByLayer
 62
    7
370
   -1
100
AcDbLine
 10
17.5792737276023
 20
65.76686937857072
 11
17.577749
 21
65.825287
  0
LINE
  5
8C
100
AcDbEntity
  8
Layer_1
  6
ByLayer
 62
    7
370
   -1
100
AcDbLine
 10
17.577749
 20
65.825287
 11
17.5792737276023
 21
65.88373552979087
  0
LINE
  5
8D
100
AcDbEntity
  8
Layer_1
  6
ByLayer
 62
    7
370
   -1
100
AcDbLine
 10
17.5792737276023
 20
65.88373552979087
 11
17.58379722664563
 21
65.94138586683898
  0
LINE
  5
8E
100
AcDbEntity
  8
Layer_1
  6
ByLayer
 62
    7
370
   -1
100
AcDbLine
 10
17.58379722664563
 20
65.94138586683898
 11
17.59124347148467
 21
65.99816219717364
  0
LINE
  5
8F
100
AcDbEntity
  8
Layer_1
  6
ByLayer
 62
    7
370
   -1
100
AcDbLine
 10
17.59124347148467
 20
65.99816219717364
 11
17.60153643647411
 21
66.05398870682421
  0
LINE
  5
90
100
AcDbEntity
  8
Layer_1
  6
ByLayer
 62
    7
370
   -1
100
AcDbLine
 10
17.60153643647411
 20
66.05398870682421
 11
17.61460009596858
 21
66.10878958182001
  0
LINE
  5
91
100
AcDbEntity
  8
Layer_1
  6
ByLayer
 62
    7
370
   -1
100
AcDbLine
 10
17.61460009596858
 20
66.10878958182001
 11
17.63035842432279
 21
66.16248900819041
  0
LINE
  5
92
100
AcDbEntity
  8
Layer_1
  6
ByLayer
 62
    7
370
   -1
100
AcDbLine
 10
17.63035842432279
 20
66.16248900819041
 11
17.64873539589138
 21
66.21501117196469
  0
LINE
  5
93
100
AcDbEntity
  8
Layer_1
  6
ByLayer
 62
    7
370
   -1
100
AcDbLine
 10
17.64873539589138
 20
66.21501117196469
 11
17.66965498502904
 21
66.26628025917223
  0
LINE
  5
94
100
AcDbEntity
  8
Layer_1
  6
ByLayer
 62
    7
370
   -1
100
AcDbLine
 10
17.66965498502904
 20
66.26628025917223
 11
17.69304116609043
 21
66.31622045584236
  0
LINE
  5
95
100
AcDbEntity
  8
Layer_1
  6
ByLayer
 62
    7
370
   -1
100
AcDbLine
 10
17.69304116609043
 20
66.31622045584236
 11
17.71881791343023
 21
66.36475594800442
  0
LINE
  5
96
100
AcDbEntity
  8
Layer_1
  6
ByLayer
 62
    7
370
   -1
100
AcDbLine
 10
17.71881791343023
 20
66.36475594800442
 11
17.74690920140311
 21
66.41181092168775
  0
LINE
  5
97
100
AcDbEntity
  8
Layer_1
  6
ByLayer
 62
    7
370
   -1
100
AcDbLine
 10
17.74690920140311
 20
66.41181092168775
 11
17.77723900436373
 21
66.45730956292168
  0
LINE
  5
98
100
AcDbEntity
  8
Layer_1
  6
ByLayer
 62
    7
370
   -1
100
AcDbLine
 10
17.77723900436373
 20
66.45730956292168
 11
17.80973129666678
 21
66.50117605773556
  0
LINE
  5
99
100
AcDbEntity
  8
Layer_1
  6
ByLayer
 62
    7
370
   -1
100
AcDbLine
 10
17.80973129666678
 20
66.50117605773556
 11
17.84431005266691
 21
66.5433345921587
  0
LINE
  5
9A
100
AcDbEntity
  8
Layer_1
  6
ByLayer
 62
    7
370
   -1
100
AcDbLine
 10
17.84431005266691
 20
66.5433345921587
 11
17.88089924671881
 21
66.58370935222047
  0
LINE
  5
9B
100
AcDbEntity
  8
Layer_1
  6
ByLayer
 62
    7
370
   -1
100
AcDbLine
 10
17.88089924671881
 20
66.58370935222047
 11
17.91942285317714
 21
66.62222452395018
  0
LINE
  5
9C
100
AcDbEntity
  8
Layer_1
  6
ByLayer
 62
    7
370
   -1
100
AcDbLine
 10
17.91942285317714
 20
66.62222452395018
 11
17.95980484639656
 21
66.65880429337719
  0
LINE
  5
9D
100
AcDbEntity
  8
Layer_1
  6
ByLayer
 62
    7
370
   -1
100
AcDbLine
 10
17.95980484639656
 20
66.65880429337719
 11
18.00196920073176
 21
66.69337284653083
  0
LINE
  5
9E
100
AcDbEntity
  8
Layer_1
  6
ByLayer
 62
    7
370
   -1
100
AcDbLine
 10
18.00196920073176
 20
66.69337284653083
 11
18.04583989053741
 21
66.72585436944043
  0
LINE
  5
9F
100
AcDbEntity
  8
Layer_1
  6
ByLayer
 62
    7
370
   -1
100
AcDbLine
 10
18.04583989053741
 20
66.72585436944043
 11
18.09134089016817
 21
66.75617304813534
  0
LINE
  5
A0
100
AcDbEntity
  8
Layer_1
  6
ByLayer
 62
    7
370
   -1
100
AcDbLine
 10
18.09134089016817
 20
66.75617304813534
 11
18.13839617397872
 21
66.78425306864489
  0
LINE
  5
A1
100
AcDbEntity
  8
Layer_1
  6
ByLayer
 62
    7
370
   -1
100
AcDbLine
 10
18.13839617397872
 20
66.78425306864489
 11
18.18692971632372
 21
66.81001861699842
  0
LINE
  5
A2
100
AcDbEntity
  8
Layer_1
  6
ByLayer
 62
    7
370
   -1
100
AcDbLine
 10
18.18692971632372
 20
66.81001861699842
 11
18.23686549155785
 21
66.83339387922527
  0
LINE
  5
A3
100
AcDbEntity
  8
Layer_1
  6
ByLayer
 62
    7
370
   -1
100
AcDbLine
 10
18.23686549155785
 20
66.83339387922527
 11
18.28812747403578
 21
66.85430304135477
  0
LINE
  5
A4
100
AcDbEntity
  8
Layer_1
  6
ByLayer
 62
    7
370
   -1
100
AcDbLine
 10
18.28812747403578
 20
66.85430304135477
 11
18.34063963811218
 21
66.87267028941626
  0
LINE
  5
A5
100
AcDbEntity
  8
Layer_1
  6
ByLayer
 62
    7
370
   -1
100
AcDbLine
 10
18.34063963811218
 20
66.87267028941626
 11
18.39432595814172
 21
66.88841980943909
  0
LINE
  5
A6
100
AcDbEntity
  8
Layer_1
  6
ByLayer
 62
    7
370
   -1
100
AcDbLine
 10
18.39432595814172
 20
66.88841980943909
 11
18.44911040847907
 21
66.90147578745258
  0
LINE
  5
A7
100
AcDbEntity
  8
Layer_1
  6
ByLayer
 62
    7
370
   -1
100
AcDbLine
 10
18.44911040847907
 20
66.90147578745258
 11
18.5049169634789
 21
66.91176240948609
  0
LINE
  5
A8
100
AcDbEntity
  8
Layer_1
  6
ByLayer
 62
    7
370
   -1
100
AcDbLine
 10
18.5049169634789
 20
66.91176240948609
 11
18.56166959749589
 21
66.91920386156892
  0
LINE
  5
A9
100
AcDbEntity
  8
Layer_1
  6
ByLayer
 62
    7
370
   -1
100
AcDbLine
 10
18.56166959749589
 20
66.91920386156892
 11
18.6192922848847
 21
66.92372432973045
  0
LINE
  5
AA
100
AcDbEntity
  8
Layer_1
  6
ByLayer
 62
    7
370
   -1
100
AcDbLine
 10
18.6192922848847
 20
66.92372432973045
 11
18.677709
 21
66.925248
  0
LINE
  5
AB
100
AcDbEntity
  8
Layer_1
  6
ByLayer
 62
    7
370
   -1
100
AcDbLine
 10
18.677709
 20
66.925248
 11
18.73612571816992
 21
66.92372432973045
  0
LINE
  5
AC
100
AcDbEntity
  8
Layer_1
  6
ByLayer
 62
    7
370
   -1
100
AcDbLine
 10
18.73612571816992
 20
66.92372432973045
 11
18.79374841445403
 21
66.91920386156893
  0
LINE
  5
AD
100
AcDbEntity
  8
Layer_1
  6
ByLayer
 62
    7
370
   -1
100
AcDbLine
 10
18.79374841445403
 20
66.91920386156893
 11
18.85050106280421
 21
66.91176240948609
  0
LINE
  5
AE
100
AcDbEntity
  8
Layer_1
  6
ByLayer
 62
    7
370
   -1
100
AcDbLine
 10
18.85050106280421
 20
66.91176240948609
 11
18.9063076371723
 21
66.90147578745258
  0
LINE
  5
AF
100
AcDbEntity
  8
Layer_1
  6
ByLayer
 62
    7
370
   -1
100
AcDbLine
 10
18.9063076371723
 20
66.90147578745258
 11
18.96109211151019
 21
66.88841980943909
  0
LINE
  5
B0
100
AcDbEntity
  8
Layer_1
  6
ByLayer
 62
    7
370
   -1
100
AcDbLine
 10
18.96109211151019
 20
66.88841980943909
 11
19.01477845976973
 21
66.87267028941626
  0
LINE
  5
B1
100
AcDbEntity
  8
Layer_1
  6
ByLayer
 62
    7
370
   -1
100
AcDbLine
 10
19.01477845976973
 20
66.87267028941626
 11
19.06729065590278
 21
66.85430304135477
  0
LINE
  5
B2
100
AcDbEntity
  8
Layer_1
  6
ByLayer
 62
    7
370
   -1
100
AcDbLine
 10
19.06729065590278
 20
66.85430304135477
 11
19.11855267386123
 21
66.83339387922527
  0
LINE
  5
B3
100
AcDbEntity
  8
Layer_1
  6
ByLayer
 62
    7
370
   -1
100
AcDbLine
 10
19.11855267386123
 20
66.83339387922527
 11
19.16848848759692
 21
66.81001861699841
  0
LINE
  5
B4
100
AcDbEntity
  8
Layer_1
  6
ByLayer
 62
    7
370
   -1
100
AcDbLine
 10
19.16848848759692
 20
66.81001861699841
 11
19.21702207106173
 21
66.78425306864487
  0
LINE
  5
B5
100
AcDbEntity
  8
Layer_1
  6
ByLayer
 62
    7
370
   -1
100
AcDbLine
 10
19.21702207106173
 20
66.78425306864487
 11
19.26407739820751
 21
66.75617304813534
  0
LINE
  5
B6
100
AcDbEntity
  8
Layer_1
  6
ByLayer
 62
    7
370
   -1
100
AcDbLine
 10
19.26407739820751
 20
66.75617304813534
 11
19.30957844298614
 21
66.72585436944043
  0
LINE
  5
B7
100
AcDbEntity
  8
Layer_1
  6
ByLayer
 62
    7
370
   -1
100
AcDbLine
 10
19.30957844298614
 20
66.72585436944043
 11
19.35344917934947
 21
66.69337284653082
  0
LINE
  5
B8
100
AcDbEntity
  8
Layer_1
  6
ByLayer
 62
    7
370
   -1
100
AcDbLine
 10
19.35344917934947
 20
66.69337284653082
 11
19.39561358124937
 21
66.65880429337719
  0
LINE
  5
B9
100
AcDbEntity
  8
Layer_1
  6
ByLayer
 62
    7
370
   -1
100
AcDbLine
 10
19.39561358124937
 20
66.65880429337719
 11
19.43599562263771
 21
66.62222452395018
  0
LINE
  5
BA
100
AcDbEntity
  8
Layer_1
  6
ByLayer
 62
    7
370
   -1
100
AcDbLine
 10
19.43599562263771
 20
66.62222452395018
 11
19.47451927746635
 21
66.58370935222047
  0
LINE
  5
BB
100
AcDbEntity
  8
Layer_1
  6
ByLayer
 62
    7
370
   -1
100
AcDbLine
 10
19.47451927746635
 20
66.58370935222047
 11
19.51110851968715
 21
66.5433345921587
  0
LINE
  5
BC
100
AcDbEntity
  8
Layer_1
  6
ByLayer
 62
    7
370
   -1
100
AcDbLine
 10
19.51110851968715
 20
66.5433345921587
 11
19.54568732325199
 21
66.50117605773556
  0
LINE
  5
BD
100
AcDbEntity
  8
Layer_1
  6
ByLayer
 62
    7
370
   -1
100
AcDbLine
 10
19.54568732325199
 20
66.50117605773556
 11
19.57817966211272
 21
66.45730956292168
  0
LINE
  5
BE
100
AcDbEntity
  8
Layer_1
  6
ByLayer
 62
    7
370
   -1
100
AcDbLine
 10
19.57817966211272
 20
66.45730956292168
 11
19.60850951022121
 21
66.41181092168775
  0
LINE
  5
BF
100
AcDbEntity
  8
Layer_1
  6
ByLayer
 62
    7
370
   -1
100
AcDbLine
 10
19.60850951022121
 20
66.41181092168775
 11
19.63660084152932
 21
66.36475594800444
  0
LINE
  5
C0
100
AcDbEntity
  8
Layer_1
  6
ByLayer
 62
    7
370
   -1
100
AcDbLine
 10
19.63660084152932
 20
66.36475594800444
 11
19.66237762998892
 21
66.31622045584237
  0
LINE
  5
C1
100
AcDbEntity
  8
Layer_1
  6
ByLayer
 62
    7
370
   -1
100
AcDbLine
 10
19.66237762998892
 20
66.31622045584237
 11
19.68576384955188
 21
66.26628025917223
  0
LINE
  5
C2
100
AcDbEntity
  8
Layer_1
  6
ByLayer
 62
    7
370
   -1
100
AcDbLine
 10
19.68576384955188
 20
66.26628025917223
 11
19.70668347417005
 21
66.21501117196469
  0
LINE
  5
C3
100
AcDbEntity
  8
Layer_1
  6
ByLayer
 62
    7
370
   -1
100
AcDbLine
 10
19.70668347417005
 20
66.21501117196469
 11
19.72506047779531
 21
66.16248900819039
  0
LINE
  5
C4
100
AcDbEntity
  8
Layer_1
  6
ByLayer
 62
    7
370
   -1
100
AcDbLine
 10
19.72506047779531
 20
66.16248900819039
 11
19.74081883437951
 21
66.10878958182001
  0
LINE
  5
C5
100
AcDbEntity
  8
Layer_1
  6
ByLayer
 62
    7
370
   -1
100
AcDbLine
 10
19.74081883437951
 20
66.10878958182001
 11
19.75388251787453
 21
66.05398870682421
  0
LINE
  5
C6
100
AcDbEntity
  8
Layer_1
  6
ByLayer
 62
    7
370
   -1
100
AcDbLine
 10
19.75388251787453
 20
66.05398870682421
 11
19.76417550223222
 21
65.99816219717364
  0
LINE
  5
C7
100
AcDbEntity
  8
Layer_1
  6
ByLayer
 62
    7
370
   -1
100
AcDbLine
 10
19.76417550223222
 20
65.99816219717364
 11
19.77162176140445
 21
65.94138586683897
  0
LINE
  5
C8
100
AcDbEntity
  8
Layer_1
  6
ByLayer
 62
    7
370
   -1
100
AcDbLine
 10
19.77162176140445
 20
65.94138586683897
 11
19.77614526934309
 21
65.88373552979088
  0
LINE
  5
C9
100
AcDbEntity
  8
Layer_1
  6
ByLayer
 62
    7
370
   -1
100
AcDbLine
 10
19.77614526934309
 20
65.88373552979088
 11
19.77767
 21
65.825287
  0
LINE
  5
CA
100
AcDbEntity
  8
Layer_1
  6
ByLayer
 62
    7
370
   -1
100
AcDbLine
 10
18.677639
 20
48.175349
 11
18.73605571816992
 21
48.17382426900741
  0
LINE
  5
CB
100
AcDbEntity
  8
Layer_1
  6
ByLayer
 62
    7
370
   -1
100
AcDbLine
 10
18.73605571816992
 20
48.17382426900741
 11
18.79367841445403
 21
48.16930075871908
  0
LINE
  5
CC
100
AcDbEntity
  8
Layer_1
  6
ByLayer
 62
    7
370
   -1
100
AcDbLine
 10
18.79367841445403
 20
48.16930075871908
 11
18.8504310628042
 21
48.16185449316907
  0
LINE
  5
CD
100
AcDbEntity
  8
Layer_1
  6
ByLayer
 62
    7
370
   -1
100
AcDbLine
 10
18.8504310628042
 20
48.16185449316907
 11
18.9062376371723
 21
48.15156149639153
  0
LINE
  5
CE
100
AcDbEntity
  8
Layer_1
  6
ByLayer
 62
    7
370
   -1
100
AcDbLine
 10
18.9062376371723
 20
48.15156149639153
 11
18.96102211151019
 21
48.13849779242052
  0
LINE
  5
CF
100
AcDbEntity
  8
Layer_1
  6
ByLayer
 62
    7
370
   -1
100
AcDbLine
 10
18.96102211151019
 20
48.13849779242052
 11
19.01470845976973
 21
48.12273940529019
  0
LINE
  5
D0
100
AcDbEntity
  8
Layer_1
  6
ByLayer
 62
    7
370
   -1
100
AcDbLine
 10
19.01470845976973
 20
48.12273940529019
 11
19.06722065590279
 21
48.1043623590346
  0
LINE
  5
D1
100
AcDbEntity
  8
Layer_1
  6
ByLayer
 62
    7
370
   -1
100
AcDbLine
 10
19.06722065590279
 20
48.1043623590346
 11
19.11848267386123
 21
48.08344267768789
  0
LINE
  5
D2
100
AcDbEntity
  8
Layer_1
  6
ByLayer
 62
    7
370
   -1
100
AcDbLine
 10
19.11848267386123
 20
48.08344267768789
 11
19.16841848759692
 21
48.06005638528414
  0
LINE
  5
D3
100
AcDbEntity
  8
Layer_1
  6
ByLayer
 62
    7
370
   -1
100
AcDbLine
 10
19.16841848759692
 20
48.06005638528414
 11
19.21695207106173
 21
48.03427950585746
  0
LINE
  5
D4
100
AcDbEntity
  8
Layer_1
  6
ByLayer
 62
    7
370
   -1
100
AcDbLine
 10
19.21695207106173
 20
48.03427950585746
 11
19.26400739820751
 21
48.00618806344198
  0
LINE
  5
D5
100
AcDbEntity
  8
Layer_1
  6
ByLayer
 62
    7
370
   -1
100
AcDbLine
 10
19.26400739820751
 20
48.00618806344198
 11
19.30950844298614
 21
47.97585808207176
  0
LINE
  5
D6
100
AcDbEntity
  8
Layer_1
  6
ByLayer
 62
    7
370
   -1
100
AcDbLine
 10
19.30950844298614
 20
47.97585808207176
 11
19.35337917934947
 21
47.94336558578094
  0
LINE
  5
D7
100
AcDbEntity
  8
Layer_1
  6
ByLayer
 62
    7
370
   -1
100
AcDbLine
 10
19.35337917934947
 20
47.94336558578094
 11
19.39554358124937
 21
47.90878659860361
  0
LINE
  5
D8
100
AcDbEntity
  8
Layer_1
  6
ByLayer
 62
    7
370
   -1
100
AcDbLine
 10
19.39554358124937
 20
47.90878659860361
 11
19.43592562263771
 21
47.87219714457387
  0
LINE
  5
D9
100
AcDbEntity
  8
Layer_1
  6
ByLayer
 62
    7
370
   -1
100
AcDbLine
 10
19.43592562263771
 20
47.87219714457387
 11
19.47444927746635
 21
47.83367324772582
  0
LINE
  5
DA
100
AcDbEntity
  8
Layer_1
  6
ByLayer
 62
    7
370
   -1
100
AcDbLine
 10
19.47444927746635
 20
47.83367324772582
 11
19.51103851968715
 21
47.79329093209358
  0
LINE
  5
DB
100
AcDbEntity
  8
Layer_1
  6
ByLayer
 62
    7
370
   -1
100
AcDbLine
 10
19.51103851968715
 20
47.79329093209358
 11
19.54561732325199
 21
47.75112622171126
  0
LINE
  5
DC
100
AcDbEntity
  8
Layer_1
  6
ByLayer
 62
    7
370
   -1
100
AcDbLine
 10
19.54561732325199
 20
47.75112622171126
 11
19.57810966211272
 21
47.70725514061294
  0
LINE
  5
DD
100
AcDbEntity
  8
Layer_1
  6
ByLayer
 62
    7
370
   -1
100
AcDbLine
 10
19.57810966211272
 20
47.70725514061294
 11
19.60843951022121
 21
47.66175371283273
  0
LINE
  5
DE
100
AcDbEntity
  8
Layer_1
  6
ByLayer
 62
    7
370
   -1
100
AcDbLine
 10
19.60843951022121
 20
47.66175371283273
 11
19.63653084152932
 21
47.61469796240475
  0
LINE
  5
DF
100
AcDbEntity
  8
Layer_1
  6
ByLayer
 62
    7
370
   -1
100
AcDbLine
 10
19.63653084152932
 20
47.61469796240475
 11
19.66230762998892
 21
47.5661639133631
  0
LINE
  5
E0
100
AcDbEntity
  8
Layer_1
  6
ByLayer
 62
    7
370
   -1
100
AcDbLine
 10
19.66230762998892
 20
47.5661639133631
 11
19.68569384955188
 21
47.51622758974187
  0
LINE
  5
E1
100
AcDbEntity
  8
Layer_1
  6
ByLayer
 62
    7
370
   -1
100
AcDbLine
 10
19.68569384955188
 20
47.51622758974187
 11
19.70661347417005
 21
47.46496501557517
  0
LINE
  5
E2
100
AcDbEntity
  8
Layer_1
  6
ByLayer
 62
    7
370
   -1
100
AcDbLine
 10
19.70661347417005
 20
47.46496501557517
 11
19.72499047779531
 21
47.41245221489712
  0
LINE
  5
E3
100
AcDbEntity
  8
Layer_1
  6
ByLayer
 62
    7
370
   -1
100
AcDbLine
 10
19.72499047779531
 20
47.41245221489712
 11
19.74074883437951
 21
47.3587652117418
  0
LINE
  5
E4
100
AcDbEntity
  8
Layer_1
  6
ByLayer
 62
    7
370
   -1
100
AcDbLine
 10
19.74074883437951
 20
47.3587652117418
 11
19.75381251787453
 21
47.30398003014334
  0
LINE
  5
E5
100
AcDbEntity
  8
Layer_1
  6
ByLayer
 62
    7
370
   -1
100
AcDbLine
 10
19.75381251787453
 20
47.30398003014334
 11
19.76410550223222
 21
47.24817269413581
  0
LINE
  5
E6
100
AcDbEntity
  8
Layer_1
  6
ByLayer
 62
    7
370
   -1
100
AcDbLine
 10
19.76410550223222
 20
47.24817269413581
 11
19.77155176140445
 21
47.19141922775335
  0
LINE
  5
E7
100
AcDbEntity
  8
Layer_1
  6
ByLayer
 62
    7
370
   -1
100
AcDbLine
 10
19.77155176140445
 20
47.19141922775335
 11
19.77607526934309
 21
47.13379565503004
  0
LINE
  5
E8
100
AcDbEntity
  8
Layer_1
  6
ByLayer
 62
    7
370
   -1
100
AcDbLine
 10
19.77607526934309
 20
47.13379565503004
 11
19.7776
 21
47.075378
  0
LINE
  5
E9
100
AcDbEntity
  8
Layer_1
  6
ByLayer
 62
    7
370
   -1
100
AcDbLine
 10
19.7776
 20
47.075378
 11
19.77607526934309
 21
47.0169612848847
  0
LINE
  5
EA
100
AcDbEntity
  8
Layer_1
  6
ByLayer
 62
    7
370
   -1
100
AcDbLine
 10
19.77607526934309
 20
47.0169612848847
 11
19.77155176140446
 21
46.9593385974959
  0
LINE
  5
EB
100
AcDbEntity
  8
Layer_1
  6
ByLayer
 62
    7
370
   -1
100
AcDbLine
 10
19.77155176140446
 20
46.9593385974959
 11
19.76410550223222
 21
46.90258596347891
  0
LINE
  5
EC
100
AcDbEntity
  8
Layer_1
  6
ByLayer
 62
    7
370
   -1
100
AcDbLine
 10
19.76410550223222
 20
46.90258596347891
 11
19.75381251787453
 21
46.84677940847907
  0
LINE
  5
ED
100
AcDbEntity
  8
Layer_1
  6
ByLayer
 62
    7
370
   -1
100
AcDbLine
 10
19.75381251787453
 20
46.84677940847907
 11
19.74074883437951
 21
46.79199495814171
  0
LINE
  5
EE
100
AcDbEntity
  8
Layer_1
  6
ByLayer
 62
    7
370
   -1
100
AcDbLine
 10
19.74074883437951
 20
46.79199495814171
 11
19.72499047779531
 21
46.73830863811219
  0
LINE
  5
EF
100
AcDbEntity
  8
Layer_1
  6
ByLayer
 62
    7
370
   -1
100
AcDbLine
 10
19.72499047779531
 20
46.73830863811219
 11
19.70661347417005
 21
46.68579647403578
  0
LINE
  5
F0
100
AcDbEntity
  8
Layer_1
  6
ByLayer
 62
    7
370
   -1
100
AcDbLine
 10
19.70661347417005
 20
46.68579647403578
 11
19.68569384955188
 21
46.63453449155785
  0
LINE
  5
F1
100
AcDbEntity
  8
Layer_1
  6
ByLayer
 62
    7
370
   -1
100
AcDbLine
 10
19.68569384955188
 20
46.63453449155785
 11
19.66230762998892
 21
46.58459871632371
  0
LINE
  5
F2
100
AcDbEntity
  8
Layer_1
  6
ByLayer
 62
    7
370
   -1
100
AcDbLine
 10
19.66230762998892
 20
46.58459871632371
 11
19.63653084152932
 21
46.53606517397871
  0
LINE
  5
F3
100
AcDbEntity
  8
Layer_1
  6
ByLayer
 62
    7
370
   -1
100
AcDbLine
 10
19.63653084152932
 20
46.53606517397871
 11
19.60843951022121
 21
46.48900989016818
  0
LINE
  5
F4
100
AcDbEntity
  8
Layer_1
  6
ByLayer
 62
    7
370
   -1
100
AcDbLine
 10
19.60843951022121
 20
46.48900989016818
 11
19.57810966211272
 21
46.44350889053742
  0
LINE
  5
F5
100
AcDbEntity
  8
Layer_1
  6
ByLayer
 62
    7
370
   -1
100
AcDbLine
 10
19.57810966211272
 20
46.44350889053742
 11
19.54561732325199
 21
46.39963820073176
  0
LINE
  5
F6
100
AcDbEntity
  8
Layer_1
  6
ByLayer
 62
    7
370
   -1
100
AcDbLine
 10
19.54561732325199
 20
46.39963820073176
 11
19.51103851968715
 21
46.35747384639657
  0
LINE
  5
F7
100
AcDbEntity
  8
Layer_1
  6
ByLayer
 62
    7
370
   -1
100
AcDbLine
 10
19.51103851968715
 20
46.35747384639657
 11
19.47444927746635
 21
46.31709185317713
  0
LINE
  5
F8
100
AcDbEntity
  8
Layer_1
  6
ByLayer
 62
    7
370
   -1
100
AcDbLine
 10
19.47444927746635
 20
46.31709185317713
 11
19.43592562263771
 21
46.27856824671881
  0
LINE
  5
F9
100
AcDbEntity
  8
Layer_1
  6
ByLayer
 62
    7
370
   -1
100
AcDbLine
 10
19.43592562263771
 20
46.27856824671881
 11
19.39554358124937
 21
46.24197905266691
  0
LINE
  5
FA
100
AcDbEntity
  8
Layer_1
  6
ByLayer
 62
    7
370
   -1
100
AcDbLine
 10
19.39554358124937
 20
46.24197905266691
 11
19.35337917934947
 21
46.20740029666678
  0
LINE
  5
FB
100
AcDbEntity
  8
Layer_1
  6
ByLayer
 62
    7
370
   -1
100
AcDbLine
 10
19.35337917934947
 20
46.20740029666678
 11
19.30950844298614
 21
46.17490800436374
  0
LINE
  5
FC
100
AcDbEntity
  8
Layer_1
  6
ByLayer
 62
    7
370
   -1
100
AcDbLine
 10
19.30950844298614
 20
46.17490800436374
 11
19.26400739820751
 21
46.14457820140311
  0
LINE
  5
FD
100
AcDbEntity
  8
Layer_1
  6
ByLayer
 62
    7
370
   -1
100
AcDbLine
 10
19.26400739820751
 20
46.14457820140311
 11
19.21695207106173
 21
46.11648691343023
  0
LINE
  5
FE
100
AcDbEntity
  8
Layer_1
  6
ByLayer
 62
    7
370
   -1
100
AcDbLine
 10
19.21695207106173
 20
46.11648691343023
 11
19.16841848759692
 21
46.09071016609043
  0
LINE
  5
FF
100
AcDbEntity
  8
Layer_1
  6
ByLayer
 62
    7
370
   -1
100
AcDbLine
 10
19.16841848759692
 20
46.09071016609043
 11
19.11848267386123
 21
46.06732398502903
  0
LINE
  5
100
100
AcDbEntity
  8
Layer_1
  6
ByLayer
 62
    7
370
   -1
100
AcDbLine
 10
19.11848267386123
 20
46.06732398502903
 11
19.06722065590279
 21
46.04640439589137
  0
LINE
  5
101
100
AcDbEntity
  8
Layer_1
  6
ByLayer
 62
    7
370
   -1
100
AcDbLine
 10
19.06722065590279
 20
46.04640439589137
 11
19.01470845976973
 21
46.02802742432278
  0
LINE
  5
102
100
AcDbEntity
  8
Layer_1
  6
ByLayer
 62
    7
370
   -1
100
AcDbLine
 10
19.01470845976973
 20
46.02802742432278
 11
18.96102211151019
 21
46.01226909596858
  0
LINE
  5
103
100
AcDbEntity
  8
Layer_1
  6
ByLayer
 62
    7
370
   -1
100
AcDbLine
 10
18.96102211151019
 20
46.01226909596858
 11
18.9062376371723
 21
45.9992054364741
  0
LINE
  5
104
100
AcDbEntity
  8
Layer_1
  6
ByLayer
 62
    7
370
   -1
100
AcDbLine
 10
18.9062376371723
 20
45.9992054364741
 11
18.8504310628042
 21
45.98891247148467
  0
LINE
  5
105
100
AcDbEntity
  8
Layer_1
  6
ByLayer
 62
    7
370
   -1
100
AcDbLine
 10
18.8504310628042
 20
45.98891247148467
 11
18.79367841445403
 21
45.98146622664562
  0
LINE
  5
106
100
AcDbEntity
  8
Layer_1
  6
ByLayer
 62
    7
370
   -1
100
AcDbLine
 10
18.79367841445403
 20
45.98146622664562
 11
18.73605571816992
 21
45.97694272760229
  0
LINE
  5
107
100
AcDbEntity
  8
Layer_1
  6
ByLayer
 62
    7
370
   -1
100
AcDbLine
 10
18.73605571816992
 20
45.97694272760229
 11
18.677639
 21
45.975418
  0
LINE
  5
108
100
AcDbEntity
  8
Layer_1
  6
ByLayer
 62
    7
370
   -1
100
AcDbLine
 10
18.677639
 20
45.975418
 11
18.6192222848847
 21
45.97694272760229
  0
LINE
  5
109
100
AcDbEntity
  8
Layer_1
  6
ByLayer
 62
    7
370
   -1
100
AcDbLine
 10
18.6192222848847
 20
45.97694272760229
 11
18.56159959749589
 21
45.98146622664564
  0
LINE
  5
10A
100
AcDbEntity
  8
Layer_1
  6
ByLayer
 62
    7
370
   -1
100
AcDbLine
 10
18.56159959749589
 20
45.98146622664564
 11
18.5048469634789
 21
45.98891247148467
  0
LINE
  5
10B
100
AcDbEntity
  8
Layer_1
  6
ByLayer
 62
    7
370
   -1
100
AcDbLine
 10
18.5048469634789
 20
45.98891247148467
 11
18.44904040847907
 21
45.9992054364741
  0
LINE
  5
10C
100
AcDbEntity
  8
Layer_1
  6
ByLayer
 62
    7
370
   -1
100
AcDbLine
 10
18.44904040847907
 20
45.9992054364741
 11
18.39425595814172
 21
46.01226909596858
  0
LINE
  5
10D
100
AcDbEntity
  8
Layer_1
  6
ByLayer
 62
    7
370
   -1
100
AcDbLine
 10
18.39425595814172
 20
46.01226909596858
 11
18.34056963811219
 21
46.02802742432279
  0
LINE
  5
10E
100
AcDbEntity
  8
Layer_1
  6
ByLayer
 62
    7
370
   -1
100
AcDbLine
 10
18.34056963811219
 20
46.02802742432279
 11
18.28805747403578
 21
46.04640439589137
  0
LINE
  5
10F
100
AcDbEntity
  8
Layer_1
  6
ByLayer
 62
    7
370
   -1
100
AcDbLine
 10
18.28805747403578
 20
46.04640439589137
 11
18.23679549155786
 21
46.06732398502903
  0
LINE
  5
110
100
AcDbEntity
  8
Layer_1
  6
ByLayer
 62
    7
370
   -1
100
AcDbLine
 10
18.23679549155786
 20
46.06732398502903
 11
18.18685971632372
 21
46.09071016609042
  0
LINE
  5
111
100
AcDbEntity
  8
Layer_1
  6
ByLayer
 62
    7
370
   -1
100
AcDbLine
 10
18.18685971632372
 20
46.09071016609042
 11
18.13832617397871
 21
46.11648691343022
  0
LINE
  5
112
100
AcDbEntity
  8
Layer_1
  6
ByLayer
 62
    7
370
   -1
100
AcDbLine
 10
18.13832617397871
 20
46.11648691343022
 11
18.09127089016818
 21
46.14457820140311
  0
LINE
  5
113
100
AcDbEntity
  8
Layer_1
  6
ByLayer
 62
    7
370
   -1
100
AcDbLine
 10
18.09127089016818
 20
46.14457820140311
 11
18.04576989053741
 21
46.17490800436373
  0
LINE
  5
114
100
AcDbEntity
  8
Layer_1
  6
ByLayer
 62
    7
370
   -1
100
AcDbLine
 10
18.04576989053741
 20
46.17490800436373
 11
18.00189920073177
 21
46.20740029666678
  0
LINE
  5
115
100
AcDbEntity
  8
Layer_1
  6
ByLayer
 62
    7
370
   -1
100
AcDbLine
 10
18.00189920073177
 20
46.20740029666678
 11
17.95973484639656
 21
46.24197905266691
  0
LINE
  5
116
100
AcDbEntity
  8
Layer_1
  6
ByLayer
 62
    7
370
   -1
100
AcDbLine
 10
17.95973484639656
 20
46.24197905266691
 11
17.91935285317713
 21
46.27856824671881
  0
LINE
  5
117
100
AcDbEntity
  8
Layer_1
  6
ByLayer
 62
    7
370
   -1
100
AcDbLine
 10
17.91935285317713
 20
46.27856824671881
 11
17.8808292467188
 21
46.31709185317712
  0
LINE
  5
118
100
AcDbEntity
  8
Layer_1
  6
ByLayer
 62
    7
370
   -1
100
AcDbLine
 10
17.8808292467188
 20
46.31709185317712
 11
17.84424005266692
 21
46.35747384639656
  0
LINE
  5
119
100
AcDbEntity
  8
Layer_1
  6
ByLayer
 62
    7
370
   -1
100
AcDbLine
 10
17.84424005266692
 20
46.35747384639656
 11
17.80966129666678
 21
46.39963820073176
  0
LINE
  5
11A
100
AcDbEntity
  8
Layer_1
  6
ByLayer
 62
    7
370
   -1
100
AcDbLine
 10
17.80966129666678
 20
46.39963820073176
 11
17.77716900436373
 21
46.44350889053741
  0
LINE
  5
11B
100
AcDbEntity
  8
Layer_1
  6
ByLayer
 62
    7
370
   -1
100
AcDbLine
 10
17.77716900436373
 20
46.44350889053741
 11
17.74683920140311
 21
46.48900989016817
  0
LINE
  5
11C
100
AcDbEntity
  8
Layer_1
  6
ByLayer
 62
    7
370
   -1
100
AcDbLine
 10
17.74683920140311
 20
46.48900989016817
 11
17.71874791343023
 21
46.53606517397872
  0
LINE
  5
11D
100
AcDbEntity
  8
Layer_1
  6
ByLayer
 62
    7
370
   -1
100
AcDbLine
 10
17.71874791343023
 20
46.53606517397872
 11
17.69297116609043
 21
46.58459871632373
  0
LINE
  5
11E
100
AcDbEntity
  8
Layer_1
  6
ByLayer
 62
    7
370
   -1
100
AcDbLine
 10
17.69297116609043
 20
46.58459871632373
 11
17.66958498502903
 21
46.63453449155786
  0
LINE
  5
11F
100
AcDbEntity
  8
Layer_1
  6
ByLayer
 62
    7
370
   -1
100
AcDbLine
 10
17.66958498502903
 20
46.63453449155786
 11
17.64866539589138
 21
46.68579647403578
  0
LINE
  5
120
100
AcDbEntity
  8
Layer_1
  6
ByLayer
 62
    7
370
   -1
100
AcDbLine
 10
17.64866539589138
 20
46.68579647403578
 11
17.63028842432278
 21
46.73830863811218
  0
LINE
  5
121
100
AcDbEntity
  8
Layer_1
  6
ByLayer
 62
    7
370
   -1
100
AcDbLine
 10
17.63028842432278
 20
46.73830863811218
 11
17.61453009596858
 21
46.79199495814171
  0
LINE
  5
122
100
AcDbEntity
  8
Layer_1
  6
ByLayer
 62
    7
370
   -1
100
AcDbLine
 10
17.61453009596858
 20
46.79199495814171
 11
17.60146643647411
 21
46.84677940847907
  0
LINE
  5
123
100
AcDbEntity
  8
Layer_1
  6
ByLayer
 62
    7
370
   -1
100
AcDbLine
 10
17.60146643647411
 20
46.84677940847907
 11
17.59117347148468
 21
46.9025859634789
  0
LINE
  5
124
100
AcDbEntity
  8
Layer_1
  6
ByLayer
 62
    7
370
   -1
100
AcDbLine
 10
17.59117347148468
 20
46.9025859634789
 11
17.58372722664563
 21
46.95933859749589
  0
LINE
  5
125
100
AcDbEntity
  8
Layer_1
  6
ByLayer
 62
    7
370
   -1
100
AcDbLine
 10
17.58372722664563
 20
46.95933859749589
 11
17.57920372760229
 21
47.01696128488469
  0
LINE
  5
126
100
AcDbEntity
  8
Layer_1
  6
ByLayer
 62
    7
370
   -1
100
AcDbLine
 10
17.57920372760229
 20
47.01696128488469
 11
17.577679
 21
47.075378
  0
LINE
  5
127
100
AcDbEntity
  8
Layer_1
  6
ByLayer
 62
    7
370
   -1
100
AcDbLine
 10
17.577679
 20
47.075378
 11
17.57920372760229
 21
47.13379565503004
  0
LINE
  5
128
100
AcDbEntity
  8
Layer_1
  6
ByLayer
 62
    7
370
   -1
100
AcDbLine
 10
17.57920372760229
 20
47.13379565503004
 11
17.58372722664563
 21
47.19141922775336
  0
LINE
  5
129
100
AcDbEntity
  8
Layer_1
  6
ByLayer
 62
    7
370
   -1
100
AcDbLine
 10
17.58372722664563
 20
47.19141922775336
 11
17.59117347148468
 21
47.24817269413581
  0
LINE
  5
12A
100
AcDbEntity
  8
Layer_1
  6
ByLayer
 62
    7
370
   -1
100
AcDbLine
 10
17.59117347148468
 20
47.24817269413581
 11
17.60146643647411
 21
47.30398003014334
  0
LINE
  5
12B
100
AcDbEntity
  8
Layer_1
  6
ByLayer
 62
    7
370
   -1
100
AcDbLine
 10
17.60146643647411
 20
47.30398003014334
 11
17.61453009596858
 21
47.35876521174179
  0
LINE
  5
12C
100
AcDbEntity
  8
Layer_1
  6
ByLayer
 62
    7
370
   -1
100
AcDbLine
 10
17.61453009596858
 20
47.35876521174179
 11
17.63028842432278
 21
47.41245221489712
  0
LINE
  5
12D
100
AcDbEntity
  8
Layer_1
  6
ByLayer
 62
    7
370
   -1
100
AcDbLine
 10
17.63028842432278
 20
47.41245221489712
 11
17.64866539589138
 21
47.46496501557517
  0
LINE
  5
12E
100
AcDbEntity
  8
Layer_1
  6
ByLayer
 62
    7
370
   -1
100
AcDbLine
 10
17.64866539589138
 20
47.46496501557517
 11
17.66958498502904
 21
47.51622758974187
  0
LINE
  5
12F
100
AcDbEntity
  8
Layer_1
  6
ByLayer
 62
    7
370
   -1
100
AcDbLine
 10
17.66958498502904
 20
47.51622758974187
 11
17.69297116609043
 21
47.56616391336309
  0
LINE
  5
130
100
AcDbEntity
  8
Layer_1
  6
ByLayer
 62
    7
370
   -1
100
AcDbLine
 10
17.69297116609043
 20
47.56616391336309
 11
17.71874791343023
 21
47.61469796240474
  0
LINE
  5
131
100
AcDbEntity
  8
Layer_1
  6
ByLayer
 62
    7
370
   -1
100
AcDbLine
 10
17.71874791343023
 20
47.61469796240474
 11
17.74683920140311
 21
47.66175371283273
  0
LINE
  5
132
100
AcDbEntity
  8
Layer_1
  6
ByLayer
 62
    7
370
   -1
100
AcDbLine
 10
17.74683920140311
 20
47.66175371283273
 11
17.77716900436373
 21
47.70725514061293
  0
LINE
  5
133
100
AcDbEntity
  8
Layer_1
  6
ByLayer
 62
    7
370
   -1
100
AcDbLine
 10
17.77716900436373
 20
47.70725514061293
 11
17.80966129666678
 21
47.75112622171125
  0
LINE
  5
134
100
AcDbEntity
  8
Layer_1
  6
ByLayer
 62
    7
370
   -1
100
AcDbLine
 10
17.80966129666678
 20
47.75112622171125
 11
17.84424005266691
 21
47.79329093209358
  0
LINE
  5
135
100
AcDbEntity
  8
Layer_1
  6
ByLayer
 62
    7
370
   -1
100
AcDbLine
 10
17.84424005266691
 20
47.79329093209358
 11
17.88082924671881
 21
47.83367324772583
  0
LINE
  5
136
100
AcDbEntity
  8
Layer_1
  6
ByLayer
 62
    7
370
   -1
100
AcDbLine
 10
17.88082924671881
 20
47.83367324772583
 11
17.91935285317713
 21
47.87219714457386
  0
LINE
  5
137
100
AcDbEntity
  8
Layer_1
  6
ByLayer
 62
    7
370
   -1
100
AcDbLine
 10
17.91935285317713
 20
47.87219714457386
 11
17.95973484639656
 21
47.90878659860361
  0
LINE
  5
138
100
AcDbEntity
  8
Layer_1
  6
ByLayer
 62
    7
370
   -1
100
AcDbLine
 10
17.95973484639656
 20
47.90878659860361
 11
18.00189920073177
 21
47.94336558578095
  0
LINE
  5
139
100
AcDbEntity
  8
Layer_1
  6
ByLayer
 62
    7
370
   -1
100
AcDbLine
 10
18.00189920073177
 20
47.94336558578095
 11
18.04576989053741
 21
47.97585808207177
  0
LINE
  5
13A
100
AcDbEntity
  8
Layer_1
  6
ByLayer
 62
    7
370
   -1
100
AcDbLine
 10
18.04576989053741
 20
47.97585808207177
 11
18.09127089016817
 21
48.00618806344197
  0
LINE
  5
13B
100
AcDbEntity
  8
Layer_1
  6
ByLayer
 62
    7
370
   -1
100
AcDbLine
 10
18.09127089016817
 20
48.00618806344197
 11
18.13832617397872
 21
48.03427950585747
  0
LINE
  5
13C
100
AcDbEntity
  8
Layer_1
  6
ByLayer
 62
    7
370
   -1
100
AcDbLine
 10
18.13832617397872
 20
48.03427950585747
 11
18.18685971632372
 21
48.06005638528414
  0
LINE
  5
13D
100
AcDbEntity
  8
Layer_1
  6
ByLayer
 62
    7
370
   -1
100
AcDbLine
 10
18.18685971632372
 20
48.06005638528414
 11
18.23679549155785
 21
48.08344267768789
  0
LINE
  5
13E
100
AcDbEntity
  8
Layer_1
  6
ByLayer
 62
    7
370
   -1
100
AcDbLine
 10
18.23679549155785
 20
48.08344267768789
 11
18.28805747403578
 21
48.1043623590346
  0
LINE
  5
13F
100
AcDbEntity
  8
Layer_1
  6
ByLayer
 62
    7
370
   -1
100
AcDbLine
 10
18.28805747403578
 20
48.1043623590346
 11
18.34056963811218
 21
48.12273940529019
  0
LINE
  5
140
100
AcDbEntity
  8
Layer_1
  6
ByLayer
 62
    7
370
   -1
100
AcDbLine
 10
18.34056963811218
 20
48.12273940529019
 11
18.39425595814172
 21
48.13849779242052
  0
LINE
  5
141
100
AcDbEntity
  8
Layer_1
  6
ByLayer
 62
    7
370
   -1
100
AcDbLine
 10
18.39425595814172
 20
48.13849779242052
 11
18.44904040847907
 21
48.15156149639152
  0
LINE
  5
142
100
AcDbEntity
  8
Layer_1
  6
ByLayer
 62
    7
370
   -1
100
AcDbLine
 10
18.44904040847907
 20
48.15156149639152
 11
18.5048469634789
 21
48.16185449316907
  0
LINE
  5
143
100
AcDbEntity
  8
Layer_1
  6
ByLayer
 62
    7
370
   -1
100
AcDbLine
 10
18.5048469634789
 20
48.16185449316907
 11
18.56159959749588
 21
48.16930075871907
  0
LINE
  5
144
100
AcDbEntity
  8
Layer_1
  6
ByLayer
 62
    7
370
   -1
100
AcDbLine
 10
18.56159959749588
 20
48.16930075871907
 11
18.6192222848847
 21
48.17382426900742
  0
LINE
  5
145
100
AcDbEntity
  8
Layer_1
  6
ByLayer
 62
    7
370
   -1
100
AcDbLine
 10
18.6192222848847
 20
48.17382426900742
 11
18.677639
 21
48.175349
  0
LINE
  5
146
100
AcDbEntity
  8
Layer_1
  6
ByLayer
 62
    7
370
   -1
100
AcDbLine
 10
19.77767
 20
65.825287
 11
19.77767
 21
65.825287
  0
LINE
  5
147
100
AcDbEntity
  8
Layer_1
  6
ByLayer
 62
    7
370
   -1
100
AcDbLine
 10
94.67754600000001
 20
70.67531
 11
94.7359945297909
 21
70.67378526934309
  0
LINE
  5
148
100
AcDbEntity
  8
Layer_1
  6
ByLayer
 62
    7
370
   -1
100
AcDbLine
 10
94.7359945297909
 20
70.67378526934309
 11
94.79364486683899
 21
70.66926176140447
  0
LINE
  5
149
100
AcDbEntity
  8
Layer_1
  6
ByLayer
 62
    7
370
   -1
100
AcDbLine
 10
94.79364486683899
 20
70.66926176140447
 11
94.85042119717365
 21
70.66181550223223
  0
LINE
  5
14A
100
AcDbEntity
  8
Layer_1
  6
ByLayer
 62
    7
370
   -1
100
AcDbLine
 10
94.85042119717365
 20
70.66181550223223
 11
94.90624770682423
 21
70.65152251787451
  0
LINE
  5
14B
100
AcDbEntity
  8
Layer_1
  6
ByLayer
 62
    7
370
   -1
100
AcDbLine
 10
94.90624770682423
 20
70.65152251787451
 11
94.96104858182001
 21
70.63845883437949
  0
LINE
  5
14C
100
AcDbEntity
  8
Layer_1
  6
ByLayer
 62
    7
370
   -1
100
AcDbLine
 10
94.96104858182001
 20
70.63845883437949
 11
95.01474800819041
 21
70.62270047779532
  0
LINE
  5
14D
100
AcDbEntity
  8
Layer_1
  6
ByLayer
 62
    7
370
   -1
100
AcDbLine
 10
95.01474800819041
 20
70.62270047779532
 11
95.06727017196468
 21
70.60432347417006
  0
LINE
  5
14E
100
AcDbEntity
  8
Layer_1
  6
ByLayer
 62
    7
370
   -1
100
AcDbLine
 10
95.06727017196468
 20
70.60432347417006
 11
95.11853925917222
 21
70.58340384955189
  0
LINE
  5
14F
100
AcDbEntity
  8
Layer_1
  6
ByLayer
 62
    7
370
   -1
100
AcDbLine
 10
95.11853925917222
 20
70.58340384955189
 11
95.16847945584236
 21
70.56001762998892
  0
LINE
  5
150
100
AcDbEntity
  8
Layer_1
  6
ByLayer
 62
    7
370
   -1
100
AcDbLine
 10
95.16847945584236
 20
70.56001762998892
 11
95.21701494800443
 21
70.53424084152931
  0
LINE
  5
151
100
AcDbEntity
  8
Layer_1
  6
ByLayer
 62
    7
370
   -1
100
AcDbLine
 10
95.21701494800443
 20
70.53424084152931
 11
95.26406992168776
 21
70.50614951022121
  0
LINE
  5
152
100
AcDbEntity
  8
Layer_1
  6
ByLayer
 62
    7
370
   -1
100
AcDbLine
 10
95.26406992168776
 20
70.50614951022121
 11
95.30956856292168
 21
70.47581966211271
  0
LINE
  5
153
100
AcDbEntity
  8
Layer_1
  6
ByLayer
 62
    7
370
   -1
100
AcDbLine
 10
95.30956856292168
 20
70.47581966211271
 11
95.35343505773557
 21
70.44332732325198
  0
LINE
  5
154
100
AcDbEntity
  8
Layer_1
  6
ByLayer
 62
    7
370
   -1
100
AcDbLine
 10
95.35343505773557
 20
70.44332732325198
 11
95.39559359215869
 21
70.40874851968715
  0
LINE
  5
155
100
AcDbEntity
  8
Layer_1
  6
ByLayer
 62
    7
370
   -1
100
AcDbLine
 10
95.39559359215869
 20
70.40874851968715
 11
95.43596835222047
 21
70.37215927746635
  0
LINE
  5
156
100
AcDbEntity
  8
Layer_1
  6
ByLayer
 62
    7
370
   -1
100
AcDbLine
 10
95.43596835222047
 20
70.37215927746635
 11
95.47448352395018
 21
70.3336356226377
  0
LINE
  5
157
100
AcDbEntity
  8
Layer_1
  6
ByLayer
 62
    7
370
   -1
100
AcDbLine
 10
95.47448352395018
 20
70.3336356226377
 11
95.51106329337719
 21
70.29325358124937
  0
LINE
  5
158
100
AcDbEntity
  8
Layer_1
  6
ByLayer
 62
    7
370
   -1
100
AcDbLine
 10
95.51106329337719
 20
70.29325358124937
 11
95.54563184653084
 21
70.25108917934946
  0
LINE
  5
159
100
AcDbEntity
  8
Layer_1
  6
ByLayer
 62
    7
370
   -1
100
AcDbLine
 10
95.54563184653084
 20
70.25108917934946
 11
95.57811336944044
 21
70.20721844298613
  0
LINE
  5
15A
100
AcDbEntity
  8
Layer_1
  6
ByLayer
 62
    7
370
   -1
100
AcDbLine
 10
95.57811336944044
 20
70.20721844298613
 11
95.60843204813534
 21
70.1617173982075
  0
LINE
  5
15B
100
AcDbEntity
  8
Layer_1
  6
ByLayer
 62
    7
370
   -1
100
AcDbLine
 10
95.60843204813534
 20
70.1617173982075
 11
95.63651206864489
 21
70.11466207106173
  0
LINE
  5
15C
100
AcDbEntity
  8
Layer_1
  6
ByLayer
 62
    7
370
   -1
100
AcDbLine
 10
95.63651206864489
 20
70.11466207106173
 11
95.66227761699842
 21
70.06612848759693
  0
LINE
  5
15D
100
AcDbEntity
  8
Layer_1
  6
ByLayer
 62
    7
370
   -1
100
AcDbLine
 10
95.66227761699842
 20
70.06612848759693
 11
95.68565287922527
 21
70.01619267386124
  0
LINE
  5
15E
100
AcDbEntity
  8
Layer_1
  6
ByLayer
 62
    7
370
   -1
100
AcDbLine
 10
95.68565287922527
 20
70.01619267386124
 11
95.70656204135477
 21
69.96493065590279
  0
LINE
  5
15F
100
AcDbEntity
  8
Layer_1
  6
ByLayer
 62
    7
370
   -1
100
AcDbLine
 10
95.70656204135477
 20
69.96493065590279
 11
95.72492928941627
 21
69.91241845976973
  0
LINE
  5
160
100
AcDbEntity
  8
Layer_1
  6
ByLayer
 62
    7
370
   -1
100
AcDbLine
 10
95.72492928941627
 20
69.91241845976973
 11
95.74067880943909
 21
69.85873211151019
  0
LINE
  5
161
100
AcDbEntity
  8
Layer_1
  6
ByLayer
 62
    7
370
   -1
100
AcDbLine
 10
95.74067880943909
 20
69.85873211151019
 11
95.75373478745259
 21
69.8039476371723
  0
LINE
  5
162
100
AcDbEntity
  8
Layer_1
  6
ByLayer
 62
    7
370
   -1
100
AcDbLine
 10
95.75373478745259
 20
69.8039476371723
 11
95.76402140948609
 21
69.74814106280419
  0
LINE
  5
163
100
AcDbEntity
  8
Layer_1
  6
ByLayer
 62
    7
370
   -1
100
AcDbLine
 10
95.76402140948609
 20
69.74814106280419
 11
95.77146286156892
 21
69.69138841445402
  0
LINE
  5
164
100
AcDbEntity
  8
Layer_1
  6
ByLayer
 62
    7
370
   -1
100
AcDbLine
 10
95.77146286156892
 20
69.69138841445402
 11
95.77598332973045
 21
69.63376571816993
  0
LINE
  5
165
100
AcDbEntity
  8
Layer_1
  6
ByLayer
 62
    7
370
   -1
100
AcDbLine
 10
95.77598332973045
 20
69.63376571816993
 11
95.777507
 21
69.575349
  0
LINE
  5
166
100
AcDbEntity
  8
Layer_1
  6
ByLayer
 62
    7
370
   -1
100
AcDbLine
 10
95.777507
 20
69.575349
 11
95.77598332973048
 21
69.51689965758115
  0
LINE
  5
167
100
AcDbEntity
  8
Layer_1
  6
ByLayer
 62
    7
370
   -1
100
AcDbLine
 10
95.77598332973048
 20
69.51689965758115
 11
95.77146286156895
 21
69.45924862069083
  0
LINE
  5
168
100
AcDbEntity
  8
Layer_1
  6
ByLayer
 62
    7
370
   -1
100
AcDbLine
 10
95.77146286156895
 20
69.45924862069083
 11
95.76402140948609
 21
69.40247169745896
  0
LINE
  5
169
100
AcDbEntity
  8
Layer_1
  6
ByLayer
 62
    7
370
   -1
100
AcDbLine
 10
95.76402140948609
 20
69.40247169745896
 11
95.75373478745259
 21
69.34664469601559
  0
LINE
  5
16A
100
AcDbEntity
  8
Layer_1
  6
ByLayer
 62
    7
370
   -1
100
AcDbLine
 10
95.75373478745259
 20
69.34664469601559
 11
95.74067880943909
 21
69.29184342449062
  0
LINE
  5
16B
100
AcDbEntity
  8
Layer_1
  6
ByLayer
 62
    7
370
   -1
100
AcDbLine
 10
95.74067880943909
 20
69.29184342449062
 11
95.72492928941627
 21
69.23814369101409
  0
LINE
  5
16C
100
AcDbEntity
  8
Layer_1
  6
ByLayer
 62
    7
370
   -1
100
AcDbLine
 10
95.72492928941627
 20
69.23814369101409
 11
95.70656204135477
 21
69.18562130371589
  0
LINE
  5
16D
100
AcDbEntity
  8
Layer_1
  6
ByLayer
 62
    7
370
   -1
100
AcDbLine
 10
95.70656204135477
 20
69.18562130371589
 11
95.68565287922526
 21
69.13435207072607
  0
LINE
  5
16E
100
AcDbEntity
  8
Layer_1
  6
ByLayer
 62
    7
370
   -1
100
AcDbLine
 10
95.68565287922526
 20
69.13435207072607
 11
95.66227761699842
 21
69.08441180017455
  0
LINE
  5
16F
100
AcDbEntity
  8
Layer_1
  6
ByLayer
 62
    7
370
   -1
100
AcDbLine
 10
95.66227761699842
 20
69.08441180017455
 11
95.63651206864488
 21
69.03587630019133
  0
LINE
  5
170
100
AcDbEntity
  8
Layer_1
  6
ByLayer
 62
    7
370
   -1
100
AcDbLine
 10
95.63651206864488
 20
69.03587630019133
 11
95.60843204813534
 21
68.98882137890639
  0
LINE
  5
171
100
AcDbEntity
  8
Layer_1
  6
ByLayer
 62
    7
370
   -1
100
AcDbLine
 10
95.60843204813534
 20
68.98882137890639
 11
95.57811336944044
 21
68.94332284444967
  0
LINE
  5
172
100
AcDbEntity
  8
Layer_1
  6
ByLayer
 62
    7
370
   -1
100
AcDbLine
 10
95.57811336944044
 20
68.94332284444967
 11
95.54563184653082
 21
68.89945650495116
  0
LINE
  5
173
100
AcDbEntity
  8
Layer_1
  6
ByLayer
 62
    7
370
   -1
100
AcDbLine
 10
95.54563184653082
 20
68.89945650495116
 11
95.51106329337719
 21
68.85729816854084
  0
LINE
  5
174
100
AcDbEntity
  8
Layer_1
  6
ByLayer
 62
    7
370
   -1
100
AcDbLine
 10
95.51106329337719
 20
68.85729816854084
 11
95.47448352395018
 21
68.81692364334867
  0
LINE
  5
175
100
AcDbEntity
  8
Layer_1
  6
ByLayer
 62
    7
370
   -1
100
AcDbLine
 10
95.47448352395018
 20
68.81692364334867
 11
95.43596835222047
 21
68.77840873750462
  0
LINE
  5
176
100
AcDbEntity
  8
Layer_1
  6
ByLayer
 62
    7
370
   -1
100
AcDbLine
 10
95.43596835222047
 20
68.77840873750462
 11
95.3955935921587
 21
68.74182925913867
  0
LINE
  5
177
100
AcDbEntity
  8
Layer_1
  6
ByLayer
 62
    7
370
   -1
100
AcDbLine
 10
95.3955935921587
 20
68.74182925913867
 11
95.35343505773557
 21
68.7072610163808
  0
LINE
  5
178
100
AcDbEntity
  8
Layer_1
  6
ByLayer
 62
    7
370
   -1
100
AcDbLine
 10
95.35343505773557
 20
68.7072610163808
 11
95.3095685629217
 21
68.67477981736096
  0
LINE
  5
179
100
AcDbEntity
  8
Layer_1
  6
ByLayer
 62
    7
370
   -1
100
AcDbLine
 10
95.3095685629217
 20
68.67477981736096
 11
95.26406992168776
 21
68.64446147020912
  0
LINE
  5
17A
100
AcDbEntity
  8
Layer_1
  6
ByLayer
 62
    7
370
   -1
100
AcDbLine
 10
95.26406992168776
 20
68.64446147020912
 11
95.21701494800445
 21
68.61638178305529
  0
LINE
  5
17B
100
AcDbEntity
  8
Layer_1
  6
ByLayer
 62
    7
370
   -1
100
AcDbLine
 10
95.21701494800445
 20
68.61638178305529
 11
95.16847945584237
 21
68.5906165640294
  0
LINE
  5
17C
100
AcDbEntity
  8
Layer_1
  6
ByLayer
 62
    7
370
   -1
100
AcDbLine
 10
95.16847945584237
 20
68.5906165640294
 11
95.11853925917224
 21
68.56724162126147
  0
LINE
  5
17D
100
AcDbEntity
  8
Layer_1
  6
ByLayer
 62
    7
370
   -1
100
AcDbLine
 10
95.11853925917224
 20
68.56724162126147
 11
95.06727017196468
 21
68.54633276288142
  0
LINE
  5
17E
100
AcDbEntity
  8
Layer_1
  6
ByLayer
 62
    7
370
   -1
100
AcDbLine
 10
95.06727017196468
 20
68.54633276288142
 11
95.0147480081904
 21
68.52796579701925
  0
LINE
  5
17F
100
AcDbEntity
  8
Layer_1
  6
ByLayer
 62
    7
370
   -1
100
AcDbLine
 10
95.0147480081904
 20
68.52796579701925
 11
94.96104858182001
 21
68.51221653180491
  0
LINE
  5
180
100
AcDbEntity
  8
Layer_1
  6
ByLayer
 62
    7
370
   -1
100
AcDbLine
 10
94.96104858182001
 20
68.51221653180491
 11
94.90624770682422
 21
68.49916077536841
  0
LINE
  5
181
100
AcDbEntity
  8
Layer_1
  6
ByLayer
 62
    7
370
   -1
100
AcDbLine
 10
94.90624770682422
 20
68.49916077536841
 11
94.85042119717365
 21
68.48887433583968
  0
LINE
  5
182
100
AcDbEntity
  8
Layer_1
  6
ByLayer
 62
    7
370
   -1
100
AcDbLine
 10
94.85042119717365
 20
68.48887433583968
 11
94.79364486683899
 21
68.48143302134874
  0
LINE
  5
183
100
AcDbEntity
  8
Layer_1
  6
ByLayer
 62
    7
370
   -1
100
AcDbLine
 10
94.79364486683899
 20
68.48143302134874
 11
94.73599452979089
 21
68.47691264002552
  0
LINE
  5
184
100
AcDbEntity
  8
Layer_1
  6
ByLayer
 62
    7
370
   -1
100
AcDbLine
 10
94.73599452979089
 20
68.47691264002552
 11
94.67754600000001
 21
68.47538900000001
  0
LINE
  5
185
100
AcDbEntity
  8
Layer_1
  6
ByLayer
 62
    7
370
   -1
100
AcDbLine
 10
94.67754600000001
 20
68.47538900000001
 11
94.61912837857072
 21
68.47691264002552
  0
LINE
  5
186
100
AcDbEntity
  8
Layer_1
  6
ByLayer
 62
    7
370
   -1
100
AcDbLine
 10
94.61912837857072
 20
68.47691264002552
 11
94.56150490369575
 21
68.48143302134875
  0
LINE
  5
187
100
AcDbEntity
  8
Layer_1
  6
ByLayer
 62
    7
370
   -1
100
AcDbLine
 10
94.56150490369575
 20
68.48143302134875
 11
94.50475159497834
 21
68.4888743358397
  0
LINE
  5
188
100
AcDbEntity
  8
Layer_1
  6
ByLayer
 62
    7
370
   -1
100
AcDbLine
 10
94.50475159497834
 20
68.4888743358397
 11
94.44894447202176
 21
68.49916077536841
  0
LINE
  5
189
100
AcDbEntity
  8
Layer_1
  6
ByLayer
 62
    7
370
   -1
100
AcDbLine
 10
94.44894447202176
 20
68.49916077536841
 11
94.39415955442919
 21
68.51221653180491
  0
LINE
  5
18A
100
AcDbEntity
  8
Layer_1
  6
ByLayer
 62
    7
370
   -1
100
AcDbLine
 10
94.39415955442919
 20
68.51221653180491
 11
94.3404728618039
 21
68.52796579701925
  0
LINE
  5
18B
100
AcDbEntity
  8
Layer_1
  6
ByLayer
 62
    7
370
   -1
100
AcDbLine
 10
94.3404728618039
 20
68.52796579701925
 11
94.2879604137491
 21
68.54633276288142
  0
LINE
  5
18C
100
AcDbEntity
  8
Layer_1
  6
ByLayer
 62
    7
370
   -1
100
AcDbLine
 10
94.2879604137491
 20
68.54633276288142
 11
94.2366982298681
 21
68.56724162126146
  0
LINE
  5
18D
100
AcDbEntity
  8
Layer_1
  6
ByLayer
 62
    7
370
   -1
100
AcDbLine
 10
94.2366982298681
 20
68.56724162126146
 11
94.18676232976402
 21
68.5906165640294
  0
LINE
  5
18E
100
AcDbEntity
  8
Layer_1
  6
ByLayer
 62
    7
370
   -1
100
AcDbLine
 10
94.18676232976402
 20
68.5906165640294
 11
94.13822873304017
 21
68.61638178305529
  0
LINE
  5
18F
100
AcDbEntity
  8
Layer_1
  6
ByLayer
 62
    7
370
   -1
100
AcDbLine
 10
94.13822873304017
 20
68.61638178305529
 11
94.0911734592998
 21
68.64446147020912
  0
LINE
  5
190
100
AcDbEntity
  8
Layer_1
  6
ByLayer
 62
    7
370
   -1
100
AcDbLine
 10
94.0911734592998
 20
68.64446147020912
 11
94.04567252814607
 21
68.67477981736096
  0
LINE
  5
191
100
AcDbEntity
  8
Layer_1
  6
ByLayer
 62
    7
370
   -1
100
AcDbLine
 10
94.04567252814607
 20
68.67477981736096
 11
94.00180195918229
 21
68.70726101638078
  0
LINE
  5
192
100
AcDbEntity
  8
Layer_1
  6
ByLayer
 62
    7
370
   -1
100
AcDbLine
 10
94.00180195918229
 20
68.70726101638078
 11
93.95963777201167
 21
68.74182925913868
  0
LINE
  5
193
100
AcDbEntity
  8
Layer_1
  6
ByLayer
 62
    7
370
   -1
100
AcDbLine
 10
93.95963777201167
 20
68.74182925913868
 11
93.91925598623745
 21
68.77840873750462
  0
LINE
  5
194
100
AcDbEntity
  8
Layer_1
  6
ByLayer
 62
    7
370
   -1
100
AcDbLine
 10
93.91925598623745
 20
68.77840873750462
 11
93.88073262146285
 21
68.81692364334867
  0
LINE
  5
195
100
AcDbEntity
  8
Layer_1
  6
ByLayer
 62
    7
370
   -1
100
AcDbLine
 10
93.88073262146285
 20
68.81692364334867
 11
93.84414369729112
 21
68.85729816854084
  0
LINE
  5
196
100
AcDbEntity
  8
Layer_1
  6
ByLayer
 62
    7
370
   -1
100
AcDbLine
 10
93.84414369729112
 20
68.85729816854084
 11
93.8095652333255
 21
68.89945650495116
  0
LINE
  5
197
100
AcDbEntity
  8
Layer_1
  6
ByLayer
 62
    7
370
   -1
100
AcDbLine
 10
93.8095652333255
 20
68.89945650495116
 11
93.77707324916922
 21
68.94332284444967
  0
LINE
  5
198
100
AcDbEntity
  8
Layer_1
  6
ByLayer
 62
    7
370
   -1
100
AcDbLine
 10
93.77707324916922
 20
68.94332284444967
 11
93.74674376442549
 21
68.98882137890638
  0
LINE
  5
199
100
AcDbEntity
  8
Layer_1
  6
ByLayer
 62
    7
370
   -1
100
AcDbLine
 10
93.74674376442549
 20
68.98882137890638
 11
93.7186527986976
 21
69.03587630019133
  0
LINE
  5
19A
100
AcDbEntity
  8
Layer_1
  6
ByLayer
 62
    7
370
   -1
100
AcDbLine
 10
93.7186527986976
 20
69.03587630019133
 11
93.69287637158874
 21
69.08441180017455
  0
LINE
  5
19B
100
AcDbEntity
  8
Layer_1
  6
ByLayer
 62
    7
370
   -1
100
AcDbLine
 10
93.69287637158874
 20
69.08441180017455
 11
93.66949050270216
 21
69.13435207072607
  0
LINE
  5
19C
100
AcDbEntity
  8
Layer_1
  6
ByLayer
 62
    7
370
   -1
100
AcDbLine
 10
93.66949050270216
 20
69.13435207072607
 11
93.6485712116411
 21
69.18562130371589
  0
LINE
  5
19D
100
AcDbEntity
  8
Layer_1
  6
ByLayer
 62
    7
370
   -1
100
AcDbLine
 10
93.6485712116411
 20
69.18562130371589
 11
93.63019451800879
 21
69.23814369101407
  0
LINE
  5
19E
100
AcDbEntity
  8
Layer_1
  6
ByLayer
 62
    7
370
   -1
100
AcDbLine
 10
93.63019451800879
 20
69.23814369101407
 11
93.61443644140847
 21
69.29184342449062
  0
LINE
  5
19F
100
AcDbEntity
  8
Layer_1
  6
ByLayer
 62
    7
370
   -1
100
AcDbLine
 10
93.61443644140847
 20
69.29184342449062
 11
93.60137300144339
 21
69.34664469601557
  0
LINE
  5
1A0
100
AcDbEntity
  8
Layer_1
  6
ByLayer
 62
    7
370
   -1
100
AcDbLine
 10
93.60137300144339
 20
69.34664469601557
 11
93.59108021771675
 21
69.40247169745896
  0
LINE
  5
1A1
100
AcDbEntity
  8
Layer_1
  6
ByLayer
 62
    7
370
   -1
100
AcDbLine
 10
93.59108021771675
 20
69.40247169745896
 11
93.58363410983182
 21
69.45924862069081
  0
LINE
  5
1A2
100
AcDbEntity
  8
Layer_1
  6
ByLayer
 62
    7
370
   -1
100
AcDbLine
 10
93.58363410983182
 20
69.45924862069081
 11
93.57911069739183
 21
69.51689965758115
  0
LINE
  5
1A3
100
AcDbEntity
  8
Layer_1
  6
ByLayer
 62
    7
370
   -1
100
AcDbLine
 10
93.57911069739183
 20
69.51689965758115
 11
93.577586
 21
69.575349
  0
LINE
  5
1A4
100
AcDbEntity
  8
Layer_1
  6
ByLayer
 62
    7
370
   -1
100
AcDbLine
 10
93.577586
 20
69.575349
 11
93.57911069739184
 21
69.63376571816993
  0
LINE
  5
1A5
100
AcDbEntity
  8
Layer_1
  6
ByLayer
 62
    7
370
   -1
100
AcDbLine
 10
93.57911069739184
 20
69.63376571816993
 11
93.58363410983183
 21
69.69138841445405
  0
LINE
  5
1A6
100
AcDbEntity
  8
Layer_1
  6
ByLayer
 62
    7
370
   -1
100
AcDbLine
 10
93.58363410983183
 20
69.69138841445405
 11
93.59108021771677
 21
69.74814106280421
  0
LINE
  5
1A7
100
AcDbEntity
  8
Layer_1
  6
ByLayer
 62
    7
370
   -1
100
AcDbLine
 10
93.59108021771677
 20
69.74814106280421
 11
93.60137300144339
 21
69.80394763717231
  0
LINE
  5
1A8
100
AcDbEntity
  8
Layer_1
  6
ByLayer
 62
    7
370
   -1
100
AcDbLine
 10
93.60137300144339
 20
69.80394763717231
 11
93.61443644140847
 21
69.85873211151018
  0
LINE
  5
1A9
100
AcDbEntity
  8
Layer_1
  6
ByLayer
 62
    7
370
   -1
100
AcDbLine
 10
93.61443644140847
 20
69.85873211151018
 11
93.63019451800879
 21
69.91241845976974
  0
LINE
  5
1AA
100
AcDbEntity
  8
Layer_1
  6
ByLayer
 62
    7
370
   -1
100
AcDbLine
 10
93.63019451800879
 20
69.91241845976974
 11
93.64857121164108
 21
69.96493065590278
  0
LINE
  5
1AB
100
AcDbEntity
  8
Layer_1
  6
ByLayer
 62
    7
370
   -1
100
AcDbLine
 10
93.64857121164108
 20
69.96493065590278
 11
93.66949050270215
 21
70.01619267386124
  0
LINE
  5
1AC
100
AcDbEntity
  8
Layer_1
  6
ByLayer
 62
    7
370
   -1
100
AcDbLine
 10
93.66949050270215
 20
70.01619267386124
 11
93.69287637158872
 21
70.06612848759693
  0
LINE
  5
1AD
100
AcDbEntity
  8
Layer_1
  6
ByLayer
 62
    7
370
   -1
100
AcDbLine
 10
93.69287637158872
 20
70.06612848759693
 11
93.71865279869759
 21
70.11466207106172
  0
LINE
  5
1AE
100
AcDbEntity
  8
Layer_1
  6
ByLayer
 62
    7
370
   -1
100
AcDbLine
 10
93.71865279869759
 20
70.11466207106172
 11
93.74674376442549
 21
70.16171739820753
  0
LINE
  5
1AF
100
AcDbEntity
  8
Layer_1
  6
ByLayer
 62
    7
370
   -1
100
AcDbLine
 10
93.74674376442549
 20
70.16171739820753
 11
93.77707324916921
 21
70.20721844298613
  0
LINE
  5
1B0
100
AcDbEntity
  8
Layer_1
  6
ByLayer
 62
    7
370
   -1
100
AcDbLine
 10
93.77707324916921
 20
70.20721844298613
 11
93.8095652333255
 21
70.25108917934946
  0
LINE
  5
1B1
100
AcDbEntity
  8
Layer_1
  6
ByLayer
 62
    7
370
   -1
100
AcDbLine
 10
93.8095652333255
 20
70.25108917934946
 11
93.84414369729112
 21
70.29325358124937
  0
LINE
  5
1B2
100
AcDbEntity
  8
Layer_1
  6
ByLayer
 62
    7
370
   -1
100
AcDbLine
 10
93.84414369729112
 20
70.29325358124937
 11
93.88073262146285
 21
70.3336356226377
  0
LINE
  5
1B3
100
AcDbEntity
  8
Layer_1
  6
ByLayer
 62
    7
370
   -1
100
AcDbLine
 10
93.88073262146285
 20
70.3336356226377
 11
93.91925598623745
 21
70.37215927746634
  0
LINE
  5
1B4
100
AcDbEntity
  8
Layer_1
  6
ByLayer
 62
    7
370
   -1
100
AcDbLine
 10
93.91925598623745
 20
70.37215927746634
 11
93.95963777201167
 21
70.40874851968715
  0
LINE
  5
1B5
100
AcDbEntity
  8
Layer_1
  6
ByLayer
 62
    7
370
   -1
100
AcDbLine
 10
93.95963777201167
 20
70.40874851968715
 11
94.0018019591823
 21
70.44332732325199
  0
LINE
  5
1B6
100
AcDbEntity
  8
Layer_1
  6
ByLayer
 62
    7
370
   -1
100
AcDbLine
 10
94.0018019591823
 20
70.44332732325199
 11
94.04567252814607
 21
70.47581966211271
  0
LINE
  5
1B7
100
AcDbEntity
  8
Layer_1
  6
ByLayer
 62
    7
370
   -1
100
AcDbLine
 10
94.04567252814607
 20
70.47581966211271
 11
94.0911734592998
 21
70.50614951022121
  0
LINE
  5
1B8
100
AcDbEntity
  8
Layer_1
  6
ByLayer
 62
    7
370
   -1
100
AcDbLine
 10
94.0911734592998
 20
70.50614951022121
 11
94.13822873304019
 21
70.53424084152931
  0
LINE
  5
1B9
100
AcDbEntity
  8
Layer_1
  6
ByLayer
 62
    7
370
   -1
100
AcDbLine
 10
94.13822873304019
 20
70.53424084152931
 11
94.18676232976404
 21
70.56001762998892
  0
LINE
  5
1BA
100
AcDbEntity
  8
Layer_1
  6
ByLayer
 62
    7
370
   -1
100
AcDbLine
 10
94.18676232976404
 20
70.56001762998892
 11
94.23669822986808
 21
70.58340384955187
  0
LINE
  5
1BB
100
AcDbEntity
  8
Layer_1
  6
ByLayer
 62
    7
370
   -1
100
AcDbLine
 10
94.23669822986808
 20
70.58340384955187
 11
94.28796041374912
 21
70.60432347417004
  0
LINE
  5
1BC
100
AcDbEntity
  8
Layer_1
  6
ByLayer
 62
    7
370
   -1
100
AcDbLine
 10
94.28796041374912
 20
70.60432347417004
 11
94.3404728618039
 21
70.62270047779531
  0
LINE
  5
1BD
100
AcDbEntity
  8
Layer_1
  6
ByLayer
 62
    7
370
   -1
100
AcDbLine
 10
94.3404728618039
 20
70.62270047779531
 11
94.39415955442918
 21
70.63845883437951
  0
LINE
  5
1BE
100
AcDbEntity
  8
Layer_1
  6
ByLayer
 62
    7
370
   -1
100
AcDbLine
 10
94.39415955442918
 20
70.63845883437951
 11
94.44894447202176
 21
70.65152251787453
  0
LINE
  5
1BF
100
AcDbEntity
  8
Layer_1
  6
ByLayer
 62
    7
370
   -1
100
AcDbLine
 10
94.44894447202176
 20
70.65152251787453
 11
94.50475159497836
 21
70.66181550223222
  0
LINE
  5
1C0
100
AcDbEntity
  8
Layer_1
  6
ByLayer
 62
    7
370
   -1
100
AcDbLine
 10
94.50475159497836
 20
70.66181550223222
 11
94.56150490369575
 21
70.66926176140444
  0
LINE
  5
1C1
100
AcDbEntity
  8
Layer_1
  6
ByLayer
 62
    7
370
   -1
100
AcDbLine
 10
94.56150490369575
 20
70.66926176140444
 11
94.61912837857071
 21
70.67378526934309
  0
LINE
  5
1C2
100
AcDbEntity
  8
Layer_1
  6
ByLayer
 62
    7
370
   -1
100
AcDbLine
 10
94.61912837857071
 20
70.67378526934309
 11
94.67754600000001
 21
70.67531
  0
LINE
  5
1C3
100
AcDbEntity
  8
Layer_1
  6
ByLayer
 62
    7
370
   -1
100
AcDbLine
 10
18.677639
 20
48.175349
 11
18.677639
 21
48.175349
  0
LINE
  5
1C4
100
AcDbEntity
  8
Layer_1
  6
ByLayer
 62
    7
370
   -1
100
AcDbLine
 10
61.92775
 20
30.92507
 11
61.98616774566145
 21
30.92354527239771
  0
LINE
  5
1C5
100
AcDbEntity
  8
Layer_1
  6
ByLayer
 62
    7
370
   -1
100
AcDbLine
 10
61.98616774566145
 20
30.92354527239771
 11
62.04379139713337
 21
30.91902177335437
  0
LINE
  5
1C6
100
AcDbEntity
  8
Layer_1
  6
ByLayer
 62
    7
370
   -1
100
AcDbLine
 10
62.04379139713337
 20
30.91902177335437
 11
62.10054493098587
 21
30.91157552851533
  0
LINE
  5
1C7
100
AcDbEntity
  8
Layer_1
  6
ByLayer
 62
    7
370
   -1
100
AcDbLine
 10
62.10054493098587
 20
30.91157552851533
 11
62.15635232378907
 21
30.9012825635259
  0
LINE
  5
1C8
100
AcDbEntity
  8
Layer_1
  6
ByLayer
 62
    7
370
   -1
100
AcDbLine
 10
62.15635232378907
 20
30.9012825635259
 11
62.21113755211305
 21
30.88821890403142
  0
LINE
  5
1C9
100
AcDbEntity
  8
Layer_1
  6
ByLayer
 62
    7
370
   -1
100
AcDbLine
 10
62.21113755211305
 20
30.88821890403142
 11
62.26482459252795
 21
30.87246057567722
  0
LINE
  5
1CA
100
AcDbEntity
  8
Layer_1
  6
ByLayer
 62
    7
370
   -1
100
AcDbLine
 10
62.26482459252795
 20
30.87246057567722
 11
62.31733742160384
 21
30.85408360410862
  0
LINE
  5
1CB
100
AcDbEntity
  8
Layer_1
  6
ByLayer
 62
    7
370
   -1
100
AcDbLine
 10
62.31733742160384
 20
30.85408360410862
 11
62.36860001591085
 21
30.83316401497097
  0
LINE
  5
1CC
100
AcDbEntity
  8
Layer_1
  6
ByLayer
 62
    7
370
   -1
100
AcDbLine
 10
62.36860001591085
 20
30.83316401497097
 11
62.41853635201906
 21
30.80977783390956
  0
LINE
  5
1CD
100
AcDbEntity
  8
Layer_1
  6
ByLayer
 62
    7
370
   -1
100
AcDbLine
 10
62.41853635201906
 20
30.80977783390956
 11
62.4670704064986
 21
30.78400108656976
  0
LINE
  5
1CE
100
AcDbEntity
  8
Layer_1
  6
ByLayer
 62
    7
370
   -1
100
AcDbLine
 10
62.4670704064986
 20
30.78400108656976
 11
62.51412615591958
 21
30.75590979859689
  0
LINE
  5
1CF
100
AcDbEntity
  8
Layer_1
  6
ByLayer
 62
    7
370
   -1
100
AcDbLine
 10
62.51412615591958
 20
30.75590979859689
 11
62.55962757685207
 21
30.72557999563627
  0
LINE
  5
1D0
100
AcDbEntity
  8
Layer_1
  6
ByLayer
 62
    7
370
   -1
100
AcDbLine
 10
62.55962757685207
 20
30.72557999563627
 11
62.6034986458662
 21
30.69308770333322
  0
LINE
  5
1D1
100
AcDbEntity
  8
Layer_1
  6
ByLayer
 62
    7
370
   -1
100
AcDbLine
 10
62.6034986458662
 20
30.69308770333322
 11
62.64566333953206
 21
30.65850894733309
  0
LINE
  5
1D2
100
AcDbEntity
  8
Layer_1
  6
ByLayer
 62
    7
370
   -1
100
AcDbLine
 10
62.64566333953206
 20
30.65850894733309
 11
62.68604563441979
 21
30.6219197532812
  0
LINE
  5
1D3
100
AcDbEntity
  8
Layer_1
  6
ByLayer
 62
    7
370
   -1
100
AcDbLine
 10
62.68604563441979
 20
30.6219197532812
 11
62.72456950709946
 21
30.58339614682286
  0
LINE
  5
1D4
100
AcDbEntity
  8
Layer_1
  6
ByLayer
 62
    7
370
   -1
100
AcDbLine
 10
62.72456950709946
 20
30.58339614682286
 11
62.76115893414119
 21
30.54301415360344
  0
LINE
  5
1D5
100
AcDbEntity
  8
Layer_1
  6
ByLayer
 62
    7
370
   -1
100
AcDbLine
 10
62.76115893414119
 20
30.54301415360344
 11
62.79573789211507
 21
30.50084979926824
  0
LINE
  5
1D6
100
AcDbEntity
  8
Layer_1
  6
ByLayer
 62
    7
370
   -1
100
AcDbLine
 10
62.79573789211507
 20
30.50084979926824
 11
62.82823035759122
 21
30.45697910946259
  0
LINE
  5
1D7
100
AcDbEntity
  8
Layer_1
  6
ByLayer
 62
    7
370
   -1
100
AcDbLine
 10
62.82823035759122
 20
30.45697910946259
 11
62.85856030713974
 21
30.41147810983183
  0
LINE
  5
1D8
100
AcDbEntity
  8
Layer_1
  6
ByLayer
 62
    7
370
   -1
100
AcDbLine
 10
62.85856030713974
 20
30.41147810983183
 11
62.88665171733075
 21
30.36442282602128
  0
LINE
  5
1D9
100
AcDbEntity
  8
Layer_1
  6
ByLayer
 62
    7
370
   -1
100
AcDbLine
 10
62.88665171733075
 20
30.36442282602128
 11
62.91242856473431
 21
30.31588928367628
  0
LINE
  5
1DA
100
AcDbEntity
  8
Layer_1
  6
ByLayer
 62
    7
370
   -1
100
AcDbLine
 10
62.91242856473431
 20
30.31588928367628
 11
62.93581482592058
 21
30.26595350844215
  0
LINE
  5
1DB
100
AcDbEntity
  8
Layer_1
  6
ByLayer
 62
    7
370
   -1
100
AcDbLine
 10
62.93581482592058
 20
30.26595350844215
 11
62.95673447745963
 21
30.21469152596422
  0
LINE
  5
1DC
100
AcDbEntity
  8
Layer_1
  6
ByLayer
 62
    7
370
   -1
100
AcDbLine
 10
62.95673447745963
 20
30.21469152596422
 11
62.97511149592158
 21
30.16217936188782
  0
LINE
  5
1DD
100
AcDbEntity
  8
Layer_1
  6
ByLayer
 62
    7
370
   -1
100
AcDbLine
 10
62.97511149592158
 20
30.16217936188782
 11
62.99086985787653
 21
30.10849304185828
  0
LINE
  5
1DE
100
AcDbEntity
  8
Layer_1
  6
ByLayer
 62
    7
370
   -1
100
AcDbLine
 10
62.99086985787653
 20
30.10849304185828
 11
63.0039335398946
 21
30.05370859152093
  0
LINE
  5
1DF
100
AcDbEntity
  8
Layer_1
  6
ByLayer
 62
    7
370
   -1
100
AcDbLine
 10
63.0039335398946
 20
30.05370859152093
 11
63.01422651854587
 21
29.9979020365211
  0
LINE
  5
1E0
100
AcDbEntity
  8
Layer_1
  6
ByLayer
 62
    7
370
   -1
100
AcDbLine
 10
63.01422651854587
 20
29.9979020365211
 11
63.02167277040045
 21
29.94114940250411
  0
LINE
  5
1E1
100
AcDbEntity
  8
Layer_1
  6
ByLayer
 62
    7
370
   -1
100
AcDbLine
 10
63.02167277040045
 20
29.94114940250411
 11
63.02619627202846
 21
29.8835267151153
  0
LINE
  5
1E2
100
AcDbEntity
  8
Layer_1
  6
ByLayer
 62
    7
370
   -1
100
AcDbLine
 10
63.02619627202846
 20
29.8835267151153
 11
63.027721
 21
29.82511
  0
LINE
  5
1E3
100
AcDbEntity
  8
Layer_1
  6
ByLayer
 62
    7
370
   -1
100
AcDbLine
 10
63.027721
 20
29.82511
 11
63.02619627202848
 21
29.76669335399953
  0
LINE
  5
1E4
100
AcDbEntity
  8
Layer_1
  6
ByLayer
 62
    7
370
   -1
100
AcDbLine
 10
63.02619627202848
 20
29.76669335399953
 11
63.02167277040046
 21
29.70907290483703
  0
LINE
  5
1E5
100
AcDbEntity
  8
Layer_1
  6
ByLayer
 62
    7
370
   -1
100
AcDbLine
 10
63.02167277040046
 20
29.70907290483703
 11
63.01422651854587
 21
29.65232453093216
  0
LINE
  5
1E6
100
AcDbEntity
  8
Layer_1
  6
ByLayer
 62
    7
370
   -1
100
AcDbLine
 10
63.01422651854587
 20
29.65232453093216
 11
63.00393353989461
 21
29.59652411070457
  0
LINE
  5
1E7
100
AcDbEntity
  8
Layer_1
  6
ByLayer
 62
    7
370
   -1
100
AcDbLine
 10
63.00393353989461
 20
29.59652411070457
 11
62.99086985787654
 21
29.54174752257392
  0
LINE
  5
1E8
100
AcDbEntity
  8
Layer_1
  6
ByLayer
 62
    7
370
   -1
100
AcDbLine
 10
62.99086985787654
 20
29.54174752257392
 11
62.97511149592159
 21
29.48807064495989
  0
LINE
  5
1E9
100
AcDbEntity
  8
Layer_1
  6
ByLayer
 62
    7
370
   -1
100
AcDbLine
 10
62.97511149592159
 20
29.48807064495989
 11
62.95673447745963
 21
29.43556935628209
  0
LINE
  5
1EA
100
AcDbEntity
  8
Layer_1
  6
ByLayer
 62
    7
370
   -1
100
AcDbLine
 10
62.95673447745963
 20
29.43556935628209
 11
62.93581482592059
 21
29.38431953496022
  0
LINE
  5
1EB
100
AcDbEntity
  8
Layer_1
  6
ByLayer
 62
    7
370
   -1
100
AcDbLine
 10
62.93581482592059
 20
29.38431953496022
 11
62.91242856473431
 21
29.33439705941392
  0
LINE
  5
1EC
100
AcDbEntity
  8
Layer_1
  6
ByLayer
 62
    7
370
   -1
100
AcDbLine
 10
62.91242856473431
 20
29.33439705941392
 11
62.88665171733073
 21
29.28587780806283
  0
LINE
  5
1ED
100
AcDbEntity
  8
Layer_1
  6
ByLayer
 62
    7
370
   -1
100
AcDbLine
 10
62.88665171733073
 20
29.28587780806283
 11
62.85856030713974
 21
29.23883765932664
  0
LINE
  5
1EE
100
AcDbEntity
  8
Layer_1
  6
ByLayer
 62
    7
370
   -1
100
AcDbLine
 10
62.85856030713974
 20
29.23883765932664
 11
62.82823035759122
 21
29.19335249162499
  0
LINE
  5
1EF
100
AcDbEntity
  8
Layer_1
  6
ByLayer
 62
    7
370
   -1
100
AcDbLine
 10
62.82823035759122
 20
29.19335249162499
 11
62.79573789211507
 21
29.14949818337753
  0
LINE
  5
1F0
100
AcDbEntity
  8
Layer_1
  6
ByLayer
 62
    7
370
   -1
100
AcDbLine
 10
62.79573789211507
 20
29.14949818337753
 11
62.76115893414119
 21
29.10735061300393
  0
LINE
  5
1F1
100
AcDbEntity
  8
Layer_1
  6
ByLayer
 62
    7
370
   -1
100
AcDbLine
 10
62.76115893414119
 20
29.10735061300393
 11
62.72456950709945
 21
29.06698565892383
  0
LINE
  5
1F2
100
AcDbEntity
  8
Layer_1
  6
ByLayer
 62
    7
370
   -1
100
AcDbLine
 10
62.72456950709945
 20
29.06698565892383
 11
62.68604563441979
 21
29.02847919955691
  0
LINE
  5
1F3
100
AcDbEntity
  8
Layer_1
  6
ByLayer
 62
    7
370
   -1
100
AcDbLine
 10
62.68604563441979
 20
29.02847919955691
 11
62.64566333953208
 21
28.99190711332282
  0
LINE
  5
1F4
100
AcDbEntity
  8
Layer_1
  6
ByLayer
 62
    7
370
   -1
100
AcDbLine
 10
62.64566333953208
 20
28.99190711332282
 11
62.6034986458662
 21
28.9573452786412
  0
LINE
  5
1F5
100
AcDbEntity
  8
Layer_1
  6
ByLayer
 62
    7
370
   -1
100
AcDbLine
 10
62.6034986458662
 20
28.9573452786412
 11
62.55962757685207
 21
28.92486957393172
  0
LINE
  5
1F6
100
AcDbEntity
  8
Layer_1
  6
ByLayer
 62
    7
370
   -1
100
AcDbLine
 10
62.55962757685207
 20
28.92486957393172
 11
62.51412615591958
 21
28.89455587761404
  0
LINE
  5
1F7
100
AcDbEntity
  8
Layer_1
  6
ByLayer
 62
    7
370
   -1
100
AcDbLine
 10
62.51412615591958
 20
28.89455587761404
 11
62.46707040649861
 21
28.86648006810782
  0
LINE
  5
1F8
100
AcDbEntity
  8
Layer_1
  6
ByLayer
 62
    7
370
   -1
100
AcDbLine
 10
62.46707040649861
 20
28.86648006810782
 11
62.41853635201907
 21
28.8407180238327
  0
LINE
  5
1F9
100
AcDbEntity
  8
Layer_1
  6
ByLayer
 62
    7
370
   -1
100
AcDbLine
 10
62.41853635201907
 20
28.8407180238327
 11
62.36860001591084
 21
28.81734562320835
  0
LINE
  5
1FA
100
AcDbEntity
  8
Layer_1
  6
ByLayer
 62
    7
370
   -1
100
AcDbLine
 10
62.36860001591084
 20
28.81734562320835
 11
62.31733742160384
 21
28.79643874465443
  0
LINE
  5
1FB
100
AcDbEntity
  8
Layer_1
  6
ByLayer
 62
    7
370
   -1
100
AcDbLine
 10
62.31733742160384
 20
28.79643874465443
 11
62.26482459252794
 21
28.77807326659058
  0
LINE
  5
1FC
100
AcDbEntity
  8
Layer_1
  6
ByLayer
 62
    7
370
   -1
100
AcDbLine
 10
62.26482459252794
 20
28.77807326659058
 11
62.21113755211305
 21
28.76232506743647
  0
LINE
  5
1FD
100
AcDbEntity
  8
Layer_1
  6
ByLayer
 62
    7
370
   -1
100
AcDbLine
 10
62.21113755211305
 20
28.76232506743647
 11
62.15635232378907
 21
28.74927002561176
  0
LINE
  5
1FE
100
AcDbEntity
  8
Layer_1
  6
ByLayer
 62
    7
370
   -1
100
AcDbLine
 10
62.15635232378907
 20
28.74927002561176
 11
62.10054493098588
 21
28.7389840195361
  0
LINE
  5
1FF
100
AcDbEntity
  8
Layer_1
  6
ByLayer
 62
    7
370
   -1
100
AcDbLine
 10
62.10054493098588
 20
28.7389840195361
 11
62.04379139713336
 21
28.73154292762915
  0
LINE
  5
200
100
AcDbEntity
  8
Layer_1
  6
ByLayer
 62
    7
370
   -1
100
AcDbLine
 10
62.04379139713336
 20
28.73154292762915
 11
61.98616774566144
 21
28.72702262831056
  0
LINE
  5
201
100
AcDbEntity
  8
Layer_1
  6
ByLayer
 62
    7
370
   -1
100
AcDbLine
 10
61.98616774566144
 20
28.72702262831056
 11
61.92775
 21
28.725499
  0
LINE
  5
202
100
AcDbEntity
  8
Layer_1
  6
ByLayer
 62
    7
370
   -1
100
AcDbLine
 10
61.92775
 20
28.725499
 11
61.86930156389515
 21
28.72702262831056
  0
LINE
  5
203
100
AcDbEntity
  8
Layer_1
  6
ByLayer
 62
    7
370
   -1
100
AcDbLine
 10
61.86930156389515
 20
28.72702262831056
 11
61.81165131449097
 21
28.73154292762915
  0
LINE
  5
204
100
AcDbEntity
  8
Layer_1
  6
ByLayer
 62
    7
370
   -1
100
AcDbLine
 10
61.81165131449097
 20
28.73154292762915
 11
61.75487506595952
 21
28.7389840195361
  0
LINE
  5
205
100
AcDbEntity
  8
Layer_1
  6
ByLayer
 62
    7
370
   -1
100
AcDbLine
 10
61.75487506595952
 20
28.7389840195361
 11
61.69904863247289
 21
28.74927002561176
  0
LINE
  5
206
100
AcDbEntity
  8
Layer_1
  6
ByLayer
 62
    7
370
   -1
100
AcDbLine
 10
61.69904863247289
 20
28.74927002561176
 11
61.64424782820315
 21
28.76232506743647
  0
LINE
  5
207
100
AcDbEntity
  8
Layer_1
  6
ByLayer
 62
    7
370
   -1
100
AcDbLine
 10
61.64424782820315
 20
28.76232506743647
 11
61.59054846732236
 21
28.77807326659059
  0
LINE
  5
208
100
AcDbEntity
  8
Layer_1
  6
ByLayer
 62
    7
370
   -1
100
AcDbLine
 10
61.59054846732236
 20
28.77807326659059
 11
61.53802636400255
 21
28.79643874465442
  0
LINE
  5
209
100
AcDbEntity
  8
Layer_1
  6
ByLayer
 62
    7
370
   -1
100
AcDbLine
 10
61.53802636400255
 20
28.79643874465442
 11
61.48675733241584
 21
28.81734562320835
  0
LINE
  5
20A
100
AcDbEntity
  8
Layer_1
  6
ByLayer
 62
    7
370
   -1
100
AcDbLine
 10
61.48675733241584
 20
28.81734562320835
 11
61.43681718673424
 21
28.8407180238327
  0
LINE
  5
20B
100
AcDbEntity
  8
Layer_1
  6
ByLayer
 62
    7
370
   -1
100
AcDbLine
 10
61.43681718673424
 20
28.8407180238327
 11
61.38828174112987
 21
28.86648006810781
  0
LINE
  5
20C
100
AcDbEntity
  8
Layer_1
  6
ByLayer
 62
    7
370
   -1
100
AcDbLine
 10
61.38828174112987
 20
28.86648006810781
 11
61.34122680977477
 21
28.89455587761404
  0
LINE
  5
20D
100
AcDbEntity
  8
Layer_1
  6
ByLayer
 62
    7
370
   -1
100
AcDbLine
 10
61.34122680977477
 20
28.89455587761404
 11
61.29572820684101
 21
28.92486957393172
  0
LINE
  5
20E
100
AcDbEntity
  8
Layer_1
  6
ByLayer
 62
    7
370
   -1
100
AcDbLine
 10
61.29572820684101
 20
28.92486957393172
 11
61.25186174650062
 21
28.9573452786412
  0
LINE
  5
20F
100
AcDbEntity
  8
Layer_1
  6
ByLayer
 62
    7
370
   -1
100
AcDbLine
 10
61.25186174650062
 20
28.9573452786412
 11
61.20970324292571
 21
28.99190711332282
  0
LINE
  5
210
100
AcDbEntity
  8
Layer_1
  6
ByLayer
 62
    7
370
   -1
100
AcDbLine
 10
61.20970324292571
 20
28.99190711332282
 11
61.16932851028835
 21
29.02847919955691
  0
LINE
  5
211
100
AcDbEntity
  8
Layer_1
  6
ByLayer
 62
    7
370
   -1
100
AcDbLine
 10
61.16932851028835
 20
29.02847919955691
 11
61.13081336276056
 21
29.06698565892383
  0
LINE
  5
212
100
AcDbEntity
  8
Layer_1
  6
ByLayer
 62
    7
370
   -1
100
AcDbLine
 10
61.13081336276056
 20
29.06698565892383
 11
61.09423361451446
 21
29.10735061300393
  0
LINE
  5
213
100
AcDbEntity
  8
Layer_1
  6
ByLayer
 62
    7
370
   -1
100
AcDbLine
 10
61.09423361451446
 20
29.10735061300393
 11
61.05966507972207
 21
29.14949818337753
  0
LINE
  5
214
100
AcDbEntity
  8
Layer_1
  6
ByLayer
 62
    7
370
   -1
100
AcDbLine
 10
61.05966507972207
 20
29.14949818337753
 11
61.02718357255547
 21
29.19335249162499
  0
LINE
  5
215
100
AcDbEntity
  8
Layer_1
  6
ByLayer
 62
    7
370
   -1
100
AcDbLine
 10
61.02718357255547
 20
29.19335249162499
 11
60.99686490718673
 21
29.23883765932663
  0
LINE
  5
216
100
AcDbEntity
  8
Layer_1
  6
ByLayer
 62
    7
370
   -1
100
AcDbLine
 10
60.99686490718673
 20
29.23883765932663
 11
60.96878489778793
 21
29.28587780806284
  0
LINE
  5
217
100
AcDbEntity
  8
Layer_1
  6
ByLayer
 62
    7
370
   -1
100
AcDbLine
 10
60.96878489778793
 20
29.28587780806284
 11
60.9430193585311
 21
29.33439705941392
  0
LINE
  5
218
100
AcDbEntity
  8
Layer_1
  6
ByLayer
 62
    7
370
   -1
100
AcDbLine
 10
60.9430193585311
 20
29.33439705941392
 11
60.91964410358834
 21
29.38431953496022
  0
LINE
  5
219
100
AcDbEntity
  8
Layer_1
  6
ByLayer
 62
    7
370
   -1
100
AcDbLine
 10
60.91964410358834
 20
29.38431953496022
 11
60.89873494713169
 21
29.43556935628209
  0
LINE
  5
21A
100
AcDbEntity
  8
Layer_1
  6
ByLayer
 62
    7
370
   -1
100
AcDbLine
 10
60.89873494713169
 20
29.43556935628209
 11
60.88036770333322
 21
29.48807064495988
  0
LINE
  5
21B
100
AcDbEntity
  8
Layer_1
  6
ByLayer
 62
    7
370
   -1
100
AcDbLine
 10
60.88036770333322
 20
29.48807064495988
 11
60.86461818636501
 21
29.54174752257393
  0
LINE
  5
21C
100
AcDbEntity
  8
Layer_1
  6
ByLayer
 62
    7
370
   -1
100
AcDbLine
 10
60.86461818636501
 20
29.54174752257393
 11
60.85156221039912
 21
29.59652411070457
  0
LINE
  5
21D
100
AcDbEntity
  8
Layer_1
  6
ByLayer
 62
    7
370
   -1
100
AcDbLine
 10
60.85156221039912
 20
29.59652411070457
 11
60.8412755896076
 21
29.65232453093216
  0
LINE
  5
21E
100
AcDbEntity
  8
Layer_1
  6
ByLayer
 62
    7
370
   -1
100
AcDbLine
 10
60.8412755896076
 20
29.65232453093216
 11
60.83383413816253
 21
29.70907290483703
  0
LINE
  5
21F
100
AcDbEntity
  8
Layer_1
  6
ByLayer
 62
    7
370
   -1
100
AcDbLine
 10
60.83383413816253
 20
29.70907290483703
 11
60.82931367023598
 21
29.76669335399953
  0
LINE
  5
220
100
AcDbEntity
  8
Layer_1
  6
ByLayer
 62
    7
370
   -1
100
AcDbLine
 10
60.82931367023598
 20
29.76669335399953
 11
60.82779
 21
29.82511
  0
LINE
  5
221
100
AcDbEntity
  8
Layer_1
  6
ByLayer
 62
    7
370
   -1
100
AcDbLine
 10
60.82779
 20
29.82511
 11
60.82931367023598
 21
29.88352671511531
  0
LINE
  5
222
100
AcDbEntity
  8
Layer_1
  6
ByLayer
 62
    7
370
   -1
100
AcDbLine
 10
60.82931367023598
 20
29.88352671511531
 11
60.83383413816254
 21
29.94114940250412
  0
LINE
  5
223
100
AcDbEntity
  8
Layer_1
  6
ByLayer
 62
    7
370
   -1
100
AcDbLine
 10
60.83383413816254
 20
29.94114940250412
 11
60.8412755896076
 21
29.99790203652109
  0
LINE
  5
224
100
AcDbEntity
  8
Layer_1
  6
ByLayer
 62
    7
370
   -1
100
AcDbLine
 10
60.8412755896076
 20
29.99790203652109
 11
60.85156221039912
 21
30.05370859152093
  0
LINE
  5
225
100
AcDbEntity
  8
Layer_1
  6
ByLayer
 62
    7
370
   -1
100
AcDbLine
 10
60.85156221039912
 20
30.05370859152093
 11
60.86461818636501
 21
30.10849304185828
  0
LINE
  5
226
100
AcDbEntity
  8
Layer_1
  6
ByLayer
 62
    7
370
   -1
100
AcDbLine
 10
60.86461818636501
 20
30.10849304185828
 11
60.88036770333322
 21
30.16217936188782
  0
LINE
  5
227
100
AcDbEntity
  8
Layer_1
  6
ByLayer
 62
    7
370
   -1
100
AcDbLine
 10
60.88036770333322
 20
30.16217936188782
 11
60.89873494713168
 21
30.21469152596421
  0
LINE
  5
228
100
AcDbEntity
  8
Layer_1
  6
ByLayer
 62
    7
370
   -1
100
AcDbLine
 10
60.89873494713168
 20
30.21469152596421
 11
60.91964410358833
 21
30.26595350844214
  0
LINE
  5
229
100
AcDbEntity
  8
Layer_1
  6
ByLayer
 62
    7
370
   -1
100
AcDbLine
 10
60.91964410358833
 20
30.26595350844214
 11
60.94301935853109
 21
30.31588928367628
  0
LINE
  5
22A
100
AcDbEntity
  8
Layer_1
  6
ByLayer
 62
    7
370
   -1
100
AcDbLine
 10
60.94301935853109
 20
30.31588928367628
 11
60.96878489778791
 21
30.36442282602128
  0
LINE
  5
22B
100
AcDbEntity
  8
Layer_1
  6
ByLayer
 62
    7
370
   -1
100
AcDbLine
 10
60.96878489778791
 20
30.36442282602128
 11
60.99686490718674
 21
30.41147810983183
  0
LINE
  5
22C
100
AcDbEntity
  8
Layer_1
  6
ByLayer
 62
    7
370
   -1
100
AcDbLine
 10
60.99686490718674
 20
30.41147810983183
 11
61.02718357255547
 21
30.45697910946259
  0
LINE
  5
22D
100
AcDbEntity
  8
Layer_1
  6
ByLayer
 62
    7
370
   -1
100
AcDbLine
 10
61.02718357255547
 20
30.45697910946259
 11
61.05966507972207
 21
30.50084979926823
  0
LINE
  5
22E
100
AcDbEntity
  8
Layer_1
  6
ByLayer
 62
    7
370
   -1
100
AcDbLine
 10
61.05966507972207
 20
30.50084979926823
 11
61.09423361451447
 21
30.54301415360344
  0
LINE
  5
22F
100
AcDbEntity
  8
Layer_1
  6
ByLayer
 62
    7
370
   -1
100
AcDbLine
 10
61.09423361451447
 20
30.54301415360344
 11
61.13081336276057
 21
30.58339614682287
  0
LINE
  5
230
100
AcDbEntity
  8
Layer_1
  6
ByLayer
 62
    7
370
   -1
100
AcDbLine
 10
61.13081336276057
 20
30.58339614682287
 11
61.16932851028835
 21
30.62191975328119
  0
LINE
  5
231
100
AcDbEntity
  8
Layer_1
  6
ByLayer
 62
    7
370
   -1
100
AcDbLine
 10
61.16932851028835
 20
30.62191975328119
 11
61.20970324292571
 21
30.65850894733309
  0
LINE
  5
232
100
AcDbEntity
  8
Layer_1
  6
ByLayer
 62
    7
370
   -1
100
AcDbLine
 10
61.20970324292571
 20
30.65850894733309
 11
61.25186174650063
 21
30.69308770333323
  0
LINE
  5
233
100
AcDbEntity
  8
Layer_1
  6
ByLayer
 62
    7
370
   -1
100
AcDbLine
 10
61.25186174650063
 20
30.69308770333323
 11
61.295728206841
 21
30.72557999563627
  0
LINE
  5
234
100
AcDbEntity
  8
Layer_1
  6
ByLayer
 62
    7
370
   -1
100
AcDbLine
 10
61.295728206841
 20
30.72557999563627
 11
61.34122680977476
 21
30.7559097985969
  0
LINE
  5
235
100
AcDbEntity
  8
Layer_1
  6
ByLayer
 62
    7
370
   -1
100
AcDbLine
 10
61.34122680977476
 20
30.7559097985969
 11
61.38828174112987
 21
30.78400108656977
  0
LINE
  5
236
100
AcDbEntity
  8
Layer_1
  6
ByLayer
 62
    7
370
   -1
100
AcDbLine
 10
61.38828174112987
 20
30.78400108656977
 11
61.43681718673425
 21
30.80977783390957
  0
LINE
  5
237
100
AcDbEntity
  8
Layer_1
  6
ByLayer
 62
    7
370
   -1
100
AcDbLine
 10
61.43681718673425
 20
30.80977783390957
 11
61.48675733241583
 21
30.83316401497097
  0
LINE
  5
238
100
AcDbEntity
  8
Layer_1
  6
ByLayer
 62
    7
370
   -1
100
AcDbLine
 10
61.48675733241583
 20
30.83316401497097
 11
61.53802636400256
 21
30.85408360410862
  0
LINE
  5
239
100
AcDbEntity
  8
Layer_1
  6
ByLayer
 62
    7
370
   -1
100
AcDbLine
 10
61.53802636400256
 20
30.85408360410862
 11
61.59054846732234
 21
30.87246057567722
  0
LINE
  5
23A
100
AcDbEntity
  8
Layer_1
  6
ByLayer
 62
    7
370
   -1
100
AcDbLine
 10
61.59054846732234
 20
30.87246057567722
 11
61.64424782820315
 21
30.88821890403142
  0
LINE
  5
23B
100
AcDbEntity
  8
Layer_1
  6
ByLayer
 62
    7
370
   -1
100
AcDbLine
 10
61.64424782820315
 20
30.88821890403142
 11
61.6990486324729
 21
30.9012825635259
  0
LINE
  5
23C
100
AcDbEntity
  8
Layer_1
  6
ByLayer
 62
    7
370
   -1
100
AcDbLine
 10
61.6990486324729
 20
30.9012825635259
 11
61.75487506595952
 21
30.91157552851532
  0
LINE
  5
23D
100
AcDbEntity
  8
Layer_1
  6
ByLayer
 62
    7
370
   -1
100
AcDbLine
 10
61.75487506595952
 20
30.91157552851532
 11
61.81165131449095
 21
30.91902177335437
  0
LINE
  5
23E
100
AcDbEntity
  8
Layer_1
  6
ByLayer
 62
    7
370
   -1
100
AcDbLine
 10
61.81165131449095
 20
30.91902177335437
 11
61.86930156389514
 21
30.92354527239771
  0
LINE
  5
23F
100
AcDbEntity
  8
Layer_1
  6
ByLayer
 62
    7
370
   -1
100
AcDbLine
 10
61.86930156389514
 20
30.92354527239771
 11
61.92775
 21
30.92507
  0
LINE
  5
240
100
AcDbEntity
  8
Layer_1
  6
ByLayer
 62
    7
370
   -1
100
AcDbLine
 10
94.67754600000001
 20
70.67531
 11
94.67754600000001
 21
70.67531
  0
LINE
  5
241
100
AcDbEntity
  8
Layer_1
  6
ByLayer
 62
    7
370
   -1
100
AcDbLine
 10
108.427593
 20
23.175316
 11
108.4860414391595
 21
23.17379127239771
  0
LINE
  5
242
100
AcDbEntity
  8
Layer_1
  6
ByLayer
 62
    7
370
   -1
100
AcDbLine
 10
108.4860414391595
 20
23.17379127239771
 11
108.543691697459
 21
23.16926777335437
  0
LINE
  5
243
100
AcDbEntity
  8
Layer_1
  6
ByLayer
 62
    7
370
   -1
100
AcDbLine
 10
108.543691697459
 20
23.16926777335437
 11
108.6004679603236
 21
23.16182152851532
  0
LINE
  5
244
100
AcDbEntity
  8
Layer_1
  6
ByLayer
 62
    7
370
   -1
100
AcDbLine
 10
108.6004679603236
 20
23.16182152851532
 11
108.6562944131785
 21
23.1515285635259
  0
LINE
  5
245
100
AcDbEntity
  8
Layer_1
  6
ByLayer
 62
    7
370
   -1
100
AcDbLine
 10
108.6562944131785
 20
23.1515285635259
 11
108.7110952414487
 21
23.13846490403142
  0
LINE
  5
246
100
AcDbEntity
  8
Layer_1
  6
ByLayer
 62
    7
370
   -1
100
AcDbLine
 10
108.7110952414487
 20
23.13846490403142
 11
108.7647946305596
 21
23.12270657567722
  0
LINE
  5
247
100
AcDbEntity
  8
Layer_1
  6
ByLayer
 62
    7
370
   -1
100
AcDbLine
 10
108.7647946305596
 20
23.12270657567722
 11
108.817316765936
 21
23.10432960410862
  0
LINE
  5
248
100
AcDbEntity
  8
Layer_1
  6
ByLayer
 62
    7
370
   -1
100
AcDbLine
 10
108.817316765936
 20
23.10432960410862
 11
108.8685858330033
 21
23.08341001497096
  0
LINE
  5
249
100
AcDbEntity
  8
Layer_1
  6
ByLayer
 62
    7
370
   -1
100
AcDbLine
 10
108.8685858330033
 20
23.08341001497096
 11
108.9185260171864
 21
23.06002383390956
  0
LINE
  5
24A
100
AcDbEntity
  8
Layer_1
  6
ByLayer
 62
    7
370
   -1
100
AcDbLine
 10
108.9185260171864
 20
23.06002383390956
 11
108.9670615039105
 21
23.03424708656977
  0
LINE
  5
24B
100
AcDbEntity
  8
Layer_1
  6
ByLayer
 62
    7
370
   -1
100
AcDbLine
 10
108.9670615039105
 20
23.03424708656977
 11
109.0141164786009
 21
23.00615579859689
  0
LINE
  5
24C
100
AcDbEntity
  8
Layer_1
  6
ByLayer
 62
    7
370
   -1
100
AcDbLine
 10
109.0141164786009
 20
23.00615579859689
 11
109.0596151266826
 21
22.97582599563626
  0
LINE
  5
24D
100
AcDbEntity
  8
Layer_1
  6
ByLayer
 62
    7
370
   -1
100
AcDbLine
 10
109.0596151266826
 20
22.97582599563626
 11
109.1034816335806
 21
22.94333370333322
  0
LINE
  5
24E
100
AcDbEntity
  8
Layer_1
  6
ByLayer
 62
    7
370
   -1
100
AcDbLine
 10
109.1034816335806
 20
22.94333370333322
 11
109.1456401847202
 21
22.90875494733309
  0
LINE
  5
24F
100
AcDbEntity
  8
Layer_1
  6
ByLayer
 62
    7
370
   -1
100
AcDbLine
 10
109.1456401847202
 20
22.90875494733309
 11
109.1860149655265
 21
22.87216575328119
  0
LINE
  5
250
100
AcDbEntity
  8
Layer_1
  6
ByLayer
 62
    7
370
   -1
100
AcDbLine
 10
109.1860149655265
 20
22.87216575328119
 11
109.2245301614246
 21
22.83364214682286
  0
LINE
  5
251
100
AcDbEntity
  8
Layer_1
  6
ByLayer
 62
    7
370
   -1
100
AcDbLine
 10
109.2245301614246
 20
22.83364214682286
 11
109.2611099578396
 21
22.79326015360344
  0
LINE
  5
252
100
AcDbEntity
  8
Layer_1
  6
ByLayer
 62
    7
370
   -1
100
AcDbLine
 10
109.2611099578396
 20
22.79326015360344
 11
109.2956785401967
 21
22.75109579926823
  0
LINE
  5
253
100
AcDbEntity
  8
Layer_1
  6
ByLayer
 62
    7
370
   -1
100
AcDbLine
 10
109.2956785401967
 20
22.75109579926823
 11
109.328160093921
 21
22.70722510946259
  0
LINE
  5
254
100
AcDbEntity
  8
Layer_1
  6
ByLayer
 62
    7
370
   -1
100
AcDbLine
 10
109.328160093921
 20
22.70722510946259
 11
109.3584788044376
 21
22.66172410983183
  0
LINE
  5
255
100
AcDbEntity
  8
Layer_1
  6
ByLayer
 62
    7
370
   -1
100
AcDbLine
 10
109.3584788044376
 20
22.66172410983183
 11
109.3865588571716
 21
22.61466882602128
  0
LINE
  5
256
100
AcDbEntity
  8
Layer_1
  6
ByLayer
 62
    7
370
   -1
100
AcDbLine
 10
109.3865588571716
 20
22.61466882602128
 11
109.4123244375482
 21
22.56613528367628
  0
LINE
  5
257
100
AcDbEntity
  8
Layer_1
  6
ByLayer
 62
    7
370
   -1
100
AcDbLine
 10
109.4123244375482
 20
22.56613528367628
 11
109.4356997309926
 21
22.51619950844215
  0
LINE
  5
258
100
AcDbEntity
  8
Layer_1
  6
ByLayer
 62
    7
370
   -1
100
AcDbLine
 10
109.4356997309926
 20
22.51619950844215
 11
109.4566089229297
 21
22.46493752596422
  0
LINE
  5
259
100
AcDbEntity
  8
Layer_1
  6
ByLayer
 62
    7
370
   -1
100
AcDbLine
 10
109.4566089229297
 20
22.46493752596422
 11
109.4749761987849
 21
22.41242536188782
  0
LINE
  5
25A
100
AcDbEntity
  8
Layer_1
  6
ByLayer
 62
    7
370
   -1
100
AcDbLine
 10
109.4749761987849
 20
22.41242536188782
 11
109.4907257439831
 21
22.35873904185828
  0
LINE
  5
25B
100
AcDbEntity
  8
Layer_1
  6
ByLayer
 62
    7
370
   -1
100
AcDbLine
 10
109.4907257439831
 20
22.35873904185828
 11
109.5037817439495
 21
22.30395459152093
  0
LINE
  5
25C
100
AcDbEntity
  8
Layer_1
  6
ByLayer
 62
    7
370
   -1
100
AcDbLine
 10
109.5037817439495
 20
22.30395459152093
 11
109.5140683841093
 21
22.2481480365211
  0
LINE
  5
25D
100
AcDbEntity
  8
Layer_1
  6
ByLayer
 62
    7
370
   -1
100
AcDbLine
 10
109.5140683841093
 20
22.2481480365211
 11
109.5215098498875
 21
22.19139540250411
  0
LINE
  5
25E
100
AcDbEntity
  8
Layer_1
  6
ByLayer
 62
    7
370
   -1
100
AcDbLine
 10
109.5215098498875
 20
22.19139540250411
 11
109.5260303267094
 21
22.13377271511531
  0
LINE
  5
25F
100
AcDbEntity
  8
Layer_1
  6
ByLayer
 62
    7
370
   -1
100
AcDbLine
 10
109.5260303267094
 20
22.13377271511531
 11
109.527554
 21
22.075356
  0
LINE
  5
260
100
AcDbEntity
  8
Layer_1
  6
ByLayer
 62
    7
370
   -1
100
AcDbLine
 10
109.527554
 20
22.075356
 11
109.5260303267094
 21
22.0169066239804
  0
LINE
  5
261
100
AcDbEntity
  8
Layer_1
  6
ByLayer
 62
    7
370
   -1
100
AcDbLine
 10
109.5260303267094
 20
22.0169066239804
 11
109.5215098498876
 21
21.95925548924172
  0
LINE
  5
262
100
AcDbEntity
  8
Layer_1
  6
ByLayer
 62
    7
370
   -1
100
AcDbLine
 10
109.5215098498876
 20
21.95925548924172
 11
109.5140683841093
 21
21.9024784083448
  0
LINE
  5
263
100
AcDbEntity
  8
Layer_1
  6
ByLayer
 62
    7
370
   -1
100
AcDbLine
 10
109.5140683841093
 20
21.9024784083448
 11
109.5037817439495
 21
21.84665119385049
  0
LINE
  5
264
100
AcDbEntity
  8
Layer_1
  6
ByLayer
 62
    7
370
   -1
100
AcDbLine
 10
109.5037817439495
 20
21.84665119385049
 11
109.4907257439831
 21
21.79184965831962
  0
LINE
  5
265
100
AcDbEntity
  8
Layer_1
  6
ByLayer
 62
    7
370
   -1
100
AcDbLine
 10
109.4907257439831
 20
21.79184965831962
 11
109.4749761987849
 21
21.73814961431304
  0
LINE
  5
266
100
AcDbEntity
  8
Layer_1
  6
ByLayer
 62
    7
370
   -1
100
AcDbLine
 10
109.4749761987849
 20
21.73814961431304
 11
109.4566089229297
 21
21.68562687439159
  0
LINE
  5
267
100
AcDbEntity
  8
Layer_1
  6
ByLayer
 62
    7
370
   -1
100
AcDbLine
 10
109.4566089229297
 20
21.68562687439159
 11
109.4356997309926
 21
21.63435725111611
  0
LINE
  5
268
100
AcDbEntity
  8
Layer_1
  6
ByLayer
 62
    7
370
   -1
100
AcDbLine
 10
109.4356997309926
 20
21.63435725111611
 11
109.4123244375482
 21
21.58441655704743
  0
LINE
  5
269
100
AcDbEntity
  8
Layer_1
  6
ByLayer
 62
    7
370
   -1
100
AcDbLine
 10
109.4123244375482
 20
21.58441655704743
 11
109.3865588571716
 21
21.5358806047464
  0
LINE
  5
26A
100
AcDbEntity
  8
Layer_1
  6
ByLayer
 62
    7
370
   -1
100
AcDbLine
 10
109.3865588571716
 20
21.5358806047464
 11
109.3584788044376
 21
21.48882520677386
  0
LINE
  5
26B
100
AcDbEntity
  8
Layer_1
  6
ByLayer
 62
    7
370
   -1
100
AcDbLine
 10
109.3584788044376
 20
21.48882520677386
 11
109.328160093921
 21
21.44332617569065
  0
LINE
  5
26C
100
AcDbEntity
  8
Layer_1
  6
ByLayer
 62
    7
370
   -1
100
AcDbLine
 10
109.328160093921
 20
21.44332617569065
 11
109.2956785401967
 21
21.3994593240576
  0
LINE
  5
26D
100
AcDbEntity
  8
Layer_1
  6
ByLayer
 62
    7
370
   -1
100
AcDbLine
 10
109.2956785401967
 20
21.3994593240576
 11
109.2611099578396
 21
21.35730046443557
  0
LINE
  5
26E
100
AcDbEntity
  8
Layer_1
  6
ByLayer
 62
    7
370
   -1
100
AcDbLine
 10
109.2611099578396
 20
21.35730046443557
 11
109.2245301614246
 21
21.31692540938539
  0
LINE
  5
26F
100
AcDbEntity
  8
Layer_1
  6
ByLayer
 62
    7
370
   -1
100
AcDbLine
 10
109.2245301614246
 20
21.31692540938539
 11
109.1860149655265
 21
21.27840997146789
  0
LINE
  5
270
100
AcDbEntity
  8
Layer_1
  6
ByLayer
 62
    7
370
   -1
100
AcDbLine
 10
109.1860149655265
 20
21.27840997146789
 11
109.1456401847202
 21
21.24182996324393
  0
LINE
  5
271
100
AcDbEntity
  8
Layer_1
  6
ByLayer
 62
    7
370
   -1
100
AcDbLine
 10
109.1456401847202
 20
21.24182996324393
 11
109.1034816335806
 21
21.20726119727435
  0
LINE
  5
272
100
AcDbEntity
  8
Layer_1
  6
ByLayer
 62
    7
370
   -1
100
AcDbLine
 10
109.1034816335806
 20
21.20726119727435
 11
109.0596151266826
 21
21.17477948611997
  0
LINE
  5
273
100
AcDbEntity
  8
Layer_1
  6
ByLayer
 62
    7
370
   -1
100
AcDbLine
 10
109.0596151266826
 20
21.17477948611997
 11
109.0141164786009
 21
21.14446064234165
  0
LINE
  5
274
100
AcDbEntity
  8
Layer_1
  6
ByLayer
 62
    7
370
   -1
100
AcDbLine
 10
109.0141164786009
 20
21.14446064234165
 11
108.9670615039106
 21
21.11638047850022
  0
LINE
  5
275
100
AcDbEntity
  8
Layer_1
  6
ByLayer
 62
    7
370
   -1
100
AcDbLine
 10
108.9670615039106
 20
21.11638047850022
 11
108.9185260171864
 21
21.09061480715652
  0
LINE
  5
276
100
AcDbEntity
  8
Layer_1
  6
ByLayer
 62
    7
370
   -1
100
AcDbLine
 10
108.9185260171864
 20
21.09061480715652
 11
108.8685858330033
 21
21.0672394408714
  0
LINE
  5
277
100
AcDbEntity
  8
Layer_1
  6
ByLayer
 62
    7
370
   -1
100
AcDbLine
 10
108.8685858330033
 20
21.0672394408714
 11
108.817316765936
 21
21.0463301922057
  0
LINE
  5
278
100
AcDbEntity
  8
Layer_1
  6
ByLayer
 62
    7
370
   -1
100
AcDbLine
 10
108.817316765936
 20
21.0463301922057
 11
108.7647946305595
 21
21.02796287372025
  0
LINE
  5
279
100
AcDbEntity
  8
Layer_1
  6
ByLayer
 62
    7
370
   -1
100
AcDbLine
 10
108.7647946305595
 20
21.02796287372025
 11
108.7110952414488
 21
21.0122132979759
  0
LINE
  5
27A
100
AcDbEntity
  8
Layer_1
  6
ByLayer
 62
    7
370
   -1
100
AcDbLine
 10
108.7110952414488
 20
21.0122132979759
 11
108.6562944131785
 21
20.99915727753348
  0
LINE
  5
27B
100
AcDbEntity
  8
Layer_1
  6
ByLayer
 62
    7
370
   -1
100
AcDbLine
 10
108.6562944131785
 20
20.99915727753348
 11
108.6004679603236
 21
20.98887062495385
  0
LINE
  5
27C
100
AcDbEntity
  8
Layer_1
  6
ByLayer
 62
    7
370
   -1
100
AcDbLine
 10
108.6004679603236
 20
20.98887062495385
 11
108.543691697459
 21
20.98142915279782
  0
LINE
  5
27D
100
AcDbEntity
  8
Layer_1
  6
ByLayer
 62
    7
370
   -1
100
AcDbLine
 10
108.543691697459
 20
20.98142915279782
 11
108.4860414391595
 21
20.97690867362626
  0
LINE
  5
27E
100
AcDbEntity
  8
Layer_1
  6
ByLayer
 62
    7
370
   -1
100
AcDbLine
 10
108.4860414391595
 20
20.97690867362626
 11
108.427593
 21
20.975385
  0
LINE
  5
27F
100
AcDbEntity
  8
Layer_1
  6
ByLayer
 62
    7
370
   -1
100
AcDbLine
 10
108.427593
 20
20.975385
 11
108.3691762848847
 21
20.97690867362626
  0
LINE
  5
280
100
AcDbEntity
  8
Layer_1
  6
ByLayer
 62
    7
370
   -1
100
AcDbLine
 10
108.3691762848847
 20
20.97690867362626
 11
108.3115535974959
 21
20.98142915279783
  0
LINE
  5
281
100
AcDbEntity
  8
Layer_1
  6
ByLayer
 62
    7
370
   -1
100
AcDbLine
 10
108.3115535974959
 20
20.98142915279783
 11
108.2548009634789
 21
20.98887062495384
  0
LINE
  5
282
100
AcDbEntity
  8
Layer_1
  6
ByLayer
 62
    7
370
   -1
100
AcDbLine
 10
108.2548009634789
 20
20.98887062495384
 11
108.1989944084791
 21
20.99915727753348
  0
LINE
  5
283
100
AcDbEntity
  8
Layer_1
  6
ByLayer
 62
    7
370
   -1
100
AcDbLine
 10
108.1989944084791
 20
20.99915727753348
 11
108.1442099581417
 21
21.0122132979759
  0
LINE
  5
284
100
AcDbEntity
  8
Layer_1
  6
ByLayer
 62
    7
370
   -1
100
AcDbLine
 10
108.1442099581417
 20
21.0122132979759
 11
108.0905236381122
 21
21.02796287372025
  0
LINE
  5
285
100
AcDbEntity
  8
Layer_1
  6
ByLayer
 62
    7
370
   -1
100
AcDbLine
 10
108.0905236381122
 20
21.02796287372025
 11
108.0380114740358
 21
21.0463301922057
  0
LINE
  5
286
100
AcDbEntity
  8
Layer_1
  6
ByLayer
 62
    7
370
   -1
100
AcDbLine
 10
108.0380114740358
 20
21.0463301922057
 11
107.9867494915579
 21
21.0672394408714
  0
LINE
  5
287
100
AcDbEntity
  8
Layer_1
  6
ByLayer
 62
    7
370
   -1
100
AcDbLine
 10
107.9867494915579
 20
21.0672394408714
 11
107.9368137163237
 21
21.09061480715652
  0
LINE
  5
288
100
AcDbEntity
  8
Layer_1
  6
ByLayer
 62
    7
370
   -1
100
AcDbLine
 10
107.9368137163237
 20
21.09061480715652
 11
107.8882801739787
 21
21.11638047850021
  0
LINE
  5
289
100
AcDbEntity
  8
Layer_1
  6
ByLayer
 62
    7
370
   -1
100
AcDbLine
 10
107.8882801739787
 20
21.11638047850021
 11
107.8412248901682
 21
21.14446064234165
  0
LINE
  5
28A
100
AcDbEntity
  8
Layer_1
  6
ByLayer
 62
    7
370
   -1
100
AcDbLine
 10
107.8412248901682
 20
21.14446064234165
 11
107.7957238905374
 21
21.17477948611997
  0
LINE
  5
28B
100
AcDbEntity
  8
Layer_1
  6
ByLayer
 62
    7
370
   -1
100
AcDbLine
 10
107.7957238905374
 20
21.17477948611997
 11
107.7518532007318
 21
21.20726119727434
  0
LINE
  5
28C
100
AcDbEntity
  8
Layer_1
  6
ByLayer
 62
    7
370
   -1
100
AcDbLine
 10
107.7518532007318
 20
21.20726119727434
 11
107.7096888463966
 21
21.24182996324393
  0
LINE
  5
28D
100
AcDbEntity
  8
Layer_1
  6
ByLayer
 62
    7
370
   -1
100
AcDbLine
 10
107.7096888463966
 20
21.24182996324393
 11
107.6693068531771
 21
21.27840997146789
  0
LINE
  5
28E
100
AcDbEntity
  8
Layer_1
  6
ByLayer
 62
    7
370
   -1
100
AcDbLine
 10
107.6693068531771
 20
21.27840997146789
 11
107.6307832467188
 21
21.31692540938538
  0
LINE
  5
28F
100
AcDbEntity
  8
Layer_1
  6
ByLayer
 62
    7
370
   -1
100
AcDbLine
 10
107.6307832467188
 20
21.31692540938538
 11
107.5941940526669
 21
21.35730046443557
  0
LINE
  5
290
100
AcDbEntity
  8
Layer_1
  6
ByLayer
 62
    7
370
   -1
100
AcDbLine
 10
107.5941940526669
 20
21.35730046443557
 11
107.5596152966668
 21
21.3994593240576
  0
LINE
  5
291
100
AcDbEntity
  8
Layer_1
  6
ByLayer
 62
    7
370
   -1
100
AcDbLine
 10
107.5596152966668
 20
21.3994593240576
 11
107.5271230043637
 21
21.44332617569064
  0
LINE
  5
292
100
AcDbEntity
  8
Layer_1
  6
ByLayer
 62
    7
370
   -1
100
AcDbLine
 10
107.5271230043637
 20
21.44332617569064
 11
107.4967932014031
 21
21.48882520677385
  0
LINE
  5
293
100
AcDbEntity
  8
Layer_1
  6
ByLayer
 62
    7
370
   -1
100
AcDbLine
 10
107.4967932014031
 20
21.48882520677385
 11
107.4687019134303
 21
21.5358806047464
  0
LINE
  5
294
100
AcDbEntity
  8
Layer_1
  6
ByLayer
 62
    7
370
   -1
100
AcDbLine
 10
107.4687019134303
 20
21.5358806047464
 11
107.4429251660904
 21
21.58441655704743
  0
LINE
  5
295
100
AcDbEntity
  8
Layer_1
  6
ByLayer
 62
    7
370
   -1
100
AcDbLine
 10
107.4429251660904
 20
21.58441655704743
 11
107.419538985029
 21
21.63435725111611
  0
LINE
  5
296
100
AcDbEntity
  8
Layer_1
  6
ByLayer
 62
    7
370
   -1
100
AcDbLine
 10
107.419538985029
 20
21.63435725111611
 11
107.3986193958914
 21
21.68562687439159
  0
LINE
  5
297
100
AcDbEntity
  8
Layer_1
  6
ByLayer
 62
    7
370
   -1
100
AcDbLine
 10
107.3986193958914
 20
21.68562687439159
 11
107.3802424243228
 21
21.73814961431304
  0
LINE
  5
298
100
AcDbEntity
  8
Layer_1
  6
ByLayer
 62
    7
370
   -1
100
AcDbLine
 10
107.3802424243228
 20
21.73814961431304
 11
107.3644840959686
 21
21.79184965831962
  0
LINE
  5
299
100
AcDbEntity
  8
Layer_1
  6
ByLayer
 62
    7
370
   -1
100
AcDbLine
 10
107.3644840959686
 20
21.79184965831962
 11
107.3514204364741
 21
21.84665119385049
  0
LINE
  5
29A
100
AcDbEntity
  8
Layer_1
  6
ByLayer
 62
    7
370
   -1
100
AcDbLine
 10
107.3514204364741
 20
21.84665119385049
 11
107.3411274714847
 21
21.9024784083448
  0
LINE
  5
29B
100
AcDbEntity
  8
Layer_1
  6
ByLayer
 62
    7
370
   -1
100
AcDbLine
 10
107.3411274714847
 20
21.9024784083448
 11
107.3336812266456
 21
21.95925548924172
  0
LINE
  5
29C
100
AcDbEntity
  8
Layer_1
  6
ByLayer
 62
    7
370
   -1
100
AcDbLine
 10
107.3336812266456
 20
21.95925548924172
 11
107.3291577276023
 21
22.0169066239804
  0
LINE
  5
29D
100
AcDbEntity
  8
Layer_1
  6
ByLayer
 62
    7
370
   -1
100
AcDbLine
 10
107.3291577276023
 20
22.0169066239804
 11
107.327633
 21
22.075356
  0
LINE
  5
29E
100
AcDbEntity
  8
Layer_1
  6
ByLayer
 62
    7
370
   -1
100
AcDbLine
 10
107.327633
 20
22.075356
 11
107.3291577276023
 21
22.1337727151153
  0
LINE
  5
29F
100
AcDbEntity
  8
Layer_1
  6
ByLayer
 62
    7
370
   -1
100
AcDbLine
 10
107.3291577276023
 20
22.1337727151153
 11
107.3336812266456
 21
22.19139540250412
  0
LINE
  5
2A0
100
AcDbEntity
  8
Layer_1
  6
ByLayer
 62
    7
370
   -1
100
AcDbLine
 10
107.3336812266456
 20
22.19139540250412
 11
107.3411274714847
 21
22.2481480365211
  0
LINE
  5
2A1
100
AcDbEntity
  8
Layer_1
  6
ByLayer
 62
    7
370
   -1
100
AcDbLine
 10
107.3411274714847
 20
22.2481480365211
 11
107.3514204364741
 21
22.30395459152093
  0
LINE
  5
2A2
100
AcDbEntity
  8
Layer_1
  6
ByLayer
 62
    7
370
   -1
100
AcDbLine
 10
107.3514204364741
 20
22.30395459152093
 11
107.3644840959686
 21
22.35873904185828
  0
LINE
  5
2A3
100
AcDbEntity
  8
Layer_1
  6
ByLayer
 62
    7
370
   -1
100
AcDbLine
 10
107.3644840959686
 20
22.35873904185828
 11
107.3802424243228
 21
22.41242536188782
  0
LINE
  5
2A4
100
AcDbEntity
  8
Layer_1
  6
ByLayer
 62
    7
370
   -1
100
AcDbLine
 10
107.3802424243228
 20
22.41242536188782
 11
107.3986193958914
 21
22.46493752596422
  0
LINE
  5
2A5
100
AcDbEntity
  8
Layer_1
  6
ByLayer
 62
    7
370
   -1
100
AcDbLine
 10
107.3986193958914
 20
22.46493752596422
 11
107.419538985029
 21
22.51619950844215
  0
LINE
  5
2A6
100
AcDbEntity
  8
Layer_1
  6
ByLayer
 62
    7
370
   -1
100
AcDbLine
 10
107.419538985029
 20
22.51619950844215
 11
107.4429251660904
 21
22.56613528367628
  0
LINE
  5
2A7
100
AcDbEntity
  8
Layer_1
  6
ByLayer
 62
    7
370
   -1
100
AcDbLine
 10
107.4429251660904
 20
22.56613528367628
 11
107.4687019134302
 21
22.61466882602128
  0
LINE
  5
2A8
100
AcDbEntity
  8
Layer_1
  6
ByLayer
 62
    7
370
   -1
100
AcDbLine
 10
107.4687019134302
 20
22.61466882602128
 11
107.4967932014031
 21
22.66172410983183
  0
LINE
  5
2A9
100
AcDbEntity
  8
Layer_1
  6
ByLayer
 62
    7
370
   -1
100
AcDbLine
 10
107.4967932014031
 20
22.66172410983183
 11
107.5271230043637
 21
22.70722510946259
  0
LINE
  5
2AA
100
AcDbEntity
  8
Layer_1
  6
ByLayer
 62
    7
370
   -1
100
AcDbLine
 10
107.5271230043637
 20
22.70722510946259
 11
107.5596152966668
 21
22.75109579926823
  0
LINE
  5
2AB
100
AcDbEntity
  8
Layer_1
  6
ByLayer
 62
    7
370
   -1
100
AcDbLine
 10
107.5596152966668
 20
22.75109579926823
 11
107.5941940526669
 21
22.79326015360344
  0
LINE
  5
2AC
100
AcDbEntity
  8
Layer_1
  6
ByLayer
 62
    7
370
   -1
100
AcDbLine
 10
107.5941940526669
 20
22.79326015360344
 11
107.6307832467188
 21
22.83364214682286
  0
LINE
  5
2AD
100
AcDbEntity
  8
Layer_1
  6
ByLayer
 62
    7
370
   -1
100
AcDbLine
 10
107.6307832467188
 20
22.83364214682286
 11
107.6693068531771
 21
22.87216575328119
  0
LINE
  5
2AE
100
AcDbEntity
  8
Layer_1
  6
ByLayer
 62
    7
370
   -1
100
AcDbLine
 10
107.6693068531771
 20
22.87216575328119
 11
107.7096888463966
 21
22.90875494733308
  0
LINE
  5
2AF
100
AcDbEntity
  8
Layer_1
  6
ByLayer
 62
    7
370
   -1
100
AcDbLine
 10
107.7096888463966
 20
22.90875494733308
 11
107.7518532007318
 21
22.94333370333322
  0
LINE
  5
2B0
100
AcDbEntity
  8
Layer_1
  6
ByLayer
 62
    7
370
   -1
100
AcDbLine
 10
107.7518532007318
 20
22.94333370333322
 11
107.7957238905374
 21
22.97582599563627
  0
LINE
  5
2B1
100
AcDbEntity
  8
Layer_1
  6
ByLayer
 62
    7
370
   -1
100
AcDbLine
 10
107.7957238905374
 20
22.97582599563627
 11
107.8412248901682
 21
23.00615579859689
  0
LINE
  5
2B2
100
AcDbEntity
  8
Layer_1
  6
ByLayer
 62
    7
370
   -1
100
AcDbLine
 10
107.8412248901682
 20
23.00615579859689
 11
107.8882801739787
 21
23.03424708656977
  0
LINE
  5
2B3
100
AcDbEntity
  8
Layer_1
  6
ByLayer
 62
    7
370
   -1
100
AcDbLine
 10
107.8882801739787
 20
23.03424708656977
 11
107.9368137163237
 21
23.06002383390957
  0
LINE
  5
2B4
100
AcDbEntity
  8
Layer_1
  6
ByLayer
 62
    7
370
   -1
100
AcDbLine
 10
107.9368137163237
 20
23.06002383390957
 11
107.9867494915579
 21
23.08341001497097
  0
LINE
  5
2B5
100
AcDbEntity
  8
Layer_1
  6
ByLayer
 62
    7
370
   -1
100
AcDbLine
 10
107.9867494915579
 20
23.08341001497097
 11
108.0380114740358
 21
23.10432960410862
  0
LINE
  5
2B6
100
AcDbEntity
  8
Layer_1
  6
ByLayer
 62
    7
370
   -1
100
AcDbLine
 10
108.0380114740358
 20
23.10432960410862
 11
108.0905236381122
 21
23.12270657567722
  0
LINE
  5
2B7
100
AcDbEntity
  8
Layer_1
  6
ByLayer
 62
    7
370
   -1
100
AcDbLine
 10
108.0905236381122
 20
23.12270657567722
 11
108.1442099581417
 21
23.13846490403142
  0
LINE
  5
2B8
100
AcDbEntity
  8
Layer_1
  6
ByLayer
 62
    7
370
   -1
100
AcDbLine
 10
108.1442099581417
 20
23.13846490403142
 11
108.1989944084791
 21
23.1515285635259
  0
LINE
  5
2B9
100
AcDbEntity
  8
Layer_1
  6
ByLayer
 62
    7
370
   -1
100
AcDbLine
 10
108.1989944084791
 20
23.1515285635259
 11
108.2548009634789
 21
23.16182152851532
  0
LINE
  5
2BA
100
AcDbEntity
  8
Layer_1
  6
ByLayer
 62
    7
370
   -1
100
AcDbLine
 10
108.2548009634789
 20
23.16182152851532
 11
108.3115535974959
 21
23.16926777335437
  0
LINE
  5
2BB
100
AcDbEntity
  8
Layer_1
  6
ByLayer
 62
    7
370
   -1
100
AcDbLine
 10
108.3115535974959
 20
23.16926777335437
 11
108.3691762848847
 21
23.1737912723977
  0
LINE
  5
2BC
100
AcDbEntity
  8
Layer_1
  6
ByLayer
 62
    7
370
   -1
100
AcDbLine
 10
108.3691762848847
 20
23.1737912723977
 11
108.427593
 21
23.175316
  0
LINE
  5
2BD
100
AcDbEntity
  8
Layer_1
  6
ByLayer
 62
    7
370
   -1
100
AcDbLine
 10
61.92775
 20
30.92507
 11
61.92775
 21
30.92507
  0
LINE
  5
2BE
100
AcDbEntity
  8
Layer_1
  6
ByLayer
 62
    7
370
   -1
100
AcDbLine
 10
108.427593
 20
23.175316
 11
108.427593
 21
23.175316
  0
ENDSEC
  0
SECTION
  2
OBJECTS
  0
DICTIONARY
  5
C
330
0
100
AcDbDictionary
281
    1
  3
ACAD_GROUP
350
D
  0
DICTIONARY
  5
D
330
C
100
AcDbDictionary
281
    1
  0
ENDSEC
  0
EOF
