  0
SECTION
  2
HEADER
  9
$ACADVER
  1
AC1014
  9
$HANDSEED
  5
FFFF
  9
$MEASUREMENT
 70
     1
  0
ENDSEC
  0
SECTION
  2
TABLES
  0
TABLE
  2
VPORT
  5
8
330
0
100
AcDbSymbolTable
 70
     4
  0
VPORT
  5
2E
330
8
100
AcDbSymbolTableRecord
100
AcDbViewportTableRecord
  2
*ACTIVE
 70
     0
 10
0.0
 20
0.0
 11
1.0
 21
1.0
 12
210.0
 22
148.5
 13
0.0
 23
0.0
 14
10.0
 24
10.0
 15
10.0
 25
10.0
 16
0.0
 26
0.0
 36
1.0
 17
0.0
 27
0.0
 37
0.0
 40
341.0
 41
1.24
 42
50.0
 43
0.0
 44
0.0
 50
0.0
 51
0.0
 71
     0
 72
   100
 73
     1
 74
     3
 75
     0
 76
     0
 77
     0
 78
     0
  0
ENDTAB
  0
TABLE
  2
LTYPE
  5
5
330
0
100
AcDbSymbolTable
 70
     1
  0
LTYPE
  5
14
330
5
100
AcDbSymbolTableRecord
100
AcDbLinetypeTableRecord
  2
BYBLOCK
 70
     0
  3

 72
    65
 73
     0
 40
0.0
  0
LTYPE
  5
15
330
5
100
AcDbSymbolTableRecord
100
AcDbLinetypeTableRecord
  2
BYLAYER
 70
     0
  3

 72
    65
 73
     0
 40
0.0
  0
LTYPE
  5
16
330
5
100
AcDbSymbolTableRecord
100
AcDbLinetypeTableRecord
  2
CONTINUOUS
 70
     0
  3
Solid line
 72
    65
 73
     0
 40
0.0
  0
ENDTAB
  0
TABLE
  2
LAYER
  5
2
100
AcDbSymbolTable
 70
1
  0
LAYER
  5
50
100
AcDbSymbolTableRecord
100
AcDbLayerTableRecord
  2
0
 70
0
  6
CONTINUOUS
  0
ENDTAB
  0
TABLE
  2
STYLE
  5
3
330
0
100
AcDbSymbolTable
 70
     1
  0
STYLE
  5
11
330
3
100
AcDbSymbolTableRecord
100
AcDbTextStyleTableRecord
  2
STANDARD
 70
     0
 40
0.0
 41
1.0
 50
0.0
 71
     0
 42
2.5
  3
txt
  4

  0
ENDTAB
  0
TABLE
  2
VIEW
  5
6
330
0
100
AcDbSymbolTable
 70
     0
  0
ENDTAB
  0
TABLE
  2
UCS
  5
7
330
0
100
AcDbSymbolTable
 70
     0
  0
ENDTAB
  0
TABLE
  2
APPID
  5
9
330
0
100
AcDbSymbolTable
 70
     2
  0
APPID
  5
12
330
9
100
AcDbSymbolTableRecord
100
AcDbRegAppTableRecord
  2
ACAD
 70
     0
  0
ENDTAB
  0
TABLE
  2
DIMSTYLE
  5
A
330
0
100
AcDbSymbolTable
 70
     1
  0
DIMSTYLE
105
27
330
A
100
AcDbSymbolTableRecord
100
AcDbDimStyleTableRecord
  2
ISO-25
 70
     0
  3

  4

  5

  6

  7

 40
1.0
 41
2.5
 42
0.625
 43
3.75
 44
1.25
 45
0.0
 46
0.0
 47
0.0
 48
0.0
140
2.5
141
2.5
142
0.0
143
0.03937007874016
144
1.0
145
0.0
146
1.0
147
0.625
 71
     0
 72
     0
 73
     0
 74
     0
 75
     0
 76
     0
 77
     1
 78
     8
170
     0
171
     3
172
     1
173
     0
174
     0
175
     0
176
     0
177
     0
178
     0
270
     2
271
     2
272
     2
273
     2
274
     3
340
11
275
     0
280
     0
281
     0
282
     0
283
     0
284
     8
285
     0
286
     0
287
     3
288
     0
  0
ENDTAB
  0
TABLE
  2
BLOCK_RECORD
  5
1
330
0
100
AcDbSymbolTable
 70
     1
  0
BLOCK_RECORD
  5
1F
330
1
100
AcDbSymbolTableRecord
100
AcDbBlockTableRecord
  2
*MODEL_SPACE
  0
BLOCK_RECORD
  5
1B
330
1
100
AcDbSymbolTableRecord
100
AcDbBlockTableRecord
  2
*PAPER_SPACE
  0
ENDTAB
  0
ENDSEC
  0
SECTION
  2
BLOCKS
  0
BLOCK
  5
20
330
1F
100
AcDbEntity
  8
0
100
AcDbBlockBegin
  2
*MODEL_SPACE
 70
     0
 10
0.0
 20
0.0
 30
0.0
  3
*MODEL_SPACE
  1

  0
ENDBLK
  5
21
330
1F
100
AcDbEntity
  8
0
100
AcDbBlockEnd
  0
BLOCK
  5
1C
330
1B
100
AcDbEntity
 67
     1
  8
0
100
AcDbBlockBegin
  2
*PAPER_SPACE
  1

  0
ENDBLK
  5
1D
330
1B
100
AcDbEntity
 67
     1
  8
0
100
AcDbBlockEnd
  0
ENDSEC
  0
SECTION
  2
ENTITIES
  0
LWPOLYLINE
  5
100
100
AcDbEntity
  8
0
 62
7
100
AcDbPolyline
 90
98
 70
1
 10
57.673743
 20
92.941720
 30
0.0
 10
57.302223
 20
92.902469
 30
0.0
 10
56.954672
 20
92.791969
 30
0.0
 10
56.361938
 20
92.389063
 30
0.0
 10
55.958459
 20
91.796666
 30
0.0
 10
55.848102
 20
91.449302
 30
0.0
 10
55.808652
 20
91.078441
 30
0.0
 10
55.808652
 20
91.074533
 30
0.0
 10
55.808652
 20
90.691721
 30
0.0
 10
38.677636
 20
90.691721
 30
0.0
 10
38.671736
 20
90.691721
 30
0.0
 10
38.301464
 20
90.652015
 30
0.0
 10
37.954462
 20
90.541202
 30
0.0
 10
37.362477
 20
90.137923
 30
0.0
 10
36.959798
 20
89.545233
 30
0.0
 10
36.849440
 20
89.197659
 30
0.0
 10
36.810390
 20
88.826490
 30
0.0
 10
36.810390
 20
88.824540
 30
0.0
 10
36.810390
 20
85.941731
 30
0.0
 10
0.675782
 20
85.941731
 30
0.0
 10
0.673830
 20
85.941731
 30
0.0
 10
0.302410
 20
85.902453
 30
0.0
 10
-0.045306
 20
85.791910
 30
0.0
 10
-0.638015
 20
85.388915
 30
0.0
 10
-1.041112
 20
84.796525
 30
0.0
 10
-1.151806
 20
84.449226
 30
0.0
 10
-1.191400
 20
84.078470
 30
0.0
 10
-1.191400
 20
84.074580
 30
0.0
 10
-1.191400
 20
28.824642
 30
0.0
 10
-1.191400
 20
28.818642
 30
0.0
 10
-1.151846
 20
28.448335
 30
0.0
 10
-1.041072
 20
28.101485
 30
0.0
 10
-0.637533
 20
27.508595
 30
0.0
 10
-0.044132
 20
27.105850
 30
0.0
 10
0.303968
 20
26.996055
 30
0.0
 10
0.675783
 20
26.957625
 30
0.0
 10
55.228403
 20
26.957625
 30
0.0
 10
65.468672
 20
12.914436
 30
0.0
 10
65.601500
 20
12.758229
 30
0.0
 10
66.210713
 20
12.349495
 30
0.0
 10
66.931282
 20
12.207261
 30
0.0
 10
66.750016
 20
12.217261
 30
0.0
 10
103.419636
 20
7.447696
 30
0.0
 10
103.460536
 20
7.443696
 30
0.0
 10
103.749656
 20
7.385306
 30
0.0
 10
117.860926
 20
-0.770912
 30
0.0
 10
117.781026
 20
-0.720012
 30
0.0
 10
118.268896
 20
-0.981023
 30
0.0
 10
118.786236
 20
-1.134735
 30
0.0
 10
119.317547
 20
-1.184145
 30
0.0
 10
119.845367
 20
-1.132245
 30
0.0
 10
120.354207
 20
-0.983025
 30
0.0
 10
120.828097
 20
-0.738483
 30
0.0
 10
121.250547
 20
-0.402612
 30
0.0
 10
121.605087
 20
0.022092
 30
0.0
 10
121.657487
 20
0.109922
 30
0.0
 10
121.661487
 20
0.115922
 30
0.0
 10
134.884407
 20
23.041471
 30
0.0
 10
134.886407
 20
23.045471
 30
0.0
 10
135.196007
 20
23.803551
 30
0.0
 10
135.294407
 20
24.617526
 30
0.0
 10
135.294407
 20
84.072581
 30
0.0
 10
135.256407
 20
84.444485
 30
0.0
 10
135.146057
 20
84.792632
 30
0.0
 10
134.742577
 20
85.386121
 30
0.0
 10
134.149347
 20
85.789615
 30
0.0
 10
133.801787
 20
85.900307
 30
0.0
 10
133.431267
 20
85.939783
 30
0.0
 10
133.427267
 20
85.939783
 30
0.0
 10
114.542666
 20
85.939783
 30
0.0
 10
114.542666
 20
86.318673
 30
0.0
 10
114.505166
 20
86.691425
 30
0.0
 10
114.395806
 20
87.040471
 30
0.0
 10
113.992826
 20
87.635721
 30
0.0
 10
113.399596
 20
88.040702
 30
0.0
 10
113.052046
 20
88.151939
 30
0.0
 10
112.681016
 20
88.191729
 30
0.0
 10
112.677016
 20
88.191729
 30
0.0
 10
95.542654
 20
88.191729
 30
0.0
 10
95.542654
 20
88.820631
 30
0.0
 10
95.504863
 20
89.193413
 30
0.0
 10
95.395005
 20
89.542309
 30
0.0
 10
94.992026
 20
90.136845
 30
0.0
 10
94.398792
 20
90.541048
 30
0.0
 10
94.051741
 20
90.652025
 30
0.0
 10
93.681219
 20
90.691720
 30
0.0
 10
93.675719
 20
90.691720
 30
0.0
 10
76.544853
 20
90.691720
 30
0.0
 10
76.544853
 20
91.072582
 30
0.0
 10
76.544853
 20
91.074533
 30
0.0
 10
76.505911
 20
91.446087
 30
0.0
 10
76.395553
 20
91.794095
 30
0.0
 10
75.992075
 20
92.387617
 30
0.0
 10
75.399341
 20
92.791389
 30
0.0
 10
75.051790
 20
92.902214
 30
0.0
 10
74.681268
 20
92.941715
 30
0.0
 10
74.677268
 20
92.941715
 30
0.0
 10
57.675734
 20
92.941715
 30
0.0
  0
ENDSEC
  0
SECTION
  2
OBJECTS
  0
DICTIONARY
  5
C
330
0
100
AcDbDictionary
  3
ACAD_GROUP
350
D
  3
ACAD_MLINESTYLE
350
17
  0
DICTIONARY
  5
D
330
C
100
AcDbDictionary
  0
DICTIONARY
  5
1A
330
C
100
AcDbDictionary
  0
DICTIONARY
  5
17
330
C
100
AcDbDictionary
  3
STANDARD
350
18
  0
DICTIONARY
  5
19
330
C
100
AcDbDictionary
  0
ENDSEC
  0
EOF
