<?xml version="1.0" encoding="UTF-8" standalone="no"?>
<svg
   version="1.1"
   id="svg2"
   xml:space="preserve"
   width="1122.52"
   height="400"
   viewBox="0 0 1122.52 400"
   sodipodi:docname="master.svg"
   inkscape:version="1.2 (dc2aedaf03, 2022-05-15)"
   xmlns:inkscape="http://www.inkscape.org/namespaces/inkscape"
   xmlns:sodipodi="http://sodipodi.sourceforge.net/DTD/sodipodi-0.dtd"
   xmlns="http://www.w3.org/2000/svg"
   xmlns:svg="http://www.w3.org/2000/svg"
   xmlns:rdf="http://www.w3.org/1999/02/22-rdf-syntax-ns#"
   xmlns:cc="http://creativecommons.org/ns#"
   xmlns:dc="http://purl.org/dc/elements/1.1/"><metadata
     id="metadata8"><rdf:RDF><cc:Work
         rdf:about=""><dc:format>image/svg+xml</dc:format><dc:type
           rdf:resource="http://purl.org/dc/dcmitype/StillImage" /></cc:Work></rdf:RDF></metadata><defs
     id="defs6"><clipPath
       clipPathUnits="userSpaceOnUse"
       id="clipPath18"><path
         d="M 0,595.276 H 841.89 V 0 H 0 Z"
         id="path16" /></clipPath><clipPath
       clipPathUnits="userSpaceOnUse"
       id="clipPath1547"><path
         d="m -19.4512,39.0386 h 841.89002 v -595.276 H -19.4512 Z"
         id="path1549"
         style="stroke-width:0.999998" /></clipPath><clipPath
       clipPathUnits="userSpaceOnUse"
       id="clipPath1553"><path
         d="M -246.5074,315.063 H 595.38262 V -280.213 H -246.5074 Z"
         id="path1555"
         style="stroke-width:0.999998" /></clipPath><clipPath
       clipPathUnits="userSpaceOnUse"
       id="clipPath1565"><path
         d="M -483.6397,571.5454 H 358.25032 V -23.7306 H -483.6397 Z"
         id="path1567"
         style="stroke-width:0.999998" /></clipPath><clipPath
       clipPathUnits="userSpaceOnUse"
       id="clipPath1572"><path
         d="m -175.3555,198.4849 h 841.89002 v -595.276 H -175.3555 Z"
         id="path1574"
         style="stroke-width:0.999998" /></clipPath><clipPath
       clipPathUnits="userSpaceOnUse"
       id="clipPath1578"><path
         d="m -397.1656,40.4526 h 841.89002 v -595.276 H -397.1656 Z"
         id="path1580"
         style="stroke-width:0.999998" /></clipPath><clipPath
       clipPathUnits="userSpaceOnUse"
       id="clipPath1584"><path
         d="m -397.1671,40.4556 h 841.89002 v -595.276 H -397.1671 Z"
         id="path1586"
         style="stroke-width:0.999998" /></clipPath><clipPath
       clipPathUnits="userSpaceOnUse"
       id="clipPath1590"><path
         d="m -284.4903,31.2437 h 841.89002 v -595.276 H -284.4903 Z"
         id="path1592"
         style="stroke-width:0.999998" /></clipPath><clipPath
       clipPathUnits="userSpaceOnUse"
       id="clipPath1596"><path
         d="m -284.4903,26.9907 h 841.89002 v -595.276 H -284.4903 Z"
         id="path1598"
         style="stroke-width:0.999998" /></clipPath><clipPath
       clipPathUnits="userSpaceOnUse"
       id="clipPath1602"><path
         d="m -18.0284,40.4526 h 841.89002 v -595.276 H -18.0284 Z"
         id="path1604"
         style="stroke-width:0.999998" /></clipPath><clipPath
       clipPathUnits="userSpaceOnUse"
       id="clipPath1609"><path
         d="m -587.4537,199.4087 h 841.89002 v -595.276 H -587.4537 Z"
         id="path1611"
         style="stroke-width:0.999998" /></clipPath><clipPath
       clipPathUnits="userSpaceOnUse"
       id="clipPath1615"><path
         d="m -408.0772,491.5239 h 841.89002 v -595.276 H -408.0772 Z"
         id="path1617"
         style="stroke-width:0.999998" /></clipPath><clipPath
       clipPathUnits="userSpaceOnUse"
       id="clipPath1621"><path
         d="m -406.6597,333.4927 h 841.89002 v -595.276 H -406.6597 Z"
         id="path1623"
         style="stroke-width:0.999998" /></clipPath><clipPath
       clipPathUnits="userSpaceOnUse"
       id="clipPath1627"><path
         d="m -301.7779,333.4927 h 841.89002 v -595.276 H -301.7779 Z"
         id="path1629"
         style="stroke-width:0.999998" /></clipPath><clipPath
       clipPathUnits="userSpaceOnUse"
       id="clipPath1633"><path
         d="m -298.9434,320.0279 h 841.89002 v -595.276 H -298.9434 Z"
         id="path1635"
         style="stroke-width:0.999998" /></clipPath><clipPath
       clipPathUnits="userSpaceOnUse"
       id="clipPath1639"><path
         d="m -695.5875,31.7573 h 841.89002 v -595.276 H -695.5875 Z"
         id="path1641"
         style="stroke-width:0.999998" /></clipPath><clipPath
       clipPathUnits="userSpaceOnUse"
       id="clipPath1645"><path
         d="m -586.4527,198.9986 h 841.89002 v -595.276 H -586.4527 Z"
         id="path1647"
         style="stroke-width:0.999998" /></clipPath><clipPath
       clipPathUnits="userSpaceOnUse"
       id="clipPath1651"><path
         d="M -498.8594,331.562 H 343.03062 V -263.714 H -498.8594 Z"
         id="path1653"
         style="stroke-width:0.999998" /></clipPath><clipPath
       clipPathUnits="userSpaceOnUse"
       id="clipPath1659"><path
         d="M -219.8668,534.3374 H 622.02322 V -60.9386 H -219.8668 Z"
         id="path1661"
         style="stroke-width:0.999998" /></clipPath><clipPath
       clipPathUnits="userSpaceOnUse"
       id="clipPath1665"><path
         d="m -249.7545,493.3491 h 841.89002 v -595.276 H -249.7545 Z"
         id="path1667"
         style="stroke-width:0.999998" /></clipPath><clipPath
       clipPathUnits="userSpaceOnUse"
       id="clipPath1671"><path
         d="m -87.7691,328.5269 h 841.89002 v -595.276 H -87.7691 Z"
         id="path1673"
         style="stroke-width:0.999998" /></clipPath><clipPath
       clipPathUnits="userSpaceOnUse"
       id="clipPath1680"><path
         d="m -590.7007,21.1226 h 841.89002 v -595.276 H -590.7007 Z"
         id="path1682"
         style="stroke-width:0.999998" /></clipPath><clipPath
       clipPathUnits="userSpaceOnUse"
       id="clipPath1686"><path
         d="M -814.7193,36.5347 H 27.170721 v -595.276 H -814.7193 Z"
         id="path1688"
         style="stroke-width:0.999998" /></clipPath><clipPath
       clipPathUnits="userSpaceOnUse"
       id="clipPath1692"><path
         d="m -641.7291,24.6704 h 841.89002 v -595.276 H -641.7291 Z"
         id="path1694"
         style="stroke-width:0.999998" /></clipPath><clipPath
       clipPathUnits="userSpaceOnUse"
       id="clipPath1698"><path
         d="m -695.5875,27.5044 h 841.89002 v -595.276 H -695.5875 Z"
         id="path1700"
         style="stroke-width:0.999998" /></clipPath><clipPath
       clipPathUnits="userSpaceOnUse"
       id="clipPath1704"><path
         d="M -629.9634,534.2359 H 211.92662 V -61.0401 H -629.9634 Z"
         id="path1706"
         style="stroke-width:0.999998" /></clipPath><clipPath
       clipPathUnits="userSpaceOnUse"
       id="clipPath1710"><path
         d="M -630.9634,533.8237 H 210.92662 V -61.4523 H -630.9634 Z"
         id="path1712"
         style="stroke-width:0.999998" /></clipPath><clipPath
       clipPathUnits="userSpaceOnUse"
       id="clipPath1716"><path
         d="m -660.8511,492.8355 h 841.89002 v -595.276 H -660.8511 Z"
         id="path1718"
         style="stroke-width:0.999998" /></clipPath><clipPath
       clipPathUnits="userSpaceOnUse"
       id="clipPath1723"><path
         d="m -538.2642,26.0874 h 841.89002 v -595.276 H -538.2642 Z"
         id="path1725"
         style="stroke-width:0.999998" /></clipPath><clipPath
       clipPathUnits="userSpaceOnUse"
       id="clipPath1729"><path
         d="m -395.7471,39.0337 h 841.89002 v -595.276 H -395.7471 Z"
         id="path1731"
         style="stroke-width:0.999998" /></clipPath><clipPath
       clipPathUnits="userSpaceOnUse"
       id="clipPath1735"><path
         d="m -336.9307,32.6548 h 841.89002 v -595.276 H -336.9307 Z"
         id="path1737"
         style="stroke-width:0.999998" /></clipPath><clipPath
       clipPathUnits="userSpaceOnUse"
       id="clipPath1741"><path
         d="m -124.3292,39.0337 h 841.89002 v -595.276 H -124.3292 Z"
         id="path1743"
         style="stroke-width:0.999998" /></clipPath><clipPath
       clipPathUnits="userSpaceOnUse"
       id="clipPath1747"><path
         d="M -804.065,210.7486 H 37.825021 v -595.276 H -804.065 Z"
         id="path1749"
         style="stroke-width:0.999998" /></clipPath><clipPath
       clipPathUnits="userSpaceOnUse"
       id="clipPath1753"><path
         d="m -176.3585,198.9029 h 841.89002 v -595.276 H -176.3585 Z"
         id="path1755"
         style="stroke-width:0.999998" /></clipPath><clipPath
       clipPathUnits="userSpaceOnUse"
       id="clipPath1760"><path
         d="m -127.1675,25.5737 h 841.89002 v -595.276 H -127.1675 Z"
         id="path1762"
         style="stroke-width:0.999998" /></clipPath><clipPath
       clipPathUnits="userSpaceOnUse"
       id="clipPath1772"><path
         d="M -353.5684,277.605 H 488.32162 V -317.671 H -353.5684 Z"
         id="path1774"
         style="stroke-width:0.999998" /></clipPath><clipPath
       clipPathUnits="userSpaceOnUse"
       id="clipPath1778"><path
         d="M -313.0499,254.188 H 528.84012 V -341.088 H -313.0499 Z"
         id="path1780"
         style="stroke-width:0.999998" /></clipPath><clipPath
       clipPathUnits="userSpaceOnUse"
       id="clipPath1784"><path
         d="m -338.3419,34.0728 h 841.89002 v -595.276 H -338.3419 Z"
         id="path1786"
         style="stroke-width:0.999998" /></clipPath><clipPath
       clipPathUnits="userSpaceOnUse"
       id="clipPath1790"><path
         d="m -313.0484,254.1841 h 841.89002 v -595.276 H -313.0484 Z"
         id="path1792"
         style="stroke-width:0.999998" /></clipPath><clipPath
       clipPathUnits="userSpaceOnUse"
       id="clipPath1796"><path
         d="m -207.2442,240.2954 h 841.89002 v -595.276 H -207.2442 Z"
         id="path1798"
         style="stroke-width:0.999998" /></clipPath><clipPath
       clipPathUnits="userSpaceOnUse"
       id="clipPath1802"><path
         d="m -18.0338,197.0699 h 841.89002 v -595.276 H -18.0338 Z"
         id="path1804"
         style="stroke-width:0.999998" /></clipPath><clipPath
       clipPathUnits="userSpaceOnUse"
       id="clipPath1809"><path
         d="M -67.0836,570.98 H 774.80642 V -24.296 H -67.0836 Z"
         id="path1811"
         style="stroke-width:0.999998" /></clipPath><clipPath
       clipPathUnits="userSpaceOnUse"
       id="clipPath1815"><path
         d="M -113.0626,548.6382 H 728.82742 V -46.6378 H -113.0626 Z"
         id="path1817"
         style="stroke-width:0.999998" /></clipPath><clipPath
       clipPathUnits="userSpaceOnUse"
       id="clipPath1821"><path
         d="M -218.8668,534.7495 H 623.02322 V -60.5265 H -218.8668 Z"
         id="path1823"
         style="stroke-width:0.999998" /></clipPath><clipPath
       clipPathUnits="userSpaceOnUse"
       id="clipPath1827"><path
         d="m -587.4556,199.4165 h 841.89002 v -595.276 H -587.4556 Z"
         id="path1829"
         style="stroke-width:0.999998" /></clipPath><clipPath
       clipPathUnits="userSpaceOnUse"
       id="clipPath1834"><path
         d="M -819.1744,491.0103 H 22.715621 v -595.276 H -819.1744 Z"
         id="path1836"
         style="stroke-width:0.999998" /></clipPath><clipPath
       clipPathUnits="userSpaceOnUse"
       id="clipPath1840"><path
         d="M -817.7564,332.979 H 24.133621 V -262.297 H -817.7564 Z"
         id="path1842"
         style="stroke-width:0.999998" /></clipPath><clipPath
       clipPathUnits="userSpaceOnUse"
       id="clipPath1846"><path
         d="M -749.439,34.5864 H 92.451021 v -595.276 H -749.439 Z"
         id="path1848"
         style="stroke-width:0.999998" /></clipPath><clipPath
       clipPathUnits="userSpaceOnUse"
       id="clipPath1852"><path
         d="M -749.4449,34.5913 H 92.445121 v -595.276 H -749.4449 Z"
         id="path1854"
         style="stroke-width:0.999998" /></clipPath><clipPath
       clipPathUnits="userSpaceOnUse"
       id="clipPath1858"><path
         d="M -478.1807,570.4663 H 363.70932 V -24.8097 H -478.1807 Z"
         id="path1860"
         style="stroke-width:0.999998" /></clipPath><clipPath
       clipPathUnits="userSpaceOnUse"
       id="clipPath1864"><path
         d="M -524.1597,548.1245 H 317.73032 V -47.1515 H -524.1597 Z"
         id="path1866"
         style="stroke-width:0.999998" /></clipPath><clipPath
       clipPathUnits="userSpaceOnUse"
       id="clipPath1870"><path
         d="M -176.3565,198.895 H 665.53352 V -396.381 H -176.3565 Z"
         id="path1872"
         style="stroke-width:0.999998" /></clipPath><clipPath
       clipPathUnits="userSpaceOnUse"
       id="clipPath1876"><path
         d="m -724.1451,254.6978 h 841.89002 v -595.276 H -724.1451 Z"
         id="path1878"
         style="stroke-width:0.999998" /></clipPath><clipPath
       clipPathUnits="userSpaceOnUse"
       id="clipPath1882"><path
         d="m -618.3414,240.8091 h 841.89002 v -595.276 H -618.3414 Z"
         id="path1884"
         style="stroke-width:0.999998" /></clipPath><clipPath
       clipPathUnits="userSpaceOnUse"
       id="clipPath1888"><path
         d="m -181.0255,19.1958 h 841.89002 v -595.276 H -181.0255 Z"
         id="path1890"
         style="stroke-width:0.999998" /></clipPath><clipPath
       clipPathUnits="userSpaceOnUse"
       id="clipPath1894"><path
         d="m -694.1646,26.0835 h 841.89002 v -595.276 H -694.1646 Z"
         id="path1896"
         style="stroke-width:0.999998" /></clipPath><clipPath
       clipPathUnits="userSpaceOnUse"
       id="clipPath1902"><path
         d="m -338.3482,37.6216 h 841.89002 v -595.276 H -338.3482 Z"
         id="path1904"
         style="stroke-width:0.999998" /></clipPath><clipPath
       clipPathUnits="userSpaceOnUse"
       id="clipPath1908"><path
         d="m -230.6319,20.6138 h 841.89002 v -595.276 H -230.6319 Z"
         id="path1910"
         style="stroke-width:0.999998" /></clipPath><clipPath
       clipPathUnits="userSpaceOnUse"
       id="clipPath1914"><path
         d="m -283.0674,25.5698 h 841.89002 v -595.276 H -283.0674 Z"
         id="path1916"
         style="stroke-width:0.999998" /></clipPath><clipPath
       clipPathUnits="userSpaceOnUse"
       id="clipPath1920"><path
         d="m -338.3482,34.0776 h 841.89002 v -595.276 H -338.3482 Z"
         id="path1922"
         style="stroke-width:0.999998" /></clipPath><clipPath
       clipPathUnits="userSpaceOnUse"
       id="clipPath1926"><path
         d="M -749.438,177.9117 H 92.452021 v -595.276 H -749.438 Z"
         id="path1928"
         style="stroke-width:0.999998" /></clipPath><clipPath
       clipPathUnits="userSpaceOnUse"
       id="clipPath1932"><path
         d="m -22.4888,330.4751 h 841.89002 v -595.276 H -22.4888 Z"
         id="path1934"
         style="stroke-width:0.999998" /></clipPath><clipPath
       clipPathUnits="userSpaceOnUse"
       id="clipPath1938"><path
         d="m -87.7696,471.8521 h 841.89002 v -595.276 H -87.7696 Z"
         id="path1940"
         style="stroke-width:0.999998" /></clipPath><clipPath
       clipPathUnits="userSpaceOnUse"
       id="clipPath1944"><path
         d="M -32.0611,510.1616 H 809.82892 V -85.1144 H -32.0611 Z"
         id="path1946"
         style="stroke-width:0.999998" /></clipPath><clipPath
       clipPathUnits="userSpaceOnUse"
       id="clipPath1951"><path
         d="M -72.5425,572.0591 H 769.34752 V -23.2169 H -72.5425 Z"
         id="path1953"
         style="stroke-width:0.999998" /></clipPath><clipPath
       clipPathUnits="userSpaceOnUse"
       id="clipPath1957"><path
         d="m -230.6319,24.1567 h 841.89002 v -595.276 H -230.6319 Z"
         id="path1959"
         style="stroke-width:0.999998" /></clipPath><clipPath
       clipPathUnits="userSpaceOnUse"
       id="clipPath1963"><path
         d="m -229.2115,19.1909 h 841.89002 v -595.276 H -229.2115 Z"
         id="path1965"
         style="stroke-width:0.999998" /></clipPath><clipPath
       clipPathUnits="userSpaceOnUse"
       id="clipPath1969"><path
         d="m -179.6036,20.6089 h 841.89002 v -595.276 H -179.6036 Z"
         id="path1971"
         style="stroke-width:0.999998" /></clipPath><clipPath
       clipPathUnits="userSpaceOnUse"
       id="clipPath1975"><path
         d="m -178.1851,25.5698 h 841.89002 v -595.276 H -178.1851 Z"
         id="path1977"
         style="stroke-width:0.999998" /></clipPath><clipPath
       clipPathUnits="userSpaceOnUse"
       id="clipPath1981"><path
         d="m -125.7476,26.9878 h 841.89002 v -595.276 H -125.7476 Z"
         id="path1983"
         style="stroke-width:0.999998" /></clipPath><clipPath
       clipPathUnits="userSpaceOnUse"
       id="clipPath1987"><path
         d="m -536.8448,27.5015 h 841.89002 v -595.276 H -536.8448 Z"
         id="path1989"
         style="stroke-width:0.999998" /></clipPath><clipPath
       clipPathUnits="userSpaceOnUse"
       id="clipPath1993"><path
         d="m -589.2818,26.0835 h 841.89002 v -595.276 H -589.2818 Z"
         id="path1995"
         style="stroke-width:0.999998" /></clipPath><clipPath
       clipPathUnits="userSpaceOnUse"
       id="clipPath1999"><path
         d="m -641.7291,21.1265 h 841.89002 v -595.276 H -641.7291 Z"
         id="path2001"
         style="stroke-width:0.999998" /></clipPath><clipPath
       clipPathUnits="userSpaceOnUse"
       id="clipPath2005"><path
         d="m -640.3082,19.7046 h 841.89002 v -595.276 H -640.3082 Z"
         id="path2007"
         style="stroke-width:0.999998" /></clipPath><clipPath
       clipPathUnits="userSpaceOnUse"
       id="clipPath2012"><path
         d="m -711.4605,320.9283 h 841.89002 v -595.276 H -711.4605 Z"
         id="path2014"
         style="stroke-width:0.999998" /></clipPath><clipPath
       clipPathUnits="userSpaceOnUse"
       id="clipPath2019"><path
         d="m -657.6041,314.5493 h 841.89002 v -595.276 H -657.6041 Z"
         id="path2021"
         style="stroke-width:0.999998" /></clipPath><clipPath
       clipPathUnits="userSpaceOnUse"
       id="clipPath2026"><path
         d="m -429.1304,197.5835 h 841.89002 v -595.276 H -429.1304 Z"
         id="path2028"
         style="stroke-width:0.999998" /></clipPath><clipPath
       clipPathUnits="userSpaceOnUse"
       id="clipPath2032"><path
         d="m -430.5484,39.5522 h 841.89002 v -595.276 H -430.5484 Z"
         id="path2034"
         style="stroke-width:0.999998" /></clipPath><clipPath
       clipPathUnits="userSpaceOnUse"
       id="clipPath2038"><path
         d="m -724.147,254.7017 h 841.89002 v -595.276 H -724.147 Z"
         id="path2040"
         style="stroke-width:0.999998" /></clipPath><clipPath
       clipPathUnits="userSpaceOnUse"
       id="clipPath2044"><path
         d="M -764.6656,278.1187 H 77.224421 v -595.276 H -764.6656 Z"
         id="path2046"
         style="stroke-width:0.999998" /></clipPath><clipPath
       clipPathUnits="userSpaceOnUse"
       id="clipPath2050"><path
         d="M -805.147,216.2212 H 36.743021 v -595.276 H -805.147 Z"
         id="path2052"
         style="stroke-width:0.999998" /></clipPath><clipPath
       clipPathUnits="userSpaceOnUse"
       id="clipPath2057"><path
         d="m -592.1226,19.7095 h 841.89002 v -595.276 H -592.1226 Z"
         id="path2059"
         style="stroke-width:0.999998" /></clipPath><clipPath
       clipPathUnits="userSpaceOnUse"
       id="clipPath2063"><path
         d="m -498.8663,328.0132 h 841.89002 v -595.276 H -498.8663 Z"
         id="path2065"
         style="stroke-width:0.999998" /></clipPath><clipPath
       clipPathUnits="userSpaceOnUse"
       id="clipPath2070"><path
         d="M -748.0279,33.1685 H 93.862121 v -595.276 H -748.0279 Z"
         id="path2072"
         style="stroke-width:0.999998" /></clipPath><clipPath
       clipPathUnits="userSpaceOnUse"
       id="clipPath2076"><path
         d="M -440.6846,505.4605 H 401.20542 V -89.8155 H -440.6846 Z"
         id="path2078"
         style="stroke-width:0.999998" /></clipPath><clipPath
       clipPathUnits="userSpaceOnUse"
       id="clipPath2083"><path
         d="m -552.7178,325.1841 h 841.89002 v -595.276 H -552.7178 Z"
         id="path2085"
         style="stroke-width:0.999998" /></clipPath><clipPath
       clipPathUnits="userSpaceOnUse"
       id="clipPath2090"><path
         d="m -440.0421,334.3931 h 841.89002 v -595.276 H -440.0421 Z"
         id="path2092"
         style="stroke-width:0.999998" /></clipPath><clipPath
       clipPathUnits="userSpaceOnUse"
       id="clipPath2096"><path
         d="m -247.92,320.0279 h 841.89002 v -595.276 H -247.92 Z"
         id="path2098"
         style="stroke-width:0.999998" /></clipPath><clipPath
       clipPathUnits="userSpaceOnUse"
       id="clipPath2102"><path
         d="m -245.0855,313.6499 h 841.89002 v -595.276 H -245.0855 Z"
         id="path2104"
         style="stroke-width:0.999998" /></clipPath><clipPath
       clipPathUnits="userSpaceOnUse"
       id="clipPath2109"><path
         d="m -195.4786,318.6109 h 841.89002 v -595.276 H -195.4786 Z"
         id="path2111"
         style="stroke-width:0.999998" /></clipPath><clipPath
       clipPathUnits="userSpaceOnUse"
       id="clipPath2116"><path
         d="M -712.8755,332.979 H 129.01452 V -262.297 H -712.8755 Z"
         id="path2118"
         style="stroke-width:0.999998" /></clipPath><clipPath
       clipPathUnits="userSpaceOnUse"
       id="clipPath2122"><path
         d="m -710.0406,319.5142 h 841.89002 v -595.276 H -710.0406 Z"
         id="path2124"
         style="stroke-width:0.999998" /></clipPath><clipPath
       clipPathUnits="userSpaceOnUse"
       id="clipPath2128"><path
         d="m -659.0172,319.5142 h 841.89002 v -595.276 H -659.0172 Z"
         id="path2130"
         style="stroke-width:0.999998" /></clipPath><clipPath
       clipPathUnits="userSpaceOnUse"
       id="clipPath2135"><path
         d="M -819.1793,334.3931 H 22.710721 v -595.276 H -819.1793 Z"
         id="path2137"
         style="stroke-width:0.999998" /></clipPath><clipPath
       clipPathUnits="userSpaceOnUse"
       id="clipPath2143"><path
         d="m -141.6207,325.6978 h 841.89002 v -595.276 H -141.6207 Z"
         id="path2145"
         style="stroke-width:0.999998" /></clipPath><clipPath
       clipPathUnits="userSpaceOnUse"
       id="clipPath2150"><path
         d="m -408.0821,334.9068 h 841.89002 v -595.276 H -408.0821 Z"
         id="path2152"
         style="stroke-width:0.999998" /></clipPath><clipPath
       clipPathUnits="userSpaceOnUse"
       id="clipPath2157"><path
         d="m -300.3633,321.4419 h 841.89002 v -595.276 H -300.3633 Z"
         id="path2159"
         style="stroke-width:0.999998" /></clipPath><clipPath
       clipPathUnits="userSpaceOnUse"
       id="clipPath2164"><path
         d="m -429.1255,40.9653 h 841.89002 v -595.276 H -429.1255 Z"
         id="path2166"
         style="stroke-width:0.999998" /></clipPath><clipPath
       clipPathUnits="userSpaceOnUse"
       id="clipPath2170"><path
         d="m -535.4263,39.5474 h 841.89002 v -595.276 H -535.4263 Z"
         id="path2172"
         style="stroke-width:0.999998" /></clipPath><clipPath
       clipPathUnits="userSpaceOnUse"
       id="clipPath2176"><path
         d="m -656.1822,313.1363 h 841.89002 v -595.276 H -656.1822 Z"
         id="path2178"
         style="stroke-width:0.999998" /></clipPath><clipPath
       clipPathUnits="userSpaceOnUse"
       id="clipPath2183"><path
         d="m -606.5757,318.0972 h 841.89002 v -595.276 H -606.5757 Z"
         id="path2185"
         style="stroke-width:0.999998" /></clipPath><clipPath
       clipPathUnits="userSpaceOnUse"
       id="clipPath8530"><path
         d="M -64.2017,554.7144 H 777.68832 V -40.5616 H -64.2017 Z"
         id="path8532"
         style="stroke-width:0.999998" /></clipPath><clipPath
       clipPathUnits="userSpaceOnUse"
       id="clipPath8534"><path
         d="M -120.5274,541.3091 H 721.36262 V -53.9669 H -120.5274 Z"
         id="path8536"
         style="stroke-width:0.999998" /></clipPath><clipPath
       clipPathUnits="userSpaceOnUse"
       id="clipPath8538"><path
         d="M -101.2266,507.5318 H 740.66342 V -87.7442 H -101.2266 Z"
         id="path8540"
         style="stroke-width:0.999998" /></clipPath><clipPath
       clipPathUnits="userSpaceOnUse"
       id="clipPath8542"><path
         d="M -233.0377,485.563 H 608.85232 V -109.713 H -233.0377 Z"
         id="path8544"
         style="stroke-width:0.999998" /></clipPath><clipPath
       clipPathUnits="userSpaceOnUse"
       id="clipPath8546"><path
         d="m -140.2032,372.8853 h 841.89002 v -595.276 H -140.2032 Z"
         id="path8548"
         style="stroke-width:0.999998" /></clipPath><clipPath
       clipPathUnits="userSpaceOnUse"
       id="clipPath8550"><path
         d="m -355.6363,436.6646 h 841.89002 v -595.276 H -355.6363 Z"
         id="path8552"
         style="stroke-width:0.999998" /></clipPath><clipPath
       clipPathUnits="userSpaceOnUse"
       id="clipPath8554"><path
         d="m -352.5181,386.6333 h 841.89002 v -595.276 H -352.5181 Z"
         id="path8556"
         style="stroke-width:0.999998" /></clipPath><clipPath
       clipPathUnits="userSpaceOnUse"
       id="clipPath8558"><path
         d="M -26.8502,487.813 H 815.03982 V -107.463 H -26.8502 Z"
         id="path8560"
         style="stroke-width:0.999998" /></clipPath><clipPath
       clipPathUnits="userSpaceOnUse"
       id="clipPath8562"><path
         d="m -67.7593,463.6587 h 841.89002 v -595.276 H -67.7593 Z"
         id="path8564"
         style="stroke-width:0.999998" /></clipPath><clipPath
       clipPathUnits="userSpaceOnUse"
       id="clipPath8566"><path
         d="M -512.3238,507.0181 H 329.56622 V -88.2579 H -512.3238 Z"
         id="path8568"
         style="stroke-width:0.999998" /></clipPath><clipPath
       clipPathUnits="userSpaceOnUse"
       id="clipPath8570"><path
         d="m -644.1343,485.0493 h 841.89002 v -595.276 H -644.1343 Z"
         id="path8572"
         style="stroke-width:0.999998" /></clipPath><clipPath
       clipPathUnits="userSpaceOnUse"
       id="clipPath8574"><path
         d="m -551.2999,372.3716 h 841.89002 v -595.276 H -551.2999 Z"
         id="path8576"
         style="stroke-width:0.999998" /></clipPath><clipPath
       clipPathUnits="userSpaceOnUse"
       id="clipPath8578"><path
         d="M -766.733,383.0015 H 75.157021 v -595.276 H -766.733 Z"
         id="path8580"
         style="stroke-width:0.999998" /></clipPath><clipPath
       clipPathUnits="userSpaceOnUse"
       id="clipPath8582"><path
         d="M -766.733,436.1509 H 75.157021 v -595.276 H -766.733 Z"
         id="path8584"
         style="stroke-width:0.999998" /></clipPath><clipPath
       clipPathUnits="userSpaceOnUse"
       id="clipPath8586"><path
         d="M -773.0064,260.774 H 68.883621 V -334.502 H -773.0064 Z"
         id="path8588"
         style="stroke-width:0.999998" /></clipPath><clipPath
       clipPathUnits="userSpaceOnUse"
       id="clipPath8590"><path
         d="m -716.6802,247.3687 h 841.89002 v -595.276 H -716.6802 Z"
         id="path8592"
         style="stroke-width:0.999998" /></clipPath><clipPath
       clipPathUnits="userSpaceOnUse"
       id="clipPath8594"><path
         d="m -735.981,213.5904 h 841.89002 v -595.276 H -735.981 Z"
         id="path8596"
         style="stroke-width:0.999998" /></clipPath><clipPath
       clipPathUnits="userSpaceOnUse"
       id="clipPath8598"><path
         d="m -604.1705,191.6226 h 841.89002 v -595.276 H -604.1705 Z"
         id="path8600"
         style="stroke-width:0.999998" /></clipPath><clipPath
       clipPathUnits="userSpaceOnUse"
       id="clipPath8602"><path
         d="m -697.0045,78.9448 h 841.89002 v -595.276 H -697.0045 Z"
         id="path8604"
         style="stroke-width:0.999998" /></clipPath><clipPath
       clipPathUnits="userSpaceOnUse"
       id="clipPath8606"><path
         d="m -481.5718,142.7242 h 841.89002 v -595.276 H -481.5718 Z"
         id="path8608"
         style="stroke-width:0.999998" /></clipPath><clipPath
       clipPathUnits="userSpaceOnUse"
       id="clipPath8610"><path
         d="m -484.69,92.6929 h 841.89002 v -595.276 H -484.69 Z"
         id="path8612"
         style="stroke-width:0.999998" /></clipPath><clipPath
       clipPathUnits="userSpaceOnUse"
       id="clipPath8614"><path
         d="M -810.358,193.8726 H 31.532021 v -595.276 H -810.358 Z"
         id="path8616"
         style="stroke-width:0.999998" /></clipPath><clipPath
       clipPathUnits="userSpaceOnUse"
       id="clipPath8618"><path
         d="M -769.4488,169.7183 H 72.441221 v -595.276 H -769.4488 Z"
         id="path8620"
         style="stroke-width:0.999998" /></clipPath><clipPath
       clipPathUnits="userSpaceOnUse"
       id="clipPath8622"><path
         d="m -324.8843,213.0777 h 841.89002 v -595.276 H -324.8843 Z"
         id="path8624"
         style="stroke-width:0.999998" /></clipPath><clipPath
       clipPathUnits="userSpaceOnUse"
       id="clipPath8626"><path
         d="m -193.0733,191.1089 h 841.89002 v -595.276 H -193.0733 Z"
         id="path8628"
         style="stroke-width:0.999998" /></clipPath><clipPath
       clipPathUnits="userSpaceOnUse"
       id="clipPath8630"><path
         d="m -285.9078,78.4312 h 841.89002 v -595.276 H -285.9078 Z"
         id="path8632"
         style="stroke-width:0.999998" /></clipPath><clipPath
       clipPathUnits="userSpaceOnUse"
       id="clipPath8634"><path
         d="m -70.4747,89.0611 h 841.89002 v -595.276 H -70.4747 Z"
         id="path8636"
         style="stroke-width:0.999998" /></clipPath><clipPath
       clipPathUnits="userSpaceOnUse"
       id="clipPath8638"><path
         d="m -70.4747,142.2105 h 841.89002 v -595.276 H -70.4747 Z"
         id="path8640"
         style="stroke-width:0.999998" /></clipPath></defs><sodipodi:namedview
     pagecolor="#ffffff"
     bordercolor="#666666"
     borderopacity="1"
     objecttolerance="10"
     gridtolerance="10"
     guidetolerance="10"
     inkscape:pageopacity="0"
     inkscape:pageshadow="2"
     inkscape:window-width="2114"
     inkscape:window-height="1674"
     id="namedview4"
     showgrid="false"
     inkscape:zoom="0.72036593"
     inkscape:cx="235.29708"
     inkscape:cy="416.45501"
     inkscape:window-x="26"
     inkscape:window-y="23"
     inkscape:window-maximized="0"
     inkscape:current-layer="g10"
     inkscape:showpageshadow="2"
     inkscape:pagecheckerboard="0"
     inkscape:deskcolor="#d1d1d1" /><g
     id="g10"
     inkscape:groupmode="layer"
     inkscape:label="top-bottom"
     transform="matrix(1.3333333,0,0,-1.3333333,0,793.70133)"><path
       d="m 0,0 v -166.545 c 0,-1.091 -1.181,-1.772 -2.126,-1.227 l -53.062,30.623 c -0.438,0.252 -0.708,0.72 -0.708,1.227 V -0.007 c 0,0.783 0.634,1.418 1.417,1.418 L -1.418,1.418 C -0.635,1.418 0,0.783 0,0 Z"
       style="fill:none;stroke:#0000ff;stroke-width:0.75;stroke-linecap:butt;stroke-linejoin:miter;stroke-miterlimit:4;stroke-dasharray:none;stroke-opacity:1"
       id="path214"
       transform="translate(814.7193,558.7413)"
       clip-path="url(#clipPath1686)" /><path
       id="path210"
       clip-path="url(#clipPath1735)"
       style="fill:none;stroke:#0000ff;stroke-width:0.75;stroke-linecap:round;stroke-linejoin:round;stroke-miterlimit:4;stroke-dasharray:none;stroke-opacity:1"
       transform="translate(336.9307,562.6212)"
       d="m 1.4112,-4.961 0.00315,3.5406 C 1.4175,-0.6408 0.7835,-0.0058 2.5e-4,-0.0029 l -51.02495,-5e-5 c -0.7807,-0.00295 -1.4157,0.63205 -1.4179,1.418 v 4.2505 c 0.0022,0.78055 -0.6328,1.41455 -1.41775,1.4175 h -51.0212 l -2.5e-4,-0.00195 c -0.783,0 -1.417,0.635 -1.418,1.4194 v 3.54295 c 0.001,0.78055 -0.633,1.41555 -1.4177,1.418 h -48.1892 c -0.7815,-0.0024 -1.4155,-0.63745 -1.41795,-1.418 l -2.5e-4,-3.54295 c 0.002,-0.7854 -0.6318,-1.4204 -1.41775,-1.41745 h -51.02125 c -0.7823,-0.00295 -1.4163,-0.63695 -1.41775,-1.4175 l 5e-5,-10.62945 c 5e-4,-0.7859 -0.6335,-1.4199 -1.4182,-1.41745 h -104.8817 c -0.781,-0.00245 -1.415,-0.63745 -1.4179,-1.41795 l -2e-4,-156.61415 c 0.003,-0.78465 0.6377,-1.41865 1.41755,-1.41765 h 155.90735 c 0.3765,-0.001 0.7365,-0.15 1.0015,-0.41305 l 29.88635,-40.98105 c 0.26635,-0.269 0.62635,-0.418 1.00135,-0.4165 l 103.94735,-13.5218 c 0.63035,-0.0633 1.25235,-0.1863 1.8566,-0.36735 l 40.51625,-23.4155 c 1.803,-1.21645 4.246,-0.74045 5.46,1.05855 0.002,0.005 0.005,0.009 0.005,0.0155 l 37.49405,65.0055 c 0.43205,0.75395 0.65405,1.60795 0.6421,2.47845 l -2e-4,168.589 c 7.5e-4,0.7805 -0.63325,1.4155 -1.41775,1.41795 H 2.83195 L 2.8345,-6.38385 c -0.783,0 -1.417,0.635 -1.417,1.417"
       sodipodi:nodetypes="ccccccccscccccccccccccccccccccccccccccsc" /><path
       id="path350"
       clip-path="url(#clipPath2070)"
       style="fill:none;stroke:#0000ff;stroke-width:0.75;stroke-linecap:butt;stroke-linejoin:miter;stroke-miterlimit:4;stroke-dasharray:none;stroke-opacity:1"
       transform="translate(748.0279,562.1075)"
       d="m 2.4066,-146.62775 c -0.6045,0.43895 -0.9745,1.13495 -1,1.8859 L 1.41405,-1.42035 C 1.418,-0.6408 0.783,-0.0058 0,-0.0029 h -51.0247 c -0.7807,-0.0029 -1.4157,0.6321 -1.41815,1.418 v 4.25045 c 0.0025,0.78055 -0.63255,1.41455 -1.4175,1.4175 h -51.0217 l 2.5e-4,-0.00195 c -0.783,0 -1.417,0.635 -1.418,1.41995 V 12.044 c 0.001,0.78 -0.633,1.415 -1.41795,1.41745 H -155.907 c -0.7813,-0.0024 -1.4153,-0.63745 -1.41775,-1.4175 l 5e-5,-3.54295 c 0.002,-0.7859 -0.6325,-1.4209 -1.41845,-1.41795 h -51.02125 c -0.7813,-0.00295 -1.4163,-0.63695 -1.4175,-1.4175 l 2.5e-4,-10.6294 c 4.5e-4,-0.78585 -0.63355,-1.41985 -1.41825,-1.41745 h -104.88165 c -0.78095,-0.0024 -1.41495,-0.6374 -1.4184,-1.41745 V -164.4129 c 0.002,-0.7851 0.63745,-1.4191 1.4181,-1.41815 h 155.9071 c 0.37645,-9.5e-4 0.73645,-0.14995 1.0015,-0.41305 l 29.8864,-40.9811 c 0.26635,-0.269 0.62635,-0.418 1.00135,-0.4165 l 103.9473,-13.5218 c 0.6303,-0.0633 1.2523,-0.1853 1.85635,-0.36735 l 40.5168,-23.4155 c 1.80275,-1.21645 4.24575,-0.74045 5.45875,1.05855 0.003,0.005 0.006,0.009 0.006,0.0155 l 35.0187,60.81975 c 1.2137,1.8002 0.7377,4.2432 -1.0623,5.4562 -0.004,0.003 -0.008,0.006 -0.016,0.0128 z"
       sodipodi:nodetypes="cccccccccscccccccccccccccccccccccccccc" /><g
       id="g8712"><g
         id="g644"
         transform="translate(70.4747,453.0655)"
         style="stroke-width:0.75;stroke-miterlimit:4;stroke-dasharray:none"
         clip-path="url(#clipPath8638)"><path
           d="M 0,0 C 1.722,0 3.118,-1.396 3.118,-3.118 3.118,-4.84 1.722,-6.236 0,-6.236 c -1.722,0 -3.118,1.396 -3.118,3.118 C -3.118,-1.396 -1.722,0 0,0 Z"
           style="fill:none;stroke:#ff0000;stroke-width:0.75;stroke-linecap:butt;stroke-linejoin:miter;stroke-miterlimit:4;stroke-dasharray:none;stroke-opacity:1"
           id="path646" /></g><g
         id="g648"
         transform="translate(70.4747,506.2149)"
         style="stroke-width:0.75;stroke-miterlimit:4;stroke-dasharray:none"
         clip-path="url(#clipPath8634)"><path
           d="M 0,0 C 1.722,0 3.118,-1.396 3.118,-3.118 3.118,-4.84 1.722,-6.236 0,-6.236 c -1.722,0 -3.118,1.396 -3.118,3.118 C -3.118,-1.396 -1.722,0 0,0 Z"
           style="fill:none;stroke:#ff0000;stroke-width:0.75;stroke-linecap:butt;stroke-linejoin:miter;stroke-miterlimit:4;stroke-dasharray:none;stroke-opacity:1"
           id="path650" /></g><g
         id="g652"
         transform="translate(285.9078,516.8448)"
         style="stroke-width:0.75;stroke-miterlimit:4;stroke-dasharray:none"
         clip-path="url(#clipPath8630)"><path
           d="m 0,0 c 1.722,0 3.118,-1.396 3.118,-3.118 0,-1.723 -1.396,-3.118 -3.118,-3.118 -1.722,0 -3.118,1.395 -3.118,3.118 C -3.118,-1.396 -1.722,0 0,0 Z"
           style="fill:none;stroke:#ff0000;stroke-width:0.75;stroke-linecap:butt;stroke-linejoin:miter;stroke-miterlimit:4;stroke-dasharray:none;stroke-opacity:1"
           id="path654" /></g><g
         id="g656"
         transform="translate(193.0733,404.1671)"
         style="stroke-width:0.75;stroke-miterlimit:4;stroke-dasharray:none"
         clip-path="url(#clipPath8626)"><path
           d="M 0,0 C 1.722,0 3.118,-1.396 3.118,-3.118 3.118,-4.84 1.722,-6.236 0,-6.236 c -1.722,0 -3.118,1.396 -3.118,3.118 C -3.118,-1.396 -1.722,0 0,0 Z"
           style="fill:none;stroke:#ff0000;stroke-width:0.75;stroke-linecap:butt;stroke-linejoin:miter;stroke-miterlimit:4;stroke-dasharray:none;stroke-opacity:1"
           id="path658" /></g><g
         id="g660"
         transform="translate(324.8843,382.1983)"
         style="stroke-width:0.75;stroke-miterlimit:4;stroke-dasharray:none"
         clip-path="url(#clipPath8622)"><path
           d="M 0,0 C 1.722,0 3.118,-1.396 3.118,-3.117 3.118,-4.84 1.722,-6.235 0,-6.235 c -1.722,0 -3.118,1.395 -3.118,3.118 C -3.118,-1.396 -1.722,0 0,0 Z"
           style="fill:none;stroke:#ff0000;stroke-width:0.75;stroke-linecap:butt;stroke-linejoin:miter;stroke-miterlimit:4;stroke-dasharray:none;stroke-opacity:1"
           id="path662" /></g></g><g
       id="g9771"><g
         id="g664"
         transform="translate(769.4488,425.5577)"
         style="stroke-width:0.75;stroke-miterlimit:4;stroke-dasharray:none"
         clip-path="url(#clipPath8618)"><path
           d="m 0,0 c 0,-1.723 -1.396,-3.118 -3.118,-3.118 -1.723,0 -3.118,1.395 -3.118,3.118 0,1.722 1.395,3.118 3.118,3.118 C -1.396,3.118 0,1.722 0,0 Z"
           style="fill:none;stroke:#ff0000;stroke-width:0.75;stroke-linecap:butt;stroke-linejoin:miter;stroke-miterlimit:4;stroke-dasharray:none;stroke-opacity:1"
           id="path666" /></g><g
         id="g668"
         transform="translate(810.358,401.4034)"
         style="stroke-width:0.75;stroke-miterlimit:4;stroke-dasharray:none"
         clip-path="url(#clipPath8614)"><path
           d="m 0,0 c 0,-1.722 -1.396,-3.118 -3.118,-3.118 -1.722,0 -3.118,1.396 -3.118,3.118 0,1.723 1.396,3.118 3.118,3.118 C -1.396,3.118 0,1.723 0,0 Z"
           style="fill:none;stroke:#ff0000;stroke-width:0.75;stroke-linecap:butt;stroke-linejoin:miter;stroke-miterlimit:4;stroke-dasharray:none;stroke-opacity:1"
           id="path670" /></g></g><g
       id="g9765"><g
         id="g672"
         transform="translate(484.69,502.5831)"
         style="stroke-width:0.75;stroke-miterlimit:4;stroke-dasharray:none"
         clip-path="url(#clipPath8610)"><path
           d="m 0,0 c 0,-1.722 -1.396,-3.118 -3.118,-3.118 -1.722,0 -3.118,1.396 -3.118,3.118 0,1.723 1.396,3.118 3.118,3.118 C -1.396,3.118 0,1.723 0,0 Z"
           style="fill:none;stroke:#ff0000;stroke-width:0.75;stroke-linecap:butt;stroke-linejoin:miter;stroke-miterlimit:4;stroke-dasharray:none;stroke-opacity:1"
           id="path674" /></g><g
         id="g676"
         transform="translate(481.5718,452.5518)"
         style="stroke-width:0.75;stroke-miterlimit:4;stroke-dasharray:none"
         clip-path="url(#clipPath8606)"><path
           d="M 0,0 C 1.722,0 3.118,-1.396 3.118,-3.118 3.118,-4.84 1.722,-6.236 0,-6.236 c -1.722,0 -3.118,1.396 -3.118,3.118 C -3.118,-1.396 -1.722,0 0,0 Z"
           style="fill:none;stroke:#ff0000;stroke-width:0.75;stroke-linecap:butt;stroke-linejoin:miter;stroke-miterlimit:4;stroke-dasharray:none;stroke-opacity:1"
           id="path678" /></g><g
         id="g680"
         transform="translate(697.0045,516.3312)"
         style="stroke-width:0.75;stroke-miterlimit:4;stroke-dasharray:none"
         clip-path="url(#clipPath8602)"><path
           d="m 0,0 c 1.723,0 3.118,-1.396 3.118,-3.118 0,-1.723 -1.395,-3.118 -3.118,-3.118 -1.722,0 -3.118,1.395 -3.118,3.118 C -3.118,-1.396 -1.722,0 0,0 Z"
           style="fill:none;stroke:#ff0000;stroke-width:0.75;stroke-linecap:butt;stroke-linejoin:miter;stroke-miterlimit:4;stroke-dasharray:none;stroke-opacity:1"
           id="path682" /></g><g
         id="g684"
         transform="translate(604.1705,403.6534)"
         style="stroke-width:0.75;stroke-miterlimit:4;stroke-dasharray:none"
         clip-path="url(#clipPath8598)"><path
           d="M 0,0 C 1.722,0 3.118,-1.396 3.118,-3.118 3.118,-4.84 1.722,-6.235 0,-6.235 c -1.723,0 -3.118,1.395 -3.118,3.117 C -3.118,-1.396 -1.723,0 0,0 Z"
           style="fill:none;stroke:#ff0000;stroke-width:0.75;stroke-linecap:butt;stroke-linejoin:miter;stroke-miterlimit:4;stroke-dasharray:none;stroke-opacity:1"
           id="path686" /></g><g
         id="g688"
         transform="translate(735.981,381.6856)"
         style="stroke-width:0.75;stroke-miterlimit:4;stroke-dasharray:none"
         clip-path="url(#clipPath8594)"><path
           d="m 0,0 c 1.723,0 3.118,-1.396 3.118,-3.118 0,-1.723 -1.395,-3.118 -3.118,-3.118 -1.722,0 -3.118,1.395 -3.118,3.118 C -3.118,-1.396 -1.722,0 0,0 Z"
           style="fill:none;stroke:#ff0000;stroke-width:0.75;stroke-linecap:butt;stroke-linejoin:miter;stroke-miterlimit:4;stroke-dasharray:none;stroke-opacity:1"
           id="path690" /></g></g><g
       id="g9796"><path
         d="M 474.51,510.025 H 434.825 V 549.71 H 474.51 Z"
         style="fill:none;stroke:#ff0000;stroke-width:0.75;stroke-linecap:butt;stroke-linejoin:miter;stroke-miterlimit:4;stroke-dasharray:none;stroke-opacity:1"
         id="path692" /><path
         d="m 474.51,456.167 h -39.685 v 39.685 h 39.685 z"
         style="fill:none;stroke:#ff0000;stroke-width:0.75;stroke-linecap:butt;stroke-linejoin:miter;stroke-miterlimit:4;stroke-dasharray:none;stroke-opacity:1"
         id="path694" /><path
         d="m 474.51,402.309 h -39.685 v 39.685 h 39.685 z"
         style="fill:none;stroke:#ff0000;stroke-width:0.75;stroke-linecap:butt;stroke-linejoin:miter;stroke-miterlimit:4;stroke-dasharray:none;stroke-opacity:1"
         id="path696" /><path
         d="m 528.363,510.027 h -39.685 v 39.685 h 39.685 z"
         style="fill:none;stroke:#ff0000;stroke-width:0.75;stroke-linecap:butt;stroke-linejoin:miter;stroke-miterlimit:4;stroke-dasharray:none;stroke-opacity:1"
         id="path698" /><path
         d="m 528.363,456.169 h -39.685 v 39.685 h 39.685 z"
         style="fill:none;stroke:#ff0000;stroke-width:0.75;stroke-linecap:butt;stroke-linejoin:miter;stroke-miterlimit:4;stroke-dasharray:none;stroke-opacity:1"
         id="path700" /><path
         d="m 528.363,402.311 h -39.685 v 39.685 h 39.685 z"
         style="fill:none;stroke:#ff0000;stroke-width:0.75;stroke-linecap:butt;stroke-linejoin:miter;stroke-miterlimit:4;stroke-dasharray:none;stroke-opacity:1"
         id="path702" /><path
         d="m 582.222,523.477 h -39.685 v 39.686 h 39.685 z"
         style="fill:none;stroke:#ff0000;stroke-width:0.75;stroke-linecap:butt;stroke-linejoin:miter;stroke-miterlimit:4;stroke-dasharray:none;stroke-opacity:1"
         id="path704" /><path
         d="m 582.222,469.618 h -39.685 v 39.686 h 39.685 z"
         style="fill:none;stroke:#ff0000;stroke-width:0.75;stroke-linecap:butt;stroke-linejoin:miter;stroke-miterlimit:4;stroke-dasharray:none;stroke-opacity:1"
         id="path706" /><path
         d="m 582.222,415.761 h -39.685 v 39.685 h 39.685 z"
         style="fill:none;stroke:#ff0000;stroke-width:0.75;stroke-linecap:butt;stroke-linejoin:miter;stroke-miterlimit:4;stroke-dasharray:none;stroke-opacity:1"
         id="path708" /><path
         d="m 636.086,530.22 h -39.685 v 39.686 h 39.685 z"
         style="fill:none;stroke:#ff0000;stroke-width:0.75;stroke-linecap:butt;stroke-linejoin:miter;stroke-miterlimit:4;stroke-dasharray:none;stroke-opacity:1"
         id="path710" /><path
         d="m 636.086,476.362 h -39.685 v 39.685 h 39.685 z"
         style="fill:none;stroke:#ff0000;stroke-width:0.75;stroke-linecap:butt;stroke-linejoin:miter;stroke-miterlimit:4;stroke-dasharray:none;stroke-opacity:1"
         id="path712" /><path
         d="m 636.086,422.504 h -39.685 v 39.685 h 39.685 z"
         style="fill:none;stroke:#ff0000;stroke-width:0.75;stroke-linecap:butt;stroke-linejoin:miter;stroke-miterlimit:4;stroke-dasharray:none;stroke-opacity:1"
         id="path714" /><path
         d="m 689.948,523.489 h -39.686 v 39.685 h 39.686 z"
         style="fill:none;stroke:#ff0000;stroke-width:0.75;stroke-linecap:butt;stroke-linejoin:miter;stroke-miterlimit:4;stroke-dasharray:none;stroke-opacity:1"
         id="path716" /><path
         d="m 689.948,469.631 h -39.686 v 39.685 h 39.686 z"
         style="fill:none;stroke:#ff0000;stroke-width:0.75;stroke-linecap:butt;stroke-linejoin:miter;stroke-miterlimit:4;stroke-dasharray:none;stroke-opacity:1"
         id="path718" /><path
         d="m 689.948,415.773 h -39.686 v 39.685 h 39.686 z"
         style="fill:none;stroke:#ff0000;stroke-width:0.75;stroke-linecap:butt;stroke-linejoin:miter;stroke-miterlimit:4;stroke-dasharray:none;stroke-opacity:1"
         id="path720" /><path
         d="m 743.811,516.729 h -39.686 v 39.686 h 39.686 z"
         style="fill:none;stroke:#ff0000;stroke-width:0.75;stroke-linecap:butt;stroke-linejoin:miter;stroke-miterlimit:4;stroke-dasharray:none;stroke-opacity:1"
         id="path722" /><path
         d="m 743.811,462.87 h -39.686 v 39.686 h 39.686 z"
         style="fill:none;stroke:#ff0000;stroke-width:0.75;stroke-linecap:butt;stroke-linejoin:miter;stroke-miterlimit:4;stroke-dasharray:none;stroke-opacity:1"
         id="path724" /><path
         d="m 743.811,409.013 h -39.686 v 39.685 h 39.686 z"
         style="fill:none;stroke:#ff0000;stroke-width:0.75;stroke-linecap:butt;stroke-linejoin:miter;stroke-miterlimit:4;stroke-dasharray:none;stroke-opacity:1"
         id="path726" /><path
         d="m 663.071,360.049 h -39.686 v 39.686 h 39.686 z"
         style="fill:none;stroke:#ff0000;stroke-width:0.75;stroke-linecap:butt;stroke-linejoin:miter;stroke-miterlimit:4;stroke-dasharray:none;stroke-opacity:1"
         id="path728" /><g
         id="g730"
         transform="translate(716.6802,347.9073)"
         style="stroke-width:0.75;stroke-miterlimit:4;stroke-dasharray:none"
         clip-path="url(#clipPath8590)"><path
           d="M 0,0 -38.333,10.271 -28.062,48.604 10.271,38.333 Z"
           style="fill:none;stroke:#ff0000;stroke-width:0.75;stroke-linecap:butt;stroke-linejoin:miter;stroke-miterlimit:4;stroke-dasharray:none;stroke-opacity:1"
           id="path732" /></g><g
         id="g734"
         transform="translate(773.0064,334.502)"
         style="stroke-width:0.75;stroke-miterlimit:4;stroke-dasharray:none"
         clip-path="url(#clipPath8586)"><path
           d="M 0,0 -34.368,19.843 -14.526,54.211 19.842,34.368 Z"
           style="fill:none;stroke:#ff0000;stroke-width:0.75;stroke-linecap:butt;stroke-linejoin:miter;stroke-miterlimit:4;stroke-dasharray:none;stroke-opacity:1"
           id="path736" /></g></g></g></svg>
