  0
SECTION
  2
BLOCKS
  0
ENDSEC
  0
SECTION
  2
ENTITIES
  0
LINE
  8
0
 10
119.654
 20
-0.145963
 11
119.981
 21
-0.0506293
  0
LINE
  8
0
 10
119.981
 20
-0.0506293
 11
120.282
 21
0.10516
  0
LINE
  8
0
 10
120.282
 20
0.10516
 11
120.549
 21
0.316959
  0
LINE
  8
0
 10
120.549
 20
0.316959
 11
120.785
 21
0.600373
  0
LINE
  8
0
 10
120.785
 20
0.600373
 11
120.796
 21
0.61779
  0
LINE
  8
0
 10
120.796
 20
0.61779
 11
120.802
 21
0.627331
  0
LINE
  8
0
 10
120.802
 20
0.627331
 11
133.985
 21
23.4817
  0
LINE
  8
0
 10
133.985
 20
23.4817
 11
134.22
 21
24.0569
  0
LINE
  8
0
 10
134.22
 20
24.0569
 11
134.294
 21
24.677
  0
LINE
  8
0
 10
134.294
 20
24.677
 11
134.294
 21
84.0225
  0
LINE
  8
0
 10
134.294
 20
84.0225
 11
134.272
 21
84.2417
  0
LINE
  8
0
 10
134.272
 20
84.2417
 11
134.237
 21
84.351
  0
LINE
  8
0
 10
134.237
 20
84.351
 11
134.023
 21
84.6661
  0
LINE
  8
0
 10
134.023
 20
84.6661
 11
133.707
 21
84.8813
  0
LINE
  8
0
 10
133.707
 20
84.8813
 11
133.596
 21
84.9166
  0
LINE
  8
0
 10
133.596
 20
84.9166
 11
133.379
 21
84.9395
  0
LINE
  8
0
 10
133.379
 20
84.9395
 11
114.543
 21
84.9395
  0
LINE
  8
0
 10
114.543
 20
84.9395
 11
114.234
 21
84.9884
  0
LINE
  8
0
 10
114.234
 20
84.9884
 11
113.955
 21
85.1304
  0
LINE
  8
0
 10
113.955
 20
85.1304
 11
113.734
 21
85.3517
  0
LINE
  8
0
 10
113.734
 20
85.3517
 11
113.592
 21
85.6304
  0
LINE
  8
0
 10
113.592
 20
85.6304
 11
113.543
 21
85.9395
  0
LINE
  8
0
 10
113.543
 20
85.9395
 11
113.543
 21
86.2674
  0
LINE
  8
0
 10
113.543
 20
86.2674
 11
113.52
 21
86.4889
  0
LINE
  8
0
 10
113.52
 20
86.4889
 11
113.485
 21
86.6014
  0
LINE
  8
0
 10
113.485
 20
86.6014
 11
113.271
 21
86.9176
  0
LINE
  8
0
 10
113.271
 20
86.9176
 11
112.956
 21
87.133
  0
LINE
  8
0
 10
112.956
 20
87.133
 11
112.845
 21
87.1686
  0
LINE
  8
0
 10
112.845
 20
87.1686
 11
112.628
 21
87.1914
  0
LINE
  8
0
 10
112.628
 20
87.1914
 11
95.543
 21
87.1914
  0
LINE
  8
0
 10
95.543
 20
87.1914
 11
95.234
 21
87.2403
  0
LINE
  8
0
 10
95.234
 20
87.2403
 11
94.9552
 21
87.3824
  0
LINE
  8
0
 10
94.9552
 20
87.3824
 11
94.734
 21
87.6036
  0
LINE
  8
0
 10
94.734
 20
87.6036
 11
94.5919
 21
87.8824
  0
LINE
  8
0
 10
94.5919
 20
87.8824
 11
94.543
 21
88.1914
  0
LINE
  8
0
 10
94.543
 20
88.1914
 11
94.543
 21
88.7694
  0
LINE
  8
0
 10
94.543
 20
88.7694
 11
94.5205
 21
88.9896
  0
LINE
  8
0
 10
94.5205
 20
88.9896
 11
94.4849
 21
89.1019
  0
LINE
  8
0
 10
94.4849
 20
89.1019
 11
94.2712
 21
89.4179
  0
LINE
  8
0
 10
94.2712
 20
89.4179
 11
93.9551
 21
89.6331
  0
LINE
  8
0
 10
93.9551
 20
89.6331
 11
93.8442
 21
89.6687
  0
LINE
  8
0
 10
93.8442
 20
89.6687
 11
93.629
 21
89.6914
  0
LINE
  8
0
 10
93.629
 20
89.6914
 11
76.5449
 21
89.6914
  0
LINE
  8
0
 10
76.5449
 20
89.6914
 11
76.2359
 21
89.7403
  0
LINE
  8
0
 10
76.2359
 20
89.7403
 11
75.9571
 21
89.8824
  0
LINE
  8
0
 10
75.9571
 20
89.8824
 11
75.7359
 21
90.1036
  0
LINE
  8
0
 10
75.7359
 20
90.1036
 11
75.5939
 21
90.3824
  0
LINE
  8
0
 10
75.5939
 20
90.3824
 11
75.5449
 21
90.6914
  0
LINE
  8
0
 10
75.5449
 20
90.6914
 11
75.5449
 21
91.0219
  0
LINE
  8
0
 10
75.5449
 20
91.0219
 11
75.5219
 21
91.2407
  0
LINE
  8
0
 10
75.5219
 20
91.2407
 11
75.4864
 21
91.3526
  0
LINE
  8
0
 10
75.4864
 20
91.3526
 11
75.2721
 21
91.6681
  0
LINE
  8
0
 10
75.2721
 20
91.6681
 11
74.9566
 21
91.8828
  0
LINE
  8
0
 10
74.9566
 20
91.8828
 11
74.8446
 21
91.9187
  0
LINE
  8
0
 10
74.8446
 20
91.9187
 11
74.629
 21
91.9414
  0
LINE
  8
0
 10
74.629
 20
91.9414
 11
57.7262
 21
91.9414
  0
LINE
  8
0
 10
57.7262
 20
91.9414
 11
57.5077
 21
91.9185
  0
LINE
  8
0
 10
57.5077
 20
91.9185
 11
57.3972
 21
91.8833
  0
LINE
  8
0
 10
57.3972
 20
91.8833
 11
57.0813
 21
91.6683
  0
LINE
  8
0
 10
57.0813
 20
91.6683
 11
56.8667
 21
91.3542
  0
LINE
  8
0
 10
56.8667
 20
91.3542
 11
56.8315
 21
91.2435
  0
LINE
  8
0
 10
56.8315
 20
91.2435
 11
56.8086
 21
91.0256
  0
LINE
  8
0
 10
56.8086
 20
91.0256
 11
56.8086
 21
90.6914
  0
LINE
  8
0
 10
56.8086
 20
90.6914
 11
56.7597
 21
90.3824
  0
LINE
  8
0
 10
56.7597
 20
90.3824
 11
56.6176
 21
90.1036
  0
LINE
  8
0
 10
56.6176
 20
90.1036
 11
56.3964
 21
89.8824
  0
LINE
  8
0
 10
56.3964
 20
89.8824
 11
56.1176
 21
89.7403
  0
LINE
  8
0
 10
56.1176
 20
89.7403
 11
55.8086
 21
89.6914
  0
LINE
  8
0
 10
55.8086
 20
89.6914
 11
38.7245
 21
89.6914
  0
LINE
  8
0
 10
38.7245
 20
89.6914
 11
38.5089
 21
89.6687
  0
LINE
  8
0
 10
38.5089
 20
89.6687
 11
38.3973
 21
89.6329
  0
LINE
  8
0
 10
38.3973
 20
89.6329
 11
38.0828
 21
89.4186
  0
LINE
  8
0
 10
38.0828
 20
89.4186
 11
37.8691
 21
89.1037
  0
LINE
  8
0
 10
37.8691
 20
89.1037
 11
37.8335
 21
88.9916
  0
LINE
  8
0
 10
37.8335
 20
88.9916
 11
37.8105
 21
88.7737
  0
LINE
  8
0
 10
37.8105
 20
88.7737
 11
37.8105
 21
85.9414
  0
LINE
  8
0
 10
37.8105
 20
85.9414
 11
37.7616
 21
85.6324
  0
LINE
  8
0
 10
37.7616
 20
85.6324
 11
37.6196
 21
85.3536
  0
LINE
  8
0
 10
37.6196
 20
85.3536
 11
37.3983
 21
85.1324
  0
LINE
  8
0
 10
37.3983
 20
85.1324
 11
37.1196
 21
84.9903
  0
LINE
  8
0
 10
37.1196
 20
84.9903
 11
36.8105
 21
84.9414
  0
LINE
  8
0
 10
36.8105
 20
84.9414
 11
0.726315
 21
84.9414
  0
LINE
  8
0
 10
0.726315
 20
84.9414
 11
0.508448
 21
84.9185
  0
LINE
  8
0
 10
0.508448
 20
84.9185
 11
0.396844
 21
84.883
  0
LINE
  8
0
 10
0.396844
 20
84.883
 11
0.0817589
 21
84.6687
  0
LINE
  8
0
 10
0.0817589
 20
84.6687
 11
-0.13219
 21
84.3547
  0
LINE
  8
0
 10
-0.13219
 20
84.3547
 11
-0.167894
 21
84.2423
  0
LINE
  8
0
 10
-0.167894
 20
84.2423
 11
-0.191406
 21
84.0243
  0
LINE
  8
0
 10
-0.191406
 20
84.0243
 11
-0.191406
 21
28.8723
  0
LINE
  8
0
 10
-0.191406
 20
28.8723
 11
-0.167981
 21
28.6558
  0
LINE
  8
0
 10
-0.167981
 20
28.6558
 11
-0.132305
 21
28.5437
  0
LINE
  8
0
 10
-0.132305
 20
28.5437
 11
0.0818644
 21
28.2289
  0
LINE
  8
0
 10
0.0818644
 20
28.2289
 11
0.396369
 21
28.0153
  0
LINE
  8
0
 10
0.396369
 20
28.0153
 11
0.506759
 21
27.9805
  0
LINE
  8
0
 10
0.506759
 20
27.9805
 11
0.726829
 21
27.958
  0
LINE
  8
0
 10
0.726829
 20
27.958
 11
55.2285
 21
27.958
  0
LINE
  8
0
 10
55.2285
 20
27.958
 11
55.5375
 21
27.9091
  0
LINE
  8
0
 10
55.5375
 20
27.9091
 11
55.8163
 21
27.767
  0
LINE
  8
0
 10
55.8163
 20
27.767
 11
56.0365
 21
27.5472
  0
LINE
  8
0
 10
56.0365
 20
27.5472
 11
66.2548
 21
13.5333
  0
LINE
  8
0
 10
66.2548
 20
13.5333
 11
66.2735
 21
13.5113
  0
LINE
  8
0
 10
66.2735
 20
13.5113
 11
66.6013
 21
13.2918
  0
LINE
  8
0
 10
66.6013
 20
13.2918
 11
67.1257
 21
13.188
  0
LINE
  8
0
 10
67.1257
 20
13.188
 11
67.1748
 21
13.17
  0
LINE
  8
0
 10
67.1748
 20
13.17
 11
103.532
 21
8.44113
  0
LINE
  8
0
 10
103.532
 20
8.44113
 11
103.556
 21
8.43885
  0
LINE
  8
0
 10
103.556
 20
8.43885
 11
103.656
 21
8.42407
  0
LINE
  8
0
 10
103.656
 20
8.42407
 11
103.945
 21
8.36645
  0
LINE
  8
0
 10
103.945
 20
8.36645
 11
104.25
 21
8.25153
  0
LINE
  8
0
 10
104.25
 20
8.25153
 11
118.233
 21
0.169421
  0
LINE
  8
0
 10
118.233
 20
0.169421
 11
118.254
 21
0.161254
  0
LINE
  8
0
 10
118.254
 20
0.161254
 11
118.651
 21
-0.051826
  0
LINE
  8
0
 10
118.651
 20
-0.051826
 11
118.977
 21
-0.148238
  0
LINE
  8
0
 10
118.977
 20
-0.148238
 11
119.314
 21
-0.179902
  0
LINE
  8
0
 10
119.314
 20
-0.179902
 11
119.654
 21
-0.145963
  0
LINE
  8
0
 10
94.4435
 20
65.1942
 11
94.2874
 21
65.2064
  0
LINE
  8
0
 10
94.2874
 20
65.2064
 11
93.7005
 21
65.2992
  0
LINE
  8
0
 10
93.7005
 20
65.2992
 11
93.5482
 21
65.3357
  0
LINE
  8
0
 10
93.5482
 20
65.3357
 11
93.1027
 21
65.4801
  0
LINE
  8
0
 10
93.1027
 20
65.4801
 11
92.958
 21
65.5399
  0
LINE
  8
0
 10
92.958
 20
65.5399
 11
92.4278
 21
65.8095
  0
LINE
  8
0
 10
92.4278
 20
65.8095
 11
92.293
 21
65.8919
  0
LINE
  8
0
 10
92.293
 20
65.8919
 11
91.9108
 21
66.1697
  0
LINE
  8
0
 10
91.9108
 20
66.1697
 11
91.7907
 21
66.2724
  0
LINE
  8
0
 10
91.7907
 20
66.2724
 11
91.3708
 21
66.6933
  0
LINE
  8
0
 10
91.3708
 20
66.6933
 11
91.2697
 21
66.8117
  0
LINE
  8
0
 10
91.2697
 20
66.8117
 11
90.996
 21
67.1886
  0
LINE
  8
0
 10
90.996
 20
67.1886
 11
90.9145
 21
67.3213
  0
LINE
  8
0
 10
90.9145
 20
67.3213
 11
90.644
 21
67.8506
  0
LINE
  8
0
 10
90.644
 20
67.8506
 11
90.5835
 21
67.9962
  0
LINE
  8
0
 10
90.5835
 20
67.9962
 11
90.4376
 21
68.4446
  0
LINE
  8
0
 10
90.4376
 20
68.4446
 11
90.4008
 21
68.598
  0
LINE
  8
0
 10
90.4008
 20
68.598
 11
90.308
 21
69.1849
  0
LINE
  8
0
 10
90.308
 20
69.1849
 11
90.2957
 21
69.341
  0
LINE
  8
0
 10
90.2957
 20
69.341
 11
90.2957
 21
69.8094
  0
LINE
  8
0
 10
90.2957
 20
69.8094
 11
90.308
 21
69.9655
  0
LINE
  8
0
 10
90.308
 20
69.9655
 11
90.4008
 21
70.5524
  0
LINE
  8
0
 10
90.4008
 20
70.5524
 11
90.4375
 21
70.7054
  0
LINE
  8
0
 10
90.4375
 20
70.7054
 11
90.5829
 21
71.1528
  0
LINE
  8
0
 10
90.5829
 20
71.1528
 11
90.6431
 21
71.2982
  0
LINE
  8
0
 10
90.6431
 20
71.2982
 11
90.9137
 21
71.8284
  0
LINE
  8
0
 10
90.9137
 20
71.8284
 11
90.9956
 21
71.962
  0
LINE
  8
0
 10
90.9956
 20
71.962
 11
91.2711
 21
72.341
  0
LINE
  8
0
 10
91.2711
 20
72.341
 11
91.3729
 21
72.4601
  0
LINE
  8
0
 10
91.3729
 20
72.4601
 11
91.7928
 21
72.8801
  0
LINE
  8
0
 10
91.7928
 20
72.8801
 11
91.9119
 21
72.9818
  0
LINE
  8
0
 10
91.9119
 20
72.9818
 11
92.2909
 21
73.2574
  0
LINE
  8
0
 10
92.2909
 20
73.2574
 11
92.4245
 21
73.3393
  0
LINE
  8
0
 10
92.4245
 20
73.3393
 11
92.9548
 21
73.6098
  0
LINE
  8
0
 10
92.9548
 20
73.6098
 11
93.1001
 21
73.67
  0
LINE
  8
0
 10
93.1001
 20
73.67
 11
93.5475
 21
73.8154
  0
LINE
  8
0
 10
93.5475
 20
73.8154
 11
93.7005
 21
73.8522
  0
LINE
  8
0
 10
93.7005
 20
73.8522
 11
94.2874
 21
73.9449
  0
LINE
  8
0
 10
94.2874
 20
73.9449
 11
94.4435
 21
73.9572
  0
LINE
  8
0
 10
94.4435
 20
73.9572
 11
94.9119
 21
73.9572
  0
LINE
  8
0
 10
94.9119
 20
73.9572
 11
95.0681
 21
73.9449
  0
LINE
  8
0
 10
95.0681
 20
73.9449
 11
95.655
 21
73.8522
  0
LINE
  8
0
 10
95.655
 20
73.8522
 11
95.8083
 21
73.8153
  0
LINE
  8
0
 10
95.8083
 20
73.8153
 11
96.2567
 21
73.6694
  0
LINE
  8
0
 10
96.2567
 20
73.6694
 11
96.4024
 21
73.6089
  0
LINE
  8
0
 10
96.4024
 20
73.6089
 11
96.9317
 21
73.3384
  0
LINE
  8
0
 10
96.9317
 20
73.3384
 11
97.0644
 21
73.257
  0
LINE
  8
0
 10
97.0644
 20
73.257
 11
97.4412
 21
72.9832
  0
LINE
  8
0
 10
97.4412
 20
72.9832
 11
97.5597
 21
72.8821
  0
LINE
  8
0
 10
97.5597
 20
72.8821
 11
97.9806
 21
72.4622
  0
LINE
  8
0
 10
97.9806
 20
72.4622
 11
98.0832
 21
72.3421
  0
LINE
  8
0
 10
98.0832
 20
72.3421
 11
98.361
 21
71.9599
  0
LINE
  8
0
 10
98.361
 20
71.9599
 11
98.4435
 21
71.8252
  0
LINE
  8
0
 10
98.4435
 20
71.8252
 11
98.713
 21
71.2949
  0
LINE
  8
0
 10
98.713
 20
71.2949
 11
98.7728
 21
71.1502
  0
LINE
  8
0
 10
98.7728
 20
71.1502
 11
98.9172
 21
70.7047
  0
LINE
  8
0
 10
98.9172
 20
70.7047
 11
98.9537
 21
70.5524
  0
LINE
  8
0
 10
98.9537
 20
70.5524
 11
99.0465
 21
69.9655
  0
LINE
  8
0
 10
99.0465
 20
69.9655
 11
99.0588
 21
69.8094
  0
LINE
  8
0
 10
99.0588
 20
69.8094
 11
99.0588
 21
69.341
  0
LINE
  8
0
 10
99.0588
 20
69.341
 11
99.0465
 21
69.1849
  0
LINE
  8
0
 10
99.0465
 20
69.1849
 11
98.9537
 21
68.598
  0
LINE
  8
0
 10
98.9537
 20
68.598
 11
98.9171
 21
68.4453
  0
LINE
  8
0
 10
98.9171
 20
68.4453
 11
98.7722
 21
67.9989
  0
LINE
  8
0
 10
98.7722
 20
67.9989
 11
98.7122
 21
67.8538
  0
LINE
  8
0
 10
98.7122
 20
67.8538
 11
98.4426
 21
67.3245
  0
LINE
  8
0
 10
98.4426
 20
67.3245
 11
98.3606
 21
67.1906
  0
LINE
  8
0
 10
98.3606
 20
67.1906
 11
98.0846
 21
66.8106
  0
LINE
  8
0
 10
98.0846
 20
66.8106
 11
97.9826
 21
66.6912
  0
LINE
  8
0
 10
97.9826
 20
66.6912
 11
97.5617
 21
66.2703
  0
LINE
  8
0
 10
97.5617
 20
66.2703
 11
97.4423
 21
66.1683
  0
LINE
  8
0
 10
97.4423
 20
66.1683
 11
97.0623
 21
65.8923
  0
LINE
  8
0
 10
97.0623
 20
65.8923
 11
96.9284
 21
65.8103
  0
LINE
  8
0
 10
96.9284
 20
65.8103
 11
96.3991
 21
65.5408
  0
LINE
  8
0
 10
96.3991
 20
65.5408
 11
96.2541
 21
65.4807
  0
LINE
  8
0
 10
96.2541
 20
65.4807
 11
95.8076
 21
65.3358
  0
LINE
  8
0
 10
95.8076
 20
65.3358
 11
95.655
 21
65.2992
  0
LINE
  8
0
 10
95.655
 20
65.2992
 11
95.0681
 21
65.2064
  0
LINE
  8
0
 10
95.0681
 20
65.2064
 11
94.9119
 21
65.1942
  0
LINE
  8
0
 10
94.9119
 20
65.1942
 11
94.4435
 21
65.1942
  0
LINE
  8
0
 10
18.4411
 20
61.4436
 11
18.2834
 21
61.4561
  0
LINE
  8
0
 10
18.2834
 20
61.4561
 11
17.6965
 21
61.5499
  0
LINE
  8
0
 10
17.6965
 20
61.5499
 11
17.545
 21
61.5863
  0
LINE
  8
0
 10
17.545
 20
61.5863
 11
17.102
 21
61.7304
  0
LINE
  8
0
 10
17.102
 20
61.7304
 11
16.958
 21
61.7899
  0
LINE
  8
0
 10
16.958
 20
61.7899
 11
16.4278
 21
62.0595
  0
LINE
  8
0
 10
16.4278
 20
62.0595
 11
16.2935
 21
62.1416
  0
LINE
  8
0
 10
16.2935
 20
62.1416
 11
15.9125
 21
62.4181
  0
LINE
  8
0
 10
15.9125
 20
62.4181
 11
15.7928
 21
62.5203
  0
LINE
  8
0
 10
15.7928
 20
62.5203
 11
15.3729
 21
62.9402
  0
LINE
  8
0
 10
15.3729
 20
62.9402
 11
15.2707
 21
63.06
  0
LINE
  8
0
 10
15.2707
 20
63.06
 11
14.9941
 21
63.4409
  0
LINE
  8
0
 10
14.9941
 20
63.4409
 11
14.912
 21
63.5752
  0
LINE
  8
0
 10
14.912
 20
63.5752
 11
14.6425
 21
64.1055
  0
LINE
  8
0
 10
14.6425
 20
64.1055
 11
14.5829
 21
64.2494
  0
LINE
  8
0
 10
14.5829
 20
64.2494
 11
14.4389
 21
64.6925
  0
LINE
  8
0
 10
14.4389
 20
64.6925
 11
14.4024
 21
64.8439
  0
LINE
  8
0
 10
14.4024
 20
64.8439
 11
14.3086
 21
65.4309
  0
LINE
  8
0
 10
14.3086
 20
65.4309
 11
14.2961
 21
65.5886
  0
LINE
  8
0
 10
14.2961
 20
65.5886
 11
14.2961
 21
66.0618
  0
LINE
  8
0
 10
14.2961
 20
66.0618
 11
14.3086
 21
66.2195
  0
LINE
  8
0
 10
14.3086
 20
66.2195
 11
14.4024
 21
66.8064
  0
LINE
  8
0
 10
14.4024
 20
66.8064
 11
14.4389
 21
66.9579
  0
LINE
  8
0
 10
14.4389
 20
66.9579
 11
14.5829
 21
67.401
  0
LINE
  8
0
 10
14.5829
 20
67.401
 11
14.6425
 21
67.5449
  0
LINE
  8
0
 10
14.6425
 20
67.5449
 11
14.912
 21
68.0752
  0
LINE
  8
0
 10
14.912
 20
68.0752
 11
14.9941
 21
68.2094
  0
LINE
  8
0
 10
14.9941
 20
68.2094
 11
15.2707
 21
68.5904
  0
LINE
  8
0
 10
15.2707
 20
68.5904
 11
15.3729
 21
68.7101
  0
LINE
  8
0
 10
15.3729
 20
68.7101
 11
15.7928
 21
69.1301
  0
LINE
  8
0
 10
15.7928
 20
69.1301
 11
15.9125
 21
69.2323
  0
LINE
  8
0
 10
15.9125
 20
69.2323
 11
16.2935
 21
69.5088
  0
LINE
  8
0
 10
16.2935
 20
69.5088
 11
16.4278
 21
69.5909
  0
LINE
  8
0
 10
16.4278
 20
69.5909
 11
16.958
 21
69.8605
  0
LINE
  8
0
 10
16.958
 20
69.8605
 11
17.102
 21
69.92
  0
LINE
  8
0
 10
17.102
 20
69.92
 11
17.545
 21
70.0641
  0
LINE
  8
0
 10
17.545
 20
70.0641
 11
17.6965
 21
70.1005
  0
LINE
  8
0
 10
17.6965
 20
70.1005
 11
18.2834
 21
70.1943
  0
LINE
  8
0
 10
18.2834
 20
70.1943
 11
18.4411
 21
70.2068
  0
LINE
  8
0
 10
18.4411
 20
70.2068
 11
18.9143
 21
70.2068
  0
LINE
  8
0
 10
18.9143
 20
70.2068
 11
19.0721
 21
70.1943
  0
LINE
  8
0
 10
19.0721
 20
70.1943
 11
19.659
 21
70.1005
  0
LINE
  8
0
 10
19.659
 20
70.1005
 11
19.8104
 21
70.0641
  0
LINE
  8
0
 10
19.8104
 20
70.0641
 11
20.2535
 21
69.92
  0
LINE
  8
0
 10
20.2535
 20
69.92
 11
20.3974
 21
69.8605
  0
LINE
  8
0
 10
20.3974
 20
69.8605
 11
20.9277
 21
69.5909
  0
LINE
  8
0
 10
20.9277
 20
69.5909
 11
21.062
 21
69.5088
  0
LINE
  8
0
 10
21.062
 20
69.5088
 11
21.443
 21
69.2323
  0
LINE
  8
0
 10
21.443
 20
69.2323
 11
21.5627
 21
69.1301
  0
LINE
  8
0
 10
21.5627
 20
69.1301
 11
21.9826
 21
68.7101
  0
LINE
  8
0
 10
21.9826
 20
68.7101
 11
22.0848
 21
68.5904
  0
LINE
  8
0
 10
22.0848
 20
68.5904
 11
22.3613
 21
68.2094
  0
LINE
  8
0
 10
22.3613
 20
68.2094
 11
22.4435
 21
68.0752
  0
LINE
  8
0
 10
22.4435
 20
68.0752
 11
22.713
 21
67.5449
  0
LINE
  8
0
 10
22.713
 20
67.5449
 11
22.7726
 21
67.401
  0
LINE
  8
0
 10
22.7726
 20
67.401
 11
22.9166
 21
66.9579
  0
LINE
  8
0
 10
22.9166
 20
66.9579
 11
22.9531
 21
66.8064
  0
LINE
  8
0
 10
22.9531
 20
66.8064
 11
23.0468
 21
66.2195
  0
LINE
  8
0
 10
23.0468
 20
66.2195
 11
23.0593
 21
66.0618
  0
LINE
  8
0
 10
23.0593
 20
66.0618
 11
23.0593
 21
65.5886
  0
LINE
  8
0
 10
23.0593
 20
65.5886
 11
23.0468
 21
65.4309
  0
LINE
  8
0
 10
23.0468
 20
65.4309
 11
22.9531
 21
64.8439
  0
LINE
  8
0
 10
22.9531
 20
64.8439
 11
22.9166
 21
64.6925
  0
LINE
  8
0
 10
22.9166
 20
64.6925
 11
22.7726
 21
64.2494
  0
LINE
  8
0
 10
22.7726
 20
64.2494
 11
22.713
 21
64.1055
  0
LINE
  8
0
 10
22.713
 20
64.1055
 11
22.4435
 21
63.5752
  0
LINE
  8
0
 10
22.4435
 20
63.5752
 11
22.3613
 21
63.4409
  0
LINE
  8
0
 10
22.3613
 20
63.4409
 11
22.0848
 21
63.06
  0
LINE
  8
0
 10
22.0848
 20
63.06
 11
21.9826
 21
62.9402
  0
LINE
  8
0
 10
21.9826
 20
62.9402
 11
21.5627
 21
62.5203
  0
LINE
  8
0
 10
21.5627
 20
62.5203
 11
21.443
 21
62.4181
  0
LINE
  8
0
 10
21.443
 20
62.4181
 11
21.062
 21
62.1416
  0
LINE
  8
0
 10
21.062
 20
62.1416
 11
20.9277
 21
62.0595
  0
LINE
  8
0
 10
20.9277
 20
62.0595
 11
20.3974
 21
61.7899
  0
LINE
  8
0
 10
20.3974
 20
61.7899
 11
20.2535
 21
61.7304
  0
LINE
  8
0
 10
20.2535
 20
61.7304
 11
19.8104
 21
61.5863
  0
LINE
  8
0
 10
19.8104
 20
61.5863
 11
19.659
 21
61.5499
  0
LINE
  8
0
 10
19.659
 20
61.5499
 11
19.0721
 21
61.4561
  0
LINE
  8
0
 10
19.0721
 20
61.4561
 11
18.9143
 21
61.4436
  0
LINE
  8
0
 10
18.9143
 20
61.4436
 11
18.4411
 21
61.4436
  0
LINE
  8
0
 10
18.4435
 20
42.6942
 11
18.2874
 21
42.7064
  0
LINE
  8
0
 10
18.2874
 20
42.7064
 11
17.7005
 21
42.7992
  0
LINE
  8
0
 10
17.7005
 20
42.7992
 11
17.5482
 21
42.8357
  0
LINE
  8
0
 10
17.5482
 20
42.8357
 11
17.1027
 21
42.9801
  0
LINE
  8
0
 10
17.1027
 20
42.9801
 11
16.958
 21
43.0399
  0
LINE
  8
0
 10
16.958
 20
43.0399
 11
16.4278
 21
43.3095
  0
LINE
  8
0
 10
16.4278
 20
43.3095
 11
16.293
 21
43.3919
  0
LINE
  8
0
 10
16.293
 20
43.3919
 11
15.9108
 21
43.6697
  0
LINE
  8
0
 10
15.9108
 20
43.6697
 11
15.7907
 21
43.7724
  0
LINE
  8
0
 10
15.7907
 20
43.7724
 11
15.3708
 21
44.1933
  0
LINE
  8
0
 10
15.3708
 20
44.1933
 11
15.2693
 21
44.3123
  0
LINE
  8
0
 10
15.2693
 20
44.3123
 11
14.9945
 21
44.6911
  0
LINE
  8
0
 10
14.9945
 20
44.6911
 11
14.9128
 21
44.8245
  0
LINE
  8
0
 10
14.9128
 20
44.8245
 11
14.6433
 21
45.3538
  0
LINE
  8
0
 10
14.6433
 20
45.3538
 11
14.5835
 21
45.4981
  0
LINE
  8
0
 10
14.5835
 20
45.4981
 11
14.439
 21
45.9422
  0
LINE
  8
0
 10
14.439
 20
45.9422
 11
14.4024
 21
46.0939
  0
LINE
  8
0
 10
14.4024
 20
46.0939
 11
14.3086
 21
46.6809
  0
LINE
  8
0
 10
14.3086
 20
46.6809
 11
14.2961
 21
46.8386
  0
LINE
  8
0
 10
14.2961
 20
46.8386
 11
14.2961
 21
47.3118
  0
LINE
  8
0
 10
14.2961
 20
47.3118
 11
14.3086
 21
47.4695
  0
LINE
  8
0
 10
14.3086
 20
47.4695
 11
14.4024
 21
48.0564
  0
LINE
  8
0
 10
14.4024
 20
48.0564
 11
14.4389
 21
48.2079
  0
LINE
  8
0
 10
14.4389
 20
48.2079
 11
14.5829
 21
48.651
  0
LINE
  8
0
 10
14.5829
 20
48.651
 11
14.6425
 21
48.7949
  0
LINE
  8
0
 10
14.6425
 20
48.7949
 11
14.912
 21
49.3252
  0
LINE
  8
0
 10
14.912
 20
49.3252
 11
14.9941
 21
49.4594
  0
LINE
  8
0
 10
14.9941
 20
49.4594
 11
15.2707
 21
49.8404
  0
LINE
  8
0
 10
15.2707
 20
49.8404
 11
15.3729
 21
49.9601
  0
LINE
  8
0
 10
15.3729
 20
49.9601
 11
15.7928
 21
50.3801
  0
LINE
  8
0
 10
15.7928
 20
50.3801
 11
15.9119
 21
50.4818
  0
LINE
  8
0
 10
15.9119
 20
50.4818
 11
16.2909
 21
50.7574
  0
LINE
  8
0
 10
16.2909
 20
50.7574
 11
16.4245
 21
50.8393
  0
LINE
  8
0
 10
16.4245
 20
50.8393
 11
16.9548
 21
51.1098
  0
LINE
  8
0
 10
16.9548
 20
51.1098
 11
17.1001
 21
51.17
  0
LINE
  8
0
 10
17.1001
 20
51.17
 11
17.5475
 21
51.3154
  0
LINE
  8
0
 10
17.5475
 20
51.3154
 11
17.7005
 21
51.3522
  0
LINE
  8
0
 10
17.7005
 20
51.3522
 11
18.2874
 21
51.4449
  0
LINE
  8
0
 10
18.2874
 20
51.4449
 11
18.4435
 21
51.4572
  0
LINE
  8
0
 10
18.4435
 20
51.4572
 11
18.9119
 21
51.4572
  0
LINE
  8
0
 10
18.9119
 20
51.4572
 11
19.0681
 21
51.4449
  0
LINE
  8
0
 10
19.0681
 20
51.4449
 11
19.655
 21
51.3522
  0
LINE
  8
0
 10
19.655
 20
51.3522
 11
19.8083
 21
51.3153
  0
LINE
  8
0
 10
19.8083
 20
51.3153
 11
20.2567
 21
51.1694
  0
LINE
  8
0
 10
20.2567
 20
51.1694
 11
20.4024
 21
51.1089
  0
LINE
  8
0
 10
20.4024
 20
51.1089
 11
20.9317
 21
50.8384
  0
LINE
  8
0
 10
20.9317
 20
50.8384
 11
21.0644
 21
50.757
  0
LINE
  8
0
 10
21.0644
 20
50.757
 11
21.4412
 21
50.4832
  0
LINE
  8
0
 10
21.4412
 20
50.4832
 11
21.5597
 21
50.3821
  0
LINE
  8
0
 10
21.5597
 20
50.3821
 11
21.9806
 21
49.9622
  0
LINE
  8
0
 10
21.9806
 20
49.9622
 11
22.0832
 21
49.8421
  0
LINE
  8
0
 10
22.0832
 20
49.8421
 11
22.361
 21
49.4599
  0
LINE
  8
0
 10
22.361
 20
49.4599
 11
22.4435
 21
49.3252
  0
LINE
  8
0
 10
22.4435
 20
49.3252
 11
22.713
 21
48.7949
  0
LINE
  8
0
 10
22.713
 20
48.7949
 11
22.7726
 21
48.651
  0
LINE
  8
0
 10
22.7726
 20
48.651
 11
22.9166
 21
48.2079
  0
LINE
  8
0
 10
22.9166
 20
48.2079
 11
22.9531
 21
48.0564
  0
LINE
  8
0
 10
22.9531
 20
48.0564
 11
23.0468
 21
47.4695
  0
LINE
  8
0
 10
23.0468
 20
47.4695
 11
23.0593
 21
47.3118
  0
LINE
  8
0
 10
23.0593
 20
47.3118
 11
23.0593
 21
46.8386
  0
LINE
  8
0
 10
23.0593
 20
46.8386
 11
23.0468
 21
46.6809
  0
LINE
  8
0
 10
23.0468
 20
46.6809
 11
22.9531
 21
46.0939
  0
LINE
  8
0
 10
22.9531
 20
46.0939
 11
22.9165
 21
45.9422
  0
LINE
  8
0
 10
22.9165
 20
45.9422
 11
22.7719
 21
45.4981
  0
LINE
  8
0
 10
22.7719
 20
45.4981
 11
22.7122
 21
45.3538
  0
LINE
  8
0
 10
22.7122
 20
45.3538
 11
22.4426
 21
44.8245
  0
LINE
  8
0
 10
22.4426
 20
44.8245
 11
22.3606
 21
44.6906
  0
LINE
  8
0
 10
22.3606
 20
44.6906
 11
22.0846
 21
44.3106
  0
LINE
  8
0
 10
22.0846
 20
44.3106
 11
21.9826
 21
44.1912
  0
LINE
  8
0
 10
21.9826
 20
44.1912
 11
21.5617
 21
43.7703
  0
LINE
  8
0
 10
21.5617
 20
43.7703
 11
21.4423
 21
43.6683
  0
LINE
  8
0
 10
21.4423
 20
43.6683
 11
21.0623
 21
43.3923
  0
LINE
  8
0
 10
21.0623
 20
43.3923
 11
20.9284
 21
43.3103
  0
LINE
  8
0
 10
20.9284
 20
43.3103
 11
20.3991
 21
43.0408
  0
LINE
  8
0
 10
20.3991
 20
43.0408
 11
20.2541
 21
42.9807
  0
LINE
  8
0
 10
20.2541
 20
42.9807
 11
19.8076
 21
42.8358
  0
LINE
  8
0
 10
19.8076
 20
42.8358
 11
19.655
 21
42.7992
  0
LINE
  8
0
 10
19.655
 20
42.7992
 11
19.0681
 21
42.7064
  0
LINE
  8
0
 10
19.0681
 20
42.7064
 11
18.9119
 21
42.6942
  0
LINE
  8
0
 10
18.9119
 20
42.6942
 11
18.4435
 21
42.6942
  0
LINE
  8
0
 10
61.6911
 20
25.4436
 11
61.5334
 21
25.4561
  0
LINE
  8
0
 10
61.5334
 20
25.4561
 11
60.9465
 21
25.5499
  0
LINE
  8
0
 10
60.9465
 20
25.5499
 11
60.795
 21
25.5863
  0
LINE
  8
0
 10
60.795
 20
25.5863
 11
60.352
 21
25.7304
  0
LINE
  8
0
 10
60.352
 20
25.7304
 11
60.208
 21
25.7899
  0
LINE
  8
0
 10
60.208
 20
25.7899
 11
59.6778
 21
26.0595
  0
LINE
  8
0
 10
59.6778
 20
26.0595
 11
59.543
 21
26.1419
  0
LINE
  8
0
 10
59.543
 20
26.1419
 11
59.1608
 21
26.4197
  0
LINE
  8
0
 10
59.1608
 20
26.4197
 11
59.0407
 21
26.5224
  0
LINE
  8
0
 10
59.0407
 20
26.5224
 11
58.6208
 21
26.9433
  0
LINE
  8
0
 10
58.6208
 20
26.9433
 11
58.5193
 21
27.0623
  0
LINE
  8
0
 10
58.5193
 20
27.0623
 11
58.2445
 21
27.4411
  0
LINE
  8
0
 10
58.2445
 20
27.4411
 11
58.1628
 21
27.5745
  0
LINE
  8
0
 10
58.1628
 20
27.5745
 11
57.8933
 21
28.1038
  0
LINE
  8
0
 10
57.8933
 20
28.1038
 11
57.8335
 21
28.2481
  0
LINE
  8
0
 10
57.8335
 20
28.2481
 11
57.689
 21
28.6922
  0
LINE
  8
0
 10
57.689
 20
28.6922
 11
57.6524
 21
28.8439
  0
LINE
  8
0
 10
57.6524
 20
28.8439
 11
57.5586
 21
29.4309
  0
LINE
  8
0
 10
57.5586
 20
29.4309
 11
57.5461
 21
29.5886
  0
LINE
  8
0
 10
57.5461
 20
29.5886
 11
57.5461
 21
30.0618
  0
LINE
  8
0
 10
57.5461
 20
30.0618
 11
57.5586
 21
30.2195
  0
LINE
  8
0
 10
57.5586
 20
30.2195
 11
57.6524
 21
30.8064
  0
LINE
  8
0
 10
57.6524
 20
30.8064
 11
57.6889
 21
30.9579
  0
LINE
  8
0
 10
57.6889
 20
30.9579
 11
57.8329
 21
31.401
  0
LINE
  8
0
 10
57.8329
 20
31.401
 11
57.8925
 21
31.5449
  0
LINE
  8
0
 10
57.8925
 20
31.5449
 11
58.162
 21
32.0752
  0
LINE
  8
0
 10
58.162
 20
32.0752
 11
58.2441
 21
32.2094
  0
LINE
  8
0
 10
58.2441
 20
32.2094
 11
58.5207
 21
32.5904
  0
LINE
  8
0
 10
58.5207
 20
32.5904
 11
58.6229
 21
32.7101
  0
LINE
  8
0
 10
58.6229
 20
32.7101
 11
59.0428
 21
33.1301
  0
LINE
  8
0
 10
59.0428
 20
33.1301
 11
59.1625
 21
33.2323
  0
LINE
  8
0
 10
59.1625
 20
33.2323
 11
59.5435
 21
33.5088
  0
LINE
  8
0
 10
59.5435
 20
33.5088
 11
59.6778
 21
33.5909
  0
LINE
  8
0
 10
59.6778
 20
33.5909
 11
60.208
 21
33.8605
  0
LINE
  8
0
 10
60.208
 20
33.8605
 11
60.352
 21
33.92
  0
LINE
  8
0
 10
60.352
 20
33.92
 11
60.795
 21
34.0641
  0
LINE
  8
0
 10
60.795
 20
34.0641
 11
60.9465
 21
34.1005
  0
LINE
  8
0
 10
60.9465
 20
34.1005
 11
61.5334
 21
34.1943
  0
LINE
  8
0
 10
61.5334
 20
34.1943
 11
61.6911
 21
34.2068
  0
LINE
  8
0
 10
61.6911
 20
34.2068
 11
62.1643
 21
34.2068
  0
LINE
  8
0
 10
62.1643
 20
34.2068
 11
62.3221
 21
34.1943
  0
LINE
  8
0
 10
62.3221
 20
34.1943
 11
62.909
 21
34.1005
  0
LINE
  8
0
 10
62.909
 20
34.1005
 11
63.0604
 21
34.0641
  0
LINE
  8
0
 10
63.0604
 20
34.0641
 11
63.5035
 21
33.92
  0
LINE
  8
0
 10
63.5035
 20
33.92
 11
63.6474
 21
33.8605
  0
LINE
  8
0
 10
63.6474
 20
33.8605
 11
64.1777
 21
33.5909
  0
LINE
  8
0
 10
64.1777
 20
33.5909
 11
64.312
 21
33.5088
  0
LINE
  8
0
 10
64.312
 20
33.5088
 11
64.693
 21
33.2323
  0
LINE
  8
0
 10
64.693
 20
33.2323
 11
64.8127
 21
33.1301
  0
LINE
  8
0
 10
64.8127
 20
33.1301
 11
65.2326
 21
32.7101
  0
LINE
  8
0
 10
65.2326
 20
32.7101
 11
65.3348
 21
32.5904
  0
LINE
  8
0
 10
65.3348
 20
32.5904
 11
65.6113
 21
32.2094
  0
LINE
  8
0
 10
65.6113
 20
32.2094
 11
65.6935
 21
32.0752
  0
LINE
  8
0
 10
65.6935
 20
32.0752
 11
65.963
 21
31.5449
  0
LINE
  8
0
 10
65.963
 20
31.5449
 11
66.0226
 21
31.401
  0
LINE
  8
0
 10
66.0226
 20
31.401
 11
66.1666
 21
30.9579
  0
LINE
  8
0
 10
66.1666
 20
30.9579
 11
66.2031
 21
30.8064
  0
LINE
  8
0
 10
66.2031
 20
30.8064
 11
66.2968
 21
30.2195
  0
LINE
  8
0
 10
66.2968
 20
30.2195
 11
66.3093
 21
30.0618
  0
LINE
  8
0
 10
66.3093
 20
30.0618
 11
66.3093
 21
29.5886
  0
LINE
  8
0
 10
66.3093
 20
29.5886
 11
66.2968
 21
29.4309
  0
LINE
  8
0
 10
66.2968
 20
29.4309
 11
66.2031
 21
28.8439
  0
LINE
  8
0
 10
66.2031
 20
28.8439
 11
66.1665
 21
28.6922
  0
LINE
  8
0
 10
66.1665
 20
28.6922
 11
66.0219
 21
28.2481
  0
LINE
  8
0
 10
66.0219
 20
28.2481
 11
65.9622
 21
28.1038
  0
LINE
  8
0
 10
65.9622
 20
28.1038
 11
65.6926
 21
27.5745
  0
LINE
  8
0
 10
65.6926
 20
27.5745
 11
65.6109
 21
27.4411
  0
LINE
  8
0
 10
65.6109
 20
27.4411
 11
65.3362
 21
27.0623
  0
LINE
  8
0
 10
65.3362
 20
27.0623
 11
65.2347
 21
26.9433
  0
LINE
  8
0
 10
65.2347
 20
26.9433
 11
64.8147
 21
26.5224
  0
LINE
  8
0
 10
64.8147
 20
26.5224
 11
64.6947
 21
26.4197
  0
LINE
  8
0
 10
64.6947
 20
26.4197
 11
64.3125
 21
26.1419
  0
LINE
  8
0
 10
64.3125
 20
26.1419
 11
64.1777
 21
26.0595
  0
LINE
  8
0
 10
64.1777
 20
26.0595
 11
63.6474
 21
25.7899
  0
LINE
  8
0
 10
63.6474
 20
25.7899
 11
63.5035
 21
25.7304
  0
LINE
  8
0
 10
63.5035
 20
25.7304
 11
63.0604
 21
25.5863
  0
LINE
  8
0
 10
63.0604
 20
25.5863
 11
62.909
 21
25.5499
  0
LINE
  8
0
 10
62.909
 20
25.5499
 11
62.3221
 21
25.4561
  0
LINE
  8
0
 10
62.3221
 20
25.4561
 11
62.1643
 21
25.4436
  0
LINE
  8
0
 10
62.1643
 20
25.4436
 11
61.6911
 21
25.4436
  0
LINE
  8
0
 10
108.194
 20
17.6942
 11
108.037
 21
17.7064
  0
LINE
  8
0
 10
108.037
 20
17.7064
 11
107.45
 21
17.7992
  0
LINE
  8
0
 10
107.45
 20
17.7992
 11
107.298
 21
17.8357
  0
LINE
  8
0
 10
107.298
 20
17.8357
 11
106.853
 21
17.9801
  0
LINE
  8
0
 10
106.853
 20
17.9801
 11
106.708
 21
18.0399
  0
LINE
  8
0
 10
106.708
 20
18.0399
 11
106.178
 21
18.3095
  0
LINE
  8
0
 10
106.178
 20
18.3095
 11
106.043
 21
18.3919
  0
LINE
  8
0
 10
106.043
 20
18.3919
 11
105.661
 21
18.6697
  0
LINE
  8
0
 10
105.661
 20
18.6697
 11
105.541
 21
18.7724
  0
LINE
  8
0
 10
105.541
 20
18.7724
 11
105.121
 21
19.1933
  0
LINE
  8
0
 10
105.121
 20
19.1933
 11
105.02
 21
19.3117
  0
LINE
  8
0
 10
105.02
 20
19.3117
 11
104.746
 21
19.6886
  0
LINE
  8
0
 10
104.746
 20
19.6886
 11
104.665
 21
19.8213
  0
LINE
  8
0
 10
104.665
 20
19.8213
 11
104.394
 21
20.3506
  0
LINE
  8
0
 10
104.394
 20
20.3506
 11
104.334
 21
20.4962
  0
LINE
  8
0
 10
104.334
 20
20.4962
 11
104.188
 21
20.9446
  0
LINE
  8
0
 10
104.188
 20
20.9446
 11
104.151
 21
21.098
  0
LINE
  8
0
 10
104.151
 20
21.098
 11
104.058
 21
21.6849
  0
LINE
  8
0
 10
104.058
 20
21.6849
 11
104.046
 21
21.841
  0
LINE
  8
0
 10
104.046
 20
21.841
 11
104.046
 21
22.3094
  0
LINE
  8
0
 10
104.046
 20
22.3094
 11
104.058
 21
22.4655
  0
LINE
  8
0
 10
104.058
 20
22.4655
 11
104.151
 21
23.0524
  0
LINE
  8
0
 10
104.151
 20
23.0524
 11
104.187
 21
23.2054
  0
LINE
  8
0
 10
104.187
 20
23.2054
 11
104.333
 21
23.6528
  0
LINE
  8
0
 10
104.333
 20
23.6528
 11
104.393
 21
23.7982
  0
LINE
  8
0
 10
104.393
 20
23.7982
 11
104.664
 21
24.3284
  0
LINE
  8
0
 10
104.664
 20
24.3284
 11
104.746
 21
24.462
  0
LINE
  8
0
 10
104.746
 20
24.462
 11
105.021
 21
24.841
  0
LINE
  8
0
 10
105.021
 20
24.841
 11
105.123
 21
24.9601
  0
LINE
  8
0
 10
105.123
 20
24.9601
 11
105.543
 21
25.3801
  0
LINE
  8
0
 10
105.543
 20
25.3801
 11
105.662
 21
25.4818
  0
LINE
  8
0
 10
105.662
 20
25.4818
 11
106.041
 21
25.7574
  0
LINE
  8
0
 10
106.041
 20
25.7574
 11
106.175
 21
25.8393
  0
LINE
  8
0
 10
106.175
 20
25.8393
 11
106.705
 21
26.1098
  0
LINE
  8
0
 10
106.705
 20
26.1098
 11
106.85
 21
26.17
  0
LINE
  8
0
 10
106.85
 20
26.17
 11
107.298
 21
26.3154
  0
LINE
  8
0
 10
107.298
 20
26.3154
 11
107.45
 21
26.3522
  0
LINE
  8
0
 10
107.45
 20
26.3522
 11
108.037
 21
26.4449
  0
LINE
  8
0
 10
108.037
 20
26.4449
 11
108.194
 21
26.4572
  0
LINE
  8
0
 10
108.194
 20
26.4572
 11
108.662
 21
26.4572
  0
LINE
  8
0
 10
108.662
 20
26.4572
 11
108.818
 21
26.4449
  0
LINE
  8
0
 10
108.818
 20
26.4449
 11
109.405
 21
26.3522
  0
LINE
  8
0
 10
109.405
 20
26.3522
 11
109.558
 21
26.3153
  0
LINE
  8
0
 10
109.558
 20
26.3153
 11
110.007
 21
26.1694
  0
LINE
  8
0
 10
110.007
 20
26.1694
 11
110.152
 21
26.1089
  0
LINE
  8
0
 10
110.152
 20
26.1089
 11
110.682
 21
25.8384
  0
LINE
  8
0
 10
110.682
 20
25.8384
 11
110.814
 21
25.757
  0
LINE
  8
0
 10
110.814
 20
25.757
 11
111.191
 21
25.4832
  0
LINE
  8
0
 10
111.191
 20
25.4832
 11
111.31
 21
25.3821
  0
LINE
  8
0
 10
111.31
 20
25.3821
 11
111.731
 21
24.9622
  0
LINE
  8
0
 10
111.731
 20
24.9622
 11
111.833
 21
24.8421
  0
LINE
  8
0
 10
111.833
 20
24.8421
 11
112.111
 21
24.4599
  0
LINE
  8
0
 10
112.111
 20
24.4599
 11
112.193
 21
24.3252
  0
LINE
  8
0
 10
112.193
 20
24.3252
 11
112.463
 21
23.7949
  0
LINE
  8
0
 10
112.463
 20
23.7949
 11
112.523
 21
23.6502
  0
LINE
  8
0
 10
112.523
 20
23.6502
 11
112.667
 21
23.2047
  0
LINE
  8
0
 10
112.667
 20
23.2047
 11
112.704
 21
23.0524
  0
LINE
  8
0
 10
112.704
 20
23.0524
 11
112.796
 21
22.4655
  0
LINE
  8
0
 10
112.796
 20
22.4655
 11
112.809
 21
22.3094
  0
LINE
  8
0
 10
112.809
 20
22.3094
 11
112.809
 21
21.841
  0
LINE
  8
0
 10
112.809
 20
21.841
 11
112.796
 21
21.6849
  0
LINE
  8
0
 10
112.796
 20
21.6849
 11
112.704
 21
21.098
  0
LINE
  8
0
 10
112.704
 20
21.098
 11
112.667
 21
20.9453
  0
LINE
  8
0
 10
112.667
 20
20.9453
 11
112.522
 21
20.4989
  0
LINE
  8
0
 10
112.522
 20
20.4989
 11
112.462
 21
20.3538
  0
LINE
  8
0
 10
112.462
 20
20.3538
 11
112.193
 21
19.8245
  0
LINE
  8
0
 10
112.193
 20
19.8245
 11
112.111
 21
19.6906
  0
LINE
  8
0
 10
112.111
 20
19.6906
 11
111.835
 21
19.3106
  0
LINE
  8
0
 10
111.835
 20
19.3106
 11
111.733
 21
19.1912
  0
LINE
  8
0
 10
111.733
 20
19.1912
 11
111.312
 21
18.7703
  0
LINE
  8
0
 10
111.312
 20
18.7703
 11
111.192
 21
18.6683
  0
LINE
  8
0
 10
111.192
 20
18.6683
 11
110.812
 21
18.3923
  0
LINE
  8
0
 10
110.812
 20
18.3923
 11
110.678
 21
18.3103
  0
LINE
  8
0
 10
110.678
 20
18.3103
 11
110.149
 21
18.0408
  0
LINE
  8
0
 10
110.149
 20
18.0408
 11
110.004
 21
17.9807
  0
LINE
  8
0
 10
110.004
 20
17.9807
 11
109.558
 21
17.8358
  0
LINE
  8
0
 10
109.558
 20
17.8358
 11
109.405
 21
17.7992
  0
LINE
  8
0
 10
109.405
 20
17.7992
 11
108.818
 21
17.7064
  0
LINE
  8
0
 10
108.818
 20
17.7064
 11
108.662
 21
17.6942
  0
LINE
  8
0
 10
108.662
 20
17.6942
 11
108.194
 21
17.6942
  0
ENDSEC
  0
SECTION
  2
OBJECTS
  0
DICTIONARY
  0
ENDSEC
  0
EOF
