<?xml version="1.0" encoding="UTF-8" standalone="no"?>
<svg
   xmlns:dc="http://purl.org/dc/elements/1.1/"
   xmlns:cc="http://creativecommons.org/ns#"
   xmlns:rdf="http://www.w3.org/1999/02/22-rdf-syntax-ns#"
   xmlns:svg="http://www.w3.org/2000/svg"
   xmlns="http://www.w3.org/2000/svg"
   xmlns:sodipodi="http://sodipodi.sourceforge.net/DTD/sodipodi-0.dtd"
   xmlns:inkscape="http://www.inkscape.org/namespaces/inkscape"
   width="136.38063mm"
   height="91.750145mm"
   viewBox="0 0 136.38064 91.750146"
   version="1.1"
   id="svg8"
   inkscape:version="1.0.1 (3bc2e813f5, 2020-09-07)"
   sodipodi:docname="mount_holes_standoffs.svg">
  <defs
     id="defs2" />
  <sodipodi:namedview
     id="base"
     pagecolor="#ffffff"
     bordercolor="#666666"
     borderopacity="1.0"
     inkscape:pageopacity="0.0"
     inkscape:pageshadow="2"
     inkscape:zoom="1.979899"
     inkscape:cx="255.46969"
     inkscape:cy="189.41349"
     inkscape:document-units="mm"
     inkscape:current-layer="layer1"
     inkscape:document-rotation="0"
     showgrid="false"
     inkscape:window-width="1920"
     inkscape:window-height="2082"
     inkscape:window-x="2560"
     inkscape:window-y="48"
     inkscape:window-maximized="0"
     inkscape:snap-object-midpoints="true" />
  <metadata
     id="metadata5">
    <rdf:RDF>
      <cc:Work
         rdf:about="">
        <dc:format>image/svg+xml</dc:format>
        <dc:type
           rdf:resource="http://purl.org/dc/dcmitype/StillImage" />
        <dc:title></dc:title>
      </cc:Work>
    </rdf:RDF>
  </metadata>
  <g
     inkscape:label="Layer 1"
     inkscape:groupmode="layer"
     id="layer1"
     transform="translate(-176.69137,-136.31627)">
    <path
       id="path674-3"
       style="fill:none;stroke:#000000;stroke-width:0.35269;stroke-linecap:butt;stroke-linejoin:miter;stroke-miterlimit:4;stroke-dasharray:none;stroke-opacity:1"
       d="m 196.69835,180.99078 c 0,0.73437 -0.59536,1.32972 -1.32972,1.32972 -0.73438,0 -1.32972,-0.59535 -1.32972,-1.32972 0,-0.7348 0.59534,-1.32972 1.32972,-1.32972 0.73436,0 1.32972,0.59492 1.32972,1.32972 z" />
    <path
       id="path674"
       style="fill:none;stroke:#000000;stroke-width:0.35269;stroke-linecap:butt;stroke-linejoin:miter;stroke-miterlimit:4;stroke-dasharray:none;stroke-opacity:1"
       d="m 196.69843,162.2409 c 0,0.73437 -0.59536,1.32972 -1.32972,1.32972 -0.73438,0 -1.32972,-0.59535 -1.32972,-1.32972 0,-0.7348 0.59534,-1.32972 1.32972,-1.32972 0.73436,0 1.32972,0.59492 1.32972,1.32972 z" />
    <path
       id="path674-6"
       style="fill:none;stroke:#000000;stroke-width:0.35269;stroke-linecap:butt;stroke-linejoin:miter;stroke-miterlimit:4;stroke-dasharray:none;stroke-opacity:1"
       d="m 239.94844,198.24087 c 0,0.73437 -0.59536,1.32972 -1.32972,1.32972 -0.73438,0 -1.32972,-0.59535 -1.32972,-1.32972 0,-0.7348 0.59534,-1.32972 1.32972,-1.32972 0.73436,0 1.32972,0.59492 1.32972,1.32972 z" />
    <path
       id="path674-7"
       style="fill:none;stroke:#000000;stroke-width:0.35269;stroke-linecap:butt;stroke-linejoin:miter;stroke-miterlimit:4;stroke-dasharray:none;stroke-opacity:1"
       d="m 286.44826,205.9908 c 0,0.73437 -0.59536,1.32972 -1.32972,1.32972 -0.73438,0 -1.32972,-0.59535 -1.32972,-1.32972 0,-0.7348 0.59534,-1.32972 1.32972,-1.32972 0.73436,0 1.32972,0.59492 1.32972,1.32972 z" />
    <path
       id="path674-5"
       style="fill:none;stroke:#000000;stroke-width:0.35269;stroke-linecap:butt;stroke-linejoin:miter;stroke-miterlimit:4;stroke-dasharray:none;stroke-opacity:1"
       d="m 272.69822,158.49083 c 0,0.73437 -0.59536,1.32972 -1.32972,1.32972 -0.73438,0 -1.32972,-0.59535 -1.32972,-1.32972 0,-0.7348 0.59534,-1.32972 1.32972,-1.32972 0.73436,0 1.32972,0.59492 1.32972,1.32972 z" />
  </g>
</svg>
