<?xml version="1.0" encoding="UTF-8" standalone="no"?>
<svg
   xmlns:dc="http://purl.org/dc/elements/1.1/"
   xmlns:cc="http://creativecommons.org/ns#"
   xmlns:rdf="http://www.w3.org/1999/02/22-rdf-syntax-ns#"
   xmlns:svg="http://www.w3.org/2000/svg"
   xmlns="http://www.w3.org/2000/svg"
   xmlns:sodipodi="http://sodipodi.sourceforge.net/DTD/sodipodi-0.dtd"
   xmlns:inkscape="http://www.inkscape.org/namespaces/inkscape"
   inkscape:version="1.0.1 (3bc2e813f5, 2020-09-07)"
   sodipodi:docname="pcb_footprint_offset.svg"
   id="svg8"
   version="1.1"
   viewBox="0 0 134.10366 91.750306"
   height="91.750305mm"
   width="134.10365mm">
  <sodipodi:namedview
     pagecolor="#ffffff"
     bordercolor="#666666"
     borderopacity="1"
     objecttolerance="10"
     gridtolerance="10"
     guidetolerance="10"
     inkscape:pageopacity="0"
     inkscape:pageshadow="2"
     inkscape:window-width="2088"
     inkscape:window-height="1629"
     id="namedview7"
     showgrid="false"
     inkscape:zoom="0.95913587"
     inkscape:cx="177.34739"
     inkscape:cy="247.77865"
     inkscape:window-x="2895"
     inkscape:window-y="159"
     inkscape:window-maximized="0"
     inkscape:current-layer="svg8"
     inkscape:document-rotation="0" />
  <defs
     id="defs2" />
  <metadata
     id="metadata5">
    <rdf:RDF>
      <cc:Work
         rdf:about="">
        <dc:format>image/svg+xml</dc:format>
        <dc:type
           rdf:resource="http://purl.org/dc/dcmitype/StillImage" />
        <dc:title />
      </cc:Work>
    </rdf:RDF>
  </metadata>
  <path
     style="color:#000000;font-style:normal;font-variant:normal;font-weight:normal;font-stretch:normal;font-size:medium;line-height:normal;font-family:sans-serif;font-variant-ligatures:normal;font-variant-position:normal;font-variant-caps:normal;font-variant-numeric:normal;font-variant-alternates:normal;font-variant-east-asian:normal;font-feature-settings:normal;font-variation-settings:normal;text-indent:0;text-align:start;text-decoration:none;text-decoration-line:none;text-decoration-style:solid;text-decoration-color:#000000;letter-spacing:normal;word-spacing:normal;text-transform:none;writing-mode:lr-tb;direction:ltr;text-orientation:mixed;dominant-baseline:auto;baseline-shift:baseline;text-anchor:start;white-space:normal;shape-padding:0;shape-margin:0;inline-size:0;clip-rule:nonzero;display:inline;overflow:visible;visibility:visible;opacity:1;isolation:auto;mix-blend-mode:normal;color-interpolation:sRGB;color-interpolation-filters:linearRGB;solid-color:#000000;solid-opacity:1;vector-effect:none;fill:none;fill-opacity:1;fill-rule:nonzero;stroke:#000000;stroke-width:0.352691;stroke-linecap:round;stroke-linejoin:round;stroke-miterlimit:4;stroke-dasharray:none;stroke-dashoffset:0;stroke-opacity:1;color-rendering:auto;image-rendering:auto;shape-rendering:auto;text-rendering:auto;enable-background:accumulate;stop-color:#000000;stop-opacity:1"
     d="m 57.67374,-1.19141 -0.37152,0.039251 -0.347551,0.1105004 -0.592734,0.40290537 -0.403479,0.5923974 -0.110357,0.34736419 -0.03945,0.37086017 v 0.003908 0.38281277 h -17.131015 -0.0059 l -0.370272,0.039706 -0.347002,0.1108124 -0.591985,0.4032794 -0.402679,0.5926896 -0.110358,0.3475738 -0.03905,0.3711696 v 0.00195 2.8828089 H 0.6757824 0.67382993 L 0.30240984,5.8478565 -0.04530587,5.9583994 -0.63801488,6.3613943 -1.0411117,6.9537845 -1.1518062,7.3010838 -1.1914,7.6718391 v 0.00389 55.2499359 0.006 l 0.039554,0.370307 0.1107744,0.34685 0.40353835,0.592889 0.59340096,0.402745 0.34810022,0.109795 0.37181457,0.03843 H 55.2284 l 10.240268,14.043189 0.132828,0.156207 0.609213,0.408734 0.720569,0.142234 -0.181266,-0.01 36.669618,4.769564 0.0409,0.004 0.28912,0.05839 14.11127,8.156218 -0.0799,-0.0509 0.48787,0.261011 0.51734,0.153712 0.53131,0.04941 0.52782,-0.0519 0.50884,-0.14922 0.47389,-0.244542 0.42245,-0.335871 0.35454,-0.424704 0.0524,-0.08783 0.004,-0.006 13.22292,-22.925548 0.002,-0.004 0.3096,-0.75808 0.0984,-0.813975 V 7.6777281 l -0.038,-0.3719032 -0.11035,-0.3481477 -0.40348,-0.5934881 -0.59323,-0.403494 -0.34756,-0.1106926 -0.37052,-0.039476 h -0.004 -18.8846 V 5.4316363 l -0.0375,-0.3727516 -0.10936,-0.3490461 -0.40298,-0.5952497 -0.59323,-0.4049813 -0.34755,-0.1112366 -0.37103,-0.03979 h -0.004 -17.134361 V 2.9296789 L 95.504858,2.5568973 95.395,2.208001 94.992021,1.6134649 94.398787,1.2092622 94.051736,1.0982851 93.681214,1.0585895 h -0.0055 -17.130865 V 0.67772805 0.67577671 L 76.505907,0.30422284 76.395549,-0.04378514 75.992071,-0.63730664 75.399337,-1.0410792 75.051786,-1.151904 74.681264,-1.191405 h -0.004 -17.001533 l -0.002,-5e-6"
     id="path914"
     sodipodi:nodetypes="ssccccsccccccccccccccccccccccccccscccscccscccssccs" />
</svg>
