<?xml version="1.0" encoding="UTF-8" standalone="no"?>
<svg
   xmlns:dc="http://purl.org/dc/elements/1.1/"
   xmlns:cc="http://creativecommons.org/ns#"
   xmlns:rdf="http://www.w3.org/1999/02/22-rdf-syntax-ns#"
   xmlns:svg="http://www.w3.org/2000/svg"
   xmlns="http://www.w3.org/2000/svg"
   xmlns:sodipodi="http://sodipodi.sourceforge.net/DTD/sodipodi-0.dtd"
   xmlns:inkscape="http://www.inkscape.org/namespaces/inkscape"
   width="134.10365mm"
   height="91.750305mm"
   viewBox="0 0 134.10366 91.750306"
   version="1.1"
   id="svg8"
   sodipodi:docname="pcb_footprint.svg"
   inkscape:version="1.0.1 (3bc2e813f5, 2020-09-07)">
  <sodipodi:namedview
     pagecolor="#ffffff"
     bordercolor="#666666"
     borderopacity="1"
     objecttolerance="10"
     gridtolerance="10"
     guidetolerance="10"
     inkscape:pageopacity="0"
     inkscape:pageshadow="2"
     inkscape:window-width="2088"
     inkscape:window-height="1629"
     id="namedview7"
     showgrid="false"
     inkscape:zoom="43.405534"
     inkscape:cx="8.3723311"
     inkscape:cy="38.066794"
     inkscape:window-x="2895"
     inkscape:window-y="159"
     inkscape:window-maximized="0"
     inkscape:current-layer="svg8" />
  <defs
     id="defs2" />
  <metadata
     id="metadata5">
    <rdf:RDF>
      <cc:Work
         rdf:about="">
        <dc:format>image/svg+xml</dc:format>
        <dc:type
           rdf:resource="http://purl.org/dc/dcmitype/StillImage" />
        <dc:title />
      </cc:Work>
    </rdf:RDF>
  </metadata>
  <path
     id="path158"
     style="fill:none;stroke:#000000;stroke-width:0.35269;stroke-linecap:round;stroke-linejoin:round;stroke-miterlimit:4;stroke-dasharray:none;stroke-opacity:1"
     d="m 120.47156,90.963745 c 7.9e-4,-0.0019 0.002,-0.0032 0.002,-0.0055 l 13.22707,-22.932497 c 0.15242,-0.265977 0.23073,-0.567248 0.22652,-0.874413 l -7e-5,-59.4745244 c 2.6e-4,-0.275343 -0.2234,-0.499357 -0.50015,-0.500221 h -19.7506 l 0.001,7.14e-4 c -0.27623,0 -0.49989,-0.224014 -0.501,-0.500909 v -1.250073 c 0.001,-0.275025 -0.22255,-0.499039 -0.49886,-0.500062 l -18.000563,1.8e-5 c -0.275412,0.0011 -0.499427,-0.222973 -0.500202,-0.500239 V 2.9265566 C 94.177498,2.651196 93.953468,2.427535 93.676555,2.426494 H 75.677407 l -8.7e-5,7.07e-4 c -0.276225,0 -0.499885,-0.224014 -0.50024,-0.500733 V 0.67658401 c 2.65e-4,-0.27536 -0.223308,-0.499374 -0.500131,-0.500239 H 57.67671 c -0.275696,7.06e-4 -0.499356,0.224879 -0.500222,0.500239 l -8.7e-5,1.24987399 c 7.94e-4,0.277072 -0.222885,0.501086 -0.500152,0.500045 H 38.677086 c -0.275977,0.0011 -0.49964,0.224702 -0.50015,0.5000626 l 1.8e-5,3.749834 c 1.75e-4,0.277248 -0.223485,0.500909 -0.500311,0.500044 H 0.67662001 c -0.27552,7.15e-4 -0.499181,0.224879 -0.500204,0.500222 l -7.1e-5,55.2499944 c 9.53e-4,0.276807 0.224967,0.500467 0.500081,0.500115 H 55.677076 c 0.132821,2.65e-4 0.259821,0.05292 0.353306,0.145714 l 10.543242,14.457258 c 0.09396,0.09495 0.220961,0.147513 0.353253,0.147002 l 36.670313,4.770366 c 0.22238,0.02233 0.4418,0.06572 0.65497,0.129593 l 14.29323,8.26047 c 0.63606,0.429135 1.4979,0.261212 1.92617,-0.373433 z"
     sodipodi:nodetypes="cccccccsccccccccsccccccccccccccccccccccc" />
</svg>
