<?xml version="1.0" encoding="UTF-8" standalone="no"?>
<svg
   xmlns:dc="http://purl.org/dc/elements/1.1/"
   xmlns:cc="http://creativecommons.org/ns#"
   xmlns:rdf="http://www.w3.org/1999/02/22-rdf-syntax-ns#"
   xmlns:svg="http://www.w3.org/2000/svg"
   xmlns="http://www.w3.org/2000/svg"
   xmlns:sodipodi="http://sodipodi.sourceforge.net/DTD/sodipodi-0.dtd"
   xmlns:inkscape="http://www.inkscape.org/namespaces/inkscape"
   width="136.38063mm"
   height="91.750145mm"
   viewBox="0 0 136.38064 91.750146"
   version="1.1"
   id="svg8"
   inkscape:version="1.0.1 (3bc2e813f5, 2020-09-07)"
   sodipodi:docname="mount_holes.svg">
  <defs
     id="defs2" />
  <sodipodi:namedview
     id="base"
     pagecolor="#ffffff"
     bordercolor="#666666"
     borderopacity="1.0"
     inkscape:pageopacity="0.0"
     inkscape:pageshadow="2"
     inkscape:zoom="1.4"
     inkscape:cx="174.13393"
     inkscape:cy="-15.372559"
     inkscape:document-units="mm"
     inkscape:current-layer="layer1"
     inkscape:document-rotation="0"
     showgrid="false"
     inkscape:window-width="1920"
     inkscape:window-height="2082"
     inkscape:window-x="2560"
     inkscape:window-y="48"
     inkscape:window-maximized="0" />
  <metadata
     id="metadata5">
    <rdf:RDF>
      <cc:Work
         rdf:about="">
        <dc:format>image/svg+xml</dc:format>
        <dc:type
           rdf:resource="http://purl.org/dc/dcmitype/StillImage" />
        <dc:title></dc:title>
      </cc:Work>
    </rdf:RDF>
  </metadata>
  <g
     inkscape:label="Layer 1"
     inkscape:groupmode="layer"
     id="layer1"
     transform="translate(-176.69137,-136.31627)">
    <path
       id="path674"
       style="fill:none;stroke:#000000;stroke-width:0.35269;stroke-linecap:butt;stroke-linejoin:miter;stroke-miterlimit:4;stroke-dasharray:none;stroke-opacity:1"
       d="m 196.46866,162.24089 c 0,0.60749 -0.49248,1.09996 -1.09996,1.09996 -0.60748,0 -1.09996,-0.49247 -1.09996,-1.09996 0,-0.60783 0.49248,-1.09996 1.09996,-1.09996 0.60748,0 1.09996,0.49213 1.09996,1.09996 z" />
    <path
       id="path678"
       style="fill:none;stroke:#000000;stroke-width:0.35269;stroke-linecap:butt;stroke-linejoin:miter;stroke-miterlimit:4;stroke-dasharray:none;stroke-opacity:1"
       d="m 195.36863,179.89082 c 0.60748,0 1.09996,0.49248 1.09996,1.09997 0,0.60748 -0.49248,1.09996 -1.09996,1.09996 -0.60748,0 -1.09996,-0.49248 -1.09996,-1.09996 0,-0.60749 0.49248,-1.09997 1.09996,-1.09997 z" />
    <path
       id="path682"
       style="fill:none;stroke:#000000;stroke-width:0.35269;stroke-linecap:butt;stroke-linejoin:miter;stroke-miterlimit:4;stroke-dasharray:none;stroke-opacity:1"
       d="m 271.3685,157.39087 c 0.60783,0 1.09996,0.49248 1.09996,1.09996 0,0.60784 -0.49213,1.09996 -1.09996,1.09996 -0.60749,0 -1.09996,-0.49212 -1.09996,-1.09996 0,-0.60748 0.49247,-1.09996 1.09996,-1.09996 z" />
    <path
       id="path686"
       style="fill:none;stroke:#000000;stroke-width:0.35269;stroke-linecap:butt;stroke-linejoin:miter;stroke-miterlimit:4;stroke-dasharray:none;stroke-opacity:1"
       d="m 238.61872,197.14109 c 0.60749,0 1.09997,0.49248 1.09997,1.09996 0,0.60749 -0.49248,1.09961 -1.09997,1.09961 -0.60783,0 -1.09996,-0.49212 -1.09996,-1.09961 0,-0.60748 0.49213,-1.09996 1.09996,-1.09996 z" />
    <path
       id="path690"
       style="fill:none;stroke:#000000;stroke-width:0.35269;stroke-linecap:butt;stroke-linejoin:miter;stroke-miterlimit:4;stroke-dasharray:none;stroke-opacity:1"
       d="m 285.11854,204.89084 c 0.60783,0 1.09996,0.49248 1.09996,1.09996 0,0.60784 -0.49213,1.09997 -1.09996,1.09997 -0.60748,0 -1.09996,-0.49213 -1.09996,-1.09997 0,-0.60748 0.49248,-1.09996 1.09996,-1.09996 z" />
  </g>
</svg>
