<?xml version="1.0" encoding="UTF-8" standalone="no"?>
<svg
   xmlns:dc="http://purl.org/dc/elements/1.1/"
   xmlns:cc="http://creativecommons.org/ns#"
   xmlns:rdf="http://www.w3.org/1999/02/22-rdf-syntax-ns#"
   xmlns:svg="http://www.w3.org/2000/svg"
   xmlns="http://www.w3.org/2000/svg"
   xmlns:sodipodi="http://sodipodi.sourceforge.net/DTD/sodipodi-0.dtd"
   xmlns:inkscape="http://www.inkscape.org/namespaces/inkscape"
   width="136.38063mm"
   height="91.749649mm"
   viewBox="0 0 136.38064 91.74965"
   version="1.1"
   id="svg8"
   inkscape:version="1.0.1 (3bc2e813f5, 2020-09-07)"
   sodipodi:docname="oled_cover.svg">
  <defs
     id="defs2" />
  <sodipodi:namedview
     id="base"
     pagecolor="#ffffff"
     bordercolor="#666666"
     borderopacity="1.0"
     inkscape:pageopacity="0.0"
     inkscape:pageshadow="2"
     inkscape:zoom="1.4"
     inkscape:cx="187.25078"
     inkscape:cy="289.28286"
     inkscape:document-units="mm"
     inkscape:current-layer="layer1"
     inkscape:document-rotation="0"
     showgrid="false"
     inkscape:window-width="1920"
     inkscape:window-height="2082"
     inkscape:window-x="2560"
     inkscape:window-y="48"
     inkscape:window-maximized="0" />
  <metadata
     id="metadata5">
    <rdf:RDF>
      <cc:Work
         rdf:about="">
        <dc:format>image/svg+xml</dc:format>
        <dc:type
           rdf:resource="http://purl.org/dc/dcmitype/StillImage" />
        <dc:title></dc:title>
      </cc:Work>
    </rdf:RDF>
  </metadata>
  <g
     inkscape:label="Layer 1"
     inkscape:groupmode="layer"
     id="layer1"
     transform="translate(-173.22088,-55.709529)">
    <path
       id="path214"
       style="fill:none;stroke:#000000;stroke-width:0.35269;stroke-linecap:butt;stroke-linejoin:miter;stroke-miterlimit:4;stroke-dasharray:none;stroke-opacity:1"
       d="m 309.42517,61.822277 v 58.753373 c 0,0.38488 -0.41663,0.62513 -0.75,0.43286 l -18.7191,-10.80311 c -0.15451,-0.0889 -0.24976,-0.254 -0.24976,-0.43286 V 61.824746 c 0,-0.276225 0.22366,-0.500238 0.49988,-0.500238 l 18.71874,-0.0025 c 0.27623,0 0.50024,0.224014 0.50024,0.500239 z" />
    <path
       id="path666"
       style="fill:none;stroke:#000000;stroke-width:0.35269;stroke-linecap:butt;stroke-linejoin:miter;stroke-miterlimit:4;stroke-dasharray:none;stroke-opacity:1"
       d="m 293.45474,108.80649 c 0,0.60784 -0.49247,1.09996 -1.09996,1.09996 -0.60783,0 -1.09996,-0.49212 -1.09996,-1.09996 0,-0.60748 0.49213,-1.09996 1.09996,-1.09996 0.60749,0 1.09996,0.49248 1.09996,1.09996 z" />
    <path
       id="path670"
       style="fill:none;stroke:#000000;stroke-width:0.35269;stroke-linecap:butt;stroke-linejoin:miter;stroke-miterlimit:4;stroke-dasharray:none;stroke-opacity:1"
       d="m 307.8866,117.32759 c 0,0.60749 -0.49248,1.09996 -1.09996,1.09996 -0.60748,0 -1.09996,-0.49247 -1.09996,-1.09996 0,-0.60783 0.49248,-1.09996 1.09996,-1.09996 0.60748,0 1.09996,0.49213 1.09996,1.09996 z" />
  </g>
</svg>
