<?xml version="1.0" encoding="UTF-8" standalone="no"?>
<svg
   xmlns:dc="http://purl.org/dc/elements/1.1/"
   xmlns:cc="http://creativecommons.org/ns#"
   xmlns:rdf="http://www.w3.org/1999/02/22-rdf-syntax-ns#"
   xmlns:svg="http://www.w3.org/2000/svg"
   xmlns="http://www.w3.org/2000/svg"
   xmlns:sodipodi="http://sodipodi.sourceforge.net/DTD/sodipodi-0.dtd"
   xmlns:inkscape="http://www.inkscape.org/namespaces/inkscape"
   width="136.38063mm"
   height="91.749641mm"
   viewBox="0 0 136.38064 91.749642"
   version="1.1"
   id="svg8"
   inkscape:version="1.0.1 (3bc2e813f5, 2020-09-07)"
   sodipodi:docname="plate.svg">
  <defs
     id="defs2" />
  <sodipodi:namedview
     id="base"
     pagecolor="#ffffff"
     bordercolor="#666666"
     borderopacity="1.0"
     inkscape:pageopacity="0.0"
     inkscape:pageshadow="2"
     inkscape:zoom="1.4"
     inkscape:cx="10.952164"
     inkscape:cy="218.04056"
     inkscape:document-units="mm"
     inkscape:current-layer="layer1"
     inkscape:document-rotation="0"
     showgrid="false"
     inkscape:window-width="1920"
     inkscape:window-height="2082"
     inkscape:window-x="2560"
     inkscape:window-y="48"
     inkscape:window-maximized="0" />
  <metadata
     id="metadata5">
    <rdf:RDF>
      <cc:Work
         rdf:about="">
        <dc:format>image/svg+xml</dc:format>
        <dc:type
           rdf:resource="http://purl.org/dc/dcmitype/StillImage" />
        <dc:title></dc:title>
      </cc:Work>
    </rdf:RDF>
  </metadata>
  <g
     inkscape:label="Layer 1"
     inkscape:groupmode="layer"
     id="layer1"
     transform="translate(-219.86656,-74.559053)">
    <path
       id="path346"
       style="fill:none;stroke:#000000;stroke-width:0.35269;stroke-linecap:butt;stroke-linejoin:miter;stroke-miterlimit:4;stroke-dasharray:none;stroke-opacity:1"
       d="m 352.31895,142.13645 c 0.635,0.42791 0.80292,1.28975 0.37476,1.92482 l -12.35382,21.45586 c 0,0.002 -0.001,0.004 -0.002,0.005 -0.42791,0.63465 -1.28975,0.80257 -1.92572,0.37343 l -14.29343,-8.26047 c -0.21309,-0.0642 -0.43252,-0.10726 -0.65488,-0.12959 l -36.67029,-4.77021 c -0.13229,2.7e-4 -0.25929,-0.0521 -0.35326,-0.147 l -10.54326,-14.45727 c -0.0935,-0.0928 -0.2205,-0.14538 -0.3533,-0.14572 h -55.00056 c -0.2754,3.4e-4 -0.49941,-0.22332 -0.50028,-0.50029 V 82.235524 c 0.001,-0.275185 0.22488,-0.499199 0.50038,-0.500045 h 36.99992 c 0.27682,7.14e-4 0.50049,-0.222815 0.50033,-0.500045 l -9e-5,-3.749816 c 2.6e-4,-0.275361 0.22444,-0.499022 0.50006,-0.500062 h 17.99916 c 0.27727,0.0011 0.50128,-0.222974 0.5004,-0.500222 l -2e-5,-1.249874 c 8e-4,-0.275184 0.22453,-0.499198 0.50015,-0.500062 h 17.0001 c 0.27691,7.05e-4 0.50057,0.224878 0.50022,0.500045 v 1.249874 c 2.7e-4,0.276913 0.53537,0.774908 0.50024,0.500926 l -9e-5,-7.06e-4 h 17.99932 c 0.27692,0.0011 0.50093,0.224702 0.50006,0.500062 v 1.499465 c 8e-4,0.277248 0.22488,0.501262 0.5003,0.500239 h 18.00038 c 0.27622,0.0011 0.50024,0.225037 0.49884,0.500045 l -0.002,50.560712 c 0.009,0.26498 0.13952,0.51052 0.35278,0.66537 l 18.92055,10.9205 c 0.003,0.002 0.004,0.004 0.006,0.005 z"
       sodipodi:nodetypes="ccccccccccccccccccccccccccsccccccccccc" />
    <path
       id="path674"
       style="fill:none;stroke:#000000;stroke-width:0.35269;stroke-linecap:butt;stroke-linejoin:miter;stroke-miterlimit:4;stroke-dasharray:none;stroke-opacity:1"
       d="m 239.64385,100.48316 c 0,0.60749 -0.49248,1.09996 -1.09996,1.09996 -0.60748,0 -1.09996,-0.49247 -1.09996,-1.09996 0,-0.607827 0.49248,-1.099957 1.09996,-1.099957 0.60748,0 1.09996,0.49213 1.09996,1.099957 z" />
    <path
       id="path678"
       style="fill:none;stroke:#000000;stroke-width:0.35269;stroke-linecap:butt;stroke-linejoin:miter;stroke-miterlimit:4;stroke-dasharray:none;stroke-opacity:1"
       d="m 238.54382,118.13309 c 0.60748,0 1.09996,0.49248 1.09996,1.09996 0,0.60749 -0.49248,1.09996 -1.09996,1.09996 -0.60748,0 -1.09996,-0.49247 -1.09996,-1.09996 0,-0.60748 0.49248,-1.09996 1.09996,-1.09996 z" />
    <path
       id="path682"
       style="fill:none;stroke:#000000;stroke-width:0.35269;stroke-linecap:butt;stroke-linejoin:miter;stroke-miterlimit:4;stroke-dasharray:none;stroke-opacity:1"
       d="m 314.54369,95.633143 c 0.60783,0 1.09996,0.49248 1.09996,1.09996 0,0.60784 -0.49213,1.09996 -1.09996,1.09996 -0.60749,0 -1.09996,-0.49212 -1.09996,-1.09996 0,-0.60748 0.49247,-1.09996 1.09996,-1.09996 z" />
    <path
       id="path686"
       style="fill:none;stroke:#000000;stroke-width:0.35269;stroke-linecap:butt;stroke-linejoin:miter;stroke-miterlimit:4;stroke-dasharray:none;stroke-opacity:1"
       d="m 281.79391,135.38336 c 0.60749,0 1.09997,0.49248 1.09997,1.09996 0,0.60748 -0.49248,1.09961 -1.09997,1.09961 -0.60783,0 -1.09996,-0.49213 -1.09996,-1.09961 0,-0.60748 0.49213,-1.09996 1.09996,-1.09996 z" />
    <path
       id="path690"
       style="fill:none;stroke:#000000;stroke-width:0.35269;stroke-linecap:butt;stroke-linejoin:miter;stroke-miterlimit:4;stroke-dasharray:none;stroke-opacity:1"
       d="m 328.29373,143.13311 c 0.60783,0 1.09996,0.49248 1.09996,1.09996 0,0.60784 -0.49213,1.09997 -1.09996,1.09997 -0.60748,0 -1.09996,-0.49213 -1.09996,-1.09997 0,-0.60748 0.49248,-1.09996 1.09996,-1.09996 z" />
    <path
       id="path692"
       style="fill:none;stroke:#000000;stroke-width:0.35269;stroke-linecap:butt;stroke-linejoin:miter;stroke-miterlimit:4;stroke-dasharray:none;stroke-opacity:1"
       d="m 236.05257,97.857833 h -13.99998 v -13.99999 h 13.99998 z" />
    <path
       id="path694"
       style="fill:none;stroke:#000000;stroke-width:0.35269;stroke-linecap:butt;stroke-linejoin:miter;stroke-miterlimit:4;stroke-dasharray:none;stroke-opacity:1"
       d="m 236.05257,116.85773 h -13.99998 v -13.99998 h 13.99998 z" />
    <path
       id="path696"
       style="fill:none;stroke:#000000;stroke-width:0.35269;stroke-linecap:butt;stroke-linejoin:miter;stroke-miterlimit:4;stroke-dasharray:none;stroke-opacity:1"
       d="m 236.05257,135.85763 h -13.99998 v -13.99998 h 13.99998 z" />
    <path
       id="path698"
       style="fill:none;stroke:#000000;stroke-width:0.35269;stroke-linecap:butt;stroke-linejoin:miter;stroke-miterlimit:4;stroke-dasharray:none;stroke-opacity:1"
       d="M 255.05072,97.857123 H 241.05073 V 83.857137 h 13.99999 z" />
    <path
       id="path700"
       style="fill:none;stroke:#000000;stroke-width:0.35269;stroke-linecap:butt;stroke-linejoin:miter;stroke-miterlimit:4;stroke-dasharray:none;stroke-opacity:1"
       d="m 255.05072,116.85702 h -13.99999 v -13.99998 h 13.99999 z" />
    <path
       id="path702"
       style="fill:none;stroke:#000000;stroke-width:0.35269;stroke-linecap:butt;stroke-linejoin:miter;stroke-miterlimit:4;stroke-dasharray:none;stroke-opacity:1"
       d="m 255.05072,135.85693 h -13.99999 v -13.99998 h 13.99999 z" />
    <path
       id="path704"
       style="fill:none;stroke:#000000;stroke-width:0.35269;stroke-linecap:butt;stroke-linejoin:miter;stroke-miterlimit:4;stroke-dasharray:none;stroke-opacity:1"
       d="M 274.05097,93.112263 H 260.05099 V 79.111924 h 13.99998 z" />
    <path
       id="path706"
       style="fill:none;stroke:#000000;stroke-width:0.35269;stroke-linecap:butt;stroke-linejoin:miter;stroke-miterlimit:4;stroke-dasharray:none;stroke-opacity:1"
       d="M 274.05097,112.11252 H 260.05099 V 98.112183 h 13.99998 z" />
    <path
       id="path708"
       style="fill:none;stroke:#000000;stroke-width:0.35269;stroke-linecap:butt;stroke-linejoin:miter;stroke-miterlimit:4;stroke-dasharray:none;stroke-opacity:1"
       d="m 274.05097,131.11207 h -13.99998 v -13.99999 h 13.99998 z" />
    <path
       id="path710"
       style="fill:none;stroke:#000000;stroke-width:0.35269;stroke-linecap:butt;stroke-linejoin:miter;stroke-miterlimit:4;stroke-dasharray:none;stroke-opacity:1"
       d="m 293.05299,90.733483 h -13.99998 v -14.00034 h 13.99998 z" />
    <path
       id="path712"
       style="fill:none;stroke:#000000;stroke-width:0.35269;stroke-linecap:butt;stroke-linejoin:miter;stroke-miterlimit:4;stroke-dasharray:none;stroke-opacity:1"
       d="M 293.05299,109.73338 H 279.05301 V 95.733403 h 13.99998 z" />
    <path
       id="path714"
       style="fill:none;stroke:#000000;stroke-width:0.35269;stroke-linecap:butt;stroke-linejoin:miter;stroke-miterlimit:4;stroke-dasharray:none;stroke-opacity:1"
       d="M 293.05299,128.73329 H 279.05301 V 114.7333 h 13.99998 z" />
    <path
       id="path716"
       style="fill:none;stroke:#000000;stroke-width:0.35269;stroke-linecap:butt;stroke-linejoin:miter;stroke-miterlimit:4;stroke-dasharray:none;stroke-opacity:1"
       d="m 312.05431,93.108033 h -14.00034 v -13.99999 h 14.00034 z" />
    <path
       id="path718"
       style="fill:none;stroke:#000000;stroke-width:0.35269;stroke-linecap:butt;stroke-linejoin:miter;stroke-miterlimit:4;stroke-dasharray:none;stroke-opacity:1"
       d="M 312.05431,112.10793 H 298.05397 V 98.107953 h 14.00034 z" />
    <path
       id="path720"
       style="fill:none;stroke:#000000;stroke-width:0.35269;stroke-linecap:butt;stroke-linejoin:miter;stroke-miterlimit:4;stroke-dasharray:none;stroke-opacity:1"
       d="m 312.05431,131.10783 h -14.00034 v -13.99998 h 14.00034 z" />
    <path
       id="path722"
       style="fill:none;stroke:#000000;stroke-width:0.35269;stroke-linecap:butt;stroke-linejoin:miter;stroke-miterlimit:4;stroke-dasharray:none;stroke-opacity:1"
       d="M 331.05598,95.492803 H 317.05564 V 81.492468 h 14.00034 z" />
    <path
       id="path724"
       style="fill:none;stroke:#000000;stroke-width:0.35269;stroke-linecap:butt;stroke-linejoin:miter;stroke-miterlimit:4;stroke-dasharray:none;stroke-opacity:1"
       d="m 331.05598,114.49306 h -14.00034 v -14.00034 h 14.00034 z" />
    <path
       id="path726"
       style="fill:none;stroke:#000000;stroke-width:0.35269;stroke-linecap:butt;stroke-linejoin:miter;stroke-miterlimit:4;stroke-dasharray:none;stroke-opacity:1"
       d="m 331.05598,133.49261 h -14.00034 v -13.99998 h 14.00034 z" />
    <path
       id="path728"
       style="fill:none;stroke:#000000;stroke-width:0.35269;stroke-linecap:butt;stroke-linejoin:miter;stroke-miterlimit:4;stroke-dasharray:none;stroke-opacity:1"
       d="M 302.5727,150.76602 H 288.57236 V 136.76568 H 302.5727 Z" />
    <path
       id="path732"
       style="fill:none;stroke:#000000;stroke-width:0.35269;stroke-linecap:butt;stroke-linejoin:miter;stroke-miterlimit:4;stroke-dasharray:none;stroke-opacity:1"
       d="m 321.48484,155.04935 -13.52303,-3.62338 3.62338,-13.52303 13.52303,3.62338 z" />
    <path
       id="path736"
       style="fill:none;stroke:#000000;stroke-width:0.35269;stroke-linecap:butt;stroke-linejoin:miter;stroke-miterlimit:4;stroke-dasharray:none;stroke-opacity:1"
       d="m 341.35547,159.77844 -12.12427,-7.00017 6.99982,-12.12427 12.12426,7.00017 z" />
  </g>
</svg>
