<?xml version="1.0" encoding="UTF-8" standalone="no"?>
<svg
   xmlns:dc="http://purl.org/dc/elements/1.1/"
   xmlns:cc="http://creativecommons.org/ns#"
   xmlns:rdf="http://www.w3.org/1999/02/22-rdf-syntax-ns#"
   xmlns:svg="http://www.w3.org/2000/svg"
   xmlns="http://www.w3.org/2000/svg"
   xmlns:sodipodi="http://sodipodi.sourceforge.net/DTD/sodipodi-0.dtd"
   xmlns:inkscape="http://www.inkscape.org/namespaces/inkscape"
   sodipodi:docname="top-bottom.svg"
   viewBox="0 0 1063.5838 347.45779"
   height="347.45779"
   width="1063.5839"
   xml:space="preserve"
   id="svg2"
   version="1.1"
   inkscape:version="1.0.1 (3bc2e813f5, 2020-09-07)"><metadata
     id="metadata8"><rdf:RDF><cc:Work
         rdf:about=""><dc:format>image/svg+xml</dc:format><dc:type
           rdf:resource="http://purl.org/dc/dcmitype/StillImage" /></cc:Work></rdf:RDF></metadata><defs
     id="defs6"><clipPath
       id="clipPath18"
       clipPathUnits="userSpaceOnUse"><path
         id="path16"
         d="M 0,595.276 H 841.89 V 0 H 0 Z" /></clipPath><clipPath
       id="clipPath66"
       clipPathUnits="userSpaceOnUse"><path
         id="path64"
         d="M 0,595.276 H 841.89 V 0 H 0 Z" /></clipPath><clipPath
       id="clipPath642"
       clipPathUnits="userSpaceOnUse"><path
         id="path640"
         d="M 0,595.276 H 841.89 V 0 H 0 Z" /></clipPath></defs><sodipodi:namedview
     id="namedview4"
     inkscape:window-height="2082"
     inkscape:window-width="3840"
     inkscape:pageshadow="2"
     inkscape:pageopacity="0"
     guidetolerance="10"
     gridtolerance="10"
     objecttolerance="10"
     borderopacity="1"
     bordercolor="#666666"
     pagecolor="#ffffff"
     inkscape:document-rotation="0"
     showgrid="false"
     inkscape:zoom="1.732302"
     inkscape:cx="713.17299"
     inkscape:cy="290.12481"
     inkscape:window-x="2560"
     inkscape:window-y="48"
     inkscape:window-maximized="1"
     inkscape:current-layer="g10" /><g
     transform="matrix(1.3333333,0,0,-1.3333333,-23.374966,768.77728)"
     inkscape:label="top-bottom"
     inkscape:groupmode="layer"
     id="g10"><path
       id="path158"
       style="fill:none;stroke:#000000;stroke-width:0.99975;stroke-linecap:round;stroke-linejoin:round;stroke-miterlimit:4;stroke-dasharray:none;stroke-opacity:1"
       d="m 359.0254,318.733 c 0.002,0.005 0.005,0.009 0.005,0.0156 l 37.49405,65.0055 c 0.43205,0.75395 0.65405,1.60795 0.6421,2.47865 l -2e-4,168.5892 c 7.5e-4,0.7805 -0.63325,1.4155 -1.41775,1.41795 h -55.98595 l 0.003,-0.002 c -0.783,0 -1.417,0.635 -1.42015,1.4199 v 3.5435 c 0.003,0.7796 -0.63085,1.4146 -1.4141,1.4175 l -51.02495,-5e-5 c -0.7807,-0.003 -1.4157,0.63205 -1.4179,1.418 v 4.2505 c 0.002,0.78055 -0.6328,1.41455 -1.41775,1.4175 h -51.0212 l -2.5e-4,-0.002 c -0.783,0 -1.417,0.635 -1.418,1.4194 v 3.54295 c 0.001,0.78055 -0.633,1.41555 -1.4177,1.418 H 181.024 c -0.7815,-0.002 -1.4155,-0.63745 -1.41795,-1.418 l -2.5e-4,-3.54295 c 0.002,-0.7854 -0.6318,-1.4204 -1.41775,-1.41745 H 127.1668 c -0.7823,-0.003 -1.4163,-0.63695 -1.41775,-1.4175 l 5e-5,-10.62945 c 5e-4,-0.7859 -0.6335,-1.4199 -1.4182,-1.41745 H 19.4492 c -0.781,-0.002 -1.415,-0.63745 -1.4179,-1.41795 l -2e-4,-156.61415 c 0.0027,-0.78465 0.6377,-1.41865 1.41755,-1.41765 H 175.356 c 0.3765,-10e-4 0.7365,-0.15 1.0015,-0.41305 l 29.88635,-40.9812 c 0.26635,-0.26915 0.62635,-0.41815 1.00135,-0.4167 l 103.94735,-13.5223 c 0.63035,-0.0633 1.25235,-0.1863 1.8566,-0.36735 l 40.51625,-23.4155 c 1.803,-1.21645 4.246,-0.74045 5.46,1.05855 z"
       sodipodi:nodetypes="cccccccsccccccccsccccccccccccccccccccccc" /><path
       id="path214"
       style="fill:none;stroke:#000000;stroke-width:0.99975;stroke-linecap:butt;stroke-linejoin:miter;stroke-miterlimit:4;stroke-dasharray:none;stroke-opacity:1"
       d="m 814.7193,558.7413 v -166.545 c 0,-1.091 -1.181,-1.772 -2.126,-1.227 l -53.062,30.623 c -0.438,0.252 -0.708,0.72 -0.708,1.227 v 135.915 c 0,0.783 0.634,1.418 1.417,1.418 l 53.061,0.007 c 0.783,0 1.418,-0.635 1.418,-1.418 z" /><path
       id="path346"
       style="fill:none;stroke:#000000;stroke-width:0.99975;stroke-linecap:butt;stroke-linejoin:miter;stroke-miterlimit:4;stroke-dasharray:none;stroke-opacity:1"
       d="m 804.084,384.5108 c 1.8,-1.213 2.276,-3.656 1.0623,-5.4562 l -35.0187,-60.81975 c 0,-0.007 -0.003,-0.0105 -0.006,-0.0156 -1.213,-1.799 -3.656,-2.275 -5.45875,-1.05855 l -40.5168,23.4155 c -0.60405,0.18205 -1.22605,0.30405 -1.85635,0.36735 L 618.3424,354.4654 c -0.375,-10e-4 -0.735,0.14755 -1.00135,0.4167 l -29.8864,40.98125 c -0.26505,0.2631 -0.62505,0.4121 -1.0015,0.41305 h -155.9071 c -0.78065,-9.5e-4 -1.41565,0.63305 -1.4181,1.41815 V 554.3087 c 0.003,0.78005 0.63745,1.41505 1.4184,1.41745 H 535.428 c 0.7847,-0.002 1.4187,0.6316 1.41825,1.41745 l -2.5e-4,10.6294 c 10e-4,0.78055 0.6362,1.41455 1.4175,1.4175 h 51.02125 c 0.78595,-0.003 1.42095,0.63205 1.41845,1.41795 l -5e-5,3.54295 c 0.002,0.78005 0.63645,1.41505 1.41775,1.4175 h 48.18925 c 0.78495,-0.002 1.41895,-0.63745 1.41795,-1.41745 v -3.54295 c 10e-4,-0.78495 1.51757,-2.19659 1.418,-1.41995 l -2.5e-4,0.002 h 51.0217 c 0.78495,-0.003 1.41995,-0.63695 1.4175,-1.4175 v -4.25045 c 0.002,-0.7859 0.63745,-1.4209 1.41815,-1.418 h 51.0247 c 0.783,-0.003 1.418,-0.6379 1.41405,-1.41745 l -0.007,-143.3217 c 0.0255,-0.75115 0.3955,-1.44715 1,-1.8861 L 804.068,384.5236 c 0.008,-0.007 0.012,-0.01 0.016,-0.0128 z"
       sodipodi:nodetypes="ccccccccccccccccccccccccccsccccccccccc" /><path
       id="path646"
       style="fill:none;stroke:#000000;stroke-width:0.99975;stroke-linecap:butt;stroke-linejoin:miter;stroke-miterlimit:4;stroke-dasharray:none;stroke-opacity:1"
       d="m 70.4747,453.0655 c 1.722,0 3.118,-1.396 3.118,-3.118 0,-1.722 -1.396,-3.118 -3.118,-3.118 -1.722,0 -3.118,1.396 -3.118,3.118 0,1.722 1.396,3.118 3.118,3.118 z" /><path
       id="path650"
       style="fill:none;stroke:#000000;stroke-width:0.99975;stroke-linecap:butt;stroke-linejoin:miter;stroke-miterlimit:4;stroke-dasharray:none;stroke-opacity:1"
       d="m 70.4747,506.2149 c 1.722,0 3.118,-1.396 3.118,-3.118 0,-1.722 -1.396,-3.118 -3.118,-3.118 -1.722,0 -3.118,1.396 -3.118,3.118 0,1.722 1.396,3.118 3.118,3.118 z" /><path
       id="path654"
       style="fill:none;stroke:#000000;stroke-width:0.99975;stroke-linecap:butt;stroke-linejoin:miter;stroke-miterlimit:4;stroke-dasharray:none;stroke-opacity:1"
       d="m 285.9078,516.8448 c 1.722,0 3.118,-1.396 3.118,-3.118 0,-1.723 -1.396,-3.118 -3.118,-3.118 -1.722,0 -3.118,1.395 -3.118,3.118 0,1.722 1.396,3.118 3.118,3.118 z" /><path
       id="path658"
       style="fill:none;stroke:#000000;stroke-width:0.99975;stroke-linecap:butt;stroke-linejoin:miter;stroke-miterlimit:4;stroke-dasharray:none;stroke-opacity:1"
       d="m 193.0733,404.1671 c 1.722,0 3.118,-1.396 3.118,-3.118 0,-1.722 -1.396,-3.118 -3.118,-3.118 -1.722,0 -3.118,1.396 -3.118,3.118 0,1.722 1.396,3.118 3.118,3.118 z" /><path
       id="path662"
       style="fill:none;stroke:#000000;stroke-width:0.99975;stroke-linecap:butt;stroke-linejoin:miter;stroke-miterlimit:4;stroke-dasharray:none;stroke-opacity:1"
       d="m 324.8843,382.1983 c 1.722,0 3.118,-1.396 3.118,-3.117 0,-1.723 -1.396,-3.118 -3.118,-3.118 -1.722,0 -3.118,1.395 -3.118,3.118 0,1.721 1.396,3.117 3.118,3.117 z" /><path
       id="path666"
       style="fill:none;stroke:#000000;stroke-width:0.99975;stroke-linecap:butt;stroke-linejoin:miter;stroke-miterlimit:4;stroke-dasharray:none;stroke-opacity:1"
       d="m 769.4488,425.5577 c 0,-1.723 -1.396,-3.118 -3.118,-3.118 -1.723,0 -3.118,1.395 -3.118,3.118 0,1.722 1.395,3.118 3.118,3.118 1.722,0 3.118,-1.396 3.118,-3.118 z" /><path
       id="path670"
       style="fill:none;stroke:#000000;stroke-width:0.99975;stroke-linecap:butt;stroke-linejoin:miter;stroke-miterlimit:4;stroke-dasharray:none;stroke-opacity:1"
       d="m 810.358,401.4034 c 0,-1.722 -1.396,-3.118 -3.118,-3.118 -1.722,0 -3.118,1.396 -3.118,3.118 0,1.723 1.396,3.118 3.118,3.118 1.722,0 3.118,-1.395 3.118,-3.118 z" /><path
       id="path674"
       style="fill:none;stroke:#000000;stroke-width:0.99975;stroke-linecap:butt;stroke-linejoin:miter;stroke-miterlimit:4;stroke-dasharray:none;stroke-opacity:1"
       d="m 484.69,502.5831 c 0,-1.722 -1.396,-3.118 -3.118,-3.118 -1.722,0 -3.118,1.396 -3.118,3.118 0,1.723 1.396,3.118 3.118,3.118 1.722,0 3.118,-1.395 3.118,-3.118 z" /><path
       id="path678"
       style="fill:none;stroke:#000000;stroke-width:0.99975;stroke-linecap:butt;stroke-linejoin:miter;stroke-miterlimit:4;stroke-dasharray:none;stroke-opacity:1"
       d="m 481.5718,452.5518 c 1.722,0 3.118,-1.396 3.118,-3.118 0,-1.722 -1.396,-3.118 -3.118,-3.118 -1.722,0 -3.118,1.396 -3.118,3.118 0,1.722 1.396,3.118 3.118,3.118 z" /><path
       id="path682"
       style="fill:none;stroke:#000000;stroke-width:0.99975;stroke-linecap:butt;stroke-linejoin:miter;stroke-miterlimit:4;stroke-dasharray:none;stroke-opacity:1"
       d="m 697.0045,516.3312 c 1.723,0 3.118,-1.396 3.118,-3.118 0,-1.723 -1.395,-3.118 -3.118,-3.118 -1.722,0 -3.118,1.395 -3.118,3.118 0,1.722 1.396,3.118 3.118,3.118 z" /><path
       id="path686"
       style="fill:none;stroke:#000000;stroke-width:0.99975;stroke-linecap:butt;stroke-linejoin:miter;stroke-miterlimit:4;stroke-dasharray:none;stroke-opacity:1"
       d="m 604.1705,403.6534 c 1.722,0 3.118,-1.396 3.118,-3.118 0,-1.722 -1.396,-3.117 -3.118,-3.117 -1.723,0 -3.118,1.395 -3.118,3.117 0,1.722 1.395,3.118 3.118,3.118 z" /><path
       id="path690"
       style="fill:none;stroke:#000000;stroke-width:0.99975;stroke-linecap:butt;stroke-linejoin:miter;stroke-miterlimit:4;stroke-dasharray:none;stroke-opacity:1"
       d="m 735.981,381.6856 c 1.723,0 3.118,-1.396 3.118,-3.118 0,-1.723 -1.395,-3.118 -3.118,-3.118 -1.722,0 -3.118,1.395 -3.118,3.118 0,1.722 1.396,3.118 3.118,3.118 z" /><path
       id="path692"
       style="fill:none;stroke:#000000;stroke-width:0.99975;stroke-linecap:butt;stroke-linejoin:miter;stroke-miterlimit:4;stroke-dasharray:none;stroke-opacity:1"
       d="M 474.51,510.025 H 434.825 V 549.71 H 474.51 Z" /><path
       id="path694"
       style="fill:none;stroke:#000000;stroke-width:0.99975;stroke-linecap:butt;stroke-linejoin:miter;stroke-miterlimit:4;stroke-dasharray:none;stroke-opacity:1"
       d="m 474.51,456.167 h -39.685 v 39.685 h 39.685 z" /><path
       id="path696"
       style="fill:none;stroke:#000000;stroke-width:0.99975;stroke-linecap:butt;stroke-linejoin:miter;stroke-miterlimit:4;stroke-dasharray:none;stroke-opacity:1"
       d="m 474.51,402.309 h -39.685 v 39.685 h 39.685 z" /><path
       id="path698"
       style="fill:none;stroke:#000000;stroke-width:0.99975;stroke-linecap:butt;stroke-linejoin:miter;stroke-miterlimit:4;stroke-dasharray:none;stroke-opacity:1"
       d="m 528.363,510.027 h -39.685 v 39.685 h 39.685 z" /><path
       id="path700"
       style="fill:none;stroke:#000000;stroke-width:0.99975;stroke-linecap:butt;stroke-linejoin:miter;stroke-miterlimit:4;stroke-dasharray:none;stroke-opacity:1"
       d="m 528.363,456.169 h -39.685 v 39.685 h 39.685 z" /><path
       id="path702"
       style="fill:none;stroke:#000000;stroke-width:0.99975;stroke-linecap:butt;stroke-linejoin:miter;stroke-miterlimit:4;stroke-dasharray:none;stroke-opacity:1"
       d="m 528.363,402.311 h -39.685 v 39.685 h 39.685 z" /><path
       id="path704"
       style="fill:none;stroke:#000000;stroke-width:0.99975;stroke-linecap:butt;stroke-linejoin:miter;stroke-miterlimit:4;stroke-dasharray:none;stroke-opacity:1"
       d="m 582.222,523.477 h -39.685 v 39.686 h 39.685 z" /><path
       id="path706"
       style="fill:none;stroke:#000000;stroke-width:0.99975;stroke-linecap:butt;stroke-linejoin:miter;stroke-miterlimit:4;stroke-dasharray:none;stroke-opacity:1"
       d="m 582.222,469.618 h -39.685 v 39.686 h 39.685 z" /><path
       id="path708"
       style="fill:none;stroke:#000000;stroke-width:0.99975;stroke-linecap:butt;stroke-linejoin:miter;stroke-miterlimit:4;stroke-dasharray:none;stroke-opacity:1"
       d="m 582.222,415.761 h -39.685 v 39.685 h 39.685 z" /><path
       id="path710"
       style="fill:none;stroke:#000000;stroke-width:0.99975;stroke-linecap:butt;stroke-linejoin:miter;stroke-miterlimit:4;stroke-dasharray:none;stroke-opacity:1"
       d="m 636.086,530.22 h -39.685 v 39.686 h 39.685 z" /><path
       id="path712"
       style="fill:none;stroke:#000000;stroke-width:0.99975;stroke-linecap:butt;stroke-linejoin:miter;stroke-miterlimit:4;stroke-dasharray:none;stroke-opacity:1"
       d="m 636.086,476.362 h -39.685 v 39.685 h 39.685 z" /><path
       id="path714"
       style="fill:none;stroke:#000000;stroke-width:0.99975;stroke-linecap:butt;stroke-linejoin:miter;stroke-miterlimit:4;stroke-dasharray:none;stroke-opacity:1"
       d="m 636.086,422.504 h -39.685 v 39.685 h 39.685 z" /><path
       id="path716"
       style="fill:none;stroke:#000000;stroke-width:0.99975;stroke-linecap:butt;stroke-linejoin:miter;stroke-miterlimit:4;stroke-dasharray:none;stroke-opacity:1"
       d="m 689.948,523.489 h -39.686 v 39.685 h 39.686 z" /><path
       id="path718"
       style="fill:none;stroke:#000000;stroke-width:0.99975;stroke-linecap:butt;stroke-linejoin:miter;stroke-miterlimit:4;stroke-dasharray:none;stroke-opacity:1"
       d="m 689.948,469.631 h -39.686 v 39.685 h 39.686 z" /><path
       id="path720"
       style="fill:none;stroke:#000000;stroke-width:0.99975;stroke-linecap:butt;stroke-linejoin:miter;stroke-miterlimit:4;stroke-dasharray:none;stroke-opacity:1"
       d="m 689.948,415.773 h -39.686 v 39.685 h 39.686 z" /><path
       id="path722"
       style="fill:none;stroke:#000000;stroke-width:0.99975;stroke-linecap:butt;stroke-linejoin:miter;stroke-miterlimit:4;stroke-dasharray:none;stroke-opacity:1"
       d="m 743.811,516.729 h -39.686 v 39.686 h 39.686 z" /><path
       id="path724"
       style="fill:none;stroke:#000000;stroke-width:0.99975;stroke-linecap:butt;stroke-linejoin:miter;stroke-miterlimit:4;stroke-dasharray:none;stroke-opacity:1"
       d="m 743.811,462.87 h -39.686 v 39.686 h 39.686 z" /><path
       id="path726"
       style="fill:none;stroke:#000000;stroke-width:0.99975;stroke-linecap:butt;stroke-linejoin:miter;stroke-miterlimit:4;stroke-dasharray:none;stroke-opacity:1"
       d="m 743.811,409.013 h -39.686 v 39.685 h 39.686 z" /><path
       id="path728"
       style="fill:none;stroke:#000000;stroke-width:0.99975;stroke-linecap:butt;stroke-linejoin:miter;stroke-miterlimit:4;stroke-dasharray:none;stroke-opacity:1"
       d="m 663.071,360.049 h -39.686 v 39.686 h 39.686 z" /><path
       id="path732"
       style="fill:none;stroke:#000000;stroke-width:0.99975;stroke-linecap:butt;stroke-linejoin:miter;stroke-miterlimit:4;stroke-dasharray:none;stroke-opacity:1"
       d="m 716.6802,347.9073 -38.333,10.271 10.271,38.333 38.333,-10.271 z" /><path
       id="path736"
       style="fill:none;stroke:#000000;stroke-width:0.99975;stroke-linecap:butt;stroke-linejoin:miter;stroke-miterlimit:4;stroke-dasharray:none;stroke-opacity:1"
       d="m 773.0064,334.502 -34.368,19.843 19.842,34.368 34.368,-19.843 z" /></g></svg>
